<svg width="1434" height="1975" viewBox="0 0 1434 1975" fill="none" xmlns="http://www.w3.org/2000/svg">
<path d="M717 0V182.942C717 193.988 708.046 202.942 697 202.942L23 202.942C11.9543 202.942 3 211.896 3 222.942V728.402C3 739.448 11.9543 748.402 23 748.402H1411C1422.05 748.402 1431 757.357 1431 768.402V1278.64C1431 1289.69 1422.05 1298.64 1411 1298.64H23C11.9543 1298.64 3 1307.6 3 1318.64V1825.17C3 1836.21 11.9543 1845.17 23 1845.17H697C708.046 1845.17 717 1854.12 717 1865.17V1975" stroke="#BD00FF" stroke-width="6"/>
</svg>
