<svg xmlns="http://www.w3.org/2000/svg" version="1.1" xmlns:xlink="http://www.w3.org/1999/xlink" xmlns:svgjs="http://svgjs.com/svgjs" width="512" height="512" x="0" y="0" viewBox="0 0 64 64" style="enable-background:new 0 0 512 512" xml:space="preserve" class=""><g><path fill="#969faa" d="M32.68 10H2V6c0-2.21 1.79-4 4-4h26a3.99 3.99 0 0 1 3.9 3.14A12.107 12.107 0 0 0 32.68 10zM36 54v4c0 2.21-1.79 4-4 4H6c-2.21 0-4-1.79-4-4v-4c0 2.21 1.79 4 4 4h26c2.21 0 4-1.79 4-4z" data-original="#969faa"></path><path fill="#69d6f4" d="M36 10H2v44c0 2.21 1.79 4 4 4h26c2.21 0 4-1.79 4-4z" data-original="#69d6f4" class=""></path><circle cx="44" cy="14" r="12" fill="#4fc1e9" data-original="#4fc1e9" class=""></circle><circle cx="60" cy="27" r="2" fill="#ff826e" data-original="#ff826e" class=""></circle><circle cx="60" cy="37" r="2" fill="#ff826e" data-original="#ff826e" class=""></circle><circle cx="60" cy="47" r="2" fill="#ff826e" data-original="#ff826e" class=""></circle><circle cx="18.93" cy="46" r="2" fill="#ff826e" data-original="#ff826e" class=""></circle><path fill="#e6e9ed" d="M27 22c2.76 0 5 2.24 5 5s-2.24 5-5 5H11c-2.76 0-5-2.24-5-5 0-2.5 1.84-4.56 4.24-4.92C11.11 18.59 14.25 16 18 16c3.79 0 6.95 2.63 7.78 6.17.39-.1.8-.17 1.22-.17z" data-original="#e6e9ed"></path><path d="M15 53h10v2H15z" fill="#000000" data-original="#000000"></path><circle cx="6" cy="6" r="1" fill="#000000" data-original="#000000"></circle><path d="M13 5h12v2H13zM27 21c-.167 0-.336.009-.51.026A8.955 8.955 0 0 0 18 15a8.977 8.977 0 0 0-8.554 6.222A5.947 5.947 0 0 0 5 27c0 3.309 2.691 6 6 6h16c3.309 0 6-2.691 6-6s-2.691-6-6-6zm0 10H11c-2.206 0-4-1.794-4-4a3.967 3.967 0 0 1 3.394-3.936l.659-.101.16-.647A6.98 6.98 0 0 1 18 17a6.967 6.967 0 0 1 6.808 5.396l.232.989.985-.248c.371-.094.68-.137.975-.137 2.206 0 4 1.794 4 4s-1.794 4-4 4zM15.929 46c0 1.654 1.346 3 3 3s3-1.346 3-3-1.346-3-3-3-3 1.346-3 3zm4 0a1 1 0 1 1-2 0 1 1 0 0 1 2 0zM23.879 41.051C22.557 39.729 20.799 39 18.929 39s-3.628.729-4.949 2.051l1.414 1.414A4.968 4.968 0 0 1 18.929 41c1.336 0 2.592.521 3.536 1.465z" fill="#000000" data-original="#000000"></path><path d="m11.15 38.222 1.414 1.414c3.51-3.51 9.219-3.51 12.729 0l1.414-1.414c-4.289-4.289-11.268-4.289-15.557 0z" fill="#000000" data-original="#000000"></path><path d="M57.184 38A2.996 2.996 0 0 0 60 40c1.654 0 3-1.346 3-3s-1.346-3-3-3a2.996 2.996 0 0 0-2.816 2H37v-2h9.414l6-6h4.77A2.996 2.996 0 0 0 60 30c1.654 0 3-1.346 3-3s-1.346-3-3-3a2.996 2.996 0 0 0-2.816 2h-5.598l-6 6H37v-7.063A12.905 12.905 0 0 0 44 27c7.168 0 13-5.832 13-13S51.168 1 44 1c-2.871 0-5.519.947-7.673 2.53C35.454 2.009 33.818 1 32 1H6C3.243 1 1 3.243 1 6v52c0 2.757 2.243 5 5 5h26c2.757 0 5-2.243 5-5V42h8.586l6 6h5.598A2.996 2.996 0 0 0 60 50c1.654 0 3-1.346 3-3s-1.346-3-3-3a2.996 2.996 0 0 0-2.816 2h-4.77l-6-6H37v-2zM60 36a1 1 0 1 1 0 2 1 1 0 0 1 0-2zm0-10a1 1 0 1 1 0 2 1 1 0 0 1 0-2zm0 20a1 1 0 1 1 0 2 1 1 0 0 1 0-2zM40.286 3.659c-.554.919-1.023 2.046-1.391 3.341h-3.373a11.037 11.037 0 0 1 4.764-3.341zM47.009 7H40.99c.79-2.473 1.935-4 3.01-4s2.22 1.527 3.009 4zm7.94 6h-4.971a27.425 27.425 0 0 0-.409-4h4.216a10.88 10.88 0 0 1 1.164 4zM44 25c-1.075 0-2.22-1.527-3.009-4h6.019c-.79 2.473-1.935 4-3.01 4zm-3.519-6a24.797 24.797 0 0 1-.46-4h7.958a24.91 24.91 0 0 1-.46 4zm9.497-4h4.971a10.9 10.9 0 0 1-1.164 4h-4.216c.225-1.237.364-2.581.409-4zm-1.999-2h-7.958a24.91 24.91 0 0 1 .46-4h7.038c.244 1.209.408 2.553.46 4zM34.214 9h4.216a27.425 27.425 0 0 0-.409 4H33.05a10.92 10.92 0 0 1 1.164-4zm3.808 6c.046 1.419.184 2.763.409 4h-4.216a10.92 10.92 0 0 1-1.164-4zm.873 6c.368 1.295.837 2.422 1.391 3.341A11.029 11.029 0 0 1 35.522 21zm8.819 3.341c.553-.919 1.023-2.046 1.391-3.341h3.373a11.037 11.037 0 0 1-4.764 3.341zM52.479 7h-3.373c-.368-1.295-.837-2.422-1.391-3.341A11.049 11.049 0 0 1 52.479 7zM6 3h26c1.222 0 2.314.757 2.77 1.858A13.046 13.046 0 0 0 32.003 9H3V6c0-1.654 1.346-3 3-3zm26 58H6c-1.654 0-3-1.346-3-3v-.026A4.948 4.948 0 0 0 6 59h26c1.13 0 2.162-.391 3-1.026V58c0 1.654-1.346 3-3 3zm0-4H6c-1.654 0-3-1.346-3-3V11h28.363A12.961 12.961 0 0 0 31 14c0 3.675 1.54 6.992 4 9.359V54c0 1.654-1.346 3-3 3z" fill="#000000" data-original="#000000"></path></g></svg>