<svg id="_6._Diamond" height="512" viewBox="0 0 32 32" width="512" xmlns="http://www.w3.org/2000/svg"><path d="m21.625 25-5.625 6-15-16 4-8h22l4 8z" fill="#7db7fd"/><g><path d="m31.895 14.553-4-8c-.169-.339-.516-.553-.895-.553h-22c-.379 0-.725.214-.895.553l-4 8c-.187.375-.121.826.165 1.131l15.001 16c.189.202.453.316.729.316s.541-.114.729-.316l6.562-7c.378-.403.357-1.036-.045-1.414-.403-.378-1.037-.358-1.414.045l-3.574 3.813 3.481-11.129h6.952l-4.046 4.316c-.378.403-.357 1.036.045 1.414s1.036.357 1.414-.045l5.625-6c.286-.306.352-.757.165-1.131zm-20.975-1.323-3.92-5.23h7.194zm5.08-4.34 3.2 5.11h-6.4zm-2.259 18.239-10.433-11.129h6.952zm-8.57-18.234 3.829 5.105h-6.382zm10.829 18.755-3.64-11.65h7.28zm5.08-14.42-3.274-5.23h7.194zm5.749-4.335 2.553 5.105h-6.382z"/><path d="m16 4c.552 0 1-.448 1-1v-2c0-.552-.448-1-1-1s-1 .448-1 1v2c0 .552.448 1 1 1z"/><path d="m10.293 3.707c.195.195.451.293.707.293s.512-.098.707-.293c.391-.391.391-1.023 0-1.414l-1-1c-.391-.391-1.023-.391-1.414 0s-.391 1.023 0 1.414z"/><path d="m21 4c.256 0 .512-.098.707-.293l1-1c.391-.391.391-1.023 0-1.414s-1.023-.391-1.414 0l-1 1c-.391.391-.391 1.023 0 1.414.195.195.451.293.707.293z"/></g></svg>