<svg enable-background="new 0 0 64 64" height="512" viewBox="0 0 64 64" width="512" xmlns="http://www.w3.org/2000/svg"><g id="thrifty"><g><g><path clip-rule="evenodd" d="m39.6499 31.9093c5.4-2.286 9.1231-6.9743 9.1231-12.3504v-13.5516h-33.1251v13.5516c0 5.3762 3.7197 10.0644 9.1197 12.3504z" fill="#f5f5f5" fill-rule="evenodd"/></g><g><path clip-rule="evenodd" d="m24.8565 32.053c-5.4479 2.2723-9.2087 6.9777-9.2087 12.3847v5.2427c13.647-2.4194 21.0386 8.3123 33.1252 0v-5.2427c0-5.407-3.7642-10.1124-9.2087-12.3847z" fill="#f5f5f5" fill-rule="evenodd"/></g><g><path clip-rule="evenodd" d="m48.7731 49.6804c-11.9702 3.9081-19.3173-8.4116-33.1252 0v7.1043h33.1252z" fill="#ffca28" fill-rule="evenodd"/></g><g fill="#757575"><path clip-rule="evenodd" d="m15.6479 7.2119h33.1252 1.3859c.6878 0 1.249-.5612 1.249-1.2457v-2.7205c0-.6845-.5612-1.2457-1.249-1.2457h-35.9005c-.6844 0-1.2456.5612-1.2456 1.2457v2.7206c0 .6844.5612 1.2457 1.2456 1.2457h1.3894z" fill-rule="evenodd"/><path d="m50.1592 8.2119h-35.9009c-1.2383 0-2.2456-1.0078-2.2456-2.2461v-2.7197c0-1.2383 1.0073-2.2461 2.2456-2.2461h35.9009c1.2402 0 2.249 1.0078 2.249 2.2461v2.7197c0 1.2383-1.0088 2.2461-2.249 2.2461zm-35.9009-5.2119c-.1309 0-.2456.1152-.2456.2461v2.7197c0 .1309.1147.2461.2456.2461h35.9009c.1348 0 .249-.1123.249-.2461v-2.7197c0-.1338-.1143-.2461-.249-.2461z"/></g><g><path clip-rule="evenodd" d="m48.7731 56.7847h-33.1252-1.8103c-.6844 0-1.2456.5612-1.2456 1.2491v2.7172c0 .6878.5612 1.2491 1.2456 1.2491h35.9005c.6878 0 1.249-.5612 1.249-1.2491v-2.7172c0-.6878-.5612-1.2491-1.249-1.2491z" fill="#757575" fill-rule="evenodd"/></g><g><path clip-rule="evenodd" d="m44.3279 50.4606v6.3241h4.4452v-7.1043c-1.5502.5064-3.0251.7391-4.4452.7802z" fill="#ffb300" fill-rule="evenodd"/></g><g><path clip-rule="evenodd" d="m44.3279 50.4606c1.4201-.0411 2.895-.2738 4.4452-.7802v-5.2427c0-5.407-3.7642-10.1124-9.2087-12.3847 2.2175 1.1122 4.7635 6.2591 4.7635 12.3847v5.2427z" fill="#e0e0e0" fill-rule="evenodd"/></g><g><path clip-rule="evenodd" d="m32.2105 18.741c-4.7977 0-8.6851 3.8875-8.6851 8.6853 0 1.6392.4517 3.1723 1.2422 4.483.9171 1.5228 2.2859 2.7343 3.9114 3.4563 1.0779.4791 2.2722.746 3.5315.746 1.2559 0 2.4502-.2669 3.5281-.746 1.581-.705 2.9121-1.8651 3.8258-3.3126.8726-1.386 1.3312-2.9875 1.3312-4.6267 0-4.7978-3.8875-8.6853-8.6851-8.6853z" fill="#ffca28" fill-rule="evenodd"/></g><g><path clip-rule="evenodd" d="m39.6499 31.9093c5.4-2.286 9.1231-6.9743 9.1231-12.3504v-12.347h-4.8387v10.5367c0 2.2791 1.0608 9.1268-4.2844 14.1607z" fill="#e0e0e0" fill-rule="evenodd"/></g><g><path clip-rule="evenodd" d="m29.8869 19.0558c3.8532.8863 6.7277 4.3392 6.7277 8.4629 0 1.5468-.4072 3.0594-1.1909 4.3906-.0171.0308-.0342.0582-.0513.089-.0103.0171-.024.0376-.0342.0548-.0171.0308-.0376.0616-.0582.0924-.9137 1.4476-2.2414 2.6077-3.8224 3.3126-.3867.1745-.7905.3183-1.208.4346.6297.1437 1.2867.219 1.9608.219 1.2559 0 2.4502-.2669 3.5281-.746 1.581-.705 2.9121-1.8651 3.8258-3.3126 0-.0068.0034-.0103.0068-.0137.0274-.0445.0548-.0856.0787-.13.2943-.4859.5373-.9958.7289-1.5228 0-.0034 0-.0068.0034-.0068.3388-.9411.5133-1.9403.5133-2.9533 0-4.7978-3.8874-8.6853-8.6851-8.6853-.804-.0002-1.5842.1093-2.3234.3146z" fill="#ffb300" fill-rule="evenodd"/></g><g><path clip-rule="evenodd" d="m48.7731 7.2119h1.3859c.6878 0 1.249-.5612 1.249-1.2457v-2.7205c0-.6845-.5612-1.2457-1.249-1.2457h-4.4418c.6844 0 1.2456.5612 1.2456 1.2457v2.7206c0 .6844-.5612 1.2457-1.2456 1.2457h3.0559z" fill="#616161" fill-rule="evenodd"/></g><g><path clip-rule="evenodd" d="m48.7731 56.7847h-3.4768c.6844 0 1.2456.5612 1.2456 1.2491v2.7172c0 .6878-.5612 1.2491-1.2456 1.2491h4.4418c.6878 0 1.249-.5612 1.249-1.2491v-2.7172c0-.6878-.5612-1.2491-1.249-1.2491z" fill="#616161" fill-rule="evenodd"/></g><g><path d="m22.9775 49.8408c-.5488.0645-.9409.5615-.8765 1.1104.0601.5088.4917.8828.9917.8828.0391 0 .0786-.002.1182-.0068l.0581-.0068c.5488-.0645.9121-.5576.8472-1.1064-.0644-.549-.5908-.9406-1.1387-.8732z"/><path d="m28.0215 52.2051c-.5488.0645-.9409.5615-.8765 1.1104.0601.5088.4917.8828.9917.8828.0391 0 .0786-.002.1182-.0068l.0581-.0068c.5488-.0645.9121-.5576.8472-1.1064-.0645-.549-.5943-.9455-1.1387-.8732z"/><path d="m36.2275 51.7676c-.5488.0645-.9409.5615-.8765 1.1104.0601.5088.4917.8828.9917.8828.0391 0 .0786-.002.1182-.0068l.0581-.0068c.5488-.0645.9121-.5576.8472-1.1064-.0644-.549-.5884-.9435-1.1387-.8732z"/><path d="m43.1245 52.6201c-.5518.0283-.9761.498-.9482 1.0498.0269.5342.4688.9492.9976.9492.0171 0 .0342 0 .0513-.001l.0581-.0029c.5518-.0283.9473-.4961.9194-1.0479s-.544-.9784-1.0782-.9472z"/><path d="m49.7729 19.5586v-11.3467h.3862c1.2402 0 2.249-1.0078 2.249-2.2461v-2.7197c.0001-1.2383-1.0087-2.2461-2.2489-2.2461h-35.9009c-1.2383 0-2.2456 1.0078-2.2456 2.2461v2.7197c0 1.2383 1.0073 2.2461 2.2456 2.2461h.3896v11.3467c0 5.0887 3.0358 9.7153 8.0288 12.4406-4.995 2.7249-8.0288 7.3447-8.0288 12.4383v11.3477h-.8105c-1.2383 0-2.2456 1.0088-2.2456 2.249v2.7168c0 1.2402 1.0073 2.249 2.2456 2.249h35.9009c1.2402 0 2.249-1.0088 2.249-2.249v-2.7168c0-1.2283-.9905-2.2265-2.2144-2.2455v-11.3512c0-5.0935-3.035-9.7142-8.0318-12.4385 4.9947-2.7261 8.0318-7.3525 8.0318-12.4404zm-35.5146-13.3467c-.1309 0-.2456-.1152-.2456-.2461v-2.7197c0-.1309.1147-.2461.2456-.2461h35.9009c.1348 0 .249.1123.249.2461v2.7197c0 .1338-.1143.2461-.249.2461zm2.3896 44.0501c7.1304-4.1337 12.3408-2.4821 17.8462-.72 2.9751.9531 6.0181 1.9277 9.3647 1.9277 1.2573 0 2.5582-.1398 3.9141-.4681v4.7836h-31.125zm33.3394 7.7722v2.7168c0 .1348-.1143.249-.249.249h-35.9009c-.1333 0-.2456-.1143-.2456-.249v-2.7168c0-.1348.1123-.249.2456-.249h35.9009c.1347 0 .249.1142.249.249zm-2.2144-13.5967v4.4949c-4.6218 1.2747-8.5369.0286-12.6689-1.2947-5.4414-1.742-11.0571-3.5406-18.4561.3289v-3.5291c0-4.6339 3.0015-8.839 7.8795-11.1379.8454 1.1031 1.9161 2.023 3.1513 2.6801v3.2869c0 .5527.4478 1 1 1s1-.4473 1-1v-2.5025c.4973.135 1.0063.2413 1.5317.2954v5.9171c0 .5527.4478 1 1 1s1-.4473 1-1v-5.9171c.5242-.054 1.032-.1599 1.5283-.2945v2.5016c0 .5527.4478 1 1 1s1-.4473 1-1v-3.2852c1.2363-.657 2.3081-1.5772 3.1541-2.681 4.8786 2.2982 7.8801 6.5029 7.8801 11.1371zm-23.2475-17.0107c0-4.2383 3.4473-7.6855 7.6851-7.6855s7.6851 3.4473 7.6851 7.6855c0 4.2373-3.4473 7.6846-7.6851 7.6846s-7.6851-3.4473-7.6851-7.6846zm17.0716 2.3425c.1878-.7517.2985-1.5336.2985-2.3426 0-5.3408-4.3447-9.6855-9.6851-9.6855s-9.6851 4.3447-9.6851 9.6855c0 .8098.1109 1.5925.2991 2.3448-3.8605-2.409-6.1765-6.1495-6.1765-10.213v-11.3466h31.125v11.3467c0 4.0616-2.3155 7.801-6.1759 10.2107z"/><path d="m32.1792 30.7861c-.9004 0-1.4307-.4736-1.4932-1.334-.0405-.5508-.5195-.9717-1.0703-.9248-.5508.04-.9648.5186-.9248 1.0693.1146 1.5724 1.0932 2.7051 2.5195 3.0604v.6417c0 .5527.4478 1 1 1s1-.4473 1-1v-.6391c1.4898-.345 2.4707-1.4341 2.4707-2.9 0-1.082-.436-2.959-3.3184-3.3623-1.4521-.2598-1.5117-.8584-1.4502-1.4531.1172-.7549 1.0059-.9648 1.5352-.9404.3599.0254.9644.1631.9731.8008.0078.5527.4292.9844 1.0142.9863.5522-.0078.9937-.4619.9858-1.0137-.0191-1.3391-.8843-2.3528-2.2104-2.6718v-.5479c0-.5527-.4478-1-1-1s-1 .4473-1 1v.6196c-1.1006.3344-2.0721 1.1611-2.2808 2.5093-.1206 1.1465.1196 3.1494 3.1182 3.6855 1.5073.2109 1.6333.8271 1.6333 1.3877.0001.9845-1.2695 1.005-1.5019 1.0265z"/></g></g></g></svg>