<svg width="1600" height="800" viewBox="0 0 1600 800" fill="none" xmlns="http://www.w3.org/2000/svg">
<g clip-path="url(#clip0_90_136)">
<rect width="1600" height="800" fill="white"/>
<rect width="1600" height="800" fill="url(#paint0_diamond_90_136)"/>
<g filter="url(#filter0_f_90_136)">
<path d="M603.688 353.146C355.688 396.646 32.6875 64.146 24.1875 52.646C-42.1458 58.9792 -143.113 41.0459 -16.3125 -81.3541C142.187 -234.354 556.192 -84.0105 603.688 -55.354C782.688 52.646 851.688 309.646 603.688 353.146Z" fill="url(#paint1_linear_90_136)" fill-opacity="0.1"/>
</g>
<g filter="url(#filter1_f_90_136)">
<path d="M1417.01 326.56C1598.59 568.214 1418.72 1094.85 1411.05 1110.21C1453.94 1177.73 1489.74 1295.52 1289.73 1226.51C1039.73 1140.23 975.15 615.417 979.948 548.997C998.03 298.673 1235.43 84.9068 1417.01 326.56Z" fill="white" fill-opacity="0.2"/>
</g>
<rect width="1600" height="800" fill="white" fill-opacity="0.2"/>
<path d="M299 401H677" stroke="#DFDFDF" stroke-width="8" stroke-dasharray="10 10"/>
<path d="M1161 249.5L922.5 389.5V412L1166.5 571.5L1161 249.5Z" fill="url(#paint2_linear_90_136)"/>
<mask id="mask0_90_136" style="mask-type:alpha" maskUnits="userSpaceOnUse" x="667" y="237" width="266" height="266">
<g clip-path="url(#clip1_90_136)">
<path d="M800 424.546C812.89 424.546 823.377 414.059 823.377 401.169C823.377 388.279 812.89 377.792 800 377.792C787.11 377.792 776.623 388.279 776.623 401.169C776.623 414.059 787.11 424.546 800 424.546ZM800 393.377C804.297 393.377 807.792 396.873 807.792 401.169C807.792 405.466 804.297 408.962 800 408.962C795.703 408.962 792.208 405.466 792.208 401.169C792.208 396.873 795.703 393.377 800 393.377Z" fill="#D9D9D9"/>
<path d="M708.332 438.704C738.529 460.028 770.227 471.3 800 471.3C829.773 471.3 861.471 460.028 891.668 438.704C914.256 422.752 928.025 406.929 928.6 406.263L933.001 401.169L928.6 396.076C928.025 395.41 914.256 379.586 891.668 363.635C861.471 342.31 829.773 331.038 800 331.038C770.227 331.038 738.529 342.31 708.332 363.635C685.745 379.586 671.975 395.41 671.4 396.076L667 401.169L671.4 406.263C671.975 406.929 685.744 422.752 708.332 438.704ZM882.356 376.138C896.015 385.746 906.359 395.461 912 401.169C906.359 406.878 896.015 416.592 882.356 426.201C875.434 431.069 867.111 436.273 857.733 440.936C865.546 429.627 870.131 415.925 870.131 401.169C870.131 386.414 865.546 372.711 857.733 361.402C867.111 366.066 875.434 371.27 882.356 376.138ZM800 346.623C830.051 346.623 854.546 371.07 854.546 401.169C854.546 431.223 830.098 455.716 800 455.716C769.949 455.716 745.454 431.269 745.454 401.169C745.454 371.092 769.923 346.623 800 346.623ZM742.28 361.385C734.458 372.697 729.869 386.406 729.869 401.169C729.869 415.925 734.454 429.627 742.267 440.936C732.889 436.273 724.566 431.07 717.644 426.201C703.986 416.593 693.642 406.88 688.002 401.172C693.381 395.739 703.044 386.666 715.842 377.463C723.591 371.891 732.488 366.272 742.28 361.385Z" fill="#D9D9D9"/>
<path d="M792.208 268.7H807.793V307.661H792.208V268.7Z" fill="#D9D9D9"/>
<path d="M839.725 312.03L855.302 280.876L869.234 287.842L853.657 318.996L839.725 312.03Z" fill="#D9D9D9"/>
<path d="M887.273 341.948L910.65 310.778L923.118 320.129L899.741 351.298L887.273 341.948Z" fill="#D9D9D9"/>
<path d="M730.651 287.765L744.584 280.798L760.161 311.953L746.229 318.919L730.651 287.765Z" fill="#D9D9D9"/>
<path d="M676.881 320.129L689.349 310.778L712.726 341.948L700.258 351.298L676.881 320.129Z" fill="#D9D9D9"/>
</g>
</mask>
<g mask="url(#mask0_90_136)">
<rect x="665" y="249" width="268" height="268" fill="black"/>
<rect x="665" y="249" width="268" height="268" fill="url(#paint3_radial_90_136)"/>
</g>
<rect x="170.5" y="239.5" width="303" height="339" rx="17.5" fill="#303030" stroke="#B3B3B3" stroke-width="5"/>
<mask id="mask1_90_136" style="mask-type:alpha" maskUnits="userSpaceOnUse" x="206" y="260" width="247" height="316">
<rect x="206" y="260" width="247" height="316" fill="#D9D9D9"/>
</mask>
<g mask="url(#mask1_90_136)">
<rect x="239" y="295" width="172" height="303" rx="10" fill="#575757"/>
</g>
<rect x="1140.5" y="239.5" width="303" height="339" rx="17.5" fill="#303030" stroke="#B3B3B3" stroke-width="5"/>
<path d="M1297 289.25V339.25C1297 342.708 1294.21 345.5 1290.75 345.5H1203.25C1199.79 345.5 1197 342.708 1197 339.25V289.25C1197 285.792 1199.79 283 1203.25 283H1290.75C1294.21 283 1297 285.792 1297 289.25Z" fill="#90CAF9"/>
<path d="M1247 283H1203.25C1199.79 283 1197 285.792 1197 289.25V339.25C1197 342.708 1199.79 345.5 1203.25 345.5H1247V283Z" fill="#7DB0D9"/>
<path d="M1297 315.917V339.25C1297 342.708 1294.21 345.5 1290.75 345.5H1228L1228.12 345.292L1271.92 301.5C1274.25 299.163 1278 299.038 1280.5 301.246L1297 315.917Z" fill="#689F38"/>
<path d="M1275.65 299.708C1274.28 299.858 1272.96 300.463 1271.92 301.5L1228.12 345.292L1228 345.5H1275.65V299.708Z" fill="#5B8A31"/>
<path d="M1266.12 345.5H1203.25C1199.79 345.5 1197 342.708 1197 339.25V332.625L1221.79 309.708C1224.29 307.417 1228.08 307.5 1230.46 309.875L1266.12 345.5Z" fill="#8BC34A"/>
<path d="M1225.65 308.054C1224.26 308.142 1222.9 308.692 1221.79 309.708L1197 332.625V339.25C1197 342.708 1199.79 345.5 1203.25 345.5H1225.65V308.054Z" fill="#79AA40"/>
<path d="M1339.46 304.875H1358.21C1359.93 304.875 1361.33 303.475 1361.33 301.75C1361.33 300.025 1359.93 298.625 1358.21 298.625H1339.46C1337.73 298.625 1336.33 300.025 1336.33 301.75C1336.33 303.475 1337.73 304.875 1339.46 304.875Z" fill="#90A4AE"/>
<path d="M1339.46 317.375H1358.21C1359.93 317.375 1361.33 315.975 1361.33 314.25C1361.33 312.525 1359.93 311.125 1358.21 311.125H1339.46C1337.73 311.125 1336.33 312.525 1336.33 314.25C1336.33 315.975 1337.73 317.375 1339.46 317.375Z" fill="#90A4AE"/>
<path d="M1339.46 329.875H1358.21C1359.93 329.875 1361.33 328.475 1361.33 326.75C1361.33 325.025 1359.93 323.625 1358.21 323.625H1339.46C1337.73 323.625 1336.33 325.025 1336.33 326.75C1336.33 328.475 1337.73 329.875 1339.46 329.875Z" fill="#90A4AE"/>
<path d="M1372.79 304.875H1391.54C1393.27 304.875 1394.67 303.475 1394.67 301.75C1394.67 300.025 1393.27 298.625 1391.54 298.625H1372.79C1371.07 298.625 1369.67 300.025 1369.67 301.75C1369.67 303.475 1371.07 304.875 1372.79 304.875Z" fill="#90A4AE"/>
<path d="M1372.79 317.375H1391.54C1393.27 317.375 1394.67 315.975 1394.67 314.25C1394.67 312.525 1393.27 311.125 1391.54 311.125H1372.79C1371.07 311.125 1369.67 312.525 1369.67 314.25C1369.67 315.975 1371.07 317.375 1372.79 317.375Z" fill="#90A4AE"/>
<path d="M1372.79 329.875H1391.54C1393.27 329.875 1394.67 328.475 1394.67 326.75C1394.67 325.025 1393.27 323.625 1391.54 323.625H1372.79C1371.07 323.625 1369.67 325.025 1369.67 326.75C1369.67 328.475 1371.07 329.875 1372.79 329.875Z" fill="#90A4AE"/>
<path d="M1306.12 304.875H1324.88C1326.6 304.875 1328 303.475 1328 301.75C1328 300.025 1326.6 298.625 1324.88 298.625H1306.12C1304.4 298.625 1303 300.025 1303 301.75C1303 303.475 1304.4 304.875 1306.12 304.875Z" fill="#90A4AE"/>
<path d="M1306.12 317.375H1324.88C1326.6 317.375 1328 315.975 1328 314.25C1328 312.525 1326.6 311.125 1324.88 311.125H1306.12C1304.4 311.125 1303 312.525 1303 314.25C1303 315.975 1304.4 317.375 1306.12 317.375Z" fill="#90A4AE"/>
<path d="M1306.12 329.875H1324.88C1326.6 329.875 1328 328.475 1328 326.75C1328 325.025 1326.6 323.625 1324.88 323.625H1306.12C1304.4 323.625 1303 325.025 1303 326.75C1303 328.475 1304.4 329.875 1306.12 329.875Z" fill="#90A4AE"/>
<path d="M1315.5 298.625H1306.12C1304.4 298.625 1303 300.025 1303 301.75C1303 303.475 1304.4 304.875 1306.12 304.875H1315.5V298.625Z" fill="#7D8F97"/>
<path d="M1315.5 311.125H1306.12C1304.4 311.125 1303 312.525 1303 314.25C1303 315.975 1304.4 317.375 1306.12 317.375H1315.5V311.125Z" fill="#7D8F97"/>
<path d="M1315.5 323.625H1306.12C1304.4 323.625 1303 325.025 1303 326.75C1303 328.475 1304.4 329.875 1306.12 329.875H1315.5V323.625Z" fill="#7D8F97"/>
<path d="M1348.83 298.625H1339.46C1337.73 298.625 1336.33 300.025 1336.33 301.75C1336.33 303.475 1337.73 304.875 1339.46 304.875H1348.83V298.625Z" fill="#7D8F97"/>
<path d="M1348.83 311.125H1339.46C1337.73 311.125 1336.33 312.525 1336.33 314.25C1336.33 315.975 1337.73 317.375 1339.46 317.375H1348.83V311.125Z" fill="#7D8F97"/>
<path d="M1348.83 323.625H1339.46C1337.73 323.625 1336.33 325.025 1336.33 326.75C1336.33 328.475 1337.73 329.875 1339.46 329.875H1348.83V323.625Z" fill="#7D8F97"/>
<path d="M1382.17 298.625H1372.79C1371.07 298.625 1369.67 300.025 1369.67 301.75C1369.67 303.475 1371.07 304.875 1372.79 304.875H1382.17V298.625Z" fill="#7D8F97"/>
<path d="M1382.17 311.125H1372.79C1371.07 311.125 1369.67 312.525 1369.67 314.25C1369.67 315.975 1371.07 317.375 1372.79 317.375H1382.17V311.125Z" fill="#7D8F97"/>
<path d="M1382.17 323.625H1372.79C1371.07 323.625 1369.67 325.025 1369.67 326.75C1369.67 328.475 1371.07 329.875 1372.79 329.875H1382.17V323.625Z" fill="#7D8F97"/>
<path d="M1296 433.25V483.25C1296 486.708 1293.21 489.5 1289.75 489.5H1202.25C1198.79 489.5 1196 486.708 1196 483.25V433.25C1196 429.792 1198.79 427 1202.25 427H1289.75C1293.21 427 1296 429.792 1296 433.25Z" fill="#90CAF9"/>
<path d="M1246 427H1202.25C1198.79 427 1196 429.792 1196 433.25V483.25C1196 486.708 1198.79 489.5 1202.25 489.5H1246V427Z" fill="#7DB0D9"/>
<path d="M1296 459.917V483.25C1296 486.708 1293.21 489.5 1289.75 489.5H1227L1227.12 489.292L1270.92 445.5C1273.25 443.163 1277 443.038 1279.5 445.246L1296 459.917Z" fill="#689F38"/>
<path d="M1274.65 443.708C1273.28 443.858 1271.96 444.463 1270.92 445.5L1227.12 489.292L1227 489.5H1274.65V443.708Z" fill="#5B8A31"/>
<path d="M1265.12 489.5H1202.25C1198.79 489.5 1196 486.708 1196 483.25V476.625L1220.79 453.708C1223.29 451.417 1227.08 451.5 1229.46 453.875L1265.12 489.5Z" fill="#8BC34A"/>
<path d="M1224.65 452.054C1223.26 452.142 1221.9 452.692 1220.79 453.708L1196 476.625V483.25C1196 486.708 1198.79 489.5 1202.25 489.5H1224.65V452.054Z" fill="#79AA40"/>
<path d="M1338.46 448.875H1357.21C1358.93 448.875 1360.33 447.475 1360.33 445.75C1360.33 444.025 1358.93 442.625 1357.21 442.625H1338.46C1336.73 442.625 1335.33 444.025 1335.33 445.75C1335.33 447.475 1336.73 448.875 1338.46 448.875Z" fill="#90A4AE"/>
<path d="M1338.46 461.375H1357.21C1358.93 461.375 1360.33 459.975 1360.33 458.25C1360.33 456.525 1358.93 455.125 1357.21 455.125H1338.46C1336.73 455.125 1335.33 456.525 1335.33 458.25C1335.33 459.975 1336.73 461.375 1338.46 461.375Z" fill="#90A4AE"/>
<path d="M1338.46 473.875H1357.21C1358.93 473.875 1360.33 472.475 1360.33 470.75C1360.33 469.025 1358.93 467.625 1357.21 467.625H1338.46C1336.73 467.625 1335.33 469.025 1335.33 470.75C1335.33 472.475 1336.73 473.875 1338.46 473.875Z" fill="#90A4AE"/>
<path d="M1371.79 448.875H1390.54C1392.27 448.875 1393.67 447.475 1393.67 445.75C1393.67 444.025 1392.27 442.625 1390.54 442.625H1371.79C1370.07 442.625 1368.67 444.025 1368.67 445.75C1368.67 447.475 1370.07 448.875 1371.79 448.875Z" fill="#90A4AE"/>
<path d="M1371.79 461.375H1390.54C1392.27 461.375 1393.67 459.975 1393.67 458.25C1393.67 456.525 1392.27 455.125 1390.54 455.125H1371.79C1370.07 455.125 1368.67 456.525 1368.67 458.25C1368.67 459.975 1370.07 461.375 1371.79 461.375Z" fill="#90A4AE"/>
<path d="M1371.79 473.875H1390.54C1392.27 473.875 1393.67 472.475 1393.67 470.75C1393.67 469.025 1392.27 467.625 1390.54 467.625H1371.79C1370.07 467.625 1368.67 469.025 1368.67 470.75C1368.67 472.475 1370.07 473.875 1371.79 473.875Z" fill="#90A4AE"/>
<path d="M1305.12 448.875H1323.88C1325.6 448.875 1327 447.475 1327 445.75C1327 444.025 1325.6 442.625 1323.88 442.625H1305.12C1303.4 442.625 1302 444.025 1302 445.75C1302 447.475 1303.4 448.875 1305.12 448.875Z" fill="#90A4AE"/>
<path d="M1305.12 461.375H1323.88C1325.6 461.375 1327 459.975 1327 458.25C1327 456.525 1325.6 455.125 1323.88 455.125H1305.12C1303.4 455.125 1302 456.525 1302 458.25C1302 459.975 1303.4 461.375 1305.12 461.375Z" fill="#90A4AE"/>
<path d="M1305.12 473.875H1323.88C1325.6 473.875 1327 472.475 1327 470.75C1327 469.025 1325.6 467.625 1323.88 467.625H1305.12C1303.4 467.625 1302 469.025 1302 470.75C1302 472.475 1303.4 473.875 1305.12 473.875Z" fill="#90A4AE"/>
<path d="M1314.5 442.625H1305.12C1303.4 442.625 1302 444.025 1302 445.75C1302 447.475 1303.4 448.875 1305.12 448.875H1314.5V442.625Z" fill="#7D8F97"/>
<path d="M1314.5 455.125H1305.12C1303.4 455.125 1302 456.525 1302 458.25C1302 459.975 1303.4 461.375 1305.12 461.375H1314.5V455.125Z" fill="#7D8F97"/>
<path d="M1314.5 467.625H1305.12C1303.4 467.625 1302 469.025 1302 470.75C1302 472.475 1303.4 473.875 1305.12 473.875H1314.5V467.625Z" fill="#7D8F97"/>
<path d="M1347.83 442.625H1338.46C1336.73 442.625 1335.33 444.025 1335.33 445.75C1335.33 447.475 1336.73 448.875 1338.46 448.875H1347.83V442.625Z" fill="#7D8F97"/>
<path d="M1347.83 455.125H1338.46C1336.73 455.125 1335.33 456.525 1335.33 458.25C1335.33 459.975 1336.73 461.375 1338.46 461.375H1347.83V455.125Z" fill="#7D8F97"/>
<path d="M1347.83 467.625H1338.46C1336.73 467.625 1335.33 469.025 1335.33 470.75C1335.33 472.475 1336.73 473.875 1338.46 473.875H1347.83V467.625Z" fill="#7D8F97"/>
<path d="M1381.17 442.625H1371.79C1370.07 442.625 1368.67 444.025 1368.67 445.75C1368.67 447.475 1370.07 448.875 1371.79 448.875H1381.17V442.625Z" fill="#7D8F97"/>
<path d="M1381.17 455.125H1371.79C1370.07 455.125 1368.67 456.525 1368.67 458.25C1368.67 459.975 1370.07 461.375 1371.79 461.375H1381.17V455.125Z" fill="#7D8F97"/>
<path d="M1381.17 467.625H1371.79C1370.07 467.625 1368.67 469.025 1368.67 470.75C1368.67 472.475 1370.07 473.875 1371.79 473.875H1381.17V467.625Z" fill="#7D8F97"/>
<path d="M1234.46 379.875H1253.21C1254.93 379.875 1256.33 378.475 1256.33 376.75C1256.33 375.025 1254.93 373.625 1253.21 373.625H1234.46C1232.73 373.625 1231.33 375.025 1231.33 376.75C1231.33 378.475 1232.73 379.875 1234.46 379.875Z" fill="#90A4AE"/>
<path d="M1234.46 392.375H1253.21C1254.93 392.375 1256.33 390.975 1256.33 389.25C1256.33 387.525 1254.93 386.125 1253.21 386.125H1234.46C1232.73 386.125 1231.33 387.525 1231.33 389.25C1231.33 390.975 1232.73 392.375 1234.46 392.375Z" fill="#90A4AE"/>
<path d="M1234.46 404.875H1253.21C1254.93 404.875 1256.33 403.475 1256.33 401.75C1256.33 400.025 1254.93 398.625 1253.21 398.625H1234.46C1232.73 398.625 1231.33 400.025 1231.33 401.75C1231.33 403.475 1232.73 404.875 1234.46 404.875Z" fill="#90A4AE"/>
<path d="M1267.79 379.875H1286.54C1288.27 379.875 1289.67 378.475 1289.67 376.75C1289.67 375.025 1288.27 373.625 1286.54 373.625H1267.79C1266.07 373.625 1264.67 375.025 1264.67 376.75C1264.67 378.475 1266.07 379.875 1267.79 379.875Z" fill="#90A4AE"/>
<path d="M1267.79 392.375H1286.54C1288.27 392.375 1289.67 390.975 1289.67 389.25C1289.67 387.525 1288.27 386.125 1286.54 386.125H1267.79C1266.07 386.125 1264.67 387.525 1264.67 389.25C1264.67 390.975 1266.07 392.375 1267.79 392.375Z" fill="#90A4AE"/>
<path d="M1267.79 404.875H1286.54C1288.27 404.875 1289.67 403.475 1289.67 401.75C1289.67 400.025 1288.27 398.625 1286.54 398.625H1267.79C1266.07 398.625 1264.67 400.025 1264.67 401.75C1264.67 403.475 1266.07 404.875 1267.79 404.875Z" fill="#90A4AE"/>
<path d="M1201.12 379.875H1219.88C1221.6 379.875 1223 378.475 1223 376.75C1223 375.025 1221.6 373.625 1219.88 373.625H1201.12C1199.4 373.625 1198 375.025 1198 376.75C1198 378.475 1199.4 379.875 1201.12 379.875Z" fill="#90A4AE"/>
<path d="M1201.12 392.375H1219.88C1221.6 392.375 1223 390.975 1223 389.25C1223 387.525 1221.6 386.125 1219.88 386.125H1201.12C1199.4 386.125 1198 387.525 1198 389.25C1198 390.975 1199.4 392.375 1201.12 392.375Z" fill="#90A4AE"/>
<path d="M1201.12 404.875H1219.88C1221.6 404.875 1223 403.475 1223 401.75C1223 400.025 1221.6 398.625 1219.88 398.625H1201.12C1199.4 398.625 1198 400.025 1198 401.75C1198 403.475 1199.4 404.875 1201.12 404.875Z" fill="#90A4AE"/>
<path d="M1210.5 373.625H1201.12C1199.4 373.625 1198 375.025 1198 376.75C1198 378.475 1199.4 379.875 1201.12 379.875H1210.5V373.625Z" fill="#7D8F97"/>
<path d="M1210.5 386.125H1201.12C1199.4 386.125 1198 387.525 1198 389.25C1198 390.975 1199.4 392.375 1201.12 392.375H1210.5V386.125Z" fill="#7D8F97"/>
<path d="M1210.5 398.625H1201.12C1199.4 398.625 1198 400.025 1198 401.75C1198 403.475 1199.4 404.875 1201.12 404.875H1210.5V398.625Z" fill="#7D8F97"/>
<path d="M1243.83 373.625H1234.46C1232.73 373.625 1231.33 375.025 1231.33 376.75C1231.33 378.475 1232.73 379.875 1234.46 379.875H1243.83V373.625Z" fill="#7D8F97"/>
<path d="M1243.83 386.125H1234.46C1232.73 386.125 1231.33 387.525 1231.33 389.25C1231.33 390.975 1232.73 392.375 1234.46 392.375H1243.83V386.125Z" fill="#7D8F97"/>
<path d="M1243.83 398.625H1234.46C1232.73 398.625 1231.33 400.025 1231.33 401.75C1231.33 403.475 1232.73 404.875 1234.46 404.875H1243.83V398.625Z" fill="#7D8F97"/>
<path d="M1277.17 373.625H1267.79C1266.07 373.625 1264.67 375.025 1264.67 376.75C1264.67 378.475 1266.07 379.875 1267.79 379.875H1277.17V373.625Z" fill="#7D8F97"/>
<path d="M1277.17 386.125H1267.79C1266.07 386.125 1264.67 387.525 1264.67 389.25C1264.67 390.975 1266.07 392.375 1267.79 392.375H1277.17V386.125Z" fill="#7D8F97"/>
<path d="M1277.17 398.625H1267.79C1266.07 398.625 1264.67 400.025 1264.67 401.75C1264.67 403.475 1266.07 404.875 1267.79 404.875H1277.17V398.625Z" fill="#7D8F97"/>
<path d="M1395.67 364.25V414.25C1395.67 417.708 1392.87 420.5 1389.42 420.5H1301.92C1298.46 420.5 1295.67 417.708 1295.67 414.25V364.25C1295.67 360.792 1298.46 358 1301.92 358H1389.42C1392.87 358 1395.67 360.792 1395.67 364.25Z" fill="#90CAF9"/>
<path d="M1345.67 358H1301.92C1298.46 358 1295.67 360.792 1295.67 364.25V414.25C1295.67 417.708 1298.46 420.5 1301.92 420.5H1345.67V358Z" fill="#7DB0D9"/>
<path d="M1395.67 390.917V414.25C1395.67 417.708 1392.87 420.5 1389.42 420.5H1326.67L1326.79 420.292L1370.58 376.5C1372.92 374.163 1376.67 374.038 1379.17 376.246L1395.67 390.917Z" fill="#689F38"/>
<path d="M1374.31 374.708C1372.95 374.858 1371.62 375.463 1370.58 376.5L1326.79 420.292L1326.67 420.5H1374.31V374.708Z" fill="#5B8A31"/>
<path d="M1364.79 420.5H1301.92C1298.46 420.5 1295.67 417.708 1295.67 414.25V407.625L1320.46 384.708C1322.96 382.417 1326.75 382.5 1329.12 384.875L1364.79 420.5Z" fill="#8BC34A"/>
<path d="M1324.31 383.054C1322.93 383.142 1321.57 383.692 1320.46 384.708L1295.67 407.625V414.25C1295.67 417.708 1298.46 420.5 1301.92 420.5H1324.31V383.054Z" fill="#79AA40"/>
<path d="M1233.46 523.875H1252.21C1253.93 523.875 1255.33 522.475 1255.33 520.75C1255.33 519.025 1253.93 517.625 1252.21 517.625H1233.46C1231.73 517.625 1230.33 519.025 1230.33 520.75C1230.33 522.475 1231.73 523.875 1233.46 523.875Z" fill="#90A4AE"/>
<path d="M1233.46 536.375H1252.21C1253.93 536.375 1255.33 534.975 1255.33 533.25C1255.33 531.525 1253.93 530.125 1252.21 530.125H1233.46C1231.73 530.125 1230.33 531.525 1230.33 533.25C1230.33 534.975 1231.73 536.375 1233.46 536.375Z" fill="#90A4AE"/>
<path d="M1233.46 548.875H1252.21C1253.93 548.875 1255.33 547.475 1255.33 545.75C1255.33 544.025 1253.93 542.625 1252.21 542.625H1233.46C1231.73 542.625 1230.33 544.025 1230.33 545.75C1230.33 547.475 1231.73 548.875 1233.46 548.875Z" fill="#90A4AE"/>
<path d="M1266.79 523.875H1285.54C1287.27 523.875 1288.67 522.475 1288.67 520.75C1288.67 519.025 1287.27 517.625 1285.54 517.625H1266.79C1265.07 517.625 1263.67 519.025 1263.67 520.75C1263.67 522.475 1265.07 523.875 1266.79 523.875Z" fill="#90A4AE"/>
<path d="M1266.79 536.375H1285.54C1287.27 536.375 1288.67 534.975 1288.67 533.25C1288.67 531.525 1287.27 530.125 1285.54 530.125H1266.79C1265.07 530.125 1263.67 531.525 1263.67 533.25C1263.67 534.975 1265.07 536.375 1266.79 536.375Z" fill="#90A4AE"/>
<path d="M1266.79 548.875H1285.54C1287.27 548.875 1288.67 547.475 1288.67 545.75C1288.67 544.025 1287.27 542.625 1285.54 542.625H1266.79C1265.07 542.625 1263.67 544.025 1263.67 545.75C1263.67 547.475 1265.07 548.875 1266.79 548.875Z" fill="#90A4AE"/>
<path d="M1200.12 523.875H1218.88C1220.6 523.875 1222 522.475 1222 520.75C1222 519.025 1220.6 517.625 1218.88 517.625H1200.12C1198.4 517.625 1197 519.025 1197 520.75C1197 522.475 1198.4 523.875 1200.12 523.875Z" fill="#90A4AE"/>
<path d="M1200.12 536.375H1218.88C1220.6 536.375 1222 534.975 1222 533.25C1222 531.525 1220.6 530.125 1218.88 530.125H1200.12C1198.4 530.125 1197 531.525 1197 533.25C1197 534.975 1198.4 536.375 1200.12 536.375Z" fill="#90A4AE"/>
<path d="M1200.12 548.875H1218.88C1220.6 548.875 1222 547.475 1222 545.75C1222 544.025 1220.6 542.625 1218.88 542.625H1200.12C1198.4 542.625 1197 544.025 1197 545.75C1197 547.475 1198.4 548.875 1200.12 548.875Z" fill="#90A4AE"/>
<path d="M1209.5 517.625H1200.12C1198.4 517.625 1197 519.025 1197 520.75C1197 522.475 1198.4 523.875 1200.12 523.875H1209.5V517.625Z" fill="#7D8F97"/>
<path d="M1209.5 530.125H1200.12C1198.4 530.125 1197 531.525 1197 533.25C1197 534.975 1198.4 536.375 1200.12 536.375H1209.5V530.125Z" fill="#7D8F97"/>
<path d="M1209.5 542.625H1200.12C1198.4 542.625 1197 544.025 1197 545.75C1197 547.475 1198.4 548.875 1200.12 548.875H1209.5V542.625Z" fill="#7D8F97"/>
<path d="M1242.83 517.625H1233.46C1231.73 517.625 1230.33 519.025 1230.33 520.75C1230.33 522.475 1231.73 523.875 1233.46 523.875H1242.83V517.625Z" fill="#7D8F97"/>
<path d="M1242.83 530.125H1233.46C1231.73 530.125 1230.33 531.525 1230.33 533.25C1230.33 534.975 1231.73 536.375 1233.46 536.375H1242.83V530.125Z" fill="#7D8F97"/>
<path d="M1242.83 542.625H1233.46C1231.73 542.625 1230.33 544.025 1230.33 545.75C1230.33 547.475 1231.73 548.875 1233.46 548.875H1242.83V542.625Z" fill="#7D8F97"/>
<path d="M1276.17 517.625H1266.79C1265.07 517.625 1263.67 519.025 1263.67 520.75C1263.67 522.475 1265.07 523.875 1266.79 523.875H1276.17V517.625Z" fill="#7D8F97"/>
<path d="M1276.17 530.125H1266.79C1265.07 530.125 1263.67 531.525 1263.67 533.25C1263.67 534.975 1265.07 536.375 1266.79 536.375H1276.17V530.125Z" fill="#7D8F97"/>
<path d="M1276.17 542.625H1266.79C1265.07 542.625 1263.67 544.025 1263.67 545.75C1263.67 547.475 1265.07 548.875 1266.79 548.875H1276.17V542.625Z" fill="#7D8F97"/>
<path d="M1394.67 508.25V558.25C1394.67 561.708 1391.87 564.5 1388.42 564.5H1300.92C1297.46 564.5 1294.67 561.708 1294.67 558.25V508.25C1294.67 504.792 1297.46 502 1300.92 502H1388.42C1391.87 502 1394.67 504.792 1394.67 508.25Z" fill="#90CAF9"/>
<path d="M1344.67 502H1300.92C1297.46 502 1294.67 504.792 1294.67 508.25V558.25C1294.67 561.708 1297.46 564.5 1300.92 564.5H1344.67V502Z" fill="#7DB0D9"/>
<path d="M1394.67 534.917V558.25C1394.67 561.708 1391.87 564.5 1388.42 564.5H1325.67L1325.79 564.292L1369.58 520.5C1371.92 518.163 1375.67 518.038 1378.17 520.246L1394.67 534.917Z" fill="#689F38"/>
<path d="M1373.31 518.708C1371.95 518.858 1370.62 519.463 1369.58 520.5L1325.79 564.292L1325.67 564.5H1373.31V518.708Z" fill="#5B8A31"/>
<path d="M1363.79 564.5H1300.92C1297.46 564.5 1294.67 561.708 1294.67 558.25V551.625L1319.46 528.708C1321.96 526.417 1325.75 526.5 1328.12 528.875L1363.79 564.5Z" fill="#8BC34A"/>
<path d="M1323.31 527.054C1321.93 527.142 1320.57 527.692 1319.46 528.708L1294.67 551.625V558.25C1294.67 561.708 1297.46 564.5 1300.92 564.5H1323.31V527.054Z" fill="#79AA40"/>
<path d="M321.25 327.438V362.938C321.25 365.393 319.268 367.375 316.812 367.375H254.688C252.232 367.375 250.25 365.393 250.25 362.938V327.438C250.25 324.982 252.232 323 254.688 323H316.812C319.268 323 321.25 324.982 321.25 327.438Z" fill="#90CAF9"/>
<path d="M285.75 323H254.688C252.232 323 250.25 324.982 250.25 327.438V362.938C250.25 365.393 252.232 367.375 254.688 367.375H285.75V323Z" fill="#7DB0D9"/>
<path d="M321.25 346.371V362.938C321.25 365.393 319.268 367.375 316.812 367.375H272.26L272.349 367.227L303.441 336.135C305.097 334.475 307.76 334.387 309.535 335.955L321.25 346.371Z" fill="#689F38"/>
<path d="M306.088 334.863C305.118 334.969 304.18 335.398 303.441 336.135L272.349 367.227L272.26 367.375H306.088V334.863Z" fill="#5B8A31"/>
<path d="M299.329 367.375H254.688C252.232 367.375 250.25 365.393 250.25 362.937V358.234L267.852 341.963C269.627 340.336 272.319 340.395 274.005 342.081L299.329 367.375Z" fill="#8BC34A"/>
<path d="M270.589 340.788C269.606 340.851 268.639 341.241 267.852 341.963L250.25 358.234V362.937C250.25 365.393 252.232 367.375 254.688 367.375H270.589V340.788Z" fill="#79AA40"/>
<path d="M354.495 338.182H368.507C369.796 338.182 370.842 337.136 370.842 335.847C370.842 334.558 369.796 333.511 368.507 333.511H354.495C353.206 333.511 352.16 334.558 352.16 335.847C352.16 337.136 353.206 338.182 354.495 338.182Z" fill="#90A4AE"/>
<path d="M354.495 347.523H368.507C369.796 347.523 370.842 346.477 370.842 345.188C370.842 343.898 369.796 342.852 368.507 342.852H354.495C353.206 342.852 352.16 343.898 352.16 345.188C352.16 346.477 353.206 347.523 354.495 347.523Z" fill="#90A4AE"/>
<path d="M354.495 356.864H368.507C369.796 356.864 370.842 355.818 370.842 354.529C370.842 353.24 369.796 352.193 368.507 352.193H354.495C353.206 352.193 352.16 353.24 352.16 354.529C352.16 355.818 353.206 356.864 354.495 356.864Z" fill="#90A4AE"/>
<path d="M379.404 338.182H393.415C394.704 338.182 395.75 337.136 395.75 335.847C395.75 334.558 394.704 333.511 393.415 333.511H379.404C378.115 333.511 377.068 334.558 377.068 335.847C377.068 337.136 378.115 338.182 379.404 338.182Z" fill="#90A4AE"/>
<path d="M379.404 347.523H393.415C394.704 347.523 395.75 346.477 395.75 345.188C395.75 343.898 394.704 342.852 393.415 342.852H379.404C378.115 342.852 377.068 343.898 377.068 345.188C377.068 346.477 378.115 347.523 379.404 347.523Z" fill="#90A4AE"/>
<path d="M379.404 356.864H393.415C394.704 356.864 395.75 355.818 395.75 354.529C395.75 353.24 394.704 352.193 393.415 352.193H379.404C378.115 352.193 377.068 353.24 377.068 354.529C377.068 355.818 378.115 356.864 379.404 356.864Z" fill="#90A4AE"/>
<path d="M329.585 338.182H343.597C344.886 338.182 345.932 337.136 345.932 335.847C345.932 334.558 344.886 333.511 343.597 333.511H329.585C328.296 333.511 327.25 334.558 327.25 335.847C327.25 337.136 328.296 338.182 329.585 338.182Z" fill="#90A4AE"/>
<path d="M329.585 347.523H343.597C344.886 347.523 345.932 346.477 345.932 345.188C345.932 343.898 344.886 342.852 343.597 342.852H329.585C328.296 342.852 327.25 343.898 327.25 345.188C327.25 346.477 328.296 347.523 329.585 347.523Z" fill="#90A4AE"/>
<path d="M329.585 356.864H343.597C344.886 356.864 345.932 355.818 345.932 354.529C345.932 353.24 344.886 352.193 343.597 352.193H329.585C328.296 352.193 327.25 353.24 327.25 354.529C327.25 355.818 328.296 356.864 329.585 356.864Z" fill="#90A4AE"/>
<path d="M336.591 333.511H329.585C328.296 333.511 327.25 334.558 327.25 335.847C327.25 337.136 328.296 338.182 329.585 338.182H336.591V333.511Z" fill="#7D8F97"/>
<path d="M336.591 342.852H329.585C328.296 342.852 327.25 343.898 327.25 345.188C327.25 346.477 328.296 347.523 329.585 347.523H336.591V342.852Z" fill="#7D8F97"/>
<path d="M336.591 352.193H329.585C328.296 352.193 327.25 353.24 327.25 354.529C327.25 355.818 328.296 356.864 329.585 356.864H336.591V352.193Z" fill="#7D8F97"/>
<path d="M361.5 333.511H354.494C353.205 333.511 352.159 334.558 352.159 335.847C352.159 337.136 353.205 338.182 354.494 338.182H361.5V333.511Z" fill="#7D8F97"/>
<path d="M361.5 342.852H354.494C353.205 342.852 352.159 343.898 352.159 345.188C352.159 346.477 353.205 347.523 354.494 347.523H361.5V342.852Z" fill="#7D8F97"/>
<path d="M361.5 352.193H354.494C353.205 352.193 352.159 353.24 352.159 354.529C352.159 355.818 353.205 356.864 354.494 356.864H361.5V352.193Z" fill="#7D8F97"/>
<path d="M386.41 333.511H379.405C378.116 333.511 377.069 334.558 377.069 335.847C377.069 337.136 378.116 338.182 379.405 338.182H386.41V333.511Z" fill="#7D8F97"/>
<path d="M386.41 342.852H379.405C378.116 342.852 377.069 343.898 377.069 345.188C377.069 346.477 378.116 347.523 379.405 347.523H386.41V342.852Z" fill="#7D8F97"/>
<path d="M386.41 352.193H379.405C378.116 352.193 377.069 353.24 377.069 354.529C377.069 355.818 378.116 356.864 379.405 356.864H386.41V352.193Z" fill="#7D8F97"/>
<path d="M320.25 437.438V472.938C320.25 475.393 318.268 477.375 315.812 477.375H253.688C251.232 477.375 249.25 475.393 249.25 472.938V437.438C249.25 434.982 251.232 433 253.688 433H315.812C318.268 433 320.25 434.982 320.25 437.438Z" fill="#90CAF9"/>
<path d="M284.75 433H253.688C251.232 433 249.25 434.982 249.25 437.438V472.938C249.25 475.393 251.232 477.375 253.688 477.375H284.75V433Z" fill="#7DB0D9"/>
<path d="M320.25 456.371V472.938C320.25 475.393 318.268 477.375 315.812 477.375H271.26L271.349 477.227L302.441 446.135C304.097 444.475 306.76 444.387 308.535 445.955L320.25 456.371Z" fill="#689F38"/>
<path d="M305.088 444.863C304.118 444.969 303.18 445.398 302.441 446.135L271.349 477.227L271.26 477.375H305.088V444.863Z" fill="#5B8A31"/>
<path d="M298.329 477.375H253.688C251.232 477.375 249.25 475.393 249.25 472.937V468.234L266.852 451.963C268.627 450.336 271.319 450.395 273.005 452.081L298.329 477.375Z" fill="#8BC34A"/>
<path d="M269.589 450.788C268.606 450.851 267.639 451.241 266.852 451.963L249.25 468.234V472.937C249.25 475.393 251.232 477.375 253.688 477.375H269.589V450.788Z" fill="#79AA40"/>
<path d="M353.495 448.182H367.507C368.796 448.182 369.842 447.136 369.842 445.847C369.842 444.558 368.796 443.511 367.507 443.511H353.495C352.206 443.511 351.16 444.558 351.16 445.847C351.16 447.136 352.206 448.182 353.495 448.182Z" fill="#90A4AE"/>
<path d="M353.495 457.523H367.507C368.796 457.523 369.842 456.477 369.842 455.188C369.842 453.898 368.796 452.852 367.507 452.852H353.495C352.206 452.852 351.16 453.898 351.16 455.188C351.16 456.477 352.206 457.523 353.495 457.523Z" fill="#90A4AE"/>
<path d="M353.495 466.864H367.507C368.796 466.864 369.842 465.818 369.842 464.529C369.842 463.24 368.796 462.193 367.507 462.193H353.495C352.206 462.193 351.16 463.24 351.16 464.529C351.16 465.818 352.206 466.864 353.495 466.864Z" fill="#90A4AE"/>
<path d="M378.404 448.182H392.415C393.704 448.182 394.75 447.136 394.75 445.847C394.75 444.558 393.704 443.511 392.415 443.511H378.404C377.115 443.511 376.068 444.558 376.068 445.847C376.068 447.136 377.115 448.182 378.404 448.182Z" fill="#90A4AE"/>
<path d="M378.404 457.523H392.415C393.704 457.523 394.75 456.477 394.75 455.188C394.75 453.898 393.704 452.852 392.415 452.852H378.404C377.115 452.852 376.068 453.898 376.068 455.188C376.068 456.477 377.115 457.523 378.404 457.523Z" fill="#90A4AE"/>
<path d="M378.404 466.864H392.415C393.704 466.864 394.75 465.818 394.75 464.529C394.75 463.24 393.704 462.193 392.415 462.193H378.404C377.115 462.193 376.068 463.24 376.068 464.529C376.068 465.818 377.115 466.864 378.404 466.864Z" fill="#90A4AE"/>
<path d="M328.585 448.182H342.597C343.886 448.182 344.932 447.136 344.932 445.847C344.932 444.558 343.886 443.511 342.597 443.511H328.585C327.296 443.511 326.25 444.558 326.25 445.847C326.25 447.136 327.296 448.182 328.585 448.182Z" fill="#90A4AE"/>
<path d="M328.585 457.523H342.597C343.886 457.523 344.932 456.477 344.932 455.188C344.932 453.898 343.886 452.852 342.597 452.852H328.585C327.296 452.852 326.25 453.898 326.25 455.188C326.25 456.477 327.296 457.523 328.585 457.523Z" fill="#90A4AE"/>
<path d="M328.585 466.864H342.597C343.886 466.864 344.932 465.818 344.932 464.529C344.932 463.24 343.886 462.193 342.597 462.193H328.585C327.296 462.193 326.25 463.24 326.25 464.529C326.25 465.818 327.296 466.864 328.585 466.864Z" fill="#90A4AE"/>
<path d="M335.591 443.511H328.585C327.296 443.511 326.25 444.558 326.25 445.847C326.25 447.136 327.296 448.182 328.585 448.182H335.591V443.511Z" fill="#7D8F97"/>
<path d="M335.591 452.852H328.585C327.296 452.852 326.25 453.898 326.25 455.188C326.25 456.477 327.296 457.523 328.585 457.523H335.591V452.852Z" fill="#7D8F97"/>
<path d="M335.591 462.193H328.585C327.296 462.193 326.25 463.24 326.25 464.529C326.25 465.818 327.296 466.864 328.585 466.864H335.591V462.193Z" fill="#7D8F97"/>
<path d="M360.5 443.511H353.494C352.205 443.511 351.159 444.558 351.159 445.847C351.159 447.136 352.205 448.182 353.494 448.182H360.5V443.511Z" fill="#7D8F97"/>
<path d="M360.5 452.852H353.494C352.205 452.852 351.159 453.898 351.159 455.188C351.159 456.477 352.205 457.523 353.494 457.523H360.5V452.852Z" fill="#7D8F97"/>
<path d="M360.5 462.193H353.494C352.205 462.193 351.159 463.24 351.159 464.529C351.159 465.818 352.205 466.864 353.494 466.864H360.5V462.193Z" fill="#7D8F97"/>
<path d="M385.41 443.511H378.405C377.116 443.511 376.069 444.558 376.069 445.847C376.069 447.136 377.116 448.182 378.405 448.182H385.41V443.511Z" fill="#7D8F97"/>
<path d="M385.41 452.852H378.405C377.116 452.852 376.069 453.898 376.069 455.188C376.069 456.477 377.116 457.523 378.405 457.523H385.41V452.852Z" fill="#7D8F97"/>
<path d="M385.41 462.193H378.405C377.116 462.193 376.069 463.24 376.069 464.529C376.069 465.818 377.116 466.864 378.405 466.864H385.41V462.193Z" fill="#7D8F97"/>
<path d="M276.495 393.182H290.507C291.796 393.182 292.842 392.136 292.842 390.847C292.842 389.558 291.796 388.511 290.507 388.511H276.495C275.206 388.511 274.16 389.558 274.16 390.847C274.16 392.136 275.206 393.182 276.495 393.182Z" fill="#90A4AE"/>
<path d="M276.495 402.523H290.507C291.796 402.523 292.842 401.477 292.842 400.188C292.842 398.898 291.796 397.852 290.507 397.852H276.495C275.206 397.852 274.16 398.898 274.16 400.188C274.16 401.477 275.206 402.523 276.495 402.523Z" fill="#90A4AE"/>
<path d="M276.495 411.864H290.507C291.796 411.864 292.842 410.818 292.842 409.529C292.842 408.24 291.796 407.193 290.507 407.193H276.495C275.206 407.193 274.16 408.24 274.16 409.529C274.16 410.818 275.206 411.864 276.495 411.864Z" fill="#90A4AE"/>
<path d="M301.404 393.182H315.415C316.704 393.182 317.75 392.136 317.75 390.847C317.75 389.558 316.704 388.511 315.415 388.511H301.404C300.115 388.511 299.068 389.558 299.068 390.847C299.068 392.136 300.115 393.182 301.404 393.182Z" fill="#90A4AE"/>
<path d="M301.404 402.523H315.415C316.704 402.523 317.75 401.477 317.75 400.188C317.75 398.898 316.704 397.852 315.415 397.852H301.404C300.115 397.852 299.068 398.898 299.068 400.188C299.068 401.477 300.115 402.523 301.404 402.523Z" fill="#90A4AE"/>
<path d="M301.404 411.864H315.415C316.704 411.864 317.75 410.818 317.75 409.529C317.75 408.24 316.704 407.193 315.415 407.193H301.404C300.115 407.193 299.068 408.24 299.068 409.529C299.068 410.818 300.115 411.864 301.404 411.864Z" fill="#90A4AE"/>
<path d="M251.585 393.182H265.597C266.886 393.182 267.932 392.136 267.932 390.847C267.932 389.558 266.886 388.511 265.597 388.511H251.585C250.296 388.511 249.25 389.558 249.25 390.847C249.25 392.136 250.296 393.182 251.585 393.182Z" fill="#90A4AE"/>
<path d="M251.585 402.523H265.597C266.886 402.523 267.932 401.477 267.932 400.188C267.932 398.898 266.886 397.852 265.597 397.852H251.585C250.296 397.852 249.25 398.898 249.25 400.188C249.25 401.477 250.296 402.523 251.585 402.523Z" fill="#90A4AE"/>
<path d="M251.585 411.864H265.597C266.886 411.864 267.932 410.818 267.932 409.529C267.932 408.24 266.886 407.193 265.597 407.193H251.585C250.296 407.193 249.25 408.24 249.25 409.529C249.25 410.818 250.296 411.864 251.585 411.864Z" fill="#90A4AE"/>
<path d="M258.591 388.511H251.585C250.296 388.511 249.25 389.558 249.25 390.847C249.25 392.136 250.296 393.182 251.585 393.182H258.591V388.511Z" fill="#7D8F97"/>
<path d="M258.591 397.852H251.585C250.296 397.852 249.25 398.898 249.25 400.188C249.25 401.477 250.296 402.523 251.585 402.523H258.591V397.852Z" fill="#7D8F97"/>
<path d="M258.591 407.193H251.585C250.296 407.193 249.25 408.24 249.25 409.529C249.25 410.818 250.296 411.864 251.585 411.864H258.591V407.193Z" fill="#7D8F97"/>
<path d="M283.5 388.511H276.494C275.205 388.511 274.159 389.558 274.159 390.847C274.159 392.136 275.205 393.182 276.494 393.182H283.5V388.511Z" fill="#7D8F97"/>
<path d="M283.5 397.852H276.494C275.205 397.852 274.159 398.898 274.159 400.188C274.159 401.477 275.205 402.523 276.494 402.523H283.5V397.852Z" fill="#7D8F97"/>
<path d="M283.5 407.193H276.494C275.205 407.193 274.159 408.24 274.159 409.529C274.159 410.818 275.205 411.864 276.494 411.864H283.5V407.193Z" fill="#7D8F97"/>
<path d="M308.41 388.511H301.405C300.116 388.511 299.069 389.558 299.069 390.847C299.069 392.136 300.116 393.182 301.405 393.182H308.41V388.511Z" fill="#7D8F97"/>
<path d="M308.41 397.852H301.405C300.116 397.852 299.069 398.898 299.069 400.188C299.069 401.477 300.116 402.523 301.405 402.523H308.41V397.852Z" fill="#7D8F97"/>
<path d="M308.41 407.193H301.405C300.116 407.193 299.069 408.24 299.069 409.529C299.069 410.818 300.116 411.864 301.405 411.864H308.41V407.193Z" fill="#7D8F97"/>
<path d="M394.75 382.438V417.938C394.75 420.393 392.768 422.375 390.312 422.375H328.188C325.732 422.375 323.75 420.393 323.75 417.938V382.438C323.75 379.982 325.732 378 328.188 378H390.312C392.768 378 394.75 379.982 394.75 382.438Z" fill="#90CAF9"/>
<path d="M359.25 378H328.188C325.732 378 323.75 379.982 323.75 382.438V417.938C323.75 420.393 325.732 422.375 328.188 422.375H359.25V378Z" fill="#7DB0D9"/>
<path d="M394.75 401.371V417.938C394.75 420.393 392.768 422.375 390.312 422.375H345.76L345.849 422.227L376.941 391.135C378.597 389.475 381.26 389.387 383.035 390.955L394.75 401.371Z" fill="#689F38"/>
<path d="M379.588 389.863C378.618 389.969 377.68 390.398 376.941 391.135L345.849 422.227L345.76 422.375H379.588V389.863Z" fill="#5B8A31"/>
<path d="M372.829 422.375H328.188C325.732 422.375 323.75 420.393 323.75 417.937V413.234L341.352 396.963C343.127 395.336 345.819 395.395 347.505 397.081L372.829 422.375Z" fill="#8BC34A"/>
<path d="M344.089 395.788C343.106 395.851 342.139 396.241 341.352 396.963L323.75 413.234V417.937C323.75 420.393 325.732 422.375 328.188 422.375H344.089V395.788Z" fill="#79AA40"/>
<path d="M275.495 503.182H289.507C290.796 503.182 291.842 502.136 291.842 500.847C291.842 499.558 290.796 498.511 289.507 498.511H275.495C274.206 498.511 273.16 499.558 273.16 500.847C273.16 502.136 274.206 503.182 275.495 503.182Z" fill="#90A4AE"/>
<path d="M275.495 512.523H289.507C290.796 512.523 291.842 511.477 291.842 510.188C291.842 508.898 290.796 507.852 289.507 507.852H275.495C274.206 507.852 273.16 508.898 273.16 510.188C273.16 511.477 274.206 512.523 275.495 512.523Z" fill="#90A4AE"/>
<path d="M275.495 521.864H289.507C290.796 521.864 291.842 520.818 291.842 519.529C291.842 518.24 290.796 517.193 289.507 517.193H275.495C274.206 517.193 273.16 518.24 273.16 519.529C273.16 520.818 274.206 521.864 275.495 521.864Z" fill="#90A4AE"/>
<path d="M300.404 503.182H314.415C315.704 503.182 316.75 502.136 316.75 500.847C316.75 499.558 315.704 498.511 314.415 498.511H300.404C299.115 498.511 298.068 499.558 298.068 500.847C298.068 502.136 299.115 503.182 300.404 503.182Z" fill="#90A4AE"/>
<path d="M300.404 512.523H314.415C315.704 512.523 316.75 511.477 316.75 510.188C316.75 508.898 315.704 507.852 314.415 507.852H300.404C299.115 507.852 298.068 508.898 298.068 510.188C298.068 511.477 299.115 512.523 300.404 512.523Z" fill="#90A4AE"/>
<path d="M300.404 521.864H314.415C315.704 521.864 316.75 520.818 316.75 519.529C316.75 518.24 315.704 517.193 314.415 517.193H300.404C299.115 517.193 298.068 518.24 298.068 519.529C298.068 520.818 299.115 521.864 300.404 521.864Z" fill="#90A4AE"/>
<path d="M250.585 503.182H264.597C265.886 503.182 266.932 502.136 266.932 500.847C266.932 499.558 265.886 498.511 264.597 498.511H250.585C249.296 498.511 248.25 499.558 248.25 500.847C248.25 502.136 249.296 503.182 250.585 503.182Z" fill="#90A4AE"/>
<path d="M250.585 512.523H264.597C265.886 512.523 266.932 511.477 266.932 510.188C266.932 508.898 265.886 507.852 264.597 507.852H250.585C249.296 507.852 248.25 508.898 248.25 510.188C248.25 511.477 249.296 512.523 250.585 512.523Z" fill="#90A4AE"/>
<path d="M250.585 521.864H264.597C265.886 521.864 266.932 520.818 266.932 519.529C266.932 518.24 265.886 517.193 264.597 517.193H250.585C249.296 517.193 248.25 518.24 248.25 519.529C248.25 520.818 249.296 521.864 250.585 521.864Z" fill="#90A4AE"/>
<path d="M257.591 498.511H250.585C249.296 498.511 248.25 499.558 248.25 500.847C248.25 502.136 249.296 503.182 250.585 503.182H257.591V498.511Z" fill="#7D8F97"/>
<path d="M257.591 507.852H250.585C249.296 507.852 248.25 508.898 248.25 510.188C248.25 511.477 249.296 512.523 250.585 512.523H257.591V507.852Z" fill="#7D8F97"/>
<path d="M257.591 517.193H250.585C249.296 517.193 248.25 518.24 248.25 519.529C248.25 520.818 249.296 521.864 250.585 521.864H257.591V517.193Z" fill="#7D8F97"/>
<path d="M282.5 498.511H275.494C274.205 498.511 273.159 499.558 273.159 500.847C273.159 502.136 274.205 503.182 275.494 503.182H282.5V498.511Z" fill="#7D8F97"/>
<path d="M282.5 507.852H275.494C274.205 507.852 273.159 508.898 273.159 510.188C273.159 511.477 274.205 512.523 275.494 512.523H282.5V507.852Z" fill="#7D8F97"/>
<path d="M282.5 517.193H275.494C274.205 517.193 273.159 518.24 273.159 519.529C273.159 520.818 274.205 521.864 275.494 521.864H282.5V517.193Z" fill="#7D8F97"/>
<path d="M307.41 498.511H300.405C299.116 498.511 298.069 499.558 298.069 500.847C298.069 502.136 299.116 503.182 300.405 503.182H307.41V498.511Z" fill="#7D8F97"/>
<path d="M307.41 507.852H300.405C299.116 507.852 298.069 508.898 298.069 510.188C298.069 511.477 299.116 512.523 300.405 512.523H307.41V507.852Z" fill="#7D8F97"/>
<path d="M307.41 517.193H300.405C299.116 517.193 298.069 518.24 298.069 519.529C298.069 520.818 299.116 521.864 300.405 521.864H307.41V517.193Z" fill="#7D8F97"/>
<path d="M393.75 492.438V527.938C393.75 530.393 391.768 532.375 389.312 532.375H327.188C324.732 532.375 322.75 530.393 322.75 527.938V492.438C322.75 489.982 324.732 488 327.188 488H389.312C391.768 488 393.75 489.982 393.75 492.438Z" fill="#90CAF9"/>
<path d="M358.25 488H327.188C324.732 488 322.75 489.982 322.75 492.438V527.938C322.75 530.393 324.732 532.375 327.188 532.375H358.25V488Z" fill="#7DB0D9"/>
<path d="M393.75 511.371V527.938C393.75 530.393 391.768 532.375 389.312 532.375H344.76L344.849 532.227L375.941 501.135C377.597 499.475 380.26 499.387 382.035 500.955L393.75 511.371Z" fill="#689F38"/>
<path d="M378.588 499.863C377.618 499.969 376.68 500.398 375.941 501.135L344.849 532.227L344.76 532.375H378.588V499.863Z" fill="#5B8A31"/>
<path d="M371.829 532.375H327.188C324.732 532.375 322.75 530.393 322.75 527.937V523.234L340.352 506.963C342.127 505.336 344.819 505.395 346.505 507.081L371.829 532.375Z" fill="#8BC34A"/>
<path d="M343.089 505.788C342.106 505.851 341.139 506.241 340.352 506.963L322.75 523.234V527.937C322.75 530.393 324.732 532.375 327.188 532.375H343.089V505.788Z" fill="#79AA40"/>
<rect x="1205" y="254" width="173" height="15.0709" rx="7.53546" fill="#D9D9D9"/>
<g clip-path="url(#clip2_90_136)">
<path d="M1373.85 265.785L1371.53 263.224C1372.12 262.472 1372.45 261.525 1372.45 260.54C1372.45 258.237 1370.68 256.364 1368.51 256.364C1366.34 256.364 1364.57 258.237 1364.57 260.54C1364.57 262.842 1366.34 264.716 1368.51 264.716C1369.33 264.716 1370.1 264.455 1370.77 263.96L1373.11 266.54C1373.2 266.647 1373.33 266.707 1373.48 266.707C1373.61 266.707 1373.74 266.653 1373.83 266.555C1374.04 266.347 1374.04 266.001 1373.85 265.785ZM1368.51 257.453C1370.12 257.453 1371.42 258.838 1371.42 260.54C1371.42 262.242 1370.12 263.626 1368.51 263.626C1366.91 263.626 1365.6 262.242 1365.6 260.54C1365.6 258.838 1366.91 257.453 1368.51 257.453Z" fill="black"/>
</g>
<path d="M1212.28 261.375V264H1211.61V258.182H1212.28V260.318H1212.34C1212.44 260.093 1212.6 259.914 1212.8 259.781C1213.01 259.647 1213.28 259.58 1213.62 259.58C1213.92 259.58 1214.18 259.639 1214.41 259.759C1214.63 259.876 1214.8 260.057 1214.93 260.301C1215.05 260.544 1215.11 260.852 1215.11 261.227V264H1214.44V261.273C1214.44 260.926 1214.35 260.658 1214.17 260.469C1214 260.277 1213.75 260.182 1213.43 260.182C1213.21 260.182 1213.02 260.228 1212.84 260.321C1212.67 260.414 1212.53 260.549 1212.43 260.727C1212.33 260.905 1212.28 261.121 1212.28 261.375ZM1218.24 259.636V260.205H1215.98V259.636H1218.24ZM1216.64 258.591H1217.31V262.75C1217.31 262.939 1217.33 263.081 1217.39 263.176C1217.45 263.269 1217.52 263.331 1217.6 263.364C1217.69 263.394 1217.79 263.409 1217.89 263.409C1217.96 263.409 1218.02 263.405 1218.07 263.398C1218.11 263.388 1218.15 263.381 1218.18 263.375L1218.32 263.977C1218.27 263.994 1218.21 264.011 1218.13 264.028C1218.05 264.047 1217.94 264.057 1217.82 264.057C1217.63 264.057 1217.44 264.016 1217.26 263.935C1217.08 263.853 1216.93 263.729 1216.81 263.562C1216.69 263.396 1216.64 263.186 1216.64 262.932V258.591ZM1221.14 259.636V260.205H1218.88V259.636H1221.14ZM1219.54 258.591H1220.21V262.75C1220.21 262.939 1220.24 263.081 1220.29 263.176C1220.35 263.269 1220.42 263.331 1220.51 263.364C1220.6 263.394 1220.69 263.409 1220.79 263.409C1220.87 263.409 1220.93 263.405 1220.97 263.398C1221.02 263.388 1221.06 263.381 1221.09 263.375L1221.22 263.977C1221.18 263.994 1221.11 264.011 1221.03 264.028C1220.95 264.047 1220.85 264.057 1220.72 264.057C1220.53 264.057 1220.35 264.016 1220.17 263.935C1219.99 263.853 1219.84 263.729 1219.72 263.562C1219.6 263.396 1219.54 263.186 1219.54 262.932V258.591ZM1222.15 265.636V259.636H1222.8V260.33H1222.88C1222.93 260.254 1223 260.157 1223.08 260.04C1223.17 259.92 1223.3 259.814 1223.47 259.722C1223.63 259.627 1223.86 259.58 1224.14 259.58C1224.51 259.58 1224.83 259.671 1225.11 259.855C1225.39 260.039 1225.61 260.299 1225.77 260.636C1225.93 260.973 1226 261.371 1226 261.83C1226 262.292 1225.93 262.692 1225.77 263.031C1225.61 263.368 1225.39 263.63 1225.12 263.815C1224.84 263.999 1224.52 264.091 1224.15 264.091C1223.87 264.091 1223.65 264.045 1223.48 263.952C1223.31 263.857 1223.18 263.75 1223.09 263.631C1223 263.509 1222.93 263.409 1222.88 263.33H1222.82V265.636H1222.15ZM1222.81 261.818C1222.81 262.148 1222.86 262.438 1222.96 262.69C1223.05 262.94 1223.19 263.136 1223.38 263.278C1223.57 263.419 1223.79 263.489 1224.06 263.489C1224.34 263.489 1224.58 263.415 1224.76 263.267C1224.95 263.117 1225.09 262.917 1225.19 262.665C1225.29 262.411 1225.33 262.129 1225.33 261.818C1225.33 261.511 1225.29 261.235 1225.19 260.989C1225.1 260.741 1224.96 260.545 1224.77 260.401C1224.58 260.255 1224.35 260.182 1224.06 260.182C1223.79 260.182 1223.56 260.251 1223.37 260.389C1223.19 260.526 1223.05 260.717 1222.95 260.963C1222.86 261.207 1222.81 261.492 1222.81 261.818ZM1227.52 264.045C1227.38 264.045 1227.26 263.995 1227.16 263.895C1227.06 263.795 1227 263.674 1227 263.534C1227 263.394 1227.06 263.274 1227.16 263.173C1227.26 263.073 1227.38 263.023 1227.52 263.023C1227.66 263.023 1227.78 263.073 1227.88 263.173C1227.98 263.274 1228.03 263.394 1228.03 263.534C1228.03 263.627 1228 263.712 1227.96 263.79C1227.91 263.867 1227.85 263.93 1227.77 263.977C1227.7 264.023 1227.61 264.045 1227.52 264.045ZM1227.52 260.807C1227.38 260.807 1227.26 260.757 1227.16 260.656C1227.06 260.556 1227 260.436 1227 260.295C1227 260.155 1227.06 260.035 1227.16 259.935C1227.26 259.834 1227.38 259.784 1227.52 259.784C1227.66 259.784 1227.78 259.834 1227.88 259.935C1227.98 260.035 1228.03 260.155 1228.03 260.295C1228.03 260.388 1228 260.473 1227.96 260.551C1227.91 260.629 1227.85 260.691 1227.77 260.739C1227.7 260.784 1227.61 260.807 1227.52 260.807ZM1231.29 257.909L1229.41 264.875H1228.8L1230.67 257.909H1231.29ZM1234.14 257.909L1232.26 264.875H1231.65L1233.53 257.909H1234.14ZM1234.93 265.636V259.636H1235.58V260.33H1235.66C1235.71 260.254 1235.78 260.157 1235.87 260.04C1235.95 259.92 1236.08 259.814 1236.25 259.722C1236.41 259.627 1236.64 259.58 1236.92 259.58C1237.29 259.58 1237.61 259.671 1237.89 259.855C1238.17 260.039 1238.39 260.299 1238.55 260.636C1238.71 260.973 1238.79 261.371 1238.79 261.83C1238.79 262.292 1238.71 262.692 1238.55 263.031C1238.39 263.368 1238.18 263.63 1237.9 263.815C1237.62 263.999 1237.3 264.091 1236.93 264.091C1236.65 264.091 1236.43 264.045 1236.26 263.952C1236.09 263.857 1235.96 263.75 1235.87 263.631C1235.78 263.509 1235.71 263.409 1235.66 263.33H1235.6V265.636H1234.93ZM1235.59 261.818C1235.59 262.148 1235.64 262.438 1235.74 262.69C1235.83 262.94 1235.98 263.136 1236.16 263.278C1236.35 263.419 1236.57 263.489 1236.84 263.489C1237.12 263.489 1237.36 263.415 1237.54 263.267C1237.73 263.117 1237.88 262.917 1237.97 262.665C1238.07 262.411 1238.12 262.129 1238.12 261.818C1238.12 261.511 1238.07 261.235 1237.97 260.989C1237.88 260.741 1237.74 260.545 1237.55 260.401C1237.36 260.255 1237.13 260.182 1236.84 260.182C1236.57 260.182 1236.34 260.251 1236.16 260.389C1235.97 260.526 1235.83 260.717 1235.74 260.963C1235.64 261.207 1235.59 261.492 1235.59 261.818ZM1239.81 264V259.636H1240.46V260.295H1240.5C1240.58 260.08 1240.73 259.904 1240.93 259.77C1241.14 259.635 1241.38 259.568 1241.64 259.568C1241.69 259.568 1241.75 259.569 1241.82 259.571C1241.9 259.573 1241.95 259.576 1241.99 259.58V260.261C1241.97 260.256 1241.92 260.247 1241.83 260.236C1241.75 260.223 1241.67 260.216 1241.58 260.216C1241.37 260.216 1241.18 260.26 1241.01 260.349C1240.85 260.437 1240.72 260.558 1240.62 260.713C1240.53 260.866 1240.48 261.042 1240.48 261.239V264H1239.81ZM1244.48 264.091C1244.06 264.091 1243.7 263.998 1243.39 263.812C1243.09 263.625 1242.86 263.364 1242.69 263.028C1242.53 262.691 1242.45 262.299 1242.45 261.852C1242.45 261.405 1242.53 261.011 1242.69 260.67C1242.86 260.328 1243.09 260.061 1243.38 259.869C1243.68 259.676 1244.02 259.58 1244.41 259.58C1244.64 259.58 1244.87 259.617 1245.09 259.693C1245.31 259.769 1245.51 259.892 1245.69 260.062C1245.87 260.231 1246.02 260.455 1246.13 260.733C1246.24 261.011 1246.29 261.354 1246.29 261.761V262.045H1242.93V261.466H1245.61C1245.61 261.22 1245.56 261 1245.46 260.807C1245.36 260.614 1245.22 260.461 1245.04 260.349C1244.87 260.238 1244.66 260.182 1244.41 260.182C1244.15 260.182 1243.92 260.248 1243.72 260.381C1243.53 260.511 1243.38 260.682 1243.27 260.892C1243.17 261.102 1243.12 261.328 1243.12 261.568V261.955C1243.12 262.284 1243.18 262.563 1243.29 262.793C1243.4 263.02 1243.56 263.193 1243.77 263.312C1243.97 263.43 1244.21 263.489 1244.48 263.489C1244.66 263.489 1244.82 263.464 1244.96 263.415C1245.1 263.364 1245.23 263.288 1245.33 263.188C1245.44 263.085 1245.52 262.958 1245.57 262.807L1246.22 262.989C1246.15 263.208 1246.04 263.402 1245.88 263.568C1245.72 263.733 1245.52 263.862 1245.28 263.955C1245.04 264.045 1244.78 264.091 1244.48 264.091ZM1250.74 259.636L1249.13 264H1248.45L1246.84 259.636H1247.56L1248.77 263.114H1248.81L1250.02 259.636H1250.74ZM1251.63 264V259.636H1252.3V264H1251.63ZM1251.97 258.909C1251.84 258.909 1251.73 258.865 1251.63 258.776C1251.54 258.687 1251.49 258.58 1251.49 258.455C1251.49 258.33 1251.54 258.223 1251.63 258.134C1251.73 258.045 1251.84 258 1251.97 258C1252.1 258 1252.21 258.045 1252.31 258.134C1252.4 258.223 1252.45 258.33 1252.45 258.455C1252.45 258.58 1252.4 258.687 1252.31 258.776C1252.21 258.865 1252.1 258.909 1251.97 258.909ZM1255.36 264.091C1254.94 264.091 1254.57 263.998 1254.27 263.812C1253.97 263.625 1253.73 263.364 1253.57 263.028C1253.4 262.691 1253.32 262.299 1253.32 261.852C1253.32 261.405 1253.4 261.011 1253.57 260.67C1253.73 260.328 1253.96 260.061 1254.25 259.869C1254.55 259.676 1254.9 259.58 1255.29 259.58C1255.52 259.58 1255.74 259.617 1255.96 259.693C1256.18 259.769 1256.39 259.892 1256.57 260.062C1256.75 260.231 1256.89 260.455 1257 260.733C1257.11 261.011 1257.16 261.354 1257.16 261.761V262.045H1253.8V261.466H1256.48C1256.48 261.22 1256.43 261 1256.33 260.807C1256.24 260.614 1256.1 260.461 1255.92 260.349C1255.74 260.238 1255.53 260.182 1255.29 260.182C1255.02 260.182 1254.79 260.248 1254.6 260.381C1254.4 260.511 1254.25 260.682 1254.15 260.892C1254.05 261.102 1253.99 261.328 1253.99 261.568V261.955C1253.99 262.284 1254.05 262.563 1254.16 262.793C1254.28 263.02 1254.44 263.193 1254.64 263.312C1254.85 263.43 1255.09 263.489 1255.36 263.489C1255.53 263.489 1255.69 263.464 1255.83 263.415C1255.98 263.364 1256.1 263.288 1256.21 263.188C1256.31 263.085 1256.39 262.958 1256.45 262.807L1257.1 262.989C1257.03 263.208 1256.91 263.402 1256.75 263.568C1256.59 263.733 1256.39 263.862 1256.16 263.955C1255.92 264.045 1255.65 264.091 1255.36 264.091ZM1259.17 264L1257.84 259.636H1258.55L1259.49 262.977H1259.54L1260.47 259.636H1261.18L1262.1 262.966H1262.15L1263.09 259.636H1263.8L1262.47 264H1261.81L1260.85 260.648H1260.79L1259.83 264H1259.17ZM1264.58 264.045C1264.44 264.045 1264.32 263.995 1264.22 263.895C1264.12 263.795 1264.07 263.674 1264.07 263.534C1264.07 263.394 1264.12 263.274 1264.22 263.173C1264.32 263.073 1264.44 263.023 1264.58 263.023C1264.72 263.023 1264.84 263.073 1264.94 263.173C1265.04 263.274 1265.09 263.394 1265.09 263.534C1265.09 263.627 1265.07 263.712 1265.02 263.79C1264.97 263.867 1264.91 263.93 1264.83 263.977C1264.76 264.023 1264.67 264.045 1264.58 264.045ZM1266.29 259.636H1266.96V264.318C1266.96 264.587 1266.92 264.82 1266.82 265.017C1266.73 265.214 1266.6 265.366 1266.41 265.474C1266.23 265.582 1265.99 265.636 1265.71 265.636C1265.69 265.636 1265.67 265.636 1265.65 265.636C1265.62 265.636 1265.6 265.636 1265.58 265.636V265.011C1265.6 265.011 1265.62 265.011 1265.64 265.011C1265.66 265.011 1265.68 265.011 1265.7 265.011C1265.91 265.011 1266.06 264.951 1266.15 264.83C1266.25 264.71 1266.29 264.54 1266.29 264.318V259.636ZM1266.62 258.909C1266.49 258.909 1266.38 258.865 1266.28 258.776C1266.19 258.687 1266.15 258.58 1266.15 258.455C1266.15 258.33 1266.19 258.223 1266.28 258.134C1266.38 258.045 1266.49 258 1266.62 258C1266.75 258 1266.87 258.045 1266.96 258.134C1267.05 258.223 1267.1 258.33 1267.1 258.455C1267.1 258.58 1267.05 258.687 1266.96 258.776C1266.87 258.865 1266.75 258.909 1266.62 258.909ZM1269.96 264.091C1269.57 264.091 1269.22 263.997 1268.93 263.81C1268.63 263.622 1268.4 263.36 1268.23 263.023C1268.07 262.686 1267.99 262.292 1267.99 261.841C1267.99 261.386 1268.07 260.99 1268.23 260.651C1268.4 260.312 1268.63 260.048 1268.93 259.861C1269.22 259.673 1269.57 259.58 1269.96 259.58C1270.36 259.58 1270.7 259.673 1271 259.861C1271.3 260.048 1271.53 260.312 1271.69 260.651C1271.86 260.99 1271.94 261.386 1271.94 261.841C1271.94 262.292 1271.86 262.686 1271.69 263.023C1271.53 263.36 1271.3 263.622 1271 263.81C1270.7 263.997 1270.36 264.091 1269.96 264.091ZM1269.96 263.489C1270.26 263.489 1270.51 263.412 1270.7 263.259C1270.9 263.105 1271.04 262.903 1271.13 262.653C1271.22 262.403 1271.27 262.133 1271.27 261.841C1271.27 261.549 1271.22 261.277 1271.13 261.026C1271.04 260.774 1270.9 260.57 1270.7 260.415C1270.51 260.259 1270.26 260.182 1269.96 260.182C1269.67 260.182 1269.42 260.259 1269.23 260.415C1269.03 260.57 1268.89 260.774 1268.8 261.026C1268.7 261.277 1268.66 261.549 1268.66 261.841C1268.66 262.133 1268.7 262.403 1268.8 262.653C1268.89 262.903 1269.03 263.105 1269.23 263.259C1269.42 263.412 1269.67 263.489 1269.96 263.489ZM1273.64 261.375V264H1272.97V258.182H1273.64V260.318H1273.69C1273.79 260.093 1273.95 259.914 1274.15 259.781C1274.36 259.647 1274.63 259.58 1274.98 259.58C1275.27 259.58 1275.53 259.639 1275.76 259.759C1275.98 259.876 1276.15 260.057 1276.28 260.301C1276.4 260.544 1276.47 260.852 1276.47 261.227V264H1275.79V261.273C1275.79 260.926 1275.7 260.658 1275.52 260.469C1275.35 260.277 1275.1 260.182 1274.78 260.182C1274.56 260.182 1274.37 260.228 1274.19 260.321C1274.02 260.414 1273.88 260.549 1273.78 260.727C1273.68 260.905 1273.64 261.121 1273.64 261.375ZM1278.36 261.375V264H1277.69V259.636H1278.34V260.318H1278.4C1278.5 260.097 1278.65 259.919 1278.86 259.784C1279.07 259.648 1279.34 259.58 1279.67 259.58C1279.96 259.58 1280.22 259.64 1280.44 259.761C1280.67 259.881 1280.84 260.062 1280.96 260.307C1281.08 260.549 1281.15 260.856 1281.15 261.227V264H1280.48V261.273C1280.48 260.93 1280.39 260.663 1280.21 260.472C1280.03 260.278 1279.79 260.182 1279.48 260.182C1279.26 260.182 1279.07 260.228 1278.9 260.321C1278.74 260.414 1278.6 260.549 1278.51 260.727C1278.41 260.905 1278.36 261.121 1278.36 261.375ZM1285.46 260.614L1284.86 260.784C1284.82 260.684 1284.77 260.586 1284.69 260.491C1284.62 260.395 1284.52 260.315 1284.4 260.253C1284.27 260.19 1284.11 260.159 1283.92 260.159C1283.65 260.159 1283.43 260.221 1283.25 260.344C1283.07 260.465 1282.99 260.619 1282.99 260.807C1282.99 260.973 1283.05 261.105 1283.17 261.202C1283.29 261.298 1283.48 261.379 1283.74 261.443L1284.38 261.602C1284.77 261.697 1285.06 261.842 1285.25 262.037C1285.45 262.23 1285.54 262.479 1285.54 262.784C1285.54 263.034 1285.47 263.258 1285.33 263.455C1285.18 263.652 1284.99 263.807 1284.73 263.92C1284.47 264.034 1284.18 264.091 1283.84 264.091C1283.39 264.091 1283.02 263.994 1282.73 263.801C1282.44 263.608 1282.26 263.326 1282.18 262.955L1282.81 262.795C1282.88 263.03 1282.99 263.206 1283.16 263.324C1283.33 263.441 1283.55 263.5 1283.83 263.5C1284.14 263.5 1284.39 263.434 1284.57 263.301C1284.76 263.167 1284.85 263.006 1284.85 262.818C1284.85 262.667 1284.8 262.54 1284.69 262.438C1284.58 262.333 1284.42 262.256 1284.2 262.205L1283.47 262.034C1283.07 261.939 1282.78 261.793 1282.59 261.594C1282.41 261.393 1282.31 261.142 1282.31 260.841C1282.31 260.595 1282.38 260.377 1282.52 260.188C1282.66 259.998 1282.85 259.849 1283.09 259.741C1283.34 259.634 1283.61 259.58 1283.92 259.58C1284.35 259.58 1284.69 259.674 1284.93 259.864C1285.18 260.053 1285.36 260.303 1285.46 260.614ZM1286.55 264V259.636H1287.2V260.318H1287.26C1287.35 260.085 1287.49 259.904 1287.7 259.776C1287.9 259.645 1288.14 259.58 1288.43 259.58C1288.71 259.58 1288.95 259.645 1289.14 259.776C1289.34 259.904 1289.49 260.085 1289.6 260.318H1289.64C1289.75 260.093 1289.92 259.914 1290.14 259.781C1290.37 259.647 1290.64 259.58 1290.95 259.58C1291.34 259.58 1291.66 259.702 1291.91 259.946C1292.15 260.188 1292.28 260.566 1292.28 261.08V264H1291.61V261.08C1291.61 260.758 1291.52 260.527 1291.34 260.389C1291.17 260.251 1290.96 260.182 1290.72 260.182C1290.41 260.182 1290.18 260.275 1290.01 260.46C1289.84 260.644 1289.76 260.877 1289.76 261.159V264H1289.07V261.011C1289.07 260.763 1288.99 260.563 1288.83 260.412C1288.67 260.259 1288.46 260.182 1288.21 260.182C1288.04 260.182 1287.87 260.228 1287.72 260.321C1287.57 260.414 1287.45 260.543 1287.36 260.707C1287.27 260.87 1287.22 261.059 1287.22 261.273V264H1286.55ZM1293.5 264V259.636H1294.17V264H1293.5ZM1293.85 258.909C1293.71 258.909 1293.6 258.865 1293.51 258.776C1293.41 258.687 1293.37 258.58 1293.37 258.455C1293.37 258.33 1293.41 258.223 1293.51 258.134C1293.6 258.045 1293.71 258 1293.85 258C1293.98 258 1294.09 258.045 1294.18 258.134C1294.28 258.223 1294.32 258.33 1294.32 258.455C1294.32 258.58 1294.28 258.687 1294.18 258.776C1294.09 258.865 1293.98 258.909 1293.85 258.909ZM1297.3 259.636V260.205H1295.04V259.636H1297.3ZM1295.7 258.591H1296.37V262.75C1296.37 262.939 1296.4 263.081 1296.45 263.176C1296.51 263.269 1296.58 263.331 1296.67 263.364C1296.76 263.394 1296.85 263.409 1296.95 263.409C1297.02 263.409 1297.08 263.405 1297.13 263.398C1297.18 263.388 1297.22 263.381 1297.24 263.375L1297.38 263.977C1297.33 263.994 1297.27 264.011 1297.19 264.028C1297.11 264.047 1297 264.057 1296.88 264.057C1296.69 264.057 1296.5 264.016 1296.32 263.935C1296.14 263.853 1295.99 263.729 1295.87 263.562C1295.76 263.396 1295.7 263.186 1295.7 262.932V258.591ZM1299.07 261.375V264H1298.4V258.182H1299.07V260.318H1299.13C1299.23 260.093 1299.39 259.914 1299.59 259.781C1299.8 259.647 1300.07 259.58 1300.41 259.58C1300.71 259.58 1300.97 259.639 1301.2 259.759C1301.42 259.876 1301.59 260.057 1301.72 260.301C1301.84 260.544 1301.9 260.852 1301.9 261.227V264H1301.23V261.273C1301.23 260.926 1301.14 260.658 1300.96 260.469C1300.78 260.277 1300.54 260.182 1300.22 260.182C1300 260.182 1299.8 260.228 1299.63 260.321C1299.46 260.414 1299.32 260.549 1299.22 260.727C1299.12 260.905 1299.07 261.121 1299.07 261.375ZM1303.62 264.045C1303.48 264.045 1303.36 263.995 1303.26 263.895C1303.16 263.795 1303.11 263.674 1303.11 263.534C1303.11 263.394 1303.16 263.274 1303.26 263.173C1303.36 263.073 1303.48 263.023 1303.62 263.023C1303.76 263.023 1303.88 263.073 1303.98 263.173C1304.08 263.274 1304.13 263.394 1304.13 263.534C1304.13 263.627 1304.11 263.712 1304.06 263.79C1304.01 263.867 1303.95 263.93 1303.87 263.977C1303.8 264.023 1303.71 264.045 1303.62 264.045ZM1307.11 264.091C1306.7 264.091 1306.34 263.994 1306.05 263.801C1305.75 263.608 1305.53 263.342 1305.37 263.003C1305.21 262.664 1305.13 262.277 1305.13 261.841C1305.13 261.398 1305.21 261.007 1305.37 260.668C1305.54 260.327 1305.77 260.061 1306.06 259.869C1306.36 259.676 1306.7 259.58 1307.09 259.58C1307.4 259.58 1307.68 259.636 1307.92 259.75C1308.17 259.864 1308.37 260.023 1308.53 260.227C1308.69 260.432 1308.78 260.67 1308.82 260.943H1308.15C1308.1 260.744 1307.99 260.568 1307.81 260.415C1307.64 260.259 1307.4 260.182 1307.11 260.182C1306.84 260.182 1306.61 260.25 1306.42 260.386C1306.22 260.521 1306.07 260.711 1305.96 260.957C1305.85 261.202 1305.8 261.489 1305.8 261.818C1305.8 262.155 1305.85 262.449 1305.96 262.699C1306.07 262.949 1306.22 263.143 1306.41 263.281C1306.61 263.42 1306.84 263.489 1307.11 263.489C1307.28 263.489 1307.44 263.458 1307.58 263.398C1307.72 263.337 1307.84 263.25 1307.94 263.136C1308.04 263.023 1308.11 262.886 1308.15 262.727H1308.82C1308.78 262.985 1308.69 263.217 1308.54 263.423C1308.39 263.628 1308.2 263.791 1307.95 263.912C1307.71 264.031 1307.43 264.091 1307.11 264.091ZM1311.57 264.091C1311.18 264.091 1310.83 263.997 1310.54 263.81C1310.24 263.622 1310.01 263.36 1309.84 263.023C1309.68 262.686 1309.6 262.292 1309.6 261.841C1309.6 261.386 1309.68 260.99 1309.84 260.651C1310.01 260.312 1310.24 260.048 1310.54 259.861C1310.83 259.673 1311.18 259.58 1311.57 259.58C1311.97 259.58 1312.31 259.673 1312.61 259.861C1312.91 260.048 1313.14 260.312 1313.3 260.651C1313.47 260.99 1313.55 261.386 1313.55 261.841C1313.55 262.292 1313.47 262.686 1313.3 263.023C1313.14 263.36 1312.91 263.622 1312.61 263.81C1312.31 263.997 1311.97 264.091 1311.57 264.091ZM1311.57 263.489C1311.87 263.489 1312.12 263.412 1312.31 263.259C1312.51 263.105 1312.65 262.903 1312.74 262.653C1312.83 262.403 1312.88 262.133 1312.88 261.841C1312.88 261.549 1312.83 261.277 1312.74 261.026C1312.65 260.774 1312.51 260.57 1312.31 260.415C1312.12 260.259 1311.87 260.182 1311.57 260.182C1311.27 260.182 1311.03 260.259 1310.84 260.415C1310.64 260.57 1310.5 260.774 1310.41 261.026C1310.31 261.277 1310.27 261.549 1310.27 261.841C1310.27 262.133 1310.31 262.403 1310.41 262.653C1310.5 262.903 1310.64 263.105 1310.84 263.259C1311.03 263.412 1311.27 263.489 1311.57 263.489ZM1314.57 264V259.636H1315.22V260.318H1315.28C1315.37 260.085 1315.52 259.904 1315.72 259.776C1315.92 259.645 1316.17 259.58 1316.45 259.58C1316.74 259.58 1316.98 259.645 1317.17 259.776C1317.36 259.904 1317.51 260.085 1317.62 260.318H1317.67C1317.78 260.093 1317.94 259.914 1318.17 259.781C1318.39 259.647 1318.66 259.58 1318.97 259.58C1319.36 259.58 1319.68 259.702 1319.93 259.946C1320.18 260.188 1320.3 260.566 1320.3 261.08V264H1319.63V261.08C1319.63 260.758 1319.54 260.527 1319.37 260.389C1319.19 260.251 1318.98 260.182 1318.75 260.182C1318.44 260.182 1318.2 260.275 1318.03 260.46C1317.86 260.644 1317.78 260.877 1317.78 261.159V264H1317.1V261.011C1317.1 260.763 1317.02 260.563 1316.86 260.412C1316.69 260.259 1316.49 260.182 1316.23 260.182C1316.06 260.182 1315.9 260.228 1315.75 260.321C1315.6 260.414 1315.47 260.543 1315.38 260.707C1315.29 260.87 1315.25 261.059 1315.25 261.273V264H1314.57Z" fill="#595959"/>
<path d="M275.409 312.182V318H274.705V312.182H275.409ZM276.731 318V313.636H277.379V314.318H277.435C277.526 314.085 277.673 313.904 277.876 313.776C278.078 313.645 278.322 313.58 278.606 313.58C278.894 313.58 279.133 313.645 279.325 313.776C279.518 313.904 279.668 314.085 279.776 314.318H279.822C279.933 314.093 280.101 313.914 280.325 313.781C280.548 313.647 280.816 313.58 281.129 313.58C281.519 313.58 281.838 313.702 282.086 313.946C282.334 314.188 282.458 314.566 282.458 315.08V318H281.788V315.08C281.788 314.758 281.7 314.527 281.523 314.389C281.347 314.251 281.14 314.182 280.901 314.182C280.594 314.182 280.357 314.275 280.188 314.46C280.02 314.644 279.935 314.877 279.935 315.159V318H279.254V315.011C279.254 314.763 279.173 314.563 279.012 314.412C278.851 314.259 278.644 314.182 278.39 314.182C278.216 314.182 278.053 314.228 277.901 314.321C277.752 314.414 277.63 314.543 277.538 314.707C277.447 314.87 277.401 315.059 277.401 315.273V318H276.731ZM284.968 318.102C284.692 318.102 284.441 318.05 284.215 317.946C283.99 317.84 283.811 317.688 283.678 317.489C283.546 317.288 283.479 317.045 283.479 316.761C283.479 316.511 283.529 316.309 283.627 316.153C283.726 315.996 283.857 315.873 284.022 315.784C284.187 315.695 284.369 315.629 284.567 315.585C284.768 315.54 284.97 315.504 285.173 315.477C285.438 315.443 285.653 315.418 285.817 315.401C285.984 315.382 286.105 315.35 286.181 315.307C286.259 315.263 286.298 315.187 286.298 315.08V315.057C286.298 314.777 286.221 314.559 286.067 314.403C285.916 314.248 285.686 314.17 285.377 314.17C285.057 314.17 284.806 314.241 284.624 314.381C284.442 314.521 284.315 314.67 284.241 314.83L283.604 314.602C283.718 314.337 283.87 314.131 284.059 313.983C284.25 313.833 284.459 313.729 284.684 313.67C284.911 313.61 285.135 313.58 285.354 313.58C285.495 313.58 285.656 313.597 285.837 313.631C286.021 313.663 286.198 313.73 286.369 313.832C286.541 313.935 286.684 314.089 286.798 314.295C286.911 314.502 286.968 314.778 286.968 315.125V318H286.298V317.409H286.263C286.218 317.504 286.142 317.605 286.036 317.713C285.93 317.821 285.789 317.913 285.613 317.989C285.437 318.064 285.222 318.102 284.968 318.102ZM285.07 317.5C285.335 317.5 285.559 317.448 285.741 317.344C285.924 317.24 286.063 317.105 286.156 316.94C286.25 316.776 286.298 316.602 286.298 316.42V315.807C286.269 315.841 286.207 315.872 286.11 315.901C286.015 315.927 285.906 315.951 285.781 315.972C285.657 315.991 285.537 316.008 285.42 316.023C285.304 316.036 285.21 316.047 285.138 316.057C284.964 316.08 284.801 316.116 284.65 316.168C284.5 316.217 284.379 316.292 284.286 316.392C284.195 316.491 284.15 316.625 284.15 316.795C284.15 317.028 284.236 317.205 284.408 317.324C284.583 317.441 284.803 317.5 285.07 317.5ZM289.953 319.727C289.629 319.727 289.351 319.686 289.118 319.602C288.885 319.521 288.691 319.413 288.536 319.278C288.382 319.146 288.26 319.004 288.169 318.852L288.703 318.477C288.764 318.557 288.84 318.648 288.933 318.75C289.026 318.854 289.153 318.944 289.314 319.02C289.477 319.098 289.69 319.136 289.953 319.136C290.305 319.136 290.596 319.051 290.825 318.881C291.054 318.71 291.169 318.443 291.169 318.08V317.193H291.112C291.063 317.273 290.993 317.371 290.902 317.489C290.813 317.604 290.684 317.707 290.516 317.798C290.349 317.887 290.124 317.932 289.839 317.932C289.487 317.932 289.171 317.848 288.891 317.682C288.612 317.515 288.392 317.273 288.229 316.955C288.068 316.636 287.987 316.25 287.987 315.795C287.987 315.348 288.066 314.959 288.223 314.628C288.38 314.295 288.599 314.037 288.879 313.855C289.16 313.671 289.483 313.58 289.851 313.58C290.135 313.58 290.36 313.627 290.527 313.722C290.696 313.814 290.824 313.92 290.913 314.04C291.004 314.157 291.074 314.254 291.124 314.33H291.192V313.636H291.839V318.125C291.839 318.5 291.754 318.805 291.584 319.04C291.415 319.277 291.188 319.45 290.902 319.56C290.618 319.671 290.302 319.727 289.953 319.727ZM289.93 317.33C290.199 317.33 290.427 317.268 290.612 317.145C290.798 317.022 290.939 316.845 291.036 316.614C291.132 316.383 291.18 316.106 291.18 315.784C291.18 315.47 291.133 315.192 291.038 314.952C290.944 314.711 290.804 314.523 290.618 314.386C290.432 314.25 290.203 314.182 289.93 314.182C289.646 314.182 289.41 314.254 289.22 314.398C289.033 314.542 288.892 314.735 288.797 314.977C288.704 315.22 288.658 315.489 288.658 315.784C288.658 316.087 288.705 316.355 288.8 316.588C288.896 316.819 289.038 317.001 289.226 317.134C289.415 317.264 289.65 317.33 289.93 317.33ZM294.896 318.091C294.476 318.091 294.113 317.998 293.808 317.812C293.505 317.625 293.271 317.364 293.107 317.028C292.944 316.691 292.862 316.299 292.862 315.852C292.862 315.405 292.944 315.011 293.107 314.67C293.271 314.328 293.5 314.061 293.794 313.869C294.089 313.676 294.434 313.58 294.828 313.58C295.055 313.58 295.28 313.617 295.501 313.693C295.723 313.769 295.925 313.892 296.107 314.062C296.288 314.231 296.433 314.455 296.541 314.733C296.649 315.011 296.703 315.354 296.703 315.761V316.045H293.339V315.466H296.021C296.021 315.22 295.972 315 295.874 314.807C295.777 314.614 295.639 314.461 295.459 314.349C295.281 314.238 295.071 314.182 294.828 314.182C294.561 314.182 294.33 314.248 294.135 314.381C293.942 314.511 293.793 314.682 293.689 314.892C293.585 315.102 293.533 315.328 293.533 315.568V315.955C293.533 316.284 293.589 316.563 293.703 316.793C293.819 317.02 293.979 317.193 294.183 317.312C294.388 317.43 294.625 317.489 294.896 317.489C295.072 317.489 295.232 317.464 295.374 317.415C295.518 317.364 295.642 317.288 295.746 317.188C295.85 317.085 295.93 316.958 295.987 316.807L296.635 316.989C296.567 317.208 296.452 317.402 296.291 317.568C296.13 317.733 295.931 317.862 295.695 317.955C295.458 318.045 295.192 318.091 294.896 318.091Z" fill="#E8E8E8"/>
<path d="M357.705 318V312.182H358.409V314.773H361.511V312.182H362.216V318H361.511V315.398H358.409V318H357.705ZM363.524 318V317.489L365.445 315.386C365.67 315.14 365.856 314.926 366.001 314.744C366.147 314.561 366.255 314.388 366.325 314.227C366.397 314.064 366.433 313.894 366.433 313.716C366.433 313.511 366.384 313.334 366.286 313.185C366.189 313.035 366.056 312.92 365.888 312.838C365.719 312.757 365.53 312.716 365.32 312.716C365.096 312.716 364.901 312.762 364.734 312.855C364.57 312.946 364.442 313.074 364.351 313.239C364.262 313.403 364.217 313.597 364.217 313.818H363.547C363.547 313.477 363.625 313.178 363.783 312.92C363.94 312.663 364.154 312.462 364.425 312.318C364.697 312.174 365.003 312.102 365.342 312.102C365.683 312.102 365.985 312.174 366.249 312.318C366.512 312.462 366.718 312.656 366.868 312.901C367.018 313.145 367.092 313.417 367.092 313.716C367.092 313.93 367.054 314.139 366.976 314.344C366.9 314.546 366.768 314.773 366.578 315.023C366.391 315.271 366.13 315.574 365.797 315.932L364.49 317.33V317.375H367.195V318H363.524Z" fill="#E8E8E8"/>
<path d="M300.318 191H296.091C295.841 189.784 295.403 188.716 294.778 187.795C294.165 186.875 293.415 186.102 292.528 185.477C291.653 184.841 290.682 184.364 289.614 184.045C288.545 183.727 287.432 183.568 286.273 183.568C284.159 183.568 282.244 184.102 280.528 185.17C278.824 186.239 277.466 187.812 276.455 189.892C275.455 191.972 274.955 194.523 274.955 197.545C274.955 200.568 275.455 203.119 276.455 205.199C277.466 207.278 278.824 208.852 280.528 209.92C282.244 210.989 284.159 211.523 286.273 211.523C287.432 211.523 288.545 211.364 289.614 211.045C290.682 210.727 291.653 210.256 292.528 209.631C293.415 208.994 294.165 208.216 294.778 207.295C295.403 206.364 295.841 205.295 296.091 204.091H300.318C300 205.875 299.42 207.472 298.58 208.881C297.739 210.29 296.693 211.489 295.443 212.477C294.193 213.455 292.79 214.199 291.233 214.71C289.688 215.222 288.034 215.477 286.273 215.477C283.295 215.477 280.648 214.75 278.33 213.295C276.011 211.841 274.188 209.773 272.858 207.091C271.528 204.409 270.864 201.227 270.864 197.545C270.864 193.864 271.528 190.682 272.858 188C274.188 185.318 276.011 183.25 278.33 181.795C280.648 180.341 283.295 179.614 286.273 179.614C288.034 179.614 289.688 179.869 291.233 180.381C292.79 180.892 294.193 181.642 295.443 182.631C296.693 183.608 297.739 184.801 298.58 186.21C299.42 187.608 300 189.205 300.318 191ZM307.149 180.091H312.195L324.058 209.068H324.467L336.331 180.091H341.376V215H337.422V188.477H337.081L326.172 215H322.354L311.445 188.477H311.104V215H307.149V180.091ZM368.943 188.818C368.739 187.091 367.909 185.75 366.455 184.795C365 183.841 363.216 183.364 361.102 183.364C359.557 183.364 358.205 183.614 357.045 184.114C355.898 184.614 355 185.301 354.352 186.176C353.716 187.051 353.398 188.045 353.398 189.159C353.398 190.091 353.619 190.892 354.062 191.562C354.517 192.222 355.097 192.773 355.801 193.216C356.506 193.648 357.244 194.006 358.017 194.29C358.79 194.562 359.5 194.784 360.148 194.955L363.693 195.909C364.602 196.148 365.614 196.477 366.727 196.898C367.852 197.318 368.926 197.892 369.949 198.619C370.983 199.335 371.835 200.256 372.506 201.381C373.176 202.506 373.511 203.886 373.511 205.523C373.511 207.409 373.017 209.114 372.028 210.636C371.051 212.159 369.619 213.369 367.733 214.267C365.858 215.165 363.58 215.614 360.898 215.614C358.398 215.614 356.233 215.21 354.403 214.403C352.585 213.597 351.153 212.472 350.108 211.028C349.074 209.585 348.489 207.909 348.352 206H352.716C352.83 207.318 353.273 208.409 354.045 209.273C354.83 210.125 355.818 210.761 357.011 211.182C358.216 211.591 359.511 211.795 360.898 211.795C362.511 211.795 363.96 211.534 365.244 211.011C366.528 210.477 367.545 209.739 368.295 208.795C369.045 207.841 369.42 206.727 369.42 205.455C369.42 204.295 369.097 203.352 368.449 202.625C367.801 201.898 366.949 201.307 365.892 200.852C364.835 200.398 363.693 200 362.466 199.659L358.17 198.432C355.443 197.648 353.284 196.528 351.693 195.074C350.102 193.619 349.307 191.716 349.307 189.364C349.307 187.409 349.835 185.705 350.892 184.25C351.96 182.784 353.392 181.648 355.188 180.841C356.994 180.023 359.011 179.614 361.239 179.614C363.489 179.614 365.489 180.017 367.239 180.824C368.989 181.619 370.375 182.71 371.398 184.097C372.432 185.483 372.977 187.057 373.034 188.818H368.943Z" fill="white"/>
<path d="M1149.23 215V180.091H1161.02C1163.75 180.091 1165.99 180.557 1167.74 181.489C1169.49 182.409 1170.78 183.676 1171.62 185.29C1172.47 186.903 1172.89 188.739 1172.89 190.795C1172.89 192.852 1172.47 194.676 1171.62 196.267C1170.78 197.858 1169.49 199.108 1167.76 200.017C1166.02 200.915 1163.8 201.364 1161.09 201.364H1151.55V197.545H1160.95C1162.82 197.545 1164.32 197.273 1165.45 196.727C1166.6 196.182 1167.43 195.409 1167.94 194.409C1168.47 193.398 1168.73 192.193 1168.73 190.795C1168.73 189.398 1168.47 188.176 1167.94 187.131C1167.42 186.085 1166.59 185.278 1165.44 184.71C1164.29 184.131 1162.77 183.841 1160.89 183.841H1153.45V215H1149.23ZM1165.66 199.318L1174.25 215H1169.34L1160.89 199.318H1165.66ZM1190.08 215.545C1187.56 215.545 1185.38 214.989 1183.55 213.875C1181.73 212.75 1180.33 211.182 1179.34 209.17C1178.37 207.148 1177.88 204.795 1177.88 202.114C1177.88 199.432 1178.37 197.068 1179.34 195.023C1180.33 192.966 1181.71 191.364 1183.47 190.216C1185.24 189.057 1187.31 188.477 1189.67 188.477C1191.04 188.477 1192.38 188.705 1193.71 189.159C1195.04 189.614 1196.25 190.352 1197.34 191.375C1198.43 192.386 1199.3 193.727 1199.95 195.398C1200.6 197.068 1200.92 199.125 1200.92 201.568V203.273H1180.74V199.795H1196.83C1196.83 198.318 1196.54 197 1195.94 195.841C1195.37 194.682 1194.54 193.767 1193.46 193.097C1192.39 192.426 1191.13 192.091 1189.67 192.091C1188.07 192.091 1186.68 192.489 1185.51 193.284C1184.35 194.068 1183.46 195.091 1182.84 196.352C1182.21 197.614 1181.9 198.966 1181.9 200.409V202.727C1181.9 204.705 1182.24 206.381 1182.92 207.756C1183.62 209.119 1184.58 210.159 1185.8 210.875C1187.03 211.58 1188.46 211.932 1190.08 211.932C1191.14 211.932 1192.09 211.784 1192.94 211.489C1193.81 211.182 1194.55 210.727 1195.18 210.125C1195.8 209.511 1196.29 208.75 1196.63 207.841L1200.51 208.932C1200.1 210.25 1199.42 211.409 1198.45 212.409C1197.48 213.398 1196.29 214.17 1194.87 214.727C1193.45 215.273 1191.85 215.545 1190.08 215.545ZM1214.75 215.614C1213.09 215.614 1211.58 215.301 1210.23 214.676C1208.88 214.04 1207.8 213.125 1207.01 211.932C1206.21 210.727 1205.81 209.273 1205.81 207.568C1205.81 206.068 1206.11 204.852 1206.7 203.92C1207.29 202.977 1208.08 202.239 1209.07 201.705C1210.06 201.17 1211.15 200.773 1212.34 200.511C1213.55 200.239 1214.76 200.023 1215.97 199.864C1217.56 199.659 1218.85 199.506 1219.84 199.403C1220.84 199.29 1221.57 199.102 1222.02 198.841C1222.49 198.58 1222.72 198.125 1222.72 197.477V197.341C1222.72 195.659 1222.26 194.352 1221.34 193.42C1220.43 192.489 1219.05 192.023 1217.2 192.023C1215.28 192.023 1213.77 192.443 1212.68 193.284C1211.59 194.125 1210.83 195.023 1210.38 195.977L1206.56 194.614C1207.25 193.023 1208.15 191.784 1209.29 190.898C1210.44 190 1211.69 189.375 1213.04 189.023C1214.4 188.659 1215.75 188.477 1217.06 188.477C1217.9 188.477 1218.87 188.58 1219.96 188.784C1221.06 188.977 1222.13 189.381 1223.15 189.994C1224.18 190.608 1225.04 191.534 1225.72 192.773C1226.4 194.011 1226.75 195.67 1226.75 197.75V215H1222.72V211.455H1222.52C1222.25 212.023 1221.79 212.631 1221.15 213.278C1220.52 213.926 1219.67 214.477 1218.62 214.932C1217.56 215.386 1216.27 215.614 1214.75 215.614ZM1215.36 212C1216.95 212 1218.29 211.688 1219.38 211.062C1220.48 210.438 1221.31 209.631 1221.87 208.642C1222.44 207.653 1222.72 206.614 1222.72 205.523V201.841C1222.55 202.045 1222.18 202.233 1221.6 202.403C1221.03 202.562 1220.37 202.705 1219.62 202.83C1218.88 202.943 1218.16 203.045 1217.46 203.136C1216.76 203.216 1216.2 203.284 1215.77 203.341C1214.72 203.477 1213.75 203.699 1212.84 204.006C1211.94 204.301 1211.21 204.75 1210.65 205.352C1210.11 205.943 1209.84 206.75 1209.84 207.773C1209.84 209.17 1210.35 210.227 1211.39 210.943C1212.43 211.648 1213.76 212 1215.36 212ZM1238.11 180.091V215H1234.09V180.091H1238.11ZM1265.87 215L1256.32 180.091H1260.62L1267.91 208.523H1268.25L1275.68 180.091H1280.46L1287.89 208.523H1288.23L1295.52 180.091H1299.82L1290.27 215H1285.91L1278.21 187.182H1277.93L1270.23 215H1265.87ZM1313.08 215.545C1310.56 215.545 1308.38 214.989 1306.55 213.875C1304.73 212.75 1303.33 211.182 1302.34 209.17C1301.37 207.148 1300.88 204.795 1300.88 202.114C1300.88 199.432 1301.37 197.068 1302.34 195.023C1303.33 192.966 1304.71 191.364 1306.47 190.216C1308.24 189.057 1310.31 188.477 1312.67 188.477C1314.04 188.477 1315.38 188.705 1316.71 189.159C1318.04 189.614 1319.25 190.352 1320.34 191.375C1321.43 192.386 1322.3 193.727 1322.95 195.398C1323.6 197.068 1323.92 199.125 1323.92 201.568V203.273H1303.74V199.795H1319.83C1319.83 198.318 1319.54 197 1318.94 195.841C1318.37 194.682 1317.54 193.767 1316.46 193.097C1315.39 192.426 1314.13 192.091 1312.67 192.091C1311.07 192.091 1309.68 192.489 1308.51 193.284C1307.35 194.068 1306.46 195.091 1305.84 196.352C1305.21 197.614 1304.9 198.966 1304.9 200.409V202.727C1304.9 204.705 1305.24 206.381 1305.92 207.756C1306.62 209.119 1307.58 210.159 1308.8 210.875C1310.03 211.58 1311.46 211.932 1313.08 211.932C1314.14 211.932 1315.09 211.784 1315.94 211.489C1316.81 211.182 1317.55 210.727 1318.18 210.125C1318.8 209.511 1319.29 208.75 1319.63 207.841L1323.51 208.932C1323.1 210.25 1322.42 211.409 1321.45 212.409C1320.48 213.398 1319.29 214.17 1317.87 214.727C1316.45 215.273 1314.85 215.545 1313.08 215.545ZM1330.59 215V180.091H1334.61V192.977H1334.95C1335.25 192.523 1335.65 191.943 1336.18 191.239C1336.71 190.523 1337.47 189.886 1338.46 189.33C1339.46 188.761 1340.81 188.477 1342.52 188.477C1344.72 188.477 1346.67 189.028 1348.35 190.131C1350.03 191.233 1351.34 192.795 1352.29 194.818C1353.23 196.841 1353.7 199.227 1353.7 201.977C1353.7 204.75 1353.23 207.153 1352.29 209.188C1351.34 211.21 1350.04 212.778 1348.37 213.892C1346.69 214.994 1344.77 215.545 1342.59 215.545C1340.9 215.545 1339.56 215.267 1338.55 214.71C1337.54 214.142 1336.76 213.5 1336.21 212.784C1335.67 212.057 1335.25 211.455 1334.95 210.977H1334.47V215H1330.59ZM1334.54 201.909C1334.54 203.886 1334.83 205.631 1335.41 207.142C1335.99 208.642 1336.84 209.818 1337.95 210.67C1339.06 211.511 1340.43 211.932 1342.04 211.932C1343.72 211.932 1345.13 211.489 1346.25 210.602C1347.39 209.705 1348.24 208.5 1348.81 206.989C1349.39 205.466 1349.68 203.773 1349.68 201.909C1349.68 200.068 1349.39 198.409 1348.83 196.932C1348.27 195.443 1347.42 194.267 1346.29 193.403C1345.16 192.528 1343.75 192.091 1342.04 192.091C1340.4 192.091 1339.03 192.506 1337.92 193.335C1336.8 194.153 1335.96 195.301 1335.39 196.778C1334.83 198.244 1334.54 199.955 1334.54 201.909ZM1378.4 194.682L1374.79 195.705C1374.56 195.102 1374.22 194.517 1373.78 193.949C1373.35 193.369 1372.76 192.892 1372.01 192.517C1371.26 192.142 1370.3 191.955 1369.13 191.955C1367.52 191.955 1366.19 192.324 1365.12 193.062C1364.06 193.79 1363.54 194.716 1363.54 195.841C1363.54 196.841 1363.9 197.631 1364.63 198.21C1365.35 198.79 1366.49 199.273 1368.04 199.659L1371.92 200.614C1374.26 201.182 1376.01 202.051 1377.15 203.222C1378.3 204.381 1378.88 205.875 1378.88 207.705C1378.88 209.205 1378.44 210.545 1377.58 211.727C1376.73 212.909 1375.54 213.841 1374 214.523C1372.47 215.205 1370.68 215.545 1368.65 215.545C1365.98 215.545 1363.77 214.966 1362.02 213.807C1360.27 212.648 1359.16 210.955 1358.69 208.727L1362.51 207.773C1362.88 209.182 1363.56 210.239 1364.58 210.943C1365.6 211.648 1366.93 212 1368.58 212C1370.46 212 1371.94 211.602 1373.05 210.807C1374.16 210 1374.72 209.034 1374.72 207.909C1374.72 207 1374.4 206.239 1373.76 205.625C1373.13 205 1372.15 204.534 1370.83 204.227L1366.47 203.205C1364.07 202.636 1362.31 201.756 1361.18 200.562C1360.07 199.358 1359.51 197.852 1359.51 196.045C1359.51 194.568 1359.93 193.261 1360.76 192.125C1361.6 190.989 1362.74 190.097 1364.18 189.449C1365.64 188.801 1367.29 188.477 1369.13 188.477C1371.72 188.477 1373.75 189.045 1375.23 190.182C1376.72 191.318 1377.77 192.818 1378.4 194.682ZM1384.93 215V188.818H1388.95V215H1384.93ZM1386.98 184.455C1386.19 184.455 1385.52 184.188 1384.95 183.653C1384.39 183.119 1384.11 182.477 1384.11 181.727C1384.11 180.977 1384.39 180.335 1384.95 179.801C1385.52 179.267 1386.19 179 1386.98 179C1387.76 179 1388.43 179.267 1388.99 179.801C1389.56 180.335 1389.84 180.977 1389.84 181.727C1389.84 182.477 1389.56 183.119 1388.99 183.653C1388.43 184.188 1387.76 184.455 1386.98 184.455ZM1407.71 188.818V192.227H1394.14V188.818H1407.71ZM1398.1 182.545H1402.12V207.5C1402.12 208.636 1402.28 209.489 1402.61 210.057C1402.95 210.614 1403.38 210.989 1403.91 211.182C1404.44 211.364 1405 211.455 1405.6 211.455C1406.04 211.455 1406.4 211.432 1406.69 211.386C1406.97 211.33 1407.2 211.284 1407.37 211.25L1408.19 214.864C1407.91 214.966 1407.53 215.068 1407.04 215.17C1406.56 215.284 1405.94 215.341 1405.19 215.341C1404.05 215.341 1402.94 215.097 1401.85 214.608C1400.77 214.119 1399.87 213.375 1399.15 212.375C1398.45 211.375 1398.1 210.114 1398.1 208.591V182.545ZM1424.46 215.545C1421.93 215.545 1419.76 214.989 1417.93 213.875C1416.11 212.75 1414.71 211.182 1413.72 209.17C1412.74 207.148 1412.25 204.795 1412.25 202.114C1412.25 199.432 1412.74 197.068 1413.72 195.023C1414.71 192.966 1416.08 191.364 1417.84 190.216C1419.62 189.057 1421.68 188.477 1424.05 188.477C1425.41 188.477 1426.76 188.705 1428.09 189.159C1429.42 189.614 1430.63 190.352 1431.72 191.375C1432.81 192.386 1433.68 193.727 1434.33 195.398C1434.97 197.068 1435.3 199.125 1435.3 201.568V203.273H1415.12V199.795H1431.21C1431.21 198.318 1430.91 197 1430.32 195.841C1429.74 194.682 1428.91 193.767 1427.83 193.097C1426.76 192.426 1425.5 192.091 1424.05 192.091C1422.44 192.091 1421.06 192.489 1419.89 193.284C1418.73 194.068 1417.84 195.091 1417.21 196.352C1416.59 197.614 1416.27 198.966 1416.27 200.409V202.727C1416.27 204.705 1416.62 206.381 1417.3 207.756C1417.99 209.119 1418.95 210.159 1420.18 210.875C1421.4 211.58 1422.83 211.932 1424.46 211.932C1425.51 211.932 1426.47 211.784 1427.32 211.489C1428.18 211.182 1428.93 210.727 1429.55 210.125C1430.18 209.511 1430.66 208.75 1431 207.841L1434.89 208.932C1434.48 210.25 1433.79 211.409 1432.83 212.409C1431.86 213.398 1430.67 214.17 1429.25 214.727C1427.83 215.273 1426.23 215.545 1424.46 215.545Z" fill="white"/>
<mask id="mask2_90_136" style="mask-type:alpha" maskUnits="userSpaceOnUse" x="172" y="242" width="299" height="334">
<rect x="172" y="242" width="299" height="334" rx="15" fill="#303030"/>
</mask>
<g mask="url(#mask2_90_136)">
<g filter="url(#filter2_d_90_136)">
<rect x="172" y="242" width="26" height="334" fill="#656565"/>
</g>
</g>
<path d="M190.62 308.741H189.676V307.797C189.676 307.699 189.597 307.62 189.499 307.62H188.918C188.82 307.62 188.741 307.699 188.741 307.797V308.741H187.797C187.699 308.741 187.62 308.82 187.62 308.918V309.499C187.62 309.597 187.699 309.676 187.797 309.676H188.741V310.62C188.741 310.718 188.82 310.797 188.918 310.797H189.499C189.597 310.797 189.676 310.718 189.676 310.62V309.676H190.62C190.718 309.676 190.797 309.597 190.797 309.499V308.918C190.797 308.82 190.718 308.741 190.62 308.741Z" fill="black"/>
<path d="M188.723 304.205L185.794 301.277C185.697 301.18 185.542 301.176 185.44 301.268C184.915 301.739 182.157 304.133 179.371 304.979L179.341 304.989C179.269 305.011 179.21 305.063 179.179 305.133C179.149 305.202 179.151 305.281 179.185 305.349L179.199 305.377C179.199 305.378 179.199 305.378 179.199 305.378C179.209 305.398 179.61 306.237 179.663 307.419C179.695 308.153 179.588 308.86 179.347 309.519C179.261 309.526 179.176 309.562 179.11 309.628C178.963 309.775 178.963 310.014 179.11 310.161C179.257 310.308 179.496 310.308 179.643 310.161C179.728 310.076 179.763 309.96 179.75 309.849L182.45 307.15C182.517 307.082 182.542 306.984 182.514 306.893C182.418 306.579 182.504 306.239 182.736 306.007C182.904 305.839 183.127 305.746 183.365 305.746C183.602 305.746 183.826 305.839 183.993 306.007C184.161 306.175 184.254 306.398 184.254 306.635C184.254 306.873 184.161 307.096 183.993 307.264C183.826 307.432 183.603 307.524 183.365 307.524C183.277 307.524 183.19 307.511 183.107 307.486C183.016 307.459 182.917 307.483 182.85 307.55L180.151 310.25C180.04 310.237 179.924 310.272 179.839 310.357C179.692 310.504 179.692 310.743 179.839 310.89C179.986 311.037 180.225 311.037 180.372 310.89C180.438 310.824 180.474 310.739 180.481 310.653C181.062 310.44 181.681 310.332 182.321 310.332C182.402 310.332 182.484 310.334 182.566 310.337C183.751 310.386 184.616 310.798 184.624 310.802L184.651 310.815C184.687 310.833 184.726 310.842 184.765 310.842C184.8 310.842 184.835 310.835 184.867 310.821C184.937 310.79 184.989 310.731 185.011 310.659L185.021 310.629C185.867 307.843 188.261 305.085 188.732 304.56C188.824 304.458 188.819 304.302 188.723 304.205Z" fill="black"/>
<path d="M190.924 302.07L187.93 299.075C187.882 299.027 187.816 299 187.748 299C187.679 299 187.614 299.027 187.566 299.075L186.285 300.357C186.184 300.457 186.184 300.62 186.285 300.721L189.279 303.715C189.327 303.764 189.393 303.791 189.461 303.791C189.529 303.791 189.595 303.764 189.643 303.715L190.924 302.434C191.025 302.334 191.025 302.17 190.924 302.07Z" fill="black"/>
<path d="M181.267 322.045C181.038 322.045 180.852 322.23 180.852 322.46C180.852 322.689 181.038 322.875 181.267 322.875C181.303 322.875 181.339 322.87 181.374 322.861L183.521 325.007C182.22 324.365 180.758 324.004 179.211 324.004C178.93 324 178.93 324.423 179.211 324.419C181.286 324.419 183.203 325.095 184.753 326.239L185.045 326.531L184.605 326.972C184.524 327.053 184.524 327.184 184.605 327.265L185.779 328.44C185.86 328.521 185.992 328.521 186.073 328.44L186.513 327.999L186.734 328.22C187.878 329.771 188.554 331.687 188.554 333.763C188.552 333.877 188.644 333.971 188.758 333.973C188.875 333.975 188.971 333.88 188.969 333.763C188.969 332.216 188.608 330.753 187.967 329.453L190.184 331.67C190.174 331.705 190.17 331.741 190.169 331.777C190.169 332.007 190.355 332.192 190.585 332.192C190.814 332.192 191 332.007 191 331.777C191 331.548 190.814 331.362 190.585 331.362C190.549 331.362 190.512 331.367 190.478 331.377L186.836 327.676L187.247 327.265C187.328 327.184 187.328 327.053 187.247 326.972L186.073 325.797C185.992 325.716 185.86 325.716 185.779 325.797L185.375 326.201L181.668 322.567C181.678 322.532 181.682 322.496 181.683 322.46C181.683 322.23 181.497 322.045 181.267 322.045ZM185.926 326.238L186.807 327.118L185.926 327.999L185.045 327.118L185.926 326.238Z" fill="black"/>
<path d="M187.129 280.629C187 280.629 186.895 280.734 186.895 280.863C186.895 280.992 187 281.097 187.129 281.097C187.259 281.097 187.363 280.992 187.363 280.863C187.363 280.734 187.259 280.629 187.129 280.629Z" fill="black"/>
<path d="M182.871 284.88C182.741 284.88 182.637 284.984 182.637 285.113C182.637 285.243 182.741 285.347 182.871 285.347C183 285.347 183.105 285.243 183.105 285.113C183.105 284.984 183 284.88 182.871 284.88Z" fill="black"/>
<path d="M190.709 278.439C190.63 278.421 190.547 278.445 190.489 278.502L189.518 279.48H189.052L188.539 278.949V278.478L189.497 277.508C189.554 277.45 189.577 277.368 189.558 277.289C189.539 277.211 189.481 277.148 189.405 277.122C189.164 277.041 188.912 277 188.656 277C187.893 277 187.199 277.355 186.753 277.975C186.336 278.555 186.208 279.265 186.392 279.945L184.665 281.668L181.789 278.791V278.226C181.789 278.144 181.746 278.068 181.675 278.026L180.018 277.033C179.926 276.978 179.808 276.993 179.732 277.069L179.069 277.73C178.993 277.806 178.978 277.924 179.034 278.016L180.028 279.67C180.07 279.74 180.146 279.783 180.229 279.783L180.794 279.784L183.671 282.661L181.951 284.377C181.27 284.194 180.557 284.322 179.976 284.739C179.356 285.184 179 285.876 179 286.638C179 286.893 179.041 287.144 179.122 287.384C179.148 287.461 179.212 287.519 179.291 287.538C179.37 287.556 179.453 287.532 179.511 287.475L180.482 286.497H180.951L181.484 287.03V287.497L180.505 288.467C180.447 288.524 180.424 288.607 180.442 288.686C180.46 288.765 180.518 288.829 180.595 288.855C180.836 288.936 181.088 288.977 181.344 288.977C182.107 288.977 182.8 288.622 183.246 288.003C183.664 287.422 183.792 286.711 183.608 286.031L184.99 284.653L185.306 284.996L185.161 285.141C185.069 285.232 185.069 285.38 185.161 285.471C185.252 285.563 185.401 285.563 185.492 285.471L185.624 285.34L188.593 288.559C188.595 288.561 188.597 288.563 188.599 288.566C189.149 289.114 190.039 289.114 190.588 288.566C191.136 288.018 191.136 287.128 190.588 286.581C190.586 286.578 190.583 286.576 190.581 286.574L187.351 283.616L187.481 283.487C187.573 283.395 187.573 283.247 187.481 283.156C187.39 283.064 187.241 283.064 187.15 283.156L187.005 283.3L186.661 282.984L188.049 281.599C188.246 281.652 188.45 281.678 188.656 281.678C189.949 281.678 191 280.629 191 279.339C191 279.084 190.959 278.832 190.878 278.592C190.852 278.515 190.788 278.457 190.709 278.439ZM181.058 279.384C181.014 279.341 180.954 279.318 180.892 279.318L180.362 279.318L179.53 277.932L179.934 277.529L181.32 278.359V278.888C181.32 278.95 181.345 279.009 181.389 279.053L184.334 281.999L184.002 282.33L181.058 279.384ZM187.019 283.947L190.26 286.915C190.622 287.28 190.621 287.871 190.257 288.235C189.892 288.599 189.301 288.6 188.934 288.238L185.955 285.009L187.019 283.947ZM186.674 283.631L185.638 284.665L185.321 284.322L186.329 283.315L186.674 283.631ZM188.656 281.211C188.451 281.211 188.25 281.178 188.057 281.113C187.973 281.085 187.88 281.107 187.817 281.169C186.642 282.342 184.11 284.869 183.177 285.8C183.115 285.862 183.093 285.955 183.121 286.04C183.316 286.617 183.223 287.233 182.865 287.73C182.509 288.225 181.954 288.509 181.344 288.509C181.275 288.509 181.207 288.505 181.139 288.498L181.884 287.761C181.928 287.717 181.953 287.657 181.953 287.595V286.933C181.953 286.871 181.928 286.811 181.884 286.767L181.213 286.098C181.169 286.054 181.11 286.029 181.048 286.029H180.385C180.322 286.029 180.262 286.054 180.218 286.098L179.48 286.841C179.472 286.774 179.469 286.706 179.469 286.637C179.469 286.028 179.753 285.475 180.249 285.119C180.747 284.762 181.364 284.669 181.943 284.864C182.027 284.892 182.12 284.87 182.183 284.807C182.196 284.794 186.819 280.18 186.823 280.177C186.885 280.114 186.907 280.021 186.879 279.937C186.684 279.36 186.777 278.744 187.134 278.248C187.491 277.752 188.046 277.468 188.656 277.468C188.727 277.468 188.797 277.472 188.867 277.479L188.138 278.218C188.094 278.262 188.07 278.321 188.07 278.382V279.044C188.07 279.104 188.094 279.163 188.136 279.206L188.784 279.876C188.828 279.922 188.889 279.947 188.952 279.947H189.615C189.678 279.947 189.738 279.923 189.782 279.878L190.52 279.135C190.528 279.203 190.531 279.271 190.531 279.339C190.531 280.371 189.69 281.211 188.656 281.211Z" fill="black"/>
<path d="M186.3 281.359L183.367 284.287C183.276 284.378 183.276 284.526 183.367 284.617C183.459 284.709 183.607 284.709 183.699 284.617L186.632 281.69C186.723 281.599 186.723 281.451 186.632 281.359C186.54 281.268 186.392 281.268 186.3 281.359Z" fill="black"/>
<path d="M189.264 287.573C189.355 287.665 189.504 287.665 189.595 287.573C189.686 287.481 189.686 287.333 189.595 287.242L187.482 285.14C187.39 285.049 187.242 285.049 187.15 285.141C187.059 285.232 187.059 285.381 187.151 285.472L189.264 287.573Z" fill="black"/>
<mask id="mask3_90_136" style="mask-type:alpha" maskUnits="userSpaceOnUse" x="172" y="242" width="299" height="334">
<rect x="172" y="242" width="299" height="334" rx="15" fill="#303030"/>
</mask>
<g mask="url(#mask3_90_136)">
<g filter="url(#filter3_d_90_136)">
<rect x="172" y="267" width="25" height="302.977" transform="rotate(-90 172 267)" fill="#535353"/>
</g>
</g>
<rect x="244.5" y="302.5" width="160" height="69" stroke="#00A4FF" stroke-dasharray="2 2"/>
<rect x="242" y="300" width="5" height="5" fill="#D9D9D9"/>
<rect x="402" y="300" width="5" height="5" fill="#D9D9D9"/>
<rect x="402" y="369" width="5" height="5" fill="#D9D9D9"/>
<rect x="242" y="369" width="5" height="5" fill="#D9D9D9"/>
</g>
<defs>
<filter id="filter0_f_90_136" x="-177" y="-249" width="1041.84" height="706.068" filterUnits="userSpaceOnUse" color-interpolation-filters="sRGB">
<feFlood flood-opacity="0" result="BackgroundImageFix"/>
<feBlend mode="normal" in="SourceGraphic" in2="BackgroundImageFix" result="shape"/>
<feGaussianBlur stdDeviation="50" result="effect1_foregroundBlur_90_136"/>
</filter>
<filter id="filter1_f_90_136" x="829.703" y="70.6412" width="818.17" height="1326.83" filterUnits="userSpaceOnUse" color-interpolation-filters="sRGB">
<feFlood flood-opacity="0" result="BackgroundImageFix"/>
<feBlend mode="normal" in="SourceGraphic" in2="BackgroundImageFix" result="shape"/>
<feGaussianBlur stdDeviation="75" result="effect1_foregroundBlur_90_136"/>
</filter>
<filter id="filter2_d_90_136" x="168" y="242" width="34" height="342" filterUnits="userSpaceOnUse" color-interpolation-filters="sRGB">
<feFlood flood-opacity="0" result="BackgroundImageFix"/>
<feColorMatrix in="SourceAlpha" type="matrix" values="0 0 0 0 0 0 0 0 0 0 0 0 0 0 0 0 0 0 127 0" result="hardAlpha"/>
<feOffset dy="4"/>
<feGaussianBlur stdDeviation="2"/>
<feComposite in2="hardAlpha" operator="out"/>
<feColorMatrix type="matrix" values="0 0 0 0 0 0 0 0 0 0 0 0 0 0 0 0 0 0 0.25 0"/>
<feBlend mode="normal" in2="BackgroundImageFix" result="effect1_dropShadow_90_136"/>
<feBlend mode="normal" in="SourceGraphic" in2="effect1_dropShadow_90_136" result="shape"/>
</filter>
<filter id="filter3_d_90_136" x="168" y="242" width="310.977" height="33" filterUnits="userSpaceOnUse" color-interpolation-filters="sRGB">
<feFlood flood-opacity="0" result="BackgroundImageFix"/>
<feColorMatrix in="SourceAlpha" type="matrix" values="0 0 0 0 0 0 0 0 0 0 0 0 0 0 0 0 0 0 127 0" result="hardAlpha"/>
<feOffset dy="4"/>
<feGaussianBlur stdDeviation="2"/>
<feComposite in2="hardAlpha" operator="out"/>
<feColorMatrix type="matrix" values="0 0 0 0 0 0 0 0 0 0 0 0 0 0 0 0 0 0 0.25 0"/>
<feBlend mode="normal" in2="BackgroundImageFix" result="effect1_dropShadow_90_136"/>
<feBlend mode="normal" in="SourceGraphic" in2="effect1_dropShadow_90_136" result="shape"/>
</filter>
<radialGradient id="paint0_diamond_90_136" cx="0" cy="0" r="1" gradientUnits="userSpaceOnUse" gradientTransform="translate(1323 -483.5) rotate(105.047) scale(2014.57 1520.84)">
<stop stop-color="#A873FF"/>
<stop offset="0.956826" stop-color="#380092"/>
</radialGradient>
<linearGradient id="paint1_linear_90_136" x1="719.672" y1="-104.994" x2="236.842" y2="649.97" gradientUnits="userSpaceOnUse">
<stop stop-color="#A873FF"/>
<stop offset="1" stop-color="#260064"/>
</linearGradient>
<linearGradient id="paint2_linear_90_136" x1="917" y1="399" x2="1167" y2="399" gradientUnits="userSpaceOnUse">
<stop stop-color="#D9D9D9"/>
<stop offset="1" stop-color="#D9D9D9" stop-opacity="0"/>
</linearGradient>
<radialGradient id="paint3_radial_90_136" cx="0" cy="0" r="1" gradientUnits="userSpaceOnUse" gradientTransform="translate(677.5 195.5) rotate(57.3586) scale(348.549)">
<stop stop-color="#8F00FF"/>
<stop offset="1" stop-opacity="0"/>
</radialGradient>
<clipPath id="clip0_90_136">
<rect width="1600" height="800" fill="white"/>
</clipPath>
<clipPath id="clip1_90_136">
<rect width="266" height="266" fill="white" transform="translate(667 237)"/>
</clipPath>
<clipPath id="clip2_90_136">
<rect width="13.4965" height="10.3428" fill="white" transform="translate(1359.19 256.364)"/>
</clipPath>
</defs>
</svg>
