<svg width="1600" height="800" viewBox="0 0 1600 800" fill="none" xmlns="http://www.w3.org/2000/svg">
<g clip-path="url(#clip0_90_130)">
<rect width="1600" height="800" fill="white"/>
<rect width="1600" height="800" fill="url(#paint0_diamond_90_130)"/>
<g filter="url(#filter0_f_90_130)">
<path d="M603.688 353.146C355.688 396.646 32.6875 64.146 24.1875 52.646C-42.1458 58.9792 -143.113 41.0459 -16.3125 -81.3541C142.187 -234.354 556.192 -84.0105 603.688 -55.354C782.688 52.646 851.688 309.646 603.688 353.146Z" fill="url(#paint1_linear_90_130)" fill-opacity="0.1"/>
</g>
<rect width="1600" height="800" fill="white" fill-opacity="0.2"/>
<g clip-path="url(#clip1_90_130)">
<path d="M447.5 456.176L435.647 458.152V507.72L447.5 515.622L455.205 485.9L447.5 456.176Z" fill="white"/>
<path d="M459.353 507.72V458.152L447.5 456.176V515.622L459.353 507.72Z" fill="#C6C6C6"/>
<path d="M364.529 661.808H317.118L305.265 649.955L317.118 638.102H340.823V578.838L352.676 566.985L364.529 578.838V661.808Z" fill="white"/>
<path d="M577.882 661.808H530.471V578.838L542.324 566.985L554.177 578.838V638.102H577.882L589.735 649.955L577.882 661.808Z" fill="#C6C6C6"/>
<path d="M506.765 555.132H483.059L471.206 543.279L483.059 531.426H506.765L518.618 543.279L506.765 555.132Z" fill="#C6C6C6"/>
<path d="M411.942 555.132H388.236L376.383 543.279L388.236 531.426H411.942L423.795 543.279L411.942 555.132Z" fill="white"/>
<path d="M459.353 327.292L447.5 283.486L364.529 324.971L396.4 358.11L447.5 375.757L459.353 327.292Z" fill="#4D0BB7"/>
<path d="M530.471 324.971L447.5 283.486V375.757L494.912 354.949L530.471 324.971Z" fill="#6200FF"/>
<path d="M364.529 324.971V422.593L447.5 464.078L460.67 414.214L447.5 367.855L364.529 324.971Z" fill="#A973FF"/>
<path d="M447.517 367.847L447.501 367.855H447.5V464.078L530.471 422.593V324.971L447.517 367.847Z" fill="#4D0BB7"/>
<path d="M317.117 507.72H388.235V578.838H317.117V507.72Z" fill="#A3A3A3"/>
<path d="M506.765 507.72H577.882V578.838H506.765V507.72Z" fill="#8A8A8A"/>
<path d="M246 685.514H317.118V614.396H246V685.514Z" fill="#6B6B6B"/>
<path d="M577.883 614.396V685.514H649C649 676.91 649 623.058 649 614.396H577.883Z" fill="#8A8A8A"/>
<path d="M435.647 578.838V614.397L447.5 622.299L456.489 596.617L447.5 570.936L435.647 578.838Z" fill="white"/>
<path d="M447.5 570.936V622.299L459.353 614.397V578.838L447.5 570.936Z" fill="#C6C6C6"/>
<path d="M447.5 507.72H411.941V578.838H447.5L459.353 543.279L447.5 507.72Z" fill="#A3A3A3"/>
<path d="M447.5 507.72H483.059V578.838H447.5V507.72Z" fill="#8A8A8A"/>
<path d="M411.941 614.396V685.514H447.5L459.353 649.955L447.5 614.396H411.941Z" fill="#A2A2A2"/>
<path d="M447.5 685.514H483.059V614.396H447.5V685.514Z" fill="#6B6B6B"/>
</g>
<path d="M260.075 119.545C260.075 123.352 259.353 126.591 257.91 129.261C256.478 131.932 254.523 133.972 252.046 135.381C249.58 136.778 246.808 137.477 243.728 137.477C240.626 137.477 237.842 136.773 235.376 135.364C232.91 133.955 230.961 131.915 229.529 129.244C228.097 126.574 227.381 123.341 227.381 119.545C227.381 115.739 228.097 112.5 229.529 109.83C230.961 107.159 232.91 105.125 235.376 103.727C237.842 102.318 240.626 101.614 243.728 101.614C246.808 101.614 249.58 102.318 252.046 103.727C254.523 105.125 256.478 107.159 257.91 109.83C259.353 112.5 260.075 115.739 260.075 119.545ZM252.592 119.545C252.592 117.08 252.222 115 251.484 113.307C250.756 111.614 249.728 110.33 248.398 109.455C247.069 108.58 245.512 108.142 243.728 108.142C241.944 108.142 240.387 108.58 239.058 109.455C237.728 110.33 236.694 111.614 235.955 113.307C235.228 115 234.864 117.08 234.864 119.545C234.864 122.011 235.228 124.091 235.955 125.784C236.694 127.477 237.728 128.761 239.058 129.636C240.387 130.511 241.944 130.949 243.728 130.949C245.512 130.949 247.069 130.511 248.398 129.636C249.728 128.761 250.756 127.477 251.484 125.784C252.222 124.091 252.592 122.011 252.592 119.545ZM265.406 137V110.818H272.445V115.386H272.718C273.195 113.761 273.996 112.534 275.121 111.705C276.246 110.864 277.542 110.443 279.008 110.443C279.371 110.443 279.763 110.466 280.184 110.511C280.604 110.557 280.974 110.619 281.292 110.699V117.142C280.951 117.04 280.479 116.949 279.877 116.869C279.275 116.79 278.724 116.75 278.224 116.75C277.156 116.75 276.201 116.983 275.36 117.449C274.531 117.903 273.871 118.54 273.383 119.358C272.906 120.176 272.667 121.119 272.667 122.188V137H265.406ZM295.623 147.364C293.271 147.364 291.254 147.04 289.572 146.392C287.901 145.756 286.572 144.886 285.583 143.784C284.594 142.682 283.952 141.443 283.657 140.068L290.373 139.165C290.577 139.688 290.901 140.176 291.344 140.631C291.788 141.085 292.373 141.449 293.1 141.722C293.839 142.006 294.737 142.148 295.793 142.148C297.373 142.148 298.674 141.761 299.697 140.989C300.731 140.227 301.248 138.949 301.248 137.153V132.364H300.941C300.623 133.091 300.146 133.778 299.509 134.426C298.873 135.074 298.055 135.602 297.055 136.011C296.055 136.42 294.862 136.625 293.475 136.625C291.509 136.625 289.719 136.17 288.106 135.261C286.504 134.341 285.225 132.937 284.271 131.051C283.327 129.153 282.856 126.756 282.856 123.858C282.856 120.892 283.339 118.415 284.305 116.426C285.271 114.437 286.555 112.949 288.157 111.96C289.771 110.972 291.538 110.477 293.458 110.477C294.924 110.477 296.151 110.727 297.14 111.227C298.129 111.716 298.924 112.33 299.526 113.068C300.14 113.795 300.612 114.511 300.941 115.216H301.214V110.818H308.424V137.256C308.424 139.483 307.879 141.347 306.788 142.847C305.697 144.347 304.185 145.472 302.254 146.222C300.333 146.983 298.123 147.364 295.623 147.364ZM295.776 131.17C296.947 131.17 297.935 130.881 298.742 130.301C299.56 129.71 300.185 128.869 300.617 127.778C301.06 126.676 301.282 125.358 301.282 123.824C301.282 122.29 301.066 120.96 300.634 119.835C300.202 118.699 299.577 117.818 298.759 117.193C297.941 116.568 296.947 116.256 295.776 116.256C294.583 116.256 293.577 116.58 292.759 117.227C291.941 117.864 291.322 118.75 290.901 119.886C290.481 121.023 290.271 122.335 290.271 123.824C290.271 125.335 290.481 126.642 290.901 127.744C291.333 128.835 291.952 129.682 292.759 130.284C293.577 130.875 294.583 131.17 295.776 131.17ZM321.668 137.494C319.998 137.494 318.509 137.205 317.202 136.625C315.896 136.034 314.862 135.165 314.1 134.017C313.35 132.858 312.975 131.415 312.975 129.688C312.975 128.233 313.242 127.011 313.776 126.023C314.31 125.034 315.038 124.239 315.958 123.636C316.879 123.034 317.924 122.58 319.094 122.273C320.276 121.966 321.515 121.75 322.81 121.625C324.333 121.466 325.56 121.318 326.492 121.182C327.424 121.034 328.1 120.818 328.521 120.534C328.941 120.25 329.151 119.83 329.151 119.273V119.17C329.151 118.091 328.81 117.256 328.129 116.665C327.458 116.074 326.504 115.778 325.265 115.778C323.958 115.778 322.918 116.068 322.146 116.648C321.373 117.216 320.862 117.932 320.612 118.795L313.896 118.25C314.237 116.659 314.907 115.284 315.907 114.125C316.907 112.955 318.197 112.057 319.776 111.432C321.367 110.795 323.208 110.477 325.299 110.477C326.754 110.477 328.146 110.648 329.475 110.989C330.816 111.33 332.004 111.858 333.038 112.574C334.083 113.29 334.907 114.21 335.509 115.335C336.112 116.449 336.413 117.784 336.413 119.341V137H329.526V133.369H329.322C328.901 134.188 328.339 134.909 327.634 135.534C326.93 136.148 326.083 136.631 325.094 136.983C324.106 137.324 322.964 137.494 321.668 137.494ZM323.748 132.483C324.816 132.483 325.759 132.273 326.577 131.852C327.396 131.42 328.038 130.841 328.504 130.114C328.969 129.386 329.202 128.562 329.202 127.642V124.864C328.975 125.011 328.663 125.148 328.265 125.273C327.879 125.386 327.441 125.494 326.952 125.597C326.464 125.687 325.975 125.773 325.487 125.852C324.998 125.92 324.555 125.983 324.157 126.04C323.305 126.165 322.56 126.364 321.924 126.636C321.288 126.909 320.793 127.278 320.441 127.744C320.089 128.199 319.913 128.767 319.913 129.449C319.913 130.438 320.271 131.193 320.987 131.716C321.714 132.227 322.634 132.483 323.748 132.483ZM349.308 121.864V137H342.046V110.818H348.967V115.438H349.273C349.853 113.915 350.825 112.71 352.188 111.824C353.552 110.926 355.205 110.477 357.148 110.477C358.967 110.477 360.552 110.875 361.904 111.67C363.256 112.466 364.308 113.602 365.058 115.08C365.808 116.545 366.183 118.295 366.183 120.33V137H358.921V121.625C358.933 120.023 358.523 118.773 357.694 117.875C356.864 116.966 355.722 116.511 354.268 116.511C353.29 116.511 352.427 116.722 351.677 117.142C350.938 117.562 350.359 118.176 349.938 118.983C349.529 119.778 349.319 120.739 349.308 121.864ZM371.906 137V110.818H379.167V137H371.906ZM375.553 107.443C374.474 107.443 373.548 107.085 372.775 106.369C372.013 105.642 371.633 104.773 371.633 103.761C371.633 102.761 372.013 101.903 372.775 101.188C373.548 100.46 374.474 100.097 375.553 100.097C376.633 100.097 377.553 100.46 378.315 101.188C379.087 101.903 379.474 102.761 379.474 103.761C379.474 104.773 379.087 105.642 378.315 106.369C377.553 107.085 376.633 107.443 375.553 107.443ZM384.847 137V132.67L397.665 116.801V116.614H385.29V110.818H406.41V115.54L394.376 131.017V131.205H406.853V137H384.847ZM423.587 137.511C420.894 137.511 418.576 136.966 416.633 135.875C414.701 134.773 413.212 133.216 412.167 131.205C411.121 129.182 410.599 126.79 410.599 124.028C410.599 121.335 411.121 118.972 412.167 116.938C413.212 114.903 414.684 113.318 416.582 112.182C418.491 111.045 420.729 110.477 423.298 110.477C425.025 110.477 426.633 110.756 428.121 111.312C429.621 111.858 430.928 112.682 432.042 113.784C433.167 114.886 434.042 116.273 434.667 117.943C435.292 119.602 435.604 121.545 435.604 123.773V125.767H413.496V121.267H428.769C428.769 120.222 428.542 119.295 428.087 118.489C427.633 117.682 427.002 117.051 426.195 116.597C425.4 116.131 424.474 115.898 423.417 115.898C422.315 115.898 421.337 116.153 420.485 116.665C419.644 117.165 418.985 117.841 418.508 118.693C418.031 119.534 417.786 120.472 417.775 121.506V125.784C417.775 127.08 418.013 128.199 418.491 129.142C418.979 130.085 419.667 130.812 420.553 131.324C421.44 131.835 422.491 132.091 423.707 132.091C424.513 132.091 425.252 131.977 425.923 131.75C426.593 131.523 427.167 131.182 427.644 130.727C428.121 130.273 428.485 129.716 428.735 129.057L435.451 129.5C435.11 131.114 434.411 132.523 433.354 133.727C432.309 134.92 430.957 135.852 429.298 136.523C427.65 137.182 425.746 137.511 423.587 137.511ZM449.991 137.426C448.002 137.426 446.201 136.915 444.587 135.892C442.985 134.858 441.712 133.341 440.769 131.341C439.837 129.33 439.371 126.864 439.371 123.943C439.371 120.943 439.854 118.449 440.82 116.46C441.786 114.46 443.07 112.966 444.673 111.977C446.286 110.977 448.053 110.477 449.974 110.477C451.44 110.477 452.661 110.727 453.638 111.227C454.627 111.716 455.423 112.33 456.025 113.068C456.638 113.795 457.104 114.511 457.423 115.216H457.644V102.091H464.888V137H457.729V132.807H457.423C457.082 133.534 456.599 134.256 455.974 134.972C455.36 135.676 454.559 136.261 453.57 136.727C452.593 137.193 451.4 137.426 449.991 137.426ZM452.292 131.648C453.462 131.648 454.451 131.33 455.258 130.693C456.076 130.045 456.701 129.142 457.133 127.983C457.576 126.824 457.798 125.466 457.798 123.909C457.798 122.352 457.582 121 457.15 119.852C456.718 118.705 456.093 117.818 455.275 117.193C454.457 116.568 453.462 116.256 452.292 116.256C451.099 116.256 450.093 116.58 449.275 117.227C448.457 117.875 447.837 118.773 447.417 119.92C446.996 121.068 446.786 122.398 446.786 123.909C446.786 125.432 446.996 126.778 447.417 127.949C447.849 129.108 448.468 130.017 449.275 130.676C450.093 131.324 451.099 131.648 452.292 131.648ZM512.906 114.312H505.44C505.303 113.347 505.025 112.489 504.604 111.739C504.184 110.977 503.644 110.33 502.985 109.795C502.326 109.261 501.565 108.852 500.701 108.568C499.849 108.284 498.923 108.142 497.923 108.142C496.116 108.142 494.542 108.591 493.201 109.489C491.86 110.375 490.82 111.67 490.082 113.375C489.343 115.068 488.974 117.125 488.974 119.545C488.974 122.034 489.343 124.125 490.082 125.818C490.832 127.511 491.877 128.79 493.218 129.653C494.559 130.517 496.11 130.949 497.871 130.949C498.86 130.949 499.775 130.818 500.616 130.557C501.468 130.295 502.224 129.915 502.883 129.415C503.542 128.903 504.087 128.284 504.519 127.557C504.962 126.83 505.269 126 505.44 125.068L512.906 125.102C512.712 126.705 512.229 128.25 511.457 129.739C510.695 131.216 509.667 132.54 508.371 133.71C507.087 134.869 505.553 135.79 503.769 136.472C501.996 137.142 499.991 137.477 497.752 137.477C494.638 137.477 491.854 136.773 489.4 135.364C486.957 133.955 485.025 131.915 483.604 129.244C482.195 126.574 481.491 123.341 481.491 119.545C481.491 115.739 482.207 112.5 483.638 109.83C485.07 107.159 487.013 105.125 489.468 103.727C491.923 102.318 494.684 101.614 497.752 101.614C499.775 101.614 501.65 101.898 503.377 102.466C505.116 103.034 506.656 103.864 507.996 104.955C509.337 106.034 510.428 107.358 511.269 108.926C512.121 110.494 512.667 112.29 512.906 114.312ZM529.891 137.511C527.244 137.511 524.954 136.949 523.022 135.824C521.102 134.687 519.619 133.108 518.573 131.085C517.528 129.051 517.005 126.693 517.005 124.011C517.005 121.307 517.528 118.943 518.573 116.92C519.619 114.886 521.102 113.307 523.022 112.182C524.954 111.045 527.244 110.477 529.891 110.477C532.539 110.477 534.823 111.045 536.744 112.182C538.675 113.307 540.164 114.886 541.21 116.92C542.255 118.943 542.778 121.307 542.778 124.011C542.778 126.693 542.255 129.051 541.21 131.085C540.164 133.108 538.675 134.687 536.744 135.824C534.823 136.949 532.539 137.511 529.891 137.511ZM529.925 131.886C531.13 131.886 532.136 131.545 532.942 130.864C533.749 130.17 534.357 129.227 534.766 128.034C535.187 126.841 535.397 125.483 535.397 123.96C535.397 122.438 535.187 121.08 534.766 119.886C534.357 118.693 533.749 117.75 532.942 117.057C532.136 116.364 531.13 116.017 529.925 116.017C528.71 116.017 527.687 116.364 526.857 117.057C526.039 117.75 525.42 118.693 524.999 119.886C524.59 121.08 524.386 122.438 524.386 123.96C524.386 125.483 524.59 126.841 524.999 128.034C525.42 129.227 526.039 130.17 526.857 130.864C527.687 131.545 528.71 131.886 529.925 131.886ZM554.761 121.864V137H547.499V110.818H554.42V115.438H554.727C555.306 113.915 556.278 112.71 557.641 111.824C559.005 110.926 560.658 110.477 562.602 110.477C564.42 110.477 566.005 110.875 567.357 111.67C568.71 112.466 569.761 113.602 570.511 115.08C571.261 116.545 571.636 118.295 571.636 120.33V137H564.374V121.625C564.386 120.023 563.977 118.773 563.147 117.875C562.317 116.966 561.175 116.511 559.721 116.511C558.744 116.511 557.88 116.722 557.13 117.142C556.391 117.562 555.812 118.176 555.391 118.983C554.982 119.778 554.772 120.739 554.761 121.864ZM591.285 110.818V116.273H575.518V110.818H591.285ZM579.097 104.545H586.359V128.955C586.359 129.625 586.461 130.148 586.665 130.523C586.87 130.886 587.154 131.142 587.518 131.29C587.893 131.437 588.325 131.511 588.813 131.511C589.154 131.511 589.495 131.483 589.836 131.426C590.177 131.358 590.438 131.307 590.62 131.273L591.762 136.676C591.398 136.79 590.887 136.92 590.228 137.068C589.569 137.227 588.768 137.324 587.825 137.358C586.075 137.426 584.54 137.193 583.222 136.659C581.915 136.125 580.898 135.295 580.171 134.17C579.444 133.045 579.086 131.625 579.097 129.909V104.545ZM607.665 137.511C604.972 137.511 602.654 136.966 600.711 135.875C598.779 134.773 597.29 133.216 596.245 131.205C595.2 129.182 594.677 126.79 594.677 124.028C594.677 121.335 595.2 118.972 596.245 116.938C597.29 114.903 598.762 113.318 600.66 112.182C602.569 111.045 604.808 110.477 607.376 110.477C609.103 110.477 610.711 110.756 612.2 111.312C613.7 111.858 615.006 112.682 616.12 113.784C617.245 114.886 618.12 116.273 618.745 117.943C619.37 119.602 619.683 121.545 619.683 123.773V125.767H597.575V121.267H612.847C612.847 120.222 612.62 119.295 612.165 118.489C611.711 117.682 611.08 117.051 610.273 116.597C609.478 116.131 608.552 115.898 607.495 115.898C606.393 115.898 605.415 116.153 604.563 116.665C603.722 117.165 603.063 117.841 602.586 118.693C602.109 119.534 601.864 120.472 601.853 121.506V125.784C601.853 127.08 602.092 128.199 602.569 129.142C603.058 130.085 603.745 130.812 604.631 131.324C605.518 131.835 606.569 132.091 607.785 132.091C608.592 132.091 609.33 131.977 610.001 131.75C610.671 131.523 611.245 131.182 611.722 130.727C612.2 130.273 612.563 129.716 612.813 129.057L619.529 129.5C619.188 131.114 618.489 132.523 617.433 133.727C616.387 134.92 615.035 135.852 613.376 136.523C611.728 137.182 609.825 137.511 607.665 137.511ZM631.683 121.864V137H624.421V110.818H631.342V115.438H631.648C632.228 113.915 633.2 112.71 634.563 111.824C635.927 110.926 637.58 110.477 639.523 110.477C641.342 110.477 642.927 110.875 644.279 111.67C645.631 112.466 646.683 113.602 647.433 115.08C648.183 116.545 648.558 118.295 648.558 120.33V137H641.296V121.625C641.308 120.023 640.898 118.773 640.069 117.875C639.239 116.966 638.097 116.511 636.643 116.511C635.665 116.511 634.802 116.722 634.052 117.142C633.313 117.562 632.734 118.176 632.313 118.983C631.904 119.778 631.694 120.739 631.683 121.864ZM668.207 110.818V116.273H652.44V110.818H668.207ZM656.019 104.545H663.281V128.955C663.281 129.625 663.383 130.148 663.587 130.523C663.792 130.886 664.076 131.142 664.44 131.29C664.815 131.437 665.246 131.511 665.735 131.511C666.076 131.511 666.417 131.483 666.758 131.426C667.099 131.358 667.36 131.307 667.542 131.273L668.684 136.676C668.32 136.79 667.809 136.92 667.15 137.068C666.491 137.227 665.69 137.324 664.746 137.358C662.996 137.426 661.462 137.193 660.144 136.659C658.837 136.125 657.82 135.295 657.093 134.17C656.366 133.045 656.008 131.625 656.019 129.909V104.545ZM357.768 170.131C357.632 168.756 357.047 167.687 356.013 166.926C354.979 166.165 353.575 165.784 351.803 165.784C350.598 165.784 349.581 165.955 348.751 166.295C347.922 166.625 347.286 167.085 346.842 167.676C346.411 168.267 346.195 168.938 346.195 169.688C346.172 170.312 346.303 170.858 346.587 171.324C346.882 171.79 347.286 172.193 347.797 172.534C348.308 172.864 348.899 173.153 349.57 173.403C350.24 173.642 350.956 173.847 351.717 174.017L354.854 174.767C356.376 175.108 357.774 175.562 359.047 176.131C360.32 176.699 361.422 177.398 362.354 178.227C363.286 179.057 364.007 180.034 364.518 181.159C365.041 182.284 365.308 183.574 365.32 185.028C365.308 187.165 364.763 189.017 363.683 190.585C362.615 192.142 361.07 193.352 359.047 194.216C357.036 195.068 354.609 195.494 351.768 195.494C348.95 195.494 346.496 195.062 344.405 194.199C342.325 193.335 340.7 192.057 339.53 190.364C338.371 188.659 337.763 186.551 337.706 184.04H344.848C344.928 185.21 345.263 186.187 345.854 186.972C346.456 187.744 347.257 188.33 348.257 188.727C349.268 189.114 350.411 189.307 351.683 189.307C352.933 189.307 354.018 189.125 354.939 188.761C355.871 188.398 356.592 187.892 357.104 187.244C357.615 186.597 357.871 185.852 357.871 185.011C357.871 184.227 357.638 183.568 357.172 183.034C356.717 182.5 356.047 182.045 355.161 181.67C354.286 181.295 353.212 180.955 351.939 180.648L348.138 179.693C345.195 178.977 342.871 177.858 341.166 176.335C339.462 174.812 338.615 172.761 338.626 170.182C338.615 168.068 339.178 166.222 340.314 164.642C341.462 163.062 343.036 161.83 345.036 160.943C347.036 160.057 349.308 159.614 351.854 159.614C354.445 159.614 356.706 160.057 358.638 160.943C360.581 161.83 362.092 163.062 363.172 164.642C364.251 166.222 364.808 168.051 364.842 170.131H357.768ZM384.074 168.818V174.273H368.307V168.818H384.074ZM371.886 162.545H379.148V186.955C379.148 187.625 379.25 188.148 379.455 188.523C379.659 188.886 379.943 189.142 380.307 189.29C380.682 189.437 381.114 189.511 381.602 189.511C381.943 189.511 382.284 189.483 382.625 189.426C382.966 189.358 383.227 189.307 383.409 189.273L384.551 194.676C384.188 194.79 383.676 194.92 383.017 195.068C382.358 195.227 381.557 195.324 380.614 195.358C378.864 195.426 377.33 195.193 376.011 194.659C374.705 194.125 373.688 193.295 372.96 192.17C372.233 191.045 371.875 189.625 371.886 187.909V162.545ZM388.804 195V168.818H395.844V173.386H396.116C396.594 171.761 397.395 170.534 398.52 169.705C399.645 168.864 400.94 168.443 402.406 168.443C402.77 168.443 403.162 168.466 403.582 168.511C404.003 168.557 404.372 168.619 404.69 168.699V175.142C404.349 175.04 403.878 174.949 403.276 174.869C402.673 174.79 402.122 174.75 401.622 174.75C400.554 174.75 399.599 174.983 398.759 175.449C397.929 175.903 397.27 176.54 396.781 177.358C396.304 178.176 396.065 179.119 396.065 180.188V195H388.804ZM425.234 183.852V168.818H432.496V195H425.524V190.244H425.251C424.661 191.778 423.678 193.011 422.303 193.943C420.939 194.875 419.274 195.341 417.308 195.341C415.558 195.341 414.018 194.943 412.689 194.148C411.359 193.352 410.32 192.222 409.57 190.756C408.831 189.29 408.456 187.534 408.445 185.489V168.818H415.706V184.193C415.717 185.739 416.132 186.96 416.95 187.858C417.768 188.756 418.865 189.205 420.24 189.205C421.115 189.205 421.933 189.006 422.695 188.608C423.456 188.199 424.07 187.597 424.536 186.801C425.013 186.006 425.246 185.023 425.234 183.852ZM450.134 195.511C447.452 195.511 445.145 194.943 443.213 193.807C441.293 192.659 439.815 191.068 438.781 189.034C437.759 187 437.247 184.659 437.247 182.011C437.247 179.33 437.764 176.977 438.798 174.955C439.844 172.92 441.327 171.335 443.247 170.199C445.168 169.051 447.452 168.477 450.099 168.477C452.384 168.477 454.384 168.892 456.099 169.722C457.815 170.551 459.173 171.716 460.173 173.216C461.173 174.716 461.724 176.477 461.827 178.5H454.974C454.781 177.193 454.27 176.142 453.44 175.347C452.622 174.54 451.548 174.136 450.219 174.136C449.094 174.136 448.111 174.443 447.27 175.057C446.44 175.659 445.793 176.54 445.327 177.699C444.861 178.858 444.628 180.261 444.628 181.909C444.628 183.58 444.855 185 445.31 186.17C445.776 187.341 446.429 188.233 447.27 188.847C448.111 189.46 449.094 189.767 450.219 189.767C451.048 189.767 451.793 189.597 452.452 189.256C453.122 188.915 453.673 188.42 454.105 187.773C454.548 187.114 454.838 186.324 454.974 185.403H461.827C461.713 187.403 461.168 189.165 460.19 190.688C459.224 192.199 457.889 193.381 456.185 194.233C454.48 195.085 452.463 195.511 450.134 195.511ZM480.402 168.818V174.273H464.635V168.818H480.402ZM468.214 162.545H475.476V186.955C475.476 187.625 475.578 188.148 475.783 188.523C475.987 188.886 476.271 189.142 476.635 189.29C477.01 189.437 477.442 189.511 477.93 189.511C478.271 189.511 478.612 189.483 478.953 189.426C479.294 189.358 479.555 189.307 479.737 189.273L480.879 194.676C480.516 194.79 480.004 194.92 479.345 195.068C478.686 195.227 477.885 195.324 476.942 195.358C475.192 195.426 473.658 195.193 472.339 194.659C471.033 194.125 470.016 193.295 469.288 192.17C468.561 191.045 468.203 189.625 468.214 187.909V162.545ZM501.922 183.852V168.818H509.183V195H502.212V190.244H501.939C501.348 191.778 500.365 193.011 498.99 193.943C497.626 194.875 495.962 195.341 493.996 195.341C492.246 195.341 490.706 194.943 489.376 194.148C488.047 193.352 487.007 192.222 486.257 190.756C485.518 189.29 485.143 187.534 485.132 185.489V168.818H492.393V184.193C492.405 185.739 492.82 186.96 493.638 187.858C494.456 188.756 495.553 189.205 496.928 189.205C497.803 189.205 498.621 189.006 499.382 188.608C500.143 188.199 500.757 187.597 501.223 186.801C501.7 186.006 501.933 185.023 501.922 183.852ZM514.991 195V168.818H522.031V173.386H522.304C522.781 171.761 523.582 170.534 524.707 169.705C525.832 168.864 527.128 168.443 528.594 168.443C528.957 168.443 529.349 168.466 529.77 168.511C530.19 168.557 530.56 168.619 530.878 168.699V175.142C530.537 175.04 530.065 174.949 529.463 174.869C528.861 174.79 528.31 174.75 527.81 174.75C526.741 174.75 525.787 174.983 524.946 175.449C524.116 175.903 523.457 176.54 522.969 177.358C522.491 178.176 522.253 179.119 522.253 180.188V195H514.991ZM545.345 195.511C542.652 195.511 540.334 194.966 538.391 193.875C536.459 192.773 534.97 191.216 533.925 189.205C532.879 187.182 532.357 184.79 532.357 182.028C532.357 179.335 532.879 176.972 533.925 174.938C534.97 172.903 536.442 171.318 538.339 170.182C540.249 169.045 542.487 168.477 545.055 168.477C546.783 168.477 548.391 168.756 549.879 169.312C551.379 169.858 552.686 170.682 553.8 171.784C554.925 172.886 555.8 174.273 556.425 175.943C557.05 177.602 557.362 179.545 557.362 181.773V183.767H535.254V179.267H550.527C550.527 178.222 550.3 177.295 549.845 176.489C549.391 175.682 548.76 175.051 547.953 174.597C547.158 174.131 546.232 173.898 545.175 173.898C544.072 173.898 543.095 174.153 542.243 174.665C541.402 175.165 540.743 175.841 540.266 176.693C539.788 177.534 539.544 178.472 539.533 179.506V183.784C539.533 185.08 539.771 186.199 540.249 187.142C540.737 188.085 541.425 188.812 542.311 189.324C543.197 189.835 544.249 190.091 545.464 190.091C546.271 190.091 547.01 189.977 547.68 189.75C548.351 189.523 548.925 189.182 549.402 188.727C549.879 188.273 550.243 187.716 550.493 187.057L557.209 187.5C556.868 189.114 556.169 190.523 555.112 191.727C554.067 192.92 552.714 193.852 551.055 194.523C549.408 195.182 547.504 195.511 545.345 195.511Z" fill="white"/>
<path d="M961.711 137V102.091H985.234V108.176H969.092V116.494H984.024V122.58H969.092V130.915H985.302V137H961.711ZM998.431 137.494C996.761 137.494 995.272 137.205 993.965 136.625C992.659 136.034 991.624 135.165 990.863 134.017C990.113 132.858 989.738 131.415 989.738 129.688C989.738 128.233 990.005 127.011 990.539 126.023C991.073 125.034 991.801 124.239 992.721 123.636C993.642 123.034 994.687 122.58 995.857 122.273C997.039 121.966 998.278 121.75 999.573 121.625C1001.1 121.466 1002.32 121.318 1003.26 121.182C1004.19 121.034 1004.86 120.818 1005.28 120.534C1005.7 120.25 1005.91 119.83 1005.91 119.273V119.17C1005.91 118.091 1005.57 117.256 1004.89 116.665C1004.22 116.074 1003.27 115.778 1002.03 115.778C1000.72 115.778 999.681 116.068 998.909 116.648C998.136 117.216 997.624 117.932 997.374 118.795L990.659 118.25C990.999 116.659 991.67 115.284 992.67 114.125C993.67 112.955 994.96 112.057 996.539 111.432C998.13 110.795 999.971 110.477 1002.06 110.477C1003.52 110.477 1004.91 110.648 1006.24 110.989C1007.58 111.33 1008.77 111.858 1009.8 112.574C1010.85 113.29 1011.67 114.21 1012.27 115.335C1012.87 116.449 1013.18 117.784 1013.18 119.341V137H1006.29V133.369H1006.08C1005.66 134.188 1005.1 134.909 1004.4 135.534C1003.69 136.148 1002.85 136.631 1001.86 136.983C1000.87 137.324 999.727 137.494 998.431 137.494ZM1000.51 132.483C1001.58 132.483 1002.52 132.273 1003.34 131.852C1004.16 131.42 1004.8 130.841 1005.27 130.114C1005.73 129.386 1005.97 128.562 1005.97 127.642V124.864C1005.74 125.011 1005.43 125.148 1005.03 125.273C1004.64 125.386 1004.2 125.494 1003.72 125.597C1003.23 125.687 1002.74 125.773 1002.25 125.852C1001.76 125.92 1001.32 125.983 1000.92 126.04C1000.07 126.165 999.323 126.364 998.687 126.636C998.051 126.909 997.556 127.278 997.204 127.744C996.852 128.199 996.676 128.767 996.676 129.449C996.676 130.438 997.034 131.193 997.749 131.716C998.477 132.227 999.397 132.483 1000.51 132.483ZM1040.59 118.284L1033.95 118.693C1033.83 118.125 1033.59 117.614 1033.21 117.159C1032.84 116.693 1032.34 116.324 1031.73 116.051C1031.13 115.767 1030.41 115.625 1029.56 115.625C1028.44 115.625 1027.49 115.864 1026.72 116.341C1025.95 116.807 1025.56 117.432 1025.56 118.216C1025.56 118.841 1025.81 119.369 1026.31 119.801C1026.81 120.233 1027.67 120.58 1028.88 120.841L1033.62 121.795C1036.17 122.318 1038.06 123.159 1039.31 124.318C1040.56 125.477 1041.19 127 1041.19 128.886C1041.19 130.602 1040.68 132.108 1039.67 133.403C1038.67 134.699 1037.3 135.71 1035.55 136.438C1033.81 137.153 1031.8 137.511 1029.53 137.511C1026.06 137.511 1023.3 136.79 1021.25 135.347C1019.2 133.892 1018 131.915 1017.65 129.415L1024.79 129.04C1025.01 130.097 1025.53 130.903 1026.36 131.46C1027.19 132.006 1028.25 132.278 1029.55 132.278C1030.82 132.278 1031.84 132.034 1032.62 131.545C1033.4 131.045 1033.8 130.403 1033.81 129.619C1033.8 128.96 1033.52 128.42 1032.97 128C1032.43 127.568 1031.59 127.239 1030.45 127.011L1025.92 126.108C1023.36 125.597 1021.46 124.71 1020.21 123.449C1018.97 122.187 1018.35 120.58 1018.35 118.625C1018.35 116.943 1018.8 115.494 1019.71 114.278C1020.63 113.062 1021.92 112.125 1023.58 111.466C1025.25 110.807 1027.21 110.477 1029.45 110.477C1032.75 110.477 1035.35 111.176 1037.25 112.574C1039.16 113.972 1040.28 115.875 1040.59 118.284ZM1050.25 146.818C1049.32 146.818 1048.46 146.744 1047.65 146.597C1046.86 146.46 1046.2 146.284 1045.68 146.068L1047.31 140.648C1048.17 140.909 1048.93 141.051 1049.61 141.074C1050.31 141.097 1050.9 140.938 1051.4 140.597C1051.92 140.256 1052.33 139.676 1052.65 138.858L1053.07 137.75L1043.68 110.818H1051.32L1056.74 130.045H1057.01L1062.48 110.818H1070.17L1060 139.83C1059.51 141.239 1058.84 142.466 1058 143.511C1057.17 144.568 1056.12 145.381 1054.85 145.949C1053.57 146.528 1052.04 146.818 1050.25 146.818ZM1098.92 110.818V116.273H1083.16V110.818H1098.92ZM1086.74 104.545H1094V128.955C1094 129.625 1094.1 130.148 1094.3 130.523C1094.51 130.886 1094.79 131.142 1095.16 131.29C1095.53 131.437 1095.96 131.511 1096.45 131.511C1096.79 131.511 1097.13 131.483 1097.47 131.426C1097.81 131.358 1098.08 131.307 1098.26 131.273L1099.4 136.676C1099.04 136.79 1098.53 136.92 1097.87 137.068C1097.21 137.227 1096.41 137.324 1095.46 137.358C1093.71 137.426 1092.18 137.193 1090.86 136.659C1089.55 136.125 1088.54 135.295 1087.81 134.17C1087.08 133.045 1086.72 131.625 1086.74 129.909V104.545ZM1115.2 137.511C1112.55 137.511 1110.26 136.949 1108.33 135.824C1106.41 134.687 1104.93 133.108 1103.88 131.085C1102.84 129.051 1102.31 126.693 1102.31 124.011C1102.31 121.307 1102.84 118.943 1103.88 116.92C1104.93 114.886 1106.41 113.307 1108.33 112.182C1110.26 111.045 1112.55 110.477 1115.2 110.477C1117.85 110.477 1120.13 111.045 1122.05 112.182C1123.99 113.307 1125.47 114.886 1126.52 116.92C1127.56 118.943 1128.09 121.307 1128.09 124.011C1128.09 126.693 1127.56 129.051 1126.52 131.085C1125.47 133.108 1123.99 134.687 1122.05 135.824C1120.13 136.949 1117.85 137.511 1115.2 137.511ZM1115.24 131.886C1116.44 131.886 1117.45 131.545 1118.25 130.864C1119.06 130.17 1119.67 129.227 1120.08 128.034C1120.5 126.841 1120.71 125.483 1120.71 123.96C1120.71 122.438 1120.5 121.08 1120.08 119.886C1119.67 118.693 1119.06 117.75 1118.25 117.057C1117.45 116.364 1116.44 116.017 1115.24 116.017C1114.02 116.017 1113 116.364 1112.17 117.057C1111.35 117.75 1110.73 118.693 1110.31 119.886C1109.9 121.08 1109.7 122.438 1109.7 123.96C1109.7 125.483 1109.9 126.841 1110.31 128.034C1110.73 129.227 1111.35 130.17 1112.17 130.864C1113 131.545 1114.02 131.886 1115.24 131.886ZM1144.05 102.091H1153.16L1162.77 125.545H1163.18L1172.79 102.091H1181.9V137H1174.74V114.278H1174.45L1165.41 136.83H1160.54L1151.5 114.193H1151.21V137H1144.05V102.091ZM1195.31 137.494C1193.64 137.494 1192.15 137.205 1190.84 136.625C1189.53 136.034 1188.5 135.165 1187.74 134.017C1186.99 132.858 1186.61 131.415 1186.61 129.688C1186.61 128.233 1186.88 127.011 1187.41 126.023C1187.95 125.034 1188.68 124.239 1189.6 123.636C1190.52 123.034 1191.56 122.58 1192.73 122.273C1193.91 121.966 1195.15 121.75 1196.45 121.625C1197.97 121.466 1199.2 121.318 1200.13 121.182C1201.06 121.034 1201.74 120.818 1202.16 120.534C1202.58 120.25 1202.79 119.83 1202.79 119.273V119.17C1202.79 118.091 1202.45 117.256 1201.77 116.665C1201.1 116.074 1200.14 115.778 1198.9 115.778C1197.6 115.778 1196.56 116.068 1195.78 116.648C1195.01 117.216 1194.5 117.932 1194.25 118.795L1187.53 118.25C1187.87 116.659 1188.54 115.284 1189.54 114.125C1190.54 112.955 1191.83 112.057 1193.41 111.432C1195.01 110.795 1196.85 110.477 1198.94 110.477C1200.39 110.477 1201.78 110.648 1203.11 110.989C1204.45 111.33 1205.64 111.858 1206.68 112.574C1207.72 113.29 1208.54 114.21 1209.15 115.335C1209.75 116.449 1210.05 117.784 1210.05 119.341V137H1203.16V133.369H1202.96C1202.54 134.188 1201.98 134.909 1201.27 135.534C1200.57 136.148 1199.72 136.631 1198.73 136.983C1197.74 137.324 1196.6 137.494 1195.31 137.494ZM1197.39 132.483C1198.45 132.483 1199.4 132.273 1200.22 131.852C1201.03 131.42 1201.68 130.841 1202.14 130.114C1202.61 129.386 1202.84 128.562 1202.84 127.642V124.864C1202.61 125.011 1202.3 125.148 1201.9 125.273C1201.52 125.386 1201.08 125.494 1200.59 125.597C1200.1 125.687 1199.61 125.773 1199.12 125.852C1198.64 125.92 1198.19 125.983 1197.79 126.04C1196.94 126.165 1196.2 126.364 1195.56 126.636C1194.93 126.909 1194.43 127.278 1194.08 127.744C1193.73 128.199 1193.55 128.767 1193.55 129.449C1193.55 130.438 1193.91 131.193 1194.62 131.716C1195.35 132.227 1196.27 132.483 1197.39 132.483ZM1222.95 121.864V137H1215.68V110.818H1222.6V115.438H1222.91C1223.49 113.915 1224.46 112.71 1225.83 111.824C1227.19 110.926 1228.84 110.477 1230.79 110.477C1232.6 110.477 1234.19 110.875 1235.54 111.67C1236.89 112.466 1237.95 113.602 1238.7 115.08C1239.45 116.545 1239.82 118.295 1239.82 120.33V137H1232.56V121.625C1232.57 120.023 1232.16 118.773 1231.33 117.875C1230.5 116.966 1229.36 116.511 1227.91 116.511C1226.93 116.511 1226.06 116.722 1225.31 117.142C1224.58 117.562 1224 118.176 1223.58 118.983C1223.17 119.778 1222.96 120.739 1222.95 121.864ZM1253.01 137.494C1251.34 137.494 1249.85 137.205 1248.54 136.625C1247.24 136.034 1246.2 135.165 1245.44 134.017C1244.69 132.858 1244.32 131.415 1244.32 129.688C1244.32 128.233 1244.58 127.011 1245.12 126.023C1245.65 125.034 1246.38 124.239 1247.3 123.636C1248.22 123.034 1249.27 122.58 1250.44 122.273C1251.62 121.966 1252.86 121.75 1254.15 121.625C1255.67 121.466 1256.9 121.318 1257.83 121.182C1258.77 121.034 1259.44 120.818 1259.86 120.534C1260.28 120.25 1260.49 119.83 1260.49 119.273V119.17C1260.49 118.091 1260.15 117.256 1259.47 116.665C1258.8 116.074 1257.84 115.778 1256.61 115.778C1255.3 115.778 1254.26 116.068 1253.49 116.648C1252.71 117.216 1252.2 117.932 1251.95 118.795L1245.24 118.25C1245.58 116.659 1246.25 115.284 1247.25 114.125C1248.25 112.955 1249.54 112.057 1251.12 111.432C1252.71 110.795 1254.55 110.477 1256.64 110.477C1258.09 110.477 1259.49 110.648 1260.82 110.989C1262.16 111.33 1263.34 111.858 1264.38 112.574C1265.42 113.29 1266.25 114.21 1266.85 115.335C1267.45 116.449 1267.75 117.784 1267.75 119.341V137H1260.87V133.369H1260.66C1260.24 134.188 1259.68 134.909 1258.98 135.534C1258.27 136.148 1257.42 136.631 1256.44 136.983C1255.45 137.324 1254.3 137.494 1253.01 137.494ZM1255.09 132.483C1256.16 132.483 1257.1 132.273 1257.92 131.852C1258.74 131.42 1259.38 130.841 1259.84 130.114C1260.31 129.386 1260.54 128.562 1260.54 127.642V124.864C1260.32 125.011 1260 125.148 1259.61 125.273C1259.22 125.386 1258.78 125.494 1258.29 125.597C1257.8 125.687 1257.32 125.773 1256.83 125.852C1256.34 125.92 1255.9 125.983 1255.5 126.04C1254.65 126.165 1253.9 126.364 1253.27 126.636C1252.63 126.909 1252.13 127.278 1251.78 127.744C1251.43 128.199 1251.25 128.767 1251.25 129.449C1251.25 130.438 1251.61 131.193 1252.33 131.716C1253.05 132.227 1253.98 132.483 1255.09 132.483ZM1285.18 147.364C1282.83 147.364 1280.81 147.04 1279.13 146.392C1277.46 145.756 1276.13 144.886 1275.14 143.784C1274.15 142.682 1273.51 141.443 1273.22 140.068L1279.93 139.165C1280.14 139.688 1280.46 140.176 1280.9 140.631C1281.35 141.085 1281.93 141.449 1282.66 141.722C1283.4 142.006 1284.3 142.148 1285.35 142.148C1286.93 142.148 1288.23 141.761 1289.26 140.989C1290.29 140.227 1290.81 138.949 1290.81 137.153V132.364H1290.5C1290.18 133.091 1289.71 133.778 1289.07 134.426C1288.43 135.074 1287.61 135.602 1286.61 136.011C1285.61 136.42 1284.42 136.625 1283.04 136.625C1281.07 136.625 1279.28 136.17 1277.67 135.261C1276.06 134.341 1274.79 132.937 1273.83 131.051C1272.89 129.153 1272.42 126.756 1272.42 123.858C1272.42 120.892 1272.9 118.415 1273.86 116.426C1274.83 114.437 1276.11 112.949 1277.72 111.96C1279.33 110.972 1281.1 110.477 1283.02 110.477C1284.48 110.477 1285.71 110.727 1286.7 111.227C1287.69 111.716 1288.48 112.33 1289.09 113.068C1289.7 113.795 1290.17 114.511 1290.5 115.216H1290.77V110.818H1297.98V137.256C1297.98 139.483 1297.44 141.347 1296.35 142.847C1295.26 144.347 1293.75 145.472 1291.81 146.222C1289.89 146.983 1287.68 147.364 1285.18 147.364ZM1285.34 131.17C1286.51 131.17 1287.5 130.881 1288.3 130.301C1289.12 129.71 1289.75 128.869 1290.18 127.778C1290.62 126.676 1290.84 125.358 1290.84 123.824C1290.84 122.29 1290.63 120.96 1290.19 119.835C1289.76 118.699 1289.14 117.818 1288.32 117.193C1287.5 116.568 1286.51 116.256 1285.34 116.256C1284.14 116.256 1283.14 116.58 1282.32 117.227C1281.5 117.864 1280.88 118.75 1280.46 119.886C1280.04 121.023 1279.83 122.335 1279.83 123.824C1279.83 125.335 1280.04 126.642 1280.46 127.744C1280.89 128.835 1281.51 129.682 1282.32 130.284C1283.14 130.875 1284.14 131.17 1285.34 131.17ZM1315.69 137.511C1313 137.511 1310.68 136.966 1308.74 135.875C1306.81 134.773 1305.32 133.216 1304.27 131.205C1303.23 129.182 1302.71 126.79 1302.71 124.028C1302.71 121.335 1303.23 118.972 1304.27 116.938C1305.32 114.903 1306.79 113.318 1308.69 112.182C1310.6 111.045 1312.84 110.477 1315.4 110.477C1317.13 110.477 1318.74 110.756 1320.23 111.312C1321.73 111.858 1323.04 112.682 1324.15 113.784C1325.27 114.886 1326.15 116.273 1326.77 117.943C1327.4 119.602 1327.71 121.545 1327.71 123.773V125.767H1305.6V121.267H1320.88C1320.88 120.222 1320.65 119.295 1320.19 118.489C1319.74 117.682 1319.11 117.051 1318.3 116.597C1317.51 116.131 1316.58 115.898 1315.52 115.898C1314.42 115.898 1313.44 116.153 1312.59 116.665C1311.75 117.165 1311.09 117.841 1310.61 118.693C1310.14 119.534 1309.89 120.472 1309.88 121.506V125.784C1309.88 127.08 1310.12 128.199 1310.6 129.142C1311.09 130.085 1311.77 130.812 1312.66 131.324C1313.55 131.835 1314.6 132.091 1315.81 132.091C1316.62 132.091 1317.36 131.977 1318.03 131.75C1318.7 131.523 1319.27 131.182 1319.75 130.727C1320.23 130.273 1320.59 129.716 1320.84 129.057L1327.56 129.5C1327.22 131.114 1326.52 132.523 1325.46 133.727C1324.42 134.92 1323.06 135.852 1321.4 136.523C1319.76 137.182 1317.85 137.511 1315.69 137.511ZM1030.76 195V160.091H1038.14V175.483H1038.6L1051.16 160.091H1060.01L1047.05 175.722L1060.16 195H1051.33L1041.77 180.648L1038.14 185.08V195H1030.76ZM1073.73 195.511C1071.03 195.511 1068.71 194.966 1066.77 193.875C1064.84 192.773 1063.35 191.216 1062.3 189.205C1061.26 187.182 1060.74 184.79 1060.74 182.028C1060.74 179.335 1061.26 176.972 1062.3 174.938C1063.35 172.903 1064.82 171.318 1066.72 170.182C1068.63 169.045 1070.87 168.477 1073.44 168.477C1075.16 168.477 1076.77 168.756 1078.26 169.312C1079.76 169.858 1081.07 170.682 1082.18 171.784C1083.3 172.886 1084.18 174.273 1084.8 175.943C1085.43 177.602 1085.74 179.545 1085.74 181.773V183.767H1063.63V179.267H1078.91C1078.91 178.222 1078.68 177.295 1078.23 176.489C1077.77 175.682 1077.14 175.051 1076.33 174.597C1075.54 174.131 1074.61 173.898 1073.55 173.898C1072.45 173.898 1071.48 174.153 1070.62 174.665C1069.78 175.165 1069.12 175.841 1068.65 176.693C1068.17 177.534 1067.92 178.472 1067.91 179.506V183.784C1067.91 185.08 1068.15 186.199 1068.63 187.142C1069.12 188.085 1069.8 188.812 1070.69 189.324C1071.58 189.835 1072.63 190.091 1073.84 190.091C1074.65 190.091 1075.39 189.977 1076.06 189.75C1076.73 189.523 1077.3 189.182 1077.78 188.727C1078.26 188.273 1078.62 187.716 1078.87 187.057L1085.59 187.5C1085.25 189.114 1084.55 190.523 1083.49 191.727C1082.45 192.92 1081.09 193.852 1079.44 194.523C1077.79 195.182 1075.88 195.511 1073.73 195.511ZM1094.26 204.818C1093.34 204.818 1092.48 204.744 1091.67 204.597C1090.87 204.46 1090.22 204.284 1089.69 204.068L1091.33 198.648C1092.18 198.909 1092.95 199.051 1093.63 199.074C1094.32 199.097 1094.92 198.938 1095.42 198.597C1095.93 198.256 1096.35 197.676 1096.66 196.858L1097.09 195.75L1087.7 168.818H1095.33L1100.76 188.045H1101.03L1106.5 168.818H1114.19L1104.01 197.83C1103.52 199.239 1102.86 200.466 1102.02 201.511C1101.19 202.568 1100.14 203.381 1098.86 203.949C1097.59 204.528 1096.06 204.818 1094.26 204.818ZM1123.07 195L1115.94 168.818H1123.29L1127.35 186.409H1127.58L1131.81 168.818H1139.02L1143.32 186.307H1143.54L1147.53 168.818H1154.86L1147.75 195H1140.06L1135.56 178.534H1135.24L1130.74 195H1123.07ZM1169.9 195.511C1167.26 195.511 1164.97 194.949 1163.04 193.824C1161.11 192.687 1159.63 191.108 1158.59 189.085C1157.54 187.051 1157.02 184.693 1157.02 182.011C1157.02 179.307 1157.54 176.943 1158.59 174.92C1159.63 172.886 1161.11 171.307 1163.04 170.182C1164.97 169.045 1167.26 168.477 1169.9 168.477C1172.55 168.477 1174.84 169.045 1176.76 170.182C1178.69 171.307 1180.18 172.886 1181.22 174.92C1182.27 176.943 1182.79 179.307 1182.79 182.011C1182.79 184.693 1182.27 187.051 1181.22 189.085C1180.18 191.108 1178.69 192.687 1176.76 193.824C1174.84 194.949 1172.55 195.511 1169.9 195.511ZM1169.94 189.886C1171.14 189.886 1172.15 189.545 1172.96 188.864C1173.76 188.17 1174.37 187.227 1174.78 186.034C1175.2 184.841 1175.41 183.483 1175.41 181.96C1175.41 180.438 1175.2 179.08 1174.78 177.886C1174.37 176.693 1173.76 175.75 1172.96 175.057C1172.15 174.364 1171.14 174.017 1169.94 174.017C1168.72 174.017 1167.7 174.364 1166.87 175.057C1166.05 175.75 1165.43 176.693 1165.01 177.886C1164.6 179.08 1164.4 180.438 1164.4 181.96C1164.4 183.483 1164.6 184.841 1165.01 186.034C1165.43 187.227 1166.05 188.17 1166.87 188.864C1167.7 189.545 1168.72 189.886 1169.94 189.886ZM1187.51 195V168.818H1194.55V173.386H1194.82C1195.3 171.761 1196.1 170.534 1197.23 169.705C1198.35 168.864 1199.65 168.443 1201.11 168.443C1201.48 168.443 1201.87 168.466 1202.29 168.511C1202.71 168.557 1203.08 168.619 1203.4 168.699V175.142C1203.06 175.04 1202.59 174.949 1201.98 174.869C1201.38 174.79 1200.83 174.75 1200.33 174.75C1199.26 174.75 1198.31 174.983 1197.47 175.449C1196.64 175.903 1195.98 176.54 1195.49 177.358C1195.01 178.176 1194.77 179.119 1194.77 180.188V195H1187.51ZM1215.58 195.426C1213.59 195.426 1211.79 194.915 1210.18 193.892C1208.58 192.858 1207.3 191.341 1206.36 189.341C1205.43 187.33 1204.96 184.864 1204.96 181.943C1204.96 178.943 1205.45 176.449 1206.41 174.46C1207.38 172.46 1208.66 170.966 1210.26 169.977C1211.88 168.977 1213.64 168.477 1215.56 168.477C1217.03 168.477 1218.25 168.727 1219.23 169.227C1220.22 169.716 1221.01 170.33 1221.62 171.068C1222.23 171.795 1222.7 172.511 1223.01 173.216H1223.24V160.091H1230.48V195H1223.32V190.807H1223.01C1222.67 191.534 1222.19 192.256 1221.56 192.972C1220.95 193.676 1220.15 194.261 1219.16 194.727C1218.18 195.193 1216.99 195.426 1215.58 195.426ZM1217.88 189.648C1219.05 189.648 1220.04 189.33 1220.85 188.693C1221.67 188.045 1222.29 187.142 1222.72 185.983C1223.17 184.824 1223.39 183.466 1223.39 181.909C1223.39 180.352 1223.17 179 1222.74 177.852C1222.31 176.705 1221.68 175.818 1220.87 175.193C1220.05 174.568 1219.05 174.256 1217.88 174.256C1216.69 174.256 1215.68 174.58 1214.87 175.227C1214.05 175.875 1213.43 176.773 1213.01 177.92C1212.59 179.068 1212.38 180.398 1212.38 181.909C1212.38 183.432 1212.59 184.778 1213.01 185.949C1213.44 187.108 1214.06 188.017 1214.87 188.676C1215.68 189.324 1216.69 189.648 1217.88 189.648ZM1258.23 176.284L1251.59 176.693C1251.47 176.125 1251.23 175.614 1250.85 175.159C1250.48 174.693 1249.98 174.324 1249.37 174.051C1248.77 173.767 1248.05 173.625 1247.21 173.625C1246.08 173.625 1245.13 173.864 1244.36 174.341C1243.59 174.807 1243.2 175.432 1243.2 176.216C1243.2 176.841 1243.45 177.369 1243.95 177.801C1244.45 178.233 1245.31 178.58 1246.52 178.841L1251.26 179.795C1253.81 180.318 1255.71 181.159 1256.96 182.318C1258.21 183.477 1258.83 185 1258.83 186.886C1258.83 188.602 1258.32 190.108 1257.31 191.403C1256.31 192.699 1254.94 193.71 1253.19 194.438C1251.45 195.153 1249.44 195.511 1247.17 195.511C1243.71 195.511 1240.94 194.79 1238.89 193.347C1236.84 191.892 1235.64 189.915 1235.29 187.415L1242.43 187.04C1242.65 188.097 1243.17 188.903 1244 189.46C1244.83 190.006 1245.89 190.278 1247.19 190.278C1248.46 190.278 1249.48 190.034 1250.26 189.545C1251.04 189.045 1251.44 188.403 1251.45 187.619C1251.44 186.96 1251.16 186.42 1250.61 186C1250.07 185.568 1249.23 185.239 1248.09 185.011L1243.56 184.108C1241 183.597 1239.1 182.71 1237.85 181.449C1236.61 180.187 1235.99 178.58 1235.99 176.625C1235.99 174.943 1236.44 173.494 1237.35 172.278C1238.27 171.062 1239.56 170.125 1241.22 169.466C1242.89 168.807 1244.85 168.477 1247.09 168.477C1250.39 168.477 1253 169.176 1254.89 170.574C1256.8 171.972 1257.92 173.875 1258.23 176.284Z" fill="white"/>
<rect x="920" y="515.075" width="137" height="30" rx="10" fill="#D9D9D9"/>
<rect x="1154" y="516.075" width="65" height="30" rx="10" fill="#D9D9D9"/>
<rect x="1073" y="516.075" width="65" height="30" rx="10" fill="#D9D9D9"/>
<rect x="1235" y="516.075" width="112" height="30" rx="10" fill="#D9D9D9"/>
<rect x="920" y="468.075" width="103" height="30" rx="10" fill="#D9D9D9"/>
<rect x="1039" y="469.075" width="155" height="30" rx="10" fill="#D9D9D9"/>
<rect x="1210" y="468.075" width="79" height="30" rx="10" fill="#D9D9D9"/>
<rect x="1305" y="468.075" width="79" height="30" rx="10" fill="#D9D9D9"/>
<path d="M1231.5 389.075L1200 334.075H1319L1291.5 389.075H1231.5Z" fill="url(#paint2_linear_90_130)"/>
<rect x="1200" y="316.075" width="119" height="26" rx="10" fill="black"/>
<path d="M1228.7 332.114L1228.69 330.041H1228.99L1232.47 326.347H1234.5L1230.53 330.552H1230.27L1228.7 332.114ZM1227.14 335.075V323.438H1228.84V335.075H1227.14ZM1232.65 335.075L1229.53 330.927L1230.7 329.739L1234.74 335.075H1232.65ZM1239.45 335.251C1238.59 335.251 1237.85 335.067 1237.23 334.7C1236.61 334.328 1236.13 333.808 1235.8 333.137C1235.46 332.463 1235.3 331.673 1235.3 330.768C1235.3 329.874 1235.46 329.086 1235.8 328.404C1236.13 327.722 1236.6 327.19 1237.21 326.808C1237.81 326.425 1238.52 326.234 1239.33 326.234C1239.82 326.234 1240.3 326.315 1240.76 326.478C1241.22 326.641 1241.64 326.897 1242.01 327.245C1242.37 327.594 1242.66 328.046 1242.88 328.603C1243.09 329.156 1243.19 329.828 1243.19 330.62V331.222H1236.26V329.95H1241.53C1241.53 329.503 1241.44 329.107 1241.26 328.762C1241.08 328.414 1240.82 328.139 1240.49 327.938C1240.16 327.738 1239.78 327.637 1239.34 327.637C1238.87 327.637 1238.45 327.755 1238.09 327.989C1237.74 328.221 1237.47 328.524 1237.27 328.899C1237.08 329.27 1236.99 329.673 1236.99 330.109V331.103C1236.99 331.686 1237.09 332.183 1237.3 332.592C1237.51 333.001 1237.79 333.313 1238.17 333.529C1238.54 333.741 1238.97 333.847 1239.47 333.847C1239.79 333.847 1240.08 333.802 1240.35 333.711C1240.61 333.616 1240.84 333.476 1241.04 333.291C1241.23 333.105 1241.38 332.876 1241.48 332.603L1243.09 332.893C1242.96 333.366 1242.73 333.781 1242.39 334.137C1242.06 334.489 1241.65 334.764 1241.15 334.961C1240.65 335.154 1240.09 335.251 1239.45 335.251ZM1245.9 338.347C1245.65 338.347 1245.42 338.327 1245.21 338.285C1245 338.247 1244.85 338.205 1244.74 338.16L1245.15 336.768C1245.46 336.851 1245.74 336.887 1245.98 336.876C1246.23 336.864 1246.44 336.774 1246.62 336.603C1246.81 336.433 1246.98 336.154 1247.12 335.768L1247.34 335.188L1244.14 326.347H1245.96L1248.17 333.12H1248.26L1250.47 326.347H1252.3L1248.7 336.239C1248.53 336.694 1248.32 337.078 1248.06 337.393C1247.8 337.711 1247.5 337.95 1247.14 338.109C1246.79 338.268 1246.37 338.347 1245.9 338.347ZM1255.78 335.075L1253.22 326.347H1254.97L1256.68 332.757H1256.77L1258.48 326.347H1260.24L1261.94 332.728H1262.03L1263.73 326.347H1265.48L1262.92 335.075H1261.19L1259.41 328.774H1259.28L1257.51 335.075H1255.78ZM1270.51 335.251C1269.69 335.251 1268.97 335.063 1268.36 334.688C1267.75 334.313 1267.28 333.789 1266.94 333.114C1266.61 332.44 1266.44 331.652 1266.44 330.751C1266.44 329.846 1266.61 329.054 1266.94 328.376C1267.28 327.698 1267.75 327.171 1268.36 326.796C1268.97 326.421 1269.69 326.234 1270.51 326.234C1271.32 326.234 1272.04 326.421 1272.65 326.796C1273.26 327.171 1273.73 327.698 1274.07 328.376C1274.41 329.054 1274.57 329.846 1274.57 330.751C1274.57 331.652 1274.41 332.44 1274.07 333.114C1273.73 333.789 1273.26 334.313 1272.65 334.688C1272.04 335.063 1271.32 335.251 1270.51 335.251ZM1270.51 333.825C1271.04 333.825 1271.48 333.685 1271.83 333.404C1272.18 333.124 1272.44 332.751 1272.6 332.285C1272.77 331.819 1272.86 331.306 1272.86 330.745C1272.86 330.188 1272.77 329.677 1272.6 329.211C1272.44 328.741 1272.18 328.364 1271.83 328.08C1271.48 327.796 1271.04 327.654 1270.51 327.654C1269.98 327.654 1269.53 327.796 1269.18 328.08C1268.83 328.364 1268.57 328.741 1268.4 329.211C1268.24 329.677 1268.15 330.188 1268.15 330.745C1268.15 331.306 1268.24 331.819 1268.4 332.285C1268.57 332.751 1268.83 333.124 1269.18 333.404C1269.53 333.685 1269.98 333.825 1270.51 333.825ZM1276.47 335.075V326.347H1278.11V327.734H1278.2C1278.36 327.264 1278.64 326.895 1279.04 326.626C1279.45 326.353 1279.91 326.217 1280.42 326.217C1280.53 326.217 1280.65 326.221 1280.79 326.228C1280.94 326.236 1281.06 326.245 1281.14 326.257V327.882C1281.07 327.863 1280.95 327.842 1280.78 327.819C1280.6 327.793 1280.43 327.779 1280.25 327.779C1279.85 327.779 1279.49 327.864 1279.18 328.035C1278.87 328.202 1278.62 328.435 1278.44 328.734C1278.26 329.029 1278.17 329.366 1278.17 329.745V335.075H1276.47ZM1285.57 335.245C1284.86 335.245 1284.23 335.065 1283.68 334.705C1283.13 334.342 1282.7 333.825 1282.38 333.154C1282.07 332.48 1281.92 331.671 1281.92 330.728C1281.92 329.785 1282.07 328.978 1282.39 328.308C1282.71 327.637 1283.14 327.124 1283.7 326.768C1284.25 326.412 1284.88 326.234 1285.58 326.234C1286.12 326.234 1286.55 326.325 1286.88 326.507C1287.22 326.685 1287.47 326.893 1287.66 327.132C1287.84 327.37 1287.99 327.58 1288.09 327.762H1288.19V323.438H1289.89V335.075H1288.23V333.717H1288.09C1287.99 333.902 1287.84 334.114 1287.64 334.353C1287.46 334.592 1287.19 334.8 1286.86 334.978C1286.53 335.156 1286.1 335.245 1285.57 335.245ZM1285.94 333.796C1286.43 333.796 1286.84 333.668 1287.18 333.41C1287.52 333.149 1287.78 332.787 1287.95 332.325C1288.13 331.863 1288.22 331.325 1288.22 330.711C1288.22 330.105 1288.13 329.575 1287.96 329.12C1287.78 328.666 1287.53 328.311 1287.19 328.058C1286.85 327.804 1286.44 327.677 1285.94 327.677C1285.43 327.677 1285 327.81 1284.66 328.075C1284.32 328.34 1284.06 328.702 1283.89 329.16C1283.72 329.618 1283.63 330.135 1283.63 330.711C1283.63 331.294 1283.72 331.819 1283.89 332.285C1284.07 332.751 1284.33 333.12 1284.67 333.393C1285.01 333.662 1285.44 333.796 1285.94 333.796Z" fill="white"/>
<rect x="919" y="370.075" width="62" height="50" rx="10" fill="#B9B9B9"/>
<rect x="1005" y="371.075" width="184" height="50" rx="10" fill="#B9B9B9"/>
<rect x="1213" y="368.075" width="94" height="50" rx="10" fill="#B9B9B9"/>
<path d="M1174.47 583.075L1148 528.075H1248L1224.89 583.075H1174.47Z" fill="url(#paint3_linear_90_130)"/>
<rect x="1148" y="510.075" width="100" height="26" rx="10" fill="black"/>
<path d="M1170.7 525.114L1170.69 523.041H1170.99L1174.47 519.347H1176.5L1172.53 523.552H1172.27L1170.7 525.114ZM1169.14 528.075V516.438H1170.84V528.075H1169.14ZM1174.65 528.075L1171.53 523.927L1172.7 522.739L1176.74 528.075H1174.65ZM1181.45 528.251C1180.59 528.251 1179.85 528.067 1179.23 527.7C1178.61 527.328 1178.13 526.808 1177.8 526.137C1177.46 525.463 1177.3 524.673 1177.3 523.768C1177.3 522.874 1177.46 522.086 1177.8 521.404C1178.13 520.722 1178.6 520.19 1179.21 519.808C1179.81 519.425 1180.52 519.234 1181.33 519.234C1181.82 519.234 1182.3 519.315 1182.76 519.478C1183.22 519.641 1183.64 519.897 1184.01 520.245C1184.37 520.594 1184.66 521.046 1184.88 521.603C1185.09 522.156 1185.19 522.828 1185.19 523.62V524.222H1178.26V522.95H1183.53C1183.53 522.503 1183.44 522.107 1183.26 521.762C1183.08 521.414 1182.82 521.139 1182.49 520.938C1182.16 520.738 1181.78 520.637 1181.34 520.637C1180.87 520.637 1180.45 520.755 1180.09 520.989C1179.74 521.221 1179.47 521.524 1179.27 521.899C1179.08 522.27 1178.99 522.673 1178.99 523.109V524.103C1178.99 524.686 1179.09 525.183 1179.3 525.592C1179.51 526.001 1179.79 526.313 1180.17 526.529C1180.54 526.741 1180.97 526.847 1181.47 526.847C1181.79 526.847 1182.08 526.802 1182.35 526.711C1182.61 526.616 1182.84 526.476 1183.04 526.291C1183.23 526.105 1183.38 525.876 1183.48 525.603L1185.09 525.893C1184.96 526.366 1184.73 526.781 1184.39 527.137C1184.06 527.489 1183.65 527.764 1183.15 527.961C1182.65 528.154 1182.09 528.251 1181.45 528.251ZM1187.9 531.347C1187.65 531.347 1187.42 531.327 1187.21 531.285C1187 531.247 1186.85 531.205 1186.74 531.16L1187.15 529.768C1187.46 529.851 1187.74 529.887 1187.98 529.876C1188.23 529.864 1188.44 529.774 1188.62 529.603C1188.81 529.433 1188.98 529.154 1189.12 528.768L1189.34 528.188L1186.14 519.347H1187.96L1190.17 526.12H1190.26L1192.47 519.347H1194.3L1190.7 529.239C1190.53 529.694 1190.32 530.078 1190.06 530.393C1189.8 530.711 1189.5 530.95 1189.14 531.109C1188.79 531.268 1188.37 531.347 1187.9 531.347ZM1197.78 528.075L1195.22 519.347H1196.97L1198.68 525.757H1198.77L1200.48 519.347H1202.24L1203.94 525.728H1204.03L1205.73 519.347H1207.48L1204.92 528.075H1203.19L1201.41 521.774H1201.28L1199.51 528.075H1197.78ZM1212.51 528.251C1211.69 528.251 1210.97 528.063 1210.36 527.688C1209.75 527.313 1209.28 526.789 1208.94 526.114C1208.61 525.44 1208.44 524.652 1208.44 523.751C1208.44 522.846 1208.61 522.054 1208.94 521.376C1209.28 520.698 1209.75 520.171 1210.36 519.796C1210.97 519.421 1211.69 519.234 1212.51 519.234C1213.32 519.234 1214.04 519.421 1214.65 519.796C1215.26 520.171 1215.73 520.698 1216.07 521.376C1216.41 522.054 1216.57 522.846 1216.57 523.751C1216.57 524.652 1216.41 525.44 1216.07 526.114C1215.73 526.789 1215.26 527.313 1214.65 527.688C1214.04 528.063 1213.32 528.251 1212.51 528.251ZM1212.51 526.825C1213.04 526.825 1213.48 526.685 1213.83 526.404C1214.18 526.124 1214.44 525.751 1214.6 525.285C1214.77 524.819 1214.86 524.306 1214.86 523.745C1214.86 523.188 1214.77 522.677 1214.6 522.211C1214.44 521.741 1214.18 521.364 1213.83 521.08C1213.48 520.796 1213.04 520.654 1212.51 520.654C1211.98 520.654 1211.53 520.796 1211.18 521.08C1210.83 521.364 1210.57 521.741 1210.4 522.211C1210.24 522.677 1210.15 523.188 1210.15 523.745C1210.15 524.306 1210.24 524.819 1210.4 525.285C1210.57 525.751 1210.83 526.124 1211.18 526.404C1211.53 526.685 1211.98 526.825 1212.51 526.825ZM1218.47 528.075V519.347H1220.11V520.734H1220.2C1220.36 520.264 1220.64 519.895 1221.04 519.626C1221.45 519.353 1221.91 519.217 1222.42 519.217C1222.53 519.217 1222.65 519.221 1222.79 519.228C1222.94 519.236 1223.06 519.245 1223.14 519.257V520.882C1223.07 520.863 1222.95 520.842 1222.78 520.819C1222.6 520.793 1222.43 520.779 1222.25 520.779C1221.85 520.779 1221.49 520.864 1221.18 521.035C1220.87 521.202 1220.62 521.435 1220.44 521.734C1220.26 522.029 1220.17 522.366 1220.17 522.745V528.075H1218.47ZM1227.57 528.245C1226.86 528.245 1226.23 528.065 1225.68 527.705C1225.13 527.342 1224.7 526.825 1224.38 526.154C1224.07 525.48 1223.92 524.671 1223.92 523.728C1223.92 522.785 1224.07 521.978 1224.39 521.308C1224.71 520.637 1225.14 520.124 1225.7 519.768C1226.25 519.412 1226.88 519.234 1227.58 519.234C1228.12 519.234 1228.55 519.325 1228.88 519.507C1229.22 519.685 1229.47 519.893 1229.66 520.132C1229.84 520.37 1229.99 520.58 1230.09 520.762H1230.19V516.438H1231.89V528.075H1230.23V526.717H1230.09C1229.99 526.902 1229.84 527.114 1229.64 527.353C1229.46 527.592 1229.19 527.8 1228.86 527.978C1228.53 528.156 1228.1 528.245 1227.57 528.245ZM1227.94 526.796C1228.43 526.796 1228.84 526.668 1229.18 526.41C1229.52 526.149 1229.78 525.787 1229.95 525.325C1230.13 524.863 1230.22 524.325 1230.22 523.711C1230.22 523.105 1230.13 522.575 1229.96 522.12C1229.78 521.666 1229.53 521.311 1229.19 521.058C1228.85 520.804 1228.44 520.677 1227.94 520.677C1227.43 520.677 1227 520.81 1226.66 521.075C1226.32 521.34 1226.06 521.702 1225.89 522.16C1225.72 522.618 1225.63 523.135 1225.63 523.711C1225.63 524.294 1225.72 524.819 1225.89 525.285C1226.07 525.751 1226.33 526.12 1226.67 526.393C1227.01 526.662 1227.44 526.796 1227.94 526.796Z" fill="white"/>
<rect x="920" y="562.075" width="38" height="30" rx="10" fill="#D9D9D9"/>
<rect x="974" y="563.075" width="170" height="30" rx="10" fill="#D9D9D9"/>
<rect x="1160" y="563.075" width="79" height="30" rx="10" fill="#D9D9D9"/>
<rect x="1255" y="563.075" width="46" height="30" rx="10" fill="#D9D9D9"/>
<rect x="1317" y="563.075" width="74" height="30" rx="10" fill="#D9D9D9"/>
<rect x="919" y="609.075" width="79" height="30" rx="10" fill="#D9D9D9"/>
<rect x="1014" y="610.075" width="43" height="30" rx="10" fill="#D9D9D9"/>
<rect x="1073" y="610.075" width="177" height="30" rx="10" fill="#D9D9D9"/>
<rect x="1266" y="609.075" width="92" height="30" rx="10" fill="#D9D9D9"/>
<path d="M947.471 677.075L921 622.075H1021L997.891 677.075H947.471Z" fill="url(#paint4_linear_90_130)"/>
<rect x="921" y="604.075" width="100" height="26" rx="10" fill="black"/>
<path d="M943.705 619.114L943.693 617.041H943.989L947.466 613.347H949.5L945.534 617.552H945.267L943.705 619.114ZM942.142 622.075V610.438H943.841V622.075H942.142ZM947.653 622.075L944.528 617.927L945.699 616.739L949.739 622.075H947.653ZM954.45 622.251C953.59 622.251 952.85 622.067 952.229 621.7C951.611 621.328 951.134 620.808 950.797 620.137C950.464 619.463 950.297 618.673 950.297 617.768C950.297 616.874 950.464 616.086 950.797 615.404C951.134 614.722 951.604 614.19 952.206 613.808C952.812 613.425 953.52 613.234 954.331 613.234C954.823 613.234 955.301 613.315 955.763 613.478C956.225 613.641 956.64 613.897 957.007 614.245C957.375 614.594 957.664 615.046 957.876 615.603C958.089 616.156 958.195 616.828 958.195 617.62V618.222H951.257V616.95H956.53C956.53 616.503 956.439 616.107 956.257 615.762C956.075 615.414 955.82 615.139 955.49 614.938C955.164 614.738 954.782 614.637 954.342 614.637C953.865 614.637 953.448 614.755 953.092 614.989C952.74 615.221 952.467 615.524 952.274 615.899C952.085 616.27 951.99 616.673 951.99 617.109V618.103C951.99 618.686 952.092 619.183 952.297 619.592C952.505 620.001 952.795 620.313 953.166 620.529C953.537 620.741 953.971 620.847 954.467 620.847C954.789 620.847 955.083 620.802 955.348 620.711C955.613 620.616 955.842 620.476 956.036 620.291C956.229 620.105 956.376 619.876 956.479 619.603L958.087 619.893C957.958 620.366 957.727 620.781 957.393 621.137C957.064 621.489 956.649 621.764 956.149 621.961C955.653 622.154 955.087 622.251 954.45 622.251ZM960.903 625.347C960.65 625.347 960.419 625.327 960.21 625.285C960.002 625.247 959.847 625.205 959.744 625.16L960.153 623.768C960.464 623.851 960.741 623.887 960.983 623.876C961.225 623.864 961.439 623.774 961.625 623.603C961.814 623.433 961.981 623.154 962.125 622.768L962.335 622.188L959.142 613.347H960.96L963.17 620.12H963.261L965.472 613.347H967.295L963.699 623.239C963.532 623.694 963.32 624.078 963.062 624.393C962.805 624.711 962.498 624.95 962.142 625.109C961.786 625.268 961.373 625.347 960.903 625.347ZM970.784 622.075L968.216 613.347H969.972L971.682 619.757H971.767L973.483 613.347H975.239L976.943 619.728H977.028L978.727 613.347H980.483L977.92 622.075H976.188L974.415 615.774H974.284L972.511 622.075H970.784ZM985.506 622.251C984.688 622.251 983.973 622.063 983.364 621.688C982.754 621.313 982.28 620.789 981.943 620.114C981.606 619.44 981.438 618.652 981.438 617.751C981.438 616.846 981.606 616.054 981.943 615.376C982.28 614.698 982.754 614.171 983.364 613.796C983.973 613.421 984.688 613.234 985.506 613.234C986.324 613.234 987.038 613.421 987.648 613.796C988.258 614.171 988.731 614.698 989.068 615.376C989.405 616.054 989.574 616.846 989.574 617.751C989.574 618.652 989.405 619.44 989.068 620.114C988.731 620.789 988.258 621.313 987.648 621.688C987.038 622.063 986.324 622.251 985.506 622.251ZM985.511 620.825C986.042 620.825 986.481 620.685 986.83 620.404C987.178 620.124 987.436 619.751 987.602 619.285C987.773 618.819 987.858 618.306 987.858 617.745C987.858 617.188 987.773 616.677 987.602 616.211C987.436 615.741 987.178 615.364 986.83 615.08C986.481 614.796 986.042 614.654 985.511 614.654C984.977 614.654 984.534 614.796 984.182 615.08C983.833 615.364 983.574 615.741 983.403 616.211C983.237 616.677 983.153 617.188 983.153 617.745C983.153 618.306 983.237 618.819 983.403 619.285C983.574 619.751 983.833 620.124 984.182 620.404C984.534 620.685 984.977 620.825 985.511 620.825ZM991.47 622.075V613.347H993.112V614.734H993.203C993.362 614.264 993.643 613.895 994.044 613.626C994.449 613.353 994.908 613.217 995.419 613.217C995.525 613.217 995.65 613.221 995.794 613.228C995.942 613.236 996.057 613.245 996.141 613.257V614.882C996.072 614.863 995.951 614.842 995.777 614.819C995.603 614.793 995.429 614.779 995.254 614.779C994.853 614.779 994.495 614.864 994.18 615.035C993.87 615.202 993.624 615.435 993.442 615.734C993.26 616.029 993.169 616.366 993.169 616.745V622.075H991.47ZM1000.57 622.245C999.861 622.245 999.232 622.065 998.679 621.705C998.13 621.342 997.698 620.825 997.384 620.154C997.073 619.48 996.918 618.671 996.918 617.728C996.918 616.785 997.075 615.978 997.389 615.308C997.707 614.637 998.143 614.124 998.696 613.768C999.249 613.412 999.876 613.234 1000.58 613.234C1001.12 613.234 1001.55 613.325 1001.88 613.507C1002.22 613.685 1002.47 613.893 1002.66 614.132C1002.84 614.37 1002.99 614.58 1003.09 614.762H1003.19V610.438H1004.89V622.075H1003.23V620.717H1003.09C1002.99 620.902 1002.84 621.114 1002.64 621.353C1002.46 621.592 1002.19 621.8 1001.86 621.978C1001.53 622.156 1001.1 622.245 1000.57 622.245ZM1000.94 620.796C1001.43 620.796 1001.84 620.668 1002.18 620.41C1002.52 620.149 1002.78 619.787 1002.95 619.325C1003.13 618.863 1003.22 618.325 1003.22 617.711C1003.22 617.105 1003.13 616.575 1002.96 616.12C1002.78 615.666 1002.53 615.311 1002.19 615.058C1001.85 614.804 1001.44 614.677 1000.94 614.677C1000.43 614.677 1000 614.81 999.662 615.075C999.321 615.34 999.063 615.702 998.889 616.16C998.719 616.618 998.634 617.135 998.634 617.711C998.634 618.294 998.721 618.819 998.895 619.285C999.069 619.751 999.327 620.12 999.668 620.393C1000.01 620.662 1000.44 620.796 1000.94 620.796Z" fill="white"/>
<rect x="919" y="656.075" width="103" height="30" rx="10" fill="#D9D9D9"/>
<rect x="1038" y="656.075" width="110" height="30" rx="10" fill="#D9D9D9"/>
<rect x="1164" y="656.075" width="40" height="30" rx="10" fill="#D9D9D9"/>
<rect x="1220" y="656.075" width="79" height="30" rx="10" fill="#D9D9D9"/>
<rect x="1315" y="656.075" width="34" height="30" rx="10" fill="#D9D9D9"/>
</g>
<defs>
<filter id="filter0_f_90_130" x="-177" y="-249" width="1041.84" height="706.068" filterUnits="userSpaceOnUse" color-interpolation-filters="sRGB">
<feFlood flood-opacity="0" result="BackgroundImageFix"/>
<feBlend mode="normal" in="SourceGraphic" in2="BackgroundImageFix" result="shape"/>
<feGaussianBlur stdDeviation="50" result="effect1_foregroundBlur_90_130"/>
</filter>
<radialGradient id="paint0_diamond_90_130" cx="0" cy="0" r="1" gradientUnits="userSpaceOnUse" gradientTransform="translate(1323 -483.5) rotate(105.047) scale(2014.57 1520.84)">
<stop stop-color="#A873FF"/>
<stop offset="0.956826" stop-color="#380092"/>
</radialGradient>
<linearGradient id="paint1_linear_90_130" x1="719.672" y1="-104.994" x2="236.842" y2="649.97" gradientUnits="userSpaceOnUse">
<stop stop-color="#A873FF"/>
<stop offset="1" stop-color="#260064"/>
</linearGradient>
<linearGradient id="paint2_linear_90_130" x1="1261.75" y1="339.575" x2="1261.75" y2="389.075" gradientUnits="userSpaceOnUse">
<stop/>
<stop offset="1" stop-color="#D9D9D9" stop-opacity="0"/>
</linearGradient>
<linearGradient id="paint3_linear_90_130" x1="1199.89" y1="533.575" x2="1199.89" y2="583.075" gradientUnits="userSpaceOnUse">
<stop/>
<stop offset="1" stop-color="#D9D9D9" stop-opacity="0"/>
</linearGradient>
<linearGradient id="paint4_linear_90_130" x1="972.891" y1="627.575" x2="972.891" y2="677.075" gradientUnits="userSpaceOnUse">
<stop/>
<stop offset="1" stop-color="#D9D9D9" stop-opacity="0"/>
</linearGradient>
<clipPath id="clip0_90_130">
<rect width="1600" height="800" fill="white"/>
</clipPath>
<clipPath id="clip1_90_130">
<rect width="403" height="403" fill="white" transform="translate(246 283)"/>
</clipPath>
</defs>
</svg>
