<svg width="1600" height="800" viewBox="0 0 1600 800" fill="none" xmlns="http://www.w3.org/2000/svg">
<g clip-path="url(#clip0_90_2)">
<rect width="1600" height="800" fill="white"/>
<rect width="1600" height="800" fill="url(#paint0_diamond_90_2)"/>
<g filter="url(#filter0_f_90_2)">
<path d="M509.688 353.146C261.688 396.646 -61.3125 64.1462 -69.8125 52.6462C-136.146 58.9795 -237.113 41.0461 -110.313 -81.3539C48.1875 -234.354 462.192 -84.0103 509.688 -55.3538C688.688 52.6462 757.688 309.646 509.688 353.146Z" fill="url(#paint1_linear_90_2)" fill-opacity="0.1"/>
</g>
<g filter="url(#filter1_f_90_2)">
<path d="M818.08 -56.662C1148.43 154.795 1168.57 876.645 1166.2 898.796C1248.97 961.437 1345.9 1088.42 1071.44 1095.2C728.368 1103.69 411.86 494.904 387.573 411.974C296.04 99.432 487.728 -268.119 818.08 -56.662Z" fill="white" fill-opacity="0.2"/>
</g>
<rect width="1600" height="800" fill="white" fill-opacity="0.2"/>
<g filter="url(#filter2_d_90_2)">
<path d="M561.616 431.607C561.616 431.607 497 452.514 497 481.171V688.005C497 688.005 509.468 708.974 528.355 708.974C554.109 708.974 569.402 684.672 569.402 684.672L571.876 681.953V428L561.616 431.607Z" fill="#82AA8C"/>
<path d="M565.269 507.299L571.876 507.687V428L561.615 431.607C561.615 431.607 499.7 451.644 497.094 479.373C500.77 482.355 514.774 493.272 528.783 498.449C547.884 505.508 565.269 507.299 565.269 507.299Z" fill="#464646"/>
<path d="M936.851 431.607C936.851 431.607 1001.47 452.514 1001.47 481.171V688.005C1001.47 688.005 988.999 708.974 970.113 708.974C944.359 708.974 929.066 684.672 929.066 684.672L926.591 681.953V428L936.852 431.607H936.851Z" fill="#82AA8C"/>
<path d="M933.198 507.299L926.591 507.687V428L936.852 431.607C936.852 431.607 998.767 451.644 1001.37 479.373C997.697 482.355 983.694 493.272 969.684 498.449C950.584 505.508 933.198 507.299 933.198 507.299Z" fill="#464646"/>
</g>
<g filter="url(#filter3_d_90_2)">
<rect x="453.5" y="136.484" width="592" height="365.032" rx="17.5" fill="#303030" stroke="#B3B3B3" stroke-width="5"/>
<path d="M758.099 192.08V242.08C758.099 245.538 755.307 248.33 751.849 248.33H664.349C660.89 248.33 658.099 245.538 658.099 242.08V192.08C658.099 188.622 660.89 185.83 664.349 185.83H751.849C755.307 185.83 758.099 188.622 758.099 192.08Z" fill="#90CAF9"/>
<path d="M708.099 185.83H664.349C660.89 185.83 658.099 188.622 658.099 192.08V242.08C658.099 245.538 660.89 248.33 664.349 248.33H708.099V185.83Z" fill="#7DB0D9"/>
<path d="M758.099 218.747V242.08C758.099 245.538 755.307 248.33 751.849 248.33H689.099L689.224 248.122L733.015 204.33C735.349 201.992 739.099 201.867 741.599 204.076L758.099 218.747Z" fill="#689F38"/>
<path d="M736.744 202.538C735.378 202.688 734.057 203.292 733.015 204.33L689.224 248.121L689.099 248.33H736.744V202.538Z" fill="#5B8A31"/>
<path d="M727.224 248.33H664.349C660.89 248.33 658.099 245.538 658.099 242.08V235.455L682.89 212.538C685.39 210.246 689.182 210.33 691.557 212.705L727.224 248.33Z" fill="#8BC34A"/>
<path d="M686.744 210.884C685.361 210.972 683.999 211.522 682.89 212.538L658.099 235.455V242.08C658.099 245.538 660.89 248.33 664.349 248.33H686.744V210.884Z" fill="#79AA40"/>
<path d="M800.558 207.705H819.308C821.033 207.705 822.433 206.305 822.433 204.58C822.433 202.855 821.033 201.455 819.308 201.455H800.558C798.833 201.455 797.433 202.855 797.433 204.58C797.433 206.305 798.833 207.705 800.558 207.705Z" fill="#90A4AE"/>
<path d="M800.558 220.205H819.308C821.033 220.205 822.433 218.805 822.433 217.08C822.433 215.355 821.033 213.955 819.308 213.955H800.558C798.833 213.955 797.433 215.355 797.433 217.08C797.433 218.805 798.833 220.205 800.558 220.205Z" fill="#90A4AE"/>
<path d="M800.558 232.705H819.308C821.033 232.705 822.433 231.305 822.433 229.58C822.433 227.855 821.033 226.455 819.308 226.455H800.558C798.833 226.455 797.433 227.855 797.433 229.58C797.433 231.305 798.833 232.705 800.558 232.705Z" fill="#90A4AE"/>
<path d="M833.89 207.705H852.64C854.365 207.705 855.765 206.305 855.765 204.58C855.765 202.855 854.365 201.455 852.64 201.455H833.89C832.165 201.455 830.765 202.855 830.765 204.58C830.765 206.305 832.165 207.705 833.89 207.705Z" fill="#90A4AE"/>
<path d="M833.89 220.205H852.64C854.365 220.205 855.765 218.805 855.765 217.08C855.765 215.355 854.365 213.955 852.64 213.955H833.89C832.165 213.955 830.765 215.355 830.765 217.08C830.765 218.805 832.165 220.205 833.89 220.205Z" fill="#90A4AE"/>
<path d="M833.89 232.705H852.64C854.365 232.705 855.765 231.305 855.765 229.58C855.765 227.855 854.365 226.455 852.64 226.455H833.89C832.165 226.455 830.765 227.855 830.765 229.58C830.765 231.305 832.165 232.705 833.89 232.705Z" fill="#90A4AE"/>
<path d="M767.224 207.705H785.974C787.699 207.705 789.099 206.305 789.099 204.58C789.099 202.855 787.699 201.455 785.974 201.455H767.224C765.499 201.455 764.099 202.855 764.099 204.58C764.099 206.305 765.499 207.705 767.224 207.705Z" fill="#90A4AE"/>
<path d="M767.224 220.205H785.974C787.699 220.205 789.099 218.805 789.099 217.08C789.099 215.355 787.699 213.955 785.974 213.955H767.224C765.499 213.955 764.099 215.355 764.099 217.08C764.099 218.805 765.499 220.205 767.224 220.205Z" fill="#90A4AE"/>
<path d="M767.224 232.705H785.974C787.699 232.705 789.099 231.305 789.099 229.58C789.099 227.855 787.699 226.455 785.974 226.455H767.224C765.499 226.455 764.099 227.855 764.099 229.58C764.099 231.305 765.499 232.705 767.224 232.705Z" fill="#90A4AE"/>
<path d="M776.599 201.455H767.224C765.499 201.455 764.099 202.855 764.099 204.58C764.099 206.305 765.499 207.705 767.224 207.705H776.599V201.455Z" fill="#7D8F97"/>
<path d="M776.599 213.955H767.224C765.499 213.955 764.099 215.355 764.099 217.08C764.099 218.805 765.499 220.205 767.224 220.205H776.599V213.955Z" fill="#7D8F97"/>
<path d="M776.599 226.455H767.224C765.499 226.455 764.099 227.855 764.099 229.58C764.099 231.305 765.499 232.705 767.224 232.705H776.599V226.455Z" fill="#7D8F97"/>
<path d="M809.933 201.455H800.558C798.833 201.455 797.433 202.855 797.433 204.58C797.433 206.305 798.833 207.705 800.558 207.705H809.933V201.455Z" fill="#7D8F97"/>
<path d="M809.933 213.955H800.558C798.833 213.955 797.433 215.355 797.433 217.08C797.433 218.805 798.833 220.205 800.558 220.205H809.933V213.955Z" fill="#7D8F97"/>
<path d="M809.933 226.455H800.558C798.833 226.455 797.433 227.855 797.433 229.58C797.433 231.305 798.833 232.705 800.558 232.705H809.933V226.455Z" fill="#7D8F97"/>
<path d="M843.267 201.455H833.892C832.167 201.455 830.767 202.855 830.767 204.58C830.767 206.305 832.167 207.705 833.892 207.705H843.267V201.455Z" fill="#7D8F97"/>
<path d="M843.267 213.955H833.892C832.167 213.955 830.767 215.355 830.767 217.08C830.767 218.805 832.167 220.205 833.892 220.205H843.267V213.955Z" fill="#7D8F97"/>
<path d="M843.267 226.455H833.892C832.167 226.455 830.767 227.855 830.767 229.58C830.767 231.305 832.167 232.705 833.892 232.705H843.267V226.455Z" fill="#7D8F97"/>
<path d="M756.159 346.977V396.977C756.159 400.435 753.368 403.227 749.909 403.227H662.409C658.951 403.227 656.159 400.435 656.159 396.977V346.977C656.159 343.519 658.951 340.727 662.409 340.727H749.909C753.368 340.727 756.159 343.519 756.159 346.977Z" fill="#90CAF9"/>
<path d="M706.159 340.727H662.409C658.951 340.727 656.159 343.519 656.159 346.977V396.977C656.159 400.435 658.951 403.227 662.409 403.227H706.159V340.727Z" fill="#7DB0D9"/>
<path d="M756.159 373.644V396.977C756.159 400.435 753.368 403.227 749.909 403.227H687.159L687.284 403.019L731.076 359.227C733.409 356.89 737.159 356.765 739.659 358.973L756.159 373.644Z" fill="#689F38"/>
<path d="M734.805 357.436C733.438 357.586 732.118 358.19 731.076 359.227L687.284 403.019L687.159 403.227H734.805V357.436Z" fill="#5B8A31"/>
<path d="M725.284 403.227H662.409C658.951 403.227 656.159 400.436 656.159 396.977V390.352L680.951 367.436C683.451 365.144 687.243 365.227 689.618 367.602L725.284 403.227Z" fill="#8BC34A"/>
<path d="M684.805 365.781C683.422 365.869 682.059 366.419 680.951 367.435L656.159 390.352V396.977C656.159 400.435 658.951 403.227 662.409 403.227H684.805V365.781Z" fill="#79AA40"/>
<path d="M798.618 362.602H817.368C819.093 362.602 820.493 361.202 820.493 359.477C820.493 357.752 819.093 356.352 817.368 356.352H798.618C796.893 356.352 795.493 357.752 795.493 359.477C795.493 361.202 796.893 362.602 798.618 362.602Z" fill="#90A4AE"/>
<path d="M798.618 375.102H817.368C819.093 375.102 820.493 373.702 820.493 371.977C820.493 370.252 819.093 368.852 817.368 368.852H798.618C796.893 368.852 795.493 370.252 795.493 371.977C795.493 373.702 796.893 375.102 798.618 375.102Z" fill="#90A4AE"/>
<path d="M798.618 387.602H817.368C819.093 387.602 820.493 386.202 820.493 384.477C820.493 382.752 819.093 381.352 817.368 381.352H798.618C796.893 381.352 795.493 382.752 795.493 384.477C795.493 386.202 796.893 387.602 798.618 387.602Z" fill="#90A4AE"/>
<path d="M831.95 362.602H850.7C852.425 362.602 853.825 361.202 853.825 359.477C853.825 357.752 852.425 356.352 850.7 356.352H831.95C830.225 356.352 828.825 357.752 828.825 359.477C828.825 361.202 830.225 362.602 831.95 362.602Z" fill="#90A4AE"/>
<path d="M831.95 375.102H850.7C852.425 375.102 853.825 373.702 853.825 371.977C853.825 370.252 852.425 368.852 850.7 368.852H831.95C830.225 368.852 828.825 370.252 828.825 371.977C828.825 373.702 830.225 375.102 831.95 375.102Z" fill="#90A4AE"/>
<path d="M831.95 387.602H850.7C852.425 387.602 853.825 386.202 853.825 384.477C853.825 382.752 852.425 381.352 850.7 381.352H831.95C830.225 381.352 828.825 382.752 828.825 384.477C828.825 386.202 830.225 387.602 831.95 387.602Z" fill="#90A4AE"/>
<path d="M765.284 362.602H784.034C785.759 362.602 787.159 361.202 787.159 359.477C787.159 357.752 785.759 356.352 784.034 356.352H765.284C763.559 356.352 762.159 357.752 762.159 359.477C762.159 361.202 763.559 362.602 765.284 362.602Z" fill="#90A4AE"/>
<path d="M765.284 375.102H784.034C785.759 375.102 787.159 373.702 787.159 371.977C787.159 370.252 785.759 368.852 784.034 368.852H765.284C763.559 368.852 762.159 370.252 762.159 371.977C762.159 373.702 763.559 375.102 765.284 375.102Z" fill="#90A4AE"/>
<path d="M765.284 387.602H784.034C785.759 387.602 787.159 386.202 787.159 384.477C787.159 382.752 785.759 381.352 784.034 381.352H765.284C763.559 381.352 762.159 382.752 762.159 384.477C762.159 386.202 763.559 387.602 765.284 387.602Z" fill="#90A4AE"/>
<path d="M774.659 356.352H765.284C763.559 356.352 762.159 357.752 762.159 359.477C762.159 361.202 763.559 362.602 765.284 362.602H774.659V356.352Z" fill="#7D8F97"/>
<path d="M774.659 368.852H765.284C763.559 368.852 762.159 370.252 762.159 371.977C762.159 373.702 763.559 375.102 765.284 375.102H774.659V368.852Z" fill="#7D8F97"/>
<path d="M774.659 381.352H765.284C763.559 381.352 762.159 382.752 762.159 384.477C762.159 386.202 763.559 387.602 765.284 387.602H774.659V381.352Z" fill="#7D8F97"/>
<path d="M807.993 356.352H798.618C796.893 356.352 795.493 357.752 795.493 359.477C795.493 361.202 796.893 362.602 798.618 362.602H807.993V356.352Z" fill="#7D8F97"/>
<path d="M807.993 368.852H798.618C796.893 368.852 795.493 370.252 795.493 371.977C795.493 373.702 796.893 375.102 798.618 375.102H807.993V368.852Z" fill="#7D8F97"/>
<path d="M807.993 381.352H798.618C796.893 381.352 795.493 382.752 795.493 384.477C795.493 386.202 796.893 387.602 798.618 387.602H807.993V381.352Z" fill="#7D8F97"/>
<path d="M841.327 356.352H831.952C830.227 356.352 828.827 357.752 828.827 359.477C828.827 361.202 830.227 362.602 831.952 362.602H841.327V356.352Z" fill="#7D8F97"/>
<path d="M841.327 368.852H831.952C830.227 368.852 828.827 370.252 828.827 371.977C828.827 373.702 830.227 375.102 831.952 375.102H841.327V368.852Z" fill="#7D8F97"/>
<path d="M841.327 381.352H831.952C830.227 381.352 828.827 382.752 828.827 384.477C828.827 386.202 830.227 387.602 831.952 387.602H841.327V381.352Z" fill="#7D8F97"/>
<path d="M696.495 288.381H715.245C716.97 288.381 718.37 286.981 718.37 285.256C718.37 283.531 716.97 282.131 715.245 282.131H696.495C694.77 282.131 693.37 283.531 693.37 285.256C693.37 286.981 694.77 288.381 696.495 288.381Z" fill="#90A4AE"/>
<path d="M696.495 300.881H715.245C716.97 300.881 718.37 299.481 718.37 297.756C718.37 296.031 716.97 294.631 715.245 294.631H696.495C694.77 294.631 693.37 296.031 693.37 297.756C693.37 299.481 694.77 300.881 696.495 300.881Z" fill="#90A4AE"/>
<path d="M696.495 313.381H715.245C716.97 313.381 718.37 311.981 718.37 310.256C718.37 308.531 716.97 307.131 715.245 307.131H696.495C694.77 307.131 693.37 308.531 693.37 310.256C693.37 311.981 694.77 313.381 696.495 313.381Z" fill="#90A4AE"/>
<path d="M729.827 288.381H748.577C750.302 288.381 751.702 286.981 751.702 285.256C751.702 283.531 750.302 282.131 748.577 282.131H729.827C728.102 282.131 726.702 283.531 726.702 285.256C726.702 286.981 728.102 288.381 729.827 288.381Z" fill="#90A4AE"/>
<path d="M729.827 300.881H748.577C750.302 300.881 751.702 299.481 751.702 297.756C751.702 296.031 750.302 294.631 748.577 294.631H729.827C728.102 294.631 726.702 296.031 726.702 297.756C726.702 299.481 728.102 300.881 729.827 300.881Z" fill="#90A4AE"/>
<path d="M729.827 313.381H748.577C750.302 313.381 751.702 311.981 751.702 310.256C751.702 308.531 750.302 307.131 748.577 307.131H729.827C728.102 307.131 726.702 308.531 726.702 310.256C726.702 311.981 728.102 313.381 729.827 313.381Z" fill="#90A4AE"/>
<path d="M663.161 288.381H681.911C683.636 288.381 685.036 286.981 685.036 285.256C685.036 283.531 683.636 282.131 681.911 282.131H663.161C661.436 282.131 660.036 283.531 660.036 285.256C660.036 286.981 661.436 288.381 663.161 288.381Z" fill="#90A4AE"/>
<path d="M663.161 300.881H681.911C683.636 300.881 685.036 299.481 685.036 297.756C685.036 296.031 683.636 294.631 681.911 294.631H663.161C661.436 294.631 660.036 296.031 660.036 297.756C660.036 299.481 661.436 300.881 663.161 300.881Z" fill="#90A4AE"/>
<path d="M663.161 313.381H681.911C683.636 313.381 685.036 311.981 685.036 310.256C685.036 308.531 683.636 307.131 681.911 307.131H663.161C661.436 307.131 660.036 308.531 660.036 310.256C660.036 311.981 661.436 313.381 663.161 313.381Z" fill="#90A4AE"/>
<path d="M672.536 282.131H663.161C661.436 282.131 660.036 283.531 660.036 285.256C660.036 286.981 661.436 288.381 663.161 288.381H672.536V282.131Z" fill="#7D8F97"/>
<path d="M672.536 294.631H663.161C661.436 294.631 660.036 296.031 660.036 297.756C660.036 299.481 661.436 300.881 663.161 300.881H672.536V294.631Z" fill="#7D8F97"/>
<path d="M672.536 307.131H663.161C661.436 307.131 660.036 308.531 660.036 310.256C660.036 311.981 661.436 313.381 663.161 313.381H672.536V307.131Z" fill="#7D8F97"/>
<path d="M705.87 282.131H696.495C694.77 282.131 693.37 283.531 693.37 285.256C693.37 286.981 694.77 288.381 696.495 288.381H705.87V282.131Z" fill="#7D8F97"/>
<path d="M705.87 294.631H696.495C694.77 294.631 693.37 296.031 693.37 297.756C693.37 299.481 694.77 300.881 696.495 300.881H705.87V294.631Z" fill="#7D8F97"/>
<path d="M705.87 307.131H696.495C694.77 307.131 693.37 308.531 693.37 310.256C693.37 311.981 694.77 313.381 696.495 313.381H705.87V307.131Z" fill="#7D8F97"/>
<path d="M739.204 282.131H729.829C728.104 282.131 726.704 283.531 726.704 285.256C726.704 286.981 728.104 288.381 729.829 288.381H739.204V282.131Z" fill="#7D8F97"/>
<path d="M739.204 294.631H729.829C728.104 294.631 726.704 296.031 726.704 297.756C726.704 299.481 728.104 300.881 729.829 300.881H739.204V294.631Z" fill="#7D8F97"/>
<path d="M739.204 307.131H729.829C728.104 307.131 726.704 308.531 726.704 310.256C726.704 311.981 728.104 313.381 729.829 313.381H739.204V307.131Z" fill="#7D8F97"/>
<path d="M857.702 272.756V322.756C857.702 326.214 854.91 329.006 851.452 329.006H763.952C760.494 329.006 757.702 326.214 757.702 322.756V272.756C757.702 269.297 760.494 266.506 763.952 266.506H851.452C854.91 266.506 857.702 269.297 857.702 272.756Z" fill="#90CAF9"/>
<path d="M807.702 266.506H763.952C760.494 266.506 757.702 269.297 757.702 272.756V322.756C757.702 326.214 760.494 329.006 763.952 329.006H807.702V266.506Z" fill="#7DB0D9"/>
<path d="M857.702 299.422V322.756C857.702 326.214 854.91 329.006 851.452 329.006H788.702L788.827 328.797L832.619 285.006C834.952 282.668 838.702 282.543 841.202 284.751L857.702 299.422Z" fill="#689F38"/>
<path d="M836.348 283.214C834.981 283.364 833.66 283.968 832.619 285.006L788.827 328.797L788.702 329.006H836.348V283.214Z" fill="#5B8A31"/>
<path d="M826.827 329.005H763.952C760.494 329.005 757.702 326.214 757.702 322.755V316.13L782.494 293.214C784.994 290.922 788.785 291.005 791.16 293.38L826.827 329.005Z" fill="#8BC34A"/>
<path d="M786.348 291.56C784.965 291.647 783.602 292.197 782.494 293.214L757.702 316.131V322.756C757.702 326.214 760.494 329.006 763.952 329.006H786.348V291.56Z" fill="#79AA40"/>
<path d="M694.558 443.278H713.308C715.033 443.278 716.433 441.878 716.433 440.153C716.433 438.428 715.033 437.028 713.308 437.028H694.558C692.833 437.028 691.433 438.428 691.433 440.153C691.433 441.878 692.833 443.278 694.558 443.278Z" fill="#90A4AE"/>
<path d="M694.558 455.778H713.308C715.033 455.778 716.433 454.378 716.433 452.653C716.433 450.928 715.033 449.528 713.308 449.528H694.558C692.833 449.528 691.433 450.928 691.433 452.653C691.433 454.378 692.833 455.778 694.558 455.778Z" fill="#90A4AE"/>
<path d="M694.558 468.278H713.308C715.033 468.278 716.433 466.878 716.433 465.153C716.433 463.428 715.033 462.028 713.308 462.028H694.558C692.833 462.028 691.433 463.428 691.433 465.153C691.433 466.878 692.833 468.278 694.558 468.278Z" fill="#90A4AE"/>
<path d="M727.89 443.278H746.64C748.365 443.278 749.765 441.878 749.765 440.153C749.765 438.428 748.365 437.028 746.64 437.028H727.89C726.165 437.028 724.765 438.428 724.765 440.153C724.765 441.878 726.165 443.278 727.89 443.278Z" fill="#90A4AE"/>
<path d="M727.89 455.778H746.64C748.365 455.778 749.765 454.378 749.765 452.653C749.765 450.928 748.365 449.528 746.64 449.528H727.89C726.165 449.528 724.765 450.928 724.765 452.653C724.765 454.378 726.165 455.778 727.89 455.778Z" fill="#90A4AE"/>
<path d="M727.89 468.278H746.64C748.365 468.278 749.765 466.878 749.765 465.153C749.765 463.428 748.365 462.028 746.64 462.028H727.89C726.165 462.028 724.765 463.428 724.765 465.153C724.765 466.878 726.165 468.278 727.89 468.278Z" fill="#90A4AE"/>
<path d="M661.224 443.278H679.974C681.699 443.278 683.099 441.878 683.099 440.153C683.099 438.428 681.699 437.028 679.974 437.028H661.224C659.499 437.028 658.099 438.428 658.099 440.153C658.099 441.878 659.499 443.278 661.224 443.278Z" fill="#90A4AE"/>
<path d="M661.224 455.778H679.974C681.699 455.778 683.099 454.378 683.099 452.653C683.099 450.928 681.699 449.528 679.974 449.528H661.224C659.499 449.528 658.099 450.928 658.099 452.653C658.099 454.378 659.499 455.778 661.224 455.778Z" fill="#90A4AE"/>
<path d="M661.224 468.278H679.974C681.699 468.278 683.099 466.878 683.099 465.153C683.099 463.428 681.699 462.028 679.974 462.028H661.224C659.499 462.028 658.099 463.428 658.099 465.153C658.099 466.878 659.499 468.278 661.224 468.278Z" fill="#90A4AE"/>
<path d="M670.599 437.028H661.224C659.499 437.028 658.099 438.428 658.099 440.153C658.099 441.878 659.499 443.278 661.224 443.278H670.599V437.028Z" fill="#7D8F97"/>
<path d="M670.599 449.528H661.224C659.499 449.528 658.099 450.928 658.099 452.653C658.099 454.378 659.499 455.778 661.224 455.778H670.599V449.528Z" fill="#7D8F97"/>
<path d="M670.599 462.028H661.224C659.499 462.028 658.099 463.428 658.099 465.153C658.099 466.878 659.499 468.278 661.224 468.278H670.599V462.028Z" fill="#7D8F97"/>
<path d="M703.933 437.028H694.558C692.833 437.028 691.433 438.428 691.433 440.153C691.433 441.878 692.833 443.278 694.558 443.278H703.933V437.028Z" fill="#7D8F97"/>
<path d="M703.933 449.528H694.558C692.833 449.528 691.433 450.928 691.433 452.653C691.433 454.378 692.833 455.778 694.558 455.778H703.933V449.528Z" fill="#7D8F97"/>
<path d="M703.933 462.028H694.558C692.833 462.028 691.433 463.428 691.433 465.153C691.433 466.878 692.833 468.278 694.558 468.278H703.933V462.028Z" fill="#7D8F97"/>
<path d="M737.267 437.028H727.892C726.167 437.028 724.767 438.428 724.767 440.153C724.767 441.878 726.167 443.278 727.892 443.278H737.267V437.028Z" fill="#7D8F97"/>
<path d="M737.267 449.528H727.892C726.167 449.528 724.767 450.928 724.767 452.653C724.767 454.378 726.167 455.778 727.892 455.778H737.267V449.528Z" fill="#7D8F97"/>
<path d="M737.267 462.028H727.892C726.167 462.028 724.767 463.428 724.767 465.153C724.767 466.878 726.167 468.278 727.892 468.278H737.267V462.028Z" fill="#7D8F97"/>
<path d="M855.765 427.653V477.653C855.765 481.111 852.973 483.903 849.515 483.903H762.015C758.556 483.903 755.765 481.111 755.765 477.653V427.653C755.765 424.194 758.556 421.403 762.015 421.403H849.515C852.973 421.403 855.765 424.194 855.765 427.653Z" fill="#90CAF9"/>
<path d="M805.765 421.403H762.015C758.556 421.403 755.765 424.194 755.765 427.653V477.653C755.765 481.111 758.556 483.903 762.015 483.903H805.765V421.403Z" fill="#7DB0D9"/>
<path d="M855.765 454.32V477.653C855.765 481.111 852.973 483.903 849.515 483.903H786.765L786.89 483.695L830.681 439.903C833.015 437.565 836.765 437.44 839.265 439.649L855.765 454.32Z" fill="#689F38"/>
<path d="M834.41 438.111C833.044 438.261 831.723 438.865 830.681 439.903L786.89 483.695L786.765 483.903H834.41V438.111Z" fill="#5B8A31"/>
<path d="M824.89 483.903H762.015C758.556 483.903 755.765 481.111 755.765 477.653V471.028L780.556 448.111C783.056 445.82 786.848 445.903 789.223 448.278L824.89 483.903Z" fill="#8BC34A"/>
<path d="M784.41 446.457C783.027 446.545 781.665 447.095 780.556 448.111L755.765 471.028V477.653C755.765 481.111 758.556 483.903 762.015 483.903H784.41V446.457Z" fill="#79AA40"/>
<rect x="580.867" y="152.27" width="335.328" height="16.2114" rx="8.10571" fill="#D9D9D9"/>
<g clip-path="url(#clip1_90_2)">
<path d="M908.144 164.947L903.646 162.193C904.802 161.384 905.436 160.365 905.436 159.305C905.436 156.828 902.013 154.813 897.805 154.813C893.596 154.813 890.173 156.828 890.173 159.305C890.173 161.782 893.596 163.797 897.805 163.797C899.384 163.797 900.89 163.517 902.177 162.984L906.71 165.759C906.899 165.875 907.154 165.939 907.427 165.939C907.686 165.939 907.931 165.881 908.117 165.775C908.512 165.551 908.525 165.18 908.144 164.947ZM897.805 155.985C900.915 155.985 903.445 157.474 903.445 159.305C903.445 161.136 900.915 162.625 897.805 162.625C894.694 162.625 892.164 161.136 892.164 159.305C892.164 157.474 894.694 155.985 897.805 155.985Z" fill="black"/>
</g>
<path d="M593.782 159.797V162.422H593.112V156.603H593.782V158.74H593.839C593.941 158.514 594.095 158.335 594.299 158.203C594.506 158.068 594.78 158.001 595.123 158.001C595.42 158.001 595.681 158.061 595.904 158.18C596.128 158.298 596.301 158.478 596.424 158.723C596.549 158.965 596.612 159.274 596.612 159.649V162.422H595.941V159.694C595.941 159.348 595.851 159.08 595.671 158.89C595.493 158.699 595.246 158.603 594.93 158.603C594.71 158.603 594.513 158.65 594.339 158.743C594.167 158.835 594.03 158.971 593.93 159.149C593.831 159.327 593.782 159.543 593.782 159.797ZM599.736 158.058V158.626H597.475V158.058H599.736ZM598.134 157.013H598.804V161.172C598.804 161.361 598.832 161.503 598.887 161.598C598.943 161.691 599.015 161.753 599.102 161.785C599.191 161.816 599.285 161.831 599.384 161.831C599.458 161.831 599.518 161.827 599.566 161.819C599.613 161.81 599.651 161.802 599.679 161.797L599.816 162.399C599.77 162.416 599.707 162.433 599.625 162.45C599.544 162.469 599.441 162.478 599.316 162.478C599.126 162.478 598.941 162.438 598.759 162.356C598.579 162.275 598.429 162.151 598.31 161.984C598.192 161.817 598.134 161.607 598.134 161.353V157.013ZM602.642 158.058V158.626H600.381V158.058H602.642ZM601.04 157.013H601.71V161.172C601.71 161.361 601.738 161.503 601.793 161.598C601.85 161.691 601.922 161.753 602.009 161.785C602.098 161.816 602.191 161.831 602.29 161.831C602.364 161.831 602.424 161.827 602.472 161.819C602.519 161.81 602.557 161.802 602.585 161.797L602.722 162.399C602.676 162.416 602.613 162.433 602.531 162.45C602.45 162.469 602.347 162.478 602.222 162.478C602.032 162.478 601.847 162.438 601.665 162.356C601.485 162.275 601.335 162.151 601.216 161.984C601.099 161.817 601.04 161.607 601.04 161.353V157.013ZM603.651 164.058V158.058H604.298V158.751H604.378C604.427 158.675 604.495 158.579 604.583 158.461C604.672 158.342 604.798 158.236 604.963 158.143C605.13 158.049 605.355 158.001 605.639 158.001C606.007 158.001 606.331 158.093 606.611 158.277C606.891 158.46 607.11 158.721 607.267 159.058C607.424 159.395 607.503 159.793 607.503 160.251C607.503 160.713 607.424 161.114 607.267 161.453C607.11 161.79 606.892 162.051 606.614 162.237C606.335 162.421 606.014 162.513 605.651 162.513C605.37 162.513 605.146 162.466 604.977 162.373C604.809 162.279 604.679 162.172 604.588 162.052C604.497 161.931 604.427 161.831 604.378 161.751H604.321V164.058H603.651ZM604.31 160.24C604.31 160.569 604.358 160.86 604.455 161.112C604.551 161.362 604.692 161.558 604.878 161.7C605.064 161.84 605.291 161.91 605.56 161.91C605.84 161.91 606.074 161.836 606.262 161.689C606.451 161.539 606.593 161.338 606.688 161.086C606.784 160.833 606.833 160.55 606.833 160.24C606.833 159.933 606.785 159.656 606.691 159.41C606.598 159.162 606.457 158.966 606.267 158.822C606.08 158.676 605.844 158.603 605.56 158.603C605.287 158.603 605.058 158.673 604.872 158.811C604.687 158.947 604.547 159.138 604.452 159.385C604.357 159.629 604.31 159.914 604.31 160.24ZM609.014 162.467C608.874 162.467 608.754 162.417 608.654 162.317C608.553 162.216 608.503 162.096 608.503 161.956C608.503 161.816 608.553 161.695 608.654 161.595C608.754 161.495 608.874 161.444 609.014 161.444C609.155 161.444 609.275 161.495 609.375 161.595C609.476 161.695 609.526 161.816 609.526 161.956C609.526 162.049 609.502 162.134 609.455 162.211C609.409 162.289 609.348 162.352 609.27 162.399C609.194 162.444 609.109 162.467 609.014 162.467ZM609.014 159.228C608.874 159.228 608.754 159.178 608.654 159.078C608.553 158.978 608.503 158.857 608.503 158.717C608.503 158.577 608.553 158.457 608.654 158.356C608.754 158.256 608.874 158.206 609.014 158.206C609.155 158.206 609.275 158.256 609.375 158.356C609.476 158.457 609.526 158.577 609.526 158.717C609.526 158.81 609.502 158.895 609.455 158.973C609.409 159.05 609.348 159.113 609.27 159.16C609.194 159.206 609.109 159.228 609.014 159.228ZM612.786 156.331L610.911 163.297H610.297L612.172 156.331H612.786ZM615.637 156.331L613.762 163.297H613.149L615.024 156.331H615.637ZM616.432 164.058V158.058H617.08V158.751H617.159C617.209 158.675 617.277 158.579 617.364 158.461C617.453 158.342 617.58 158.236 617.744 158.143C617.911 158.049 618.137 158.001 618.421 158.001C618.788 158.001 619.112 158.093 619.392 158.277C619.673 158.46 619.891 158.721 620.048 159.058C620.206 159.395 620.284 159.793 620.284 160.251C620.284 160.713 620.206 161.114 620.048 161.453C619.891 161.79 619.673 162.051 619.395 162.237C619.117 162.421 618.796 162.513 618.432 162.513C618.152 162.513 617.927 162.466 617.759 162.373C617.59 162.279 617.46 162.172 617.369 162.052C617.279 161.931 617.209 161.831 617.159 161.751H617.102V164.058H616.432ZM617.091 160.24C617.091 160.569 617.139 160.86 617.236 161.112C617.333 161.362 617.474 161.558 617.659 161.7C617.845 161.84 618.072 161.91 618.341 161.91C618.621 161.91 618.855 161.836 619.043 161.689C619.232 161.539 619.374 161.338 619.469 161.086C619.566 160.833 619.614 160.55 619.614 160.24C619.614 159.933 619.566 159.656 619.472 159.41C619.379 159.162 619.238 158.966 619.048 158.822C618.861 158.676 618.625 158.603 618.341 158.603C618.068 158.603 617.839 158.673 617.654 158.811C617.468 158.947 617.328 159.138 617.233 159.385C617.138 159.629 617.091 159.914 617.091 160.24ZM621.307 162.422V158.058H621.955V158.717H622C622.08 158.501 622.224 158.326 622.432 158.192C622.64 158.057 622.875 157.99 623.137 157.99C623.186 157.99 623.247 157.991 623.321 157.993C623.395 157.995 623.451 157.997 623.489 158.001V158.683C623.466 158.677 623.414 158.669 623.333 158.657C623.253 158.644 623.169 158.638 623.08 158.638C622.868 158.638 622.678 158.682 622.512 158.771C622.347 158.858 622.216 158.979 622.119 159.135C622.025 159.288 621.977 159.463 621.977 159.66V162.422H621.307ZM625.98 162.513C625.56 162.513 625.197 162.42 624.892 162.234C624.589 162.047 624.355 161.785 624.191 161.45C624.028 161.113 623.946 160.721 623.946 160.274C623.946 159.827 624.028 159.433 624.191 159.092C624.355 158.749 624.584 158.482 624.878 158.291C625.173 158.098 625.518 158.001 625.912 158.001C626.139 158.001 626.364 158.039 626.585 158.115C626.807 158.191 627.009 158.314 627.191 158.484C627.372 158.653 627.517 158.876 627.625 159.155C627.733 159.433 627.787 159.776 627.787 160.183V160.467H624.423V159.888H627.105C627.105 159.641 627.056 159.422 626.958 159.228C626.861 159.035 626.723 158.883 626.543 158.771C626.365 158.659 626.155 158.603 625.912 158.603C625.645 158.603 625.414 158.67 625.219 158.802C625.026 158.933 624.877 159.103 624.773 159.314C624.669 159.524 624.617 159.749 624.617 159.99V160.376C624.617 160.706 624.673 160.985 624.787 161.214C624.903 161.442 625.063 161.615 625.267 161.734C625.472 161.852 625.709 161.91 625.98 161.91C626.156 161.91 626.316 161.886 626.458 161.836C626.602 161.785 626.726 161.71 626.83 161.609C626.934 161.507 627.014 161.38 627.071 161.228L627.719 161.41C627.651 161.63 627.536 161.823 627.375 161.99C627.214 162.155 627.015 162.283 626.779 162.376C626.542 162.467 626.276 162.513 625.98 162.513ZM632.242 158.058L630.629 162.422H629.947L628.333 158.058H629.061L630.265 161.535H630.311L631.515 158.058H632.242ZM633.127 162.422V158.058H633.798V162.422H633.127ZM633.468 157.331C633.338 157.331 633.225 157.286 633.13 157.197C633.037 157.108 632.991 157.001 632.991 156.876C632.991 156.751 633.037 156.644 633.13 156.555C633.225 156.466 633.338 156.422 633.468 156.422C633.599 156.422 633.711 156.466 633.803 156.555C633.898 156.644 633.945 156.751 633.945 156.876C633.945 157.001 633.898 157.108 633.803 157.197C633.711 157.286 633.599 157.331 633.468 157.331ZM636.855 162.513C636.435 162.513 636.072 162.42 635.767 162.234C635.464 162.047 635.23 161.785 635.066 161.45C634.903 161.113 634.821 160.721 634.821 160.274C634.821 159.827 634.903 159.433 635.066 159.092C635.23 158.749 635.459 158.482 635.753 158.291C636.048 158.098 636.393 158.001 636.787 158.001C637.014 158.001 637.239 158.039 637.46 158.115C637.682 158.191 637.884 158.314 638.066 158.484C638.247 158.653 638.392 158.876 638.5 159.155C638.608 159.433 638.662 159.776 638.662 160.183V160.467H635.298V159.888H637.98C637.98 159.641 637.931 159.422 637.833 159.228C637.736 159.035 637.598 158.883 637.418 158.771C637.24 158.659 637.03 158.603 636.787 158.603C636.52 158.603 636.289 158.67 636.094 158.802C635.901 158.933 635.752 159.103 635.648 159.314C635.544 159.524 635.492 159.749 635.492 159.99V160.376C635.492 160.706 635.548 160.985 635.662 161.214C635.778 161.442 635.938 161.615 636.142 161.734C636.347 161.852 636.584 161.91 636.855 161.91C637.031 161.91 637.191 161.886 637.333 161.836C637.477 161.785 637.601 161.71 637.705 161.609C637.809 161.507 637.889 161.38 637.946 161.228L638.594 161.41C638.526 161.63 638.411 161.823 638.25 161.99C638.089 162.155 637.89 162.283 637.654 162.376C637.417 162.467 637.151 162.513 636.855 162.513ZM640.671 162.422L639.341 158.058H640.046L640.989 161.399H641.034L641.966 158.058H642.682L643.602 161.388H643.648L644.591 158.058H645.296L643.966 162.422H643.307L642.352 159.069H642.284L641.33 162.422H640.671ZM646.077 162.467C645.937 162.467 645.816 162.417 645.716 162.317C645.616 162.216 645.566 162.096 645.566 161.956C645.566 161.816 645.616 161.695 645.716 161.595C645.816 161.495 645.937 161.444 646.077 161.444C646.217 161.444 646.337 161.495 646.438 161.595C646.538 161.695 646.588 161.816 646.588 161.956C646.588 162.049 646.565 162.134 646.517 162.211C646.472 162.289 646.41 162.352 646.333 162.399C646.257 162.444 646.172 162.467 646.077 162.467ZM647.791 158.058H648.462V162.74C648.462 163.009 648.415 163.242 648.323 163.439C648.232 163.636 648.093 163.788 647.908 163.896C647.724 164.004 647.492 164.058 647.212 164.058C647.189 164.058 647.166 164.058 647.144 164.058C647.121 164.058 647.098 164.058 647.075 164.058V163.433C647.098 163.433 647.119 163.433 647.138 163.433C647.157 163.433 647.178 163.433 647.2 163.433C647.405 163.433 647.555 163.372 647.649 163.251C647.744 163.132 647.791 162.961 647.791 162.74V158.058ZM648.121 157.331C647.99 157.331 647.878 157.286 647.783 157.197C647.69 157.108 647.644 157.001 647.644 156.876C647.644 156.751 647.69 156.644 647.783 156.555C647.878 156.466 647.99 156.422 648.121 156.422C648.252 156.422 648.363 156.466 648.456 156.555C648.551 156.644 648.598 156.751 648.598 156.876C648.598 157.001 648.551 157.108 648.456 157.197C648.363 157.286 648.252 157.331 648.121 157.331ZM651.463 162.513C651.069 162.513 650.723 162.419 650.426 162.231C650.13 162.044 649.899 161.781 649.732 161.444C649.568 161.107 649.485 160.713 649.485 160.263C649.485 159.808 649.568 159.411 649.732 159.072C649.899 158.733 650.13 158.47 650.426 158.282C650.723 158.095 651.069 158.001 651.463 158.001C651.856 158.001 652.201 158.095 652.497 158.282C652.794 158.47 653.025 158.733 653.19 159.072C653.356 159.411 653.44 159.808 653.44 160.263C653.44 160.713 653.356 161.107 653.19 161.444C653.025 161.781 652.794 162.044 652.497 162.231C652.201 162.419 651.856 162.513 651.463 162.513ZM651.463 161.91C651.762 161.91 652.008 161.834 652.201 161.68C652.394 161.527 652.537 161.325 652.63 161.075C652.723 160.825 652.769 160.554 652.769 160.263C652.769 159.971 652.723 159.699 652.63 159.447C652.537 159.195 652.394 158.992 652.201 158.836C652.008 158.681 651.762 158.603 651.463 158.603C651.163 158.603 650.917 158.681 650.724 158.836C650.531 158.992 650.388 159.195 650.295 159.447C650.202 159.699 650.156 159.971 650.156 160.263C650.156 160.554 650.202 160.825 650.295 161.075C650.388 161.325 650.531 161.527 650.724 161.68C650.917 161.834 651.163 161.91 651.463 161.91ZM655.134 159.797V162.422H654.463V156.603H655.134V158.74H655.191C655.293 158.514 655.446 158.335 655.651 158.203C655.857 158.068 656.132 158.001 656.475 158.001C656.772 158.001 657.032 158.061 657.256 158.18C657.479 158.298 657.653 158.478 657.776 158.723C657.901 158.965 657.963 159.274 657.963 159.649V162.422H657.293V159.694C657.293 159.348 657.203 159.08 657.023 158.89C656.845 158.699 656.598 158.603 656.281 158.603C656.062 158.603 655.865 158.65 655.691 158.743C655.518 158.835 655.382 158.971 655.281 159.149C655.183 159.327 655.134 159.543 655.134 159.797ZM659.86 159.797V162.422H659.19V158.058H659.838V158.74H659.894C659.997 158.518 660.152 158.34 660.36 158.206C660.569 158.069 660.838 158.001 661.167 158.001C661.463 158.001 661.721 158.062 661.943 158.183C662.164 158.302 662.337 158.484 662.46 158.728C662.583 158.971 662.644 159.278 662.644 159.649V162.422H661.974V159.694C661.974 159.352 661.885 159.085 661.707 158.893C661.529 158.7 661.285 158.603 660.974 158.603C660.76 158.603 660.569 158.65 660.4 158.743C660.233 158.835 660.102 158.971 660.005 159.149C659.909 159.327 659.86 159.543 659.86 159.797ZM666.96 159.035L666.358 159.206C666.32 159.105 666.264 159.008 666.191 158.913C666.119 158.817 666.02 158.737 665.895 158.674C665.77 158.612 665.61 158.581 665.415 158.581C665.148 158.581 664.925 158.642 664.747 158.765C664.571 158.887 664.483 159.041 664.483 159.228C664.483 159.395 664.544 159.527 664.665 159.623C664.786 159.72 664.976 159.8 665.233 159.865L665.881 160.024C666.271 160.119 666.562 160.263 666.753 160.459C666.944 160.652 667.04 160.901 667.04 161.206C667.04 161.456 666.968 161.679 666.824 161.876C666.682 162.073 666.483 162.228 666.227 162.342C665.972 162.456 665.674 162.513 665.335 162.513C664.89 162.513 664.522 162.416 664.23 162.223C663.939 162.03 663.754 161.747 663.676 161.376L664.313 161.217C664.373 161.452 664.488 161.628 664.656 161.745C664.827 161.863 665.049 161.922 665.324 161.922C665.637 161.922 665.885 161.855 666.068 161.723C666.254 161.588 666.347 161.427 666.347 161.24C666.347 161.088 666.294 160.961 666.188 160.859C666.082 160.755 665.919 160.677 665.699 160.626L664.972 160.456C664.572 160.361 664.279 160.214 664.091 160.015C663.905 159.815 663.813 159.564 663.813 159.263C663.813 159.016 663.882 158.799 664.02 158.609C664.16 158.42 664.351 158.271 664.591 158.163C664.834 158.055 665.108 158.001 665.415 158.001C665.847 158.001 666.186 158.096 666.432 158.285C666.68 158.475 666.856 158.725 666.96 159.035ZM668.049 162.422V158.058H668.697V158.74H668.754C668.845 158.507 668.991 158.326 669.194 158.197C669.397 158.067 669.64 158.001 669.924 158.001C670.212 158.001 670.452 158.067 670.643 158.197C670.836 158.326 670.987 158.507 671.095 158.74H671.14C671.252 158.514 671.419 158.335 671.643 158.203C671.866 158.068 672.134 158.001 672.447 158.001C672.837 158.001 673.156 158.123 673.404 158.368C673.652 158.61 673.776 158.988 673.776 159.501V162.422H673.106V159.501C673.106 159.179 673.018 158.949 672.842 158.811C672.666 158.673 672.458 158.603 672.22 158.603C671.913 158.603 671.675 158.696 671.507 158.882C671.338 159.066 671.254 159.299 671.254 159.581V162.422H670.572V159.433C670.572 159.185 670.491 158.985 670.33 158.834C670.169 158.68 669.962 158.603 669.708 158.603C669.534 158.603 669.371 158.65 669.22 158.743C669.07 158.835 668.949 158.964 668.856 159.129C668.765 159.292 668.72 159.48 668.72 159.694V162.422H668.049ZM675.002 162.422V158.058H675.673V162.422H675.002ZM675.343 157.331C675.213 157.331 675.1 157.286 675.005 157.197C674.912 157.108 674.866 157.001 674.866 156.876C674.866 156.751 674.912 156.644 675.005 156.555C675.1 156.466 675.213 156.422 675.343 156.422C675.474 156.422 675.586 156.466 675.678 156.555C675.773 156.644 675.82 156.751 675.82 156.876C675.82 157.001 675.773 157.108 675.678 157.197C675.586 157.286 675.474 157.331 675.343 157.331ZM678.798 158.058V158.626H676.537V158.058H678.798ZM677.196 157.013H677.867V161.172C677.867 161.361 677.894 161.503 677.949 161.598C678.006 161.691 678.078 161.753 678.165 161.785C678.254 161.816 678.348 161.831 678.446 161.831C678.52 161.831 678.581 161.827 678.628 161.819C678.675 161.81 678.713 161.802 678.742 161.797L678.878 162.399C678.833 162.416 678.769 162.433 678.688 162.45C678.606 162.469 678.503 162.478 678.378 162.478C678.189 162.478 678.003 162.438 677.821 162.356C677.641 162.275 677.492 162.151 677.372 161.984C677.255 161.817 677.196 161.607 677.196 161.353V157.013ZM680.571 159.797V162.422H679.901V156.603H680.571V158.74H680.628C680.73 158.514 680.884 158.335 681.088 158.203C681.295 158.068 681.569 158.001 681.912 158.001C682.209 158.001 682.47 158.061 682.693 158.18C682.917 158.298 683.09 158.478 683.213 158.723C683.338 158.965 683.401 159.274 683.401 159.649V162.422H682.73V159.694C682.73 159.348 682.64 159.08 682.46 158.89C682.282 158.699 682.035 158.603 681.719 158.603C681.499 158.603 681.302 158.65 681.128 158.743C680.956 158.835 680.819 158.971 680.719 159.149C680.62 159.327 680.571 159.543 680.571 159.797ZM685.116 162.467C684.976 162.467 684.856 162.417 684.755 162.317C684.655 162.216 684.605 162.096 684.605 161.956C684.605 161.816 684.655 161.695 684.755 161.595C684.856 161.495 684.976 161.444 685.116 161.444C685.256 161.444 685.376 161.495 685.477 161.595C685.577 161.695 685.627 161.816 685.627 161.956C685.627 162.049 685.604 162.134 685.556 162.211C685.511 162.289 685.449 162.352 685.372 162.399C685.296 162.444 685.211 162.467 685.116 162.467ZM688.603 162.513C688.194 162.513 687.842 162.416 687.546 162.223C687.251 162.03 687.024 161.763 686.865 161.424C686.705 161.085 686.626 160.698 686.626 160.263C686.626 159.819 686.707 159.428 686.87 159.089C687.035 158.748 687.264 158.482 687.558 158.291C687.853 158.098 688.198 158.001 688.592 158.001C688.899 158.001 689.175 158.058 689.421 158.172C689.668 158.285 689.869 158.444 690.026 158.649C690.184 158.853 690.281 159.092 690.319 159.365H689.649C689.597 159.166 689.484 158.99 689.308 158.836C689.133 158.681 688.899 158.603 688.603 158.603C688.342 158.603 688.113 158.672 687.916 158.808C687.721 158.942 687.568 159.133 687.458 159.379C687.35 159.623 687.296 159.91 687.296 160.24C687.296 160.577 687.349 160.87 687.455 161.12C687.563 161.37 687.715 161.565 687.91 161.703C688.107 161.841 688.338 161.91 688.603 161.91C688.777 161.91 688.936 161.88 689.078 161.819C689.22 161.759 689.34 161.672 689.438 161.558C689.537 161.444 689.607 161.308 689.649 161.149H690.319C690.281 161.406 690.187 161.638 690.038 161.845C689.89 162.049 689.694 162.212 689.45 162.334C689.207 162.453 688.925 162.513 688.603 162.513ZM693.072 162.513C692.678 162.513 692.332 162.419 692.035 162.231C691.74 162.044 691.508 161.781 691.342 161.444C691.177 161.107 691.095 160.713 691.095 160.263C691.095 159.808 691.177 159.411 691.342 159.072C691.508 158.733 691.74 158.47 692.035 158.282C692.332 158.095 692.678 158.001 693.072 158.001C693.466 158.001 693.811 158.095 694.106 158.282C694.403 158.47 694.634 158.733 694.799 159.072C694.966 159.411 695.049 159.808 695.049 160.263C695.049 160.713 694.966 161.107 694.799 161.444C694.634 161.781 694.403 162.044 694.106 162.231C693.811 162.419 693.466 162.513 693.072 162.513ZM693.072 161.91C693.371 161.91 693.617 161.834 693.811 161.68C694.004 161.527 694.147 161.325 694.24 161.075C694.332 160.825 694.379 160.554 694.379 160.263C694.379 159.971 694.332 159.699 694.24 159.447C694.147 159.195 694.004 158.992 693.811 158.836C693.617 158.681 693.371 158.603 693.072 158.603C692.773 158.603 692.526 158.681 692.333 158.836C692.14 158.992 691.997 159.195 691.904 159.447C691.811 159.699 691.765 159.971 691.765 160.263C691.765 160.554 691.811 160.825 691.904 161.075C691.997 161.325 692.14 161.527 692.333 161.68C692.526 161.834 692.773 161.91 693.072 161.91ZM696.073 162.422V158.058H696.72V158.74H696.777C696.868 158.507 697.015 158.326 697.218 158.197C697.42 158.067 697.664 158.001 697.948 158.001C698.235 158.001 698.475 158.067 698.666 158.197C698.86 158.326 699.01 158.507 699.118 158.74H699.164C699.275 158.514 699.443 158.335 699.666 158.203C699.89 158.068 700.158 158.001 700.47 158.001C700.86 158.001 701.18 158.123 701.428 158.368C701.676 158.61 701.8 158.988 701.8 159.501V162.422H701.129V159.501C701.129 159.179 701.041 158.949 700.865 158.811C700.689 158.673 700.482 158.603 700.243 158.603C699.936 158.603 699.699 158.696 699.53 158.882C699.361 159.066 699.277 159.299 699.277 159.581V162.422H698.595V159.433C698.595 159.185 698.515 158.985 698.354 158.834C698.193 158.68 697.985 158.603 697.732 158.603C697.557 158.603 697.395 158.65 697.243 158.743C697.093 158.835 696.972 158.964 696.879 159.129C696.789 159.292 696.743 159.48 696.743 159.694V162.422H696.073Z" fill="#595959"/>
</g>
<g filter="url(#filter4_d_90_2)">
<g filter="url(#filter5_d_90_2)">
<path d="M872.231 100.625L830.719 243.115H667.28L625.768 100.625L536.147 126.437L568.455 240.816V697.375H929.544V240.816L961.852 126.437L872.231 100.625Z" fill="#6E9678"/>
</g>
<path d="M888 425H610V520.934C689.606 522.262 786.553 523.746 888 525V425Z" fill="#466E50"/>
<path d="M787.5 527.117V425.167H710.5V527.117C723.891 527.608 736.95 527.903 749 527.903C761.05 527.903 774.109 527.607 787.5 527.117Z" fill="#466E50"/>
<path d="M887.649 425.167H829.899V525.043C850.975 523.791 871.114 522.308 887.649 520.982V425.167Z" fill="#466E50"/>
<path d="M628.32 257.411C641.623 243.113 667.28 243.113 667.28 243.113L625.768 100.625L536.147 126.437L568.455 240.816V377.796L569.59 375.593C569.59 375.593 615.016 271.709 628.32 257.411Z" fill="#82AA8C"/>
<path d="M961.852 126.437L872.231 100.625L830.72 243.115C830.72 243.115 856.376 243.115 869.679 257.413C882.982 271.709 928.41 375.594 928.41 375.594L929.544 378.02V240.816L961.852 126.437Z" fill="#82AA8C"/>
<path d="M597.143 227.203C592.97 227.203 589.126 224.469 587.904 220.26C586.422 215.155 589.358 209.815 594.463 208.332L619.927 200.938C625.03 199.456 630.373 202.393 631.854 207.497C633.336 212.602 630.399 217.943 625.294 219.425L599.83 226.82C598.935 227.079 598.03 227.203 597.143 227.203Z" fill="#6E9678"/>
<path d="M625.768 100.625L536.147 126.437L551.847 182.018L641.806 155.675L625.768 100.625Z" fill="#6E9678"/>
<path d="M872.231 100.625L856.193 155.675L946.152 182.016L961.852 126.437L872.231 100.625Z" fill="#6E9678"/>
<path d="M900.857 227.203C899.968 227.203 899.065 227.079 898.169 226.82L872.705 219.425C867.6 217.943 864.662 212.603 866.145 207.497C867.628 202.392 872.972 199.459 878.072 200.938L903.536 208.332C908.641 209.815 911.579 215.154 910.096 220.26C908.873 224.469 905.029 227.203 900.857 227.203Z" fill="#6E9678"/>
<path d="M928.41 513.809C928.41 513.809 821.217 524.295 749 524.295C676.782 524.295 569.59 513.809 569.59 513.809L568.455 513.69V697.375H929.544V513.7L928.41 513.809Z" fill="#5A8264"/>
<path d="M647.324 343.289H850.674C855.989 343.289 860.299 338.98 860.299 333.664C860.299 328.349 855.989 324.039 850.674 324.039H647.324C642.009 324.039 637.699 328.349 637.699 333.664C637.699 338.98 642.009 343.289 647.324 343.289Z" fill="#466E50"/>
<path d="M647.324 394.759H850.674C855.989 394.759 860.299 390.449 860.299 385.134C860.299 379.819 855.989 375.509 850.674 375.509H647.324C642.009 375.509 637.699 379.819 637.699 385.134C637.699 390.449 642.009 394.759 647.324 394.759Z" fill="#466E50"/>
<path d="M667.279 291.82H830.719C836.034 291.82 840.344 287.51 840.344 282.195C840.344 276.879 836.034 272.57 830.719 272.57H667.279C661.964 272.57 657.654 276.879 657.654 282.195C657.654 287.51 661.964 291.82 667.279 291.82Z" fill="#466E50"/>
<path d="M892.485 601.657H605.514C600.198 601.657 595.889 605.966 595.889 611.282C595.889 616.597 600.198 620.907 605.514 620.907H892.484C897.8 620.907 902.109 616.597 902.109 611.282C902.109 605.966 897.801 601.657 892.485 601.657Z" fill="#466E50"/>
<path d="M605.514 575.698H892.484C897.8 575.698 902.109 571.389 902.109 566.073C902.109 560.758 897.8 556.448 892.484 556.448H605.514C600.198 556.448 595.889 560.758 595.889 566.073C595.889 571.389 600.198 575.698 605.514 575.698Z" fill="#466E50"/>
<path d="M892.485 646.865H605.514C600.198 646.865 595.889 651.175 595.889 656.49C595.889 661.806 600.198 666.115 605.514 666.115H892.484C897.8 666.115 902.109 661.806 902.109 656.49C902.109 651.175 897.801 646.865 892.485 646.865Z" fill="#466E50"/>
</g>
<path d="M712.091 467C711.97 465.485 711.402 464.303 710.386 463.455C709.386 462.606 707.864 462.182 705.818 462.182C704.515 462.182 703.447 462.341 702.614 462.659C701.795 462.962 701.189 463.379 700.795 463.909C700.402 464.439 700.197 465.045 700.182 465.727C700.152 466.288 700.25 466.795 700.477 467.25C700.72 467.689 701.098 468.091 701.614 468.455C702.129 468.803 702.788 469.121 703.591 469.409C704.394 469.697 705.348 469.955 706.455 470.182L710.273 471C712.848 471.545 715.053 472.265 716.886 473.159C718.72 474.053 720.22 475.106 721.386 476.318C722.553 477.515 723.409 478.864 723.955 480.364C724.515 481.864 724.803 483.5 724.818 485.273C724.803 488.333 724.038 490.924 722.523 493.045C721.008 495.167 718.841 496.78 716.023 497.886C713.22 498.992 709.848 499.545 705.909 499.545C701.864 499.545 698.333 498.947 695.318 497.75C692.318 496.553 689.985 494.712 688.318 492.227C686.667 489.727 685.833 486.53 685.818 482.636H697.818C697.894 484.061 698.25 485.258 698.886 486.227C699.523 487.197 700.417 487.932 701.568 488.432C702.735 488.932 704.121 489.182 705.727 489.182C707.076 489.182 708.205 489.015 709.114 488.682C710.023 488.348 710.712 487.886 711.182 487.295C711.652 486.705 711.894 486.03 711.909 485.273C711.894 484.561 711.659 483.939 711.205 483.409C710.765 482.864 710.038 482.379 709.023 481.955C708.008 481.515 706.636 481.106 704.909 480.727L700.273 479.727C696.152 478.833 692.902 477.341 690.523 475.25C688.159 473.144 686.985 470.273 687 466.636C686.985 463.682 687.773 461.098 689.364 458.886C690.97 456.659 693.189 454.924 696.023 453.682C698.871 452.439 702.136 451.818 705.818 451.818C709.576 451.818 712.826 452.447 715.568 453.705C718.311 454.962 720.424 456.735 721.909 459.023C723.409 461.295 724.167 463.955 724.182 467H712.091ZM754.716 467C754.595 465.485 754.027 464.303 753.011 463.455C752.011 462.606 750.489 462.182 748.443 462.182C747.14 462.182 746.072 462.341 745.239 462.659C744.42 462.962 743.814 463.379 743.42 463.909C743.027 464.439 742.822 465.045 742.807 465.727C742.777 466.288 742.875 466.795 743.102 467.25C743.345 467.689 743.723 468.091 744.239 468.455C744.754 468.803 745.413 469.121 746.216 469.409C747.019 469.697 747.973 469.955 749.08 470.182L752.898 471C755.473 471.545 757.678 472.265 759.511 473.159C761.345 474.053 762.845 475.106 764.011 476.318C765.178 477.515 766.034 478.864 766.58 480.364C767.14 481.864 767.428 483.5 767.443 485.273C767.428 488.333 766.663 490.924 765.148 493.045C763.633 495.167 761.466 496.78 758.648 497.886C755.845 498.992 752.473 499.545 748.534 499.545C744.489 499.545 740.958 498.947 737.943 497.75C734.943 496.553 732.61 494.712 730.943 492.227C729.292 489.727 728.458 486.53 728.443 482.636H740.443C740.519 484.061 740.875 485.258 741.511 486.227C742.148 487.197 743.042 487.932 744.193 488.432C745.36 488.932 746.746 489.182 748.352 489.182C749.701 489.182 750.83 489.015 751.739 488.682C752.648 488.348 753.337 487.886 753.807 487.295C754.277 486.705 754.519 486.03 754.534 485.273C754.519 484.561 754.284 483.939 753.83 483.409C753.39 482.864 752.663 482.379 751.648 481.955C750.633 481.515 749.261 481.106 747.534 480.727L742.898 479.727C738.777 478.833 735.527 477.341 733.148 475.25C730.784 473.144 729.61 470.273 729.625 466.636C729.61 463.682 730.398 461.098 731.989 458.886C733.595 456.659 735.814 454.924 738.648 453.682C741.496 452.439 744.761 451.818 748.443 451.818C752.201 451.818 755.451 452.447 758.193 453.705C760.936 454.962 763.049 456.735 764.534 459.023C766.034 461.295 766.792 463.955 766.807 467H754.716ZM802.477 467.818C802.28 467.015 801.97 466.311 801.545 465.705C801.121 465.083 800.591 464.561 799.955 464.136C799.333 463.697 798.606 463.371 797.773 463.159C796.955 462.932 796.053 462.818 795.068 462.818C792.947 462.818 791.136 463.326 789.636 464.341C788.152 465.356 787.015 466.818 786.227 468.727C785.455 470.636 785.068 472.939 785.068 475.636C785.068 478.364 785.439 480.697 786.182 482.636C786.924 484.576 788.03 486.061 789.5 487.091C790.97 488.121 792.795 488.636 794.977 488.636C796.902 488.636 798.5 488.356 799.773 487.795C801.061 487.235 802.023 486.439 802.659 485.409C803.295 484.379 803.614 483.167 803.614 481.773L805.795 482H795.159V473H815.795V479.455C815.795 483.697 814.894 487.326 813.091 490.341C811.303 493.341 808.833 495.644 805.682 497.25C802.545 498.841 798.947 499.636 794.886 499.636C790.356 499.636 786.379 498.674 782.955 496.75C779.53 494.826 776.856 492.083 774.932 488.523C773.023 484.962 772.068 480.727 772.068 475.818C772.068 471.97 772.652 468.561 773.818 465.591C775 462.621 776.636 460.114 778.727 458.068C780.818 456.008 783.235 454.455 785.977 453.409C788.72 452.348 791.659 451.818 794.795 451.818C797.553 451.818 800.114 452.212 802.477 453C804.856 453.773 806.955 454.879 808.773 456.318C810.606 457.742 812.083 459.432 813.205 461.386C814.326 463.341 815.008 465.485 815.25 467.818H802.477Z" fill="white"/>
</g>
<defs>
<filter id="filter0_f_90_2" x="-271" y="-249" width="1041.84" height="706.067" filterUnits="userSpaceOnUse" color-interpolation-filters="sRGB">
<feFlood flood-opacity="0" result="BackgroundImageFix"/>
<feBlend mode="normal" in="SourceGraphic" in2="BackgroundImageFix" result="shape"/>
<feGaussianBlur stdDeviation="50" result="effect1_foregroundBlur_90_2"/>
</filter>
<filter id="filter1_f_90_2" x="264.735" y="-219.173" width="1088.05" height="1414.46" filterUnits="userSpaceOnUse" color-interpolation-filters="sRGB">
<feFlood flood-opacity="0" result="BackgroundImageFix"/>
<feBlend mode="normal" in="SourceGraphic" in2="BackgroundImageFix" result="shape"/>
<feGaussianBlur stdDeviation="50" result="effect1_foregroundBlur_90_2"/>
</filter>
<filter id="filter2_d_90_2" x="477" y="412" width="544.468" height="320.974" filterUnits="userSpaceOnUse" color-interpolation-filters="sRGB">
<feFlood flood-opacity="0" result="BackgroundImageFix"/>
<feColorMatrix in="SourceAlpha" type="matrix" values="0 0 0 0 0 0 0 0 0 0 0 0 0 0 0 0 0 0 127 0" result="hardAlpha"/>
<feOffset dy="4"/>
<feGaussianBlur stdDeviation="10"/>
<feComposite in2="hardAlpha" operator="out"/>
<feColorMatrix type="matrix" values="0 0 0 0 0 0 0 0 0 0 0 0 0 0 0 0 0 0 0.25 0"/>
<feBlend mode="normal" in2="BackgroundImageFix" result="effect1_dropShadow_90_2"/>
<feBlend mode="normal" in="SourceGraphic" in2="effect1_dropShadow_90_2" result="shape"/>
</filter>
<filter id="filter3_d_90_2" x="447" y="133.984" width="605" height="378.032" filterUnits="userSpaceOnUse" color-interpolation-filters="sRGB">
<feFlood flood-opacity="0" result="BackgroundImageFix"/>
<feColorMatrix in="SourceAlpha" type="matrix" values="0 0 0 0 0 0 0 0 0 0 0 0 0 0 0 0 0 0 127 0" result="hardAlpha"/>
<feOffset dy="4"/>
<feGaussianBlur stdDeviation="2"/>
<feComposite in2="hardAlpha" operator="out"/>
<feColorMatrix type="matrix" values="0 0 0 0 0 0 0 0 0 0 0 0 0 0 0 0 0 0 0.25 0"/>
<feBlend mode="normal" in2="BackgroundImageFix" result="effect1_dropShadow_90_2"/>
<feBlend mode="normal" in="SourceGraphic" in2="effect1_dropShadow_90_2" result="shape"/>
</filter>
<filter id="filter4_d_90_2" x="516.147" y="84.625" width="465.704" height="636.75" filterUnits="userSpaceOnUse" color-interpolation-filters="sRGB">
<feFlood flood-opacity="0" result="BackgroundImageFix"/>
<feColorMatrix in="SourceAlpha" type="matrix" values="0 0 0 0 0 0 0 0 0 0 0 0 0 0 0 0 0 0 127 0" result="hardAlpha"/>
<feOffset dy="4"/>
<feGaussianBlur stdDeviation="10"/>
<feComposite in2="hardAlpha" operator="out"/>
<feColorMatrix type="matrix" values="0 0 0 0 0 0 0 0 0 0 0 0 0 0 0 0 0 0 0.25 0"/>
<feBlend mode="normal" in2="BackgroundImageFix" result="effect1_dropShadow_90_2"/>
<feBlend mode="normal" in="SourceGraphic" in2="effect1_dropShadow_90_2" result="shape"/>
</filter>
<filter id="filter5_d_90_2" x="532.147" y="100.625" width="433.704" height="604.75" filterUnits="userSpaceOnUse" color-interpolation-filters="sRGB">
<feFlood flood-opacity="0" result="BackgroundImageFix"/>
<feColorMatrix in="SourceAlpha" type="matrix" values="0 0 0 0 0 0 0 0 0 0 0 0 0 0 0 0 0 0 127 0" result="hardAlpha"/>
<feOffset dy="4"/>
<feGaussianBlur stdDeviation="2"/>
<feComposite in2="hardAlpha" operator="out"/>
<feColorMatrix type="matrix" values="0 0 0 0 0 0 0 0 0 0 0 0 0 0 0 0 0 0 0.25 0"/>
<feBlend mode="normal" in2="BackgroundImageFix" result="effect1_dropShadow_90_2"/>
<feBlend mode="normal" in="SourceGraphic" in2="effect1_dropShadow_90_2" result="shape"/>
</filter>
<radialGradient id="paint0_diamond_90_2" cx="0" cy="0" r="1" gradientUnits="userSpaceOnUse" gradientTransform="translate(1323 -483.5) rotate(105.047) scale(2014.57 1520.84)">
<stop stop-color="#4BBFFF"/>
<stop offset="0.956826" stop-color="#00639A"/>
</radialGradient>
<linearGradient id="paint1_linear_90_2" x1="625.672" y1="-104.994" x2="142.842" y2="649.97" gradientUnits="userSpaceOnUse">
<stop/>
<stop offset="1" stop-color="#005280"/>
</linearGradient>
<clipPath id="clip0_90_2">
<rect width="1600" height="800" fill="white"/>
</clipPath>
<clipPath id="clip1_90_2">
<rect width="26.1603" height="11.1255" fill="white" transform="translate(879.728 154.813)"/>
</clipPath>
</defs>
</svg>
