<svg width="1600" height="800" viewBox="0 0 1600 800" fill="none" xmlns="http://www.w3.org/2000/svg">
<g clip-path="url(#clip0_90_112)">
<rect width="1600" height="800" fill="white"/>
<rect width="1600" height="800" fill="url(#paint0_diamond_90_112)"/>
<g filter="url(#filter0_f_90_112)">
<path d="M486.5 525C238.5 568.5 -84.5 236 -93 224.5C-159.333 230.833 -260.3 212.9 -133.5 90.4999C25 -62.5001 439.005 87.8435 486.5 116.5C665.5 224.5 734.5 481.5 486.5 525Z" fill="url(#paint1_linear_90_112)" fill-opacity="0.1"/>
</g>
<g filter="url(#filter1_f_90_112)">
<path d="M1417.01 326.56C1598.59 568.214 1418.72 1094.85 1411.05 1110.21C1453.94 1177.73 1489.73 1295.52 1289.73 1226.51C1039.73 1140.23 975.149 615.417 979.947 548.997C998.029 298.673 1235.43 84.9068 1417.01 326.56Z" fill="white" fill-opacity="0.2"/>
</g>
<rect width="1600" height="800" fill="white" fill-opacity="0.2"/>
<rect width="1600" height="800" fill="url(#paint2_radial_90_112)" fill-opacity="0.4"/>
<g clip-path="url(#clip1_90_112)" filter="url(#filter2_d_90_112)">
<g filter="url(#filter3_d_90_112)">
<path d="M859.13 79.23L879.565 124.596L844.782 89.1673L739.347 68.6447L720.869 33.4321L859.13 79.23Z" fill="white"/>
</g>
<g filter="url(#filter4_d_90_112)">
<path d="M844.782 92.8396L750.869 75.5574L767.391 98.6724L854.782 102.993L844.782 92.8396Z" fill="white"/>
</g>
<g filter="url(#filter5_d_90_112)">
<path d="M805.87 117.035L794.565 105.153L858.261 106.882L864.131 113.794L805.87 117.035Z" fill="white"/>
</g>
<g filter="url(#filter6_d_90_112)">
<path d="M859.13 79.23L879.565 124.596L844.782 89.1673L739.347 68.6447L720.869 33.4321L859.13 79.23Z" stroke="white" shape-rendering="crispEdges"/>
</g>
<g filter="url(#filter7_d_90_112)">
<path d="M844.782 92.8396L750.869 75.5574L767.391 98.6724L854.782 102.993L844.782 92.8396Z" stroke="white" shape-rendering="crispEdges"/>
</g>
<g filter="url(#filter8_d_90_112)">
<path d="M805.87 117.035L794.565 105.153L858.261 106.882L864.131 113.794L805.87 117.035Z" stroke="white" shape-rendering="crispEdges"/>
</g>
</g>
<g filter="url(#filter9_d_90_112)">
<path d="M1018.98 224.883L818.145 164.633C815.333 163.789 812.336 163.789 809.523 164.633L608.689 224.883C602.345 226.786 598 232.626 598 239.25V460.166C598 488.9 609.633 518.314 632.574 547.591C650.095 569.951 674.336 592.404 704.621 614.327C755.498 651.155 805.597 673.747 807.705 674.69C809.654 675.563 811.744 676 813.834 676C815.924 676 818.014 675.564 819.963 674.69C822.07 673.747 872.168 651.155 923.045 614.327C953.33 592.404 977.57 569.951 995.092 547.591C1018.03 518.315 1029.66 488.901 1029.66 460.166V239.25C1029.66 232.626 1025.32 226.786 1018.98 224.883Z" fill="url(#paint3_linear_90_112)"/>
<mask id="mask0_90_112" style="mask-type:alpha" maskUnits="userSpaceOnUse" x="598" y="164" width="432" height="512">
<path d="M1018.98 224.883L818.145 164.633C815.333 163.789 812.336 163.789 809.523 164.633L608.689 224.883C602.345 226.786 598 232.626 598 239.25V460.166C598 488.9 609.633 518.314 632.574 547.591C650.095 569.951 674.336 592.404 704.621 614.327C755.498 651.155 805.597 673.747 807.705 674.69C809.654 675.563 811.744 676 813.834 676C815.924 676 818.014 675.564 819.963 674.69C822.07 673.747 872.168 651.155 923.045 614.327C953.33 592.404 977.57 569.951 995.092 547.591C1018.03 518.315 1029.66 488.901 1029.66 460.166V239.25C1029.66 232.626 1025.32 226.786 1018.98 224.883Z" fill="black"/>
</mask>
<g mask="url(#mask0_90_112)">
<path d="M813 163.5V676C808.167 686.333 799.9 708.8 805.5 716C812.5 725 910 803.5 1025 822.5C1140 841.5 1201 772 1257.5 668.5C1314 565 1263 359.5 1241 287C1223.4 229 1106 173.167 1049.5 152.5L813 163.5Z" fill="url(#paint4_linear_90_112)"/>
</g>
</g>
<g filter="url(#filter10_d_90_112)">
<g clip-path="url(#clip2_90_112)">
<path d="M843.199 330.638L832.232 327.49C831.432 327.26 830.953 326.442 831.146 325.633C831.338 324.823 832.132 324.307 832.95 324.46C833.571 324.577 834.353 323.434 834.878 322.325C835.684 320.622 836.194 318.521 836.427 317.42C836.529 316.936 836.855 316.529 837.305 316.324C837.756 316.118 838.277 316.139 838.709 316.38C839.414 316.772 840.207 317.096 841.067 317.343C841.938 317.593 842.791 317.74 843.603 317.778C844.096 317.802 844.55 318.059 844.824 318.47C845.099 318.881 845.162 319.398 844.995 319.863C843.41 324.267 843.348 327.355 844.199 327.69C844.973 327.994 845.372 328.853 845.105 329.641C844.837 330.429 843.998 330.867 843.199 330.638Z" fill="#FFB500"/>
<path d="M844.199 327.69C843.348 327.355 843.41 324.268 844.995 319.863C845.162 319.398 845.099 318.881 844.824 318.47C844.55 318.059 844.096 317.802 843.603 317.779C842.797 317.74 841.951 317.595 841.087 317.349L837.723 329.066L843.199 330.638C843.998 330.868 844.837 330.429 845.105 329.641C845.372 328.853 844.973 327.995 844.199 327.69Z" fill="#FF7403"/>
<path d="M832.495 313.401C832.191 313.313 831.91 313.132 831.699 312.863L828.433 308.687C824.179 303.248 822.779 296.032 824.688 289.383L824.726 289.248C824.964 288.421 825.827 287.943 826.654 288.18L834.424 290.411C835.251 290.648 835.729 291.511 835.492 292.339C835.254 293.166 834.391 293.644 833.564 293.406L827.345 291.621C826.257 296.916 827.539 302.486 830.888 306.767L834.154 310.943C834.684 311.621 834.565 312.6 833.887 313.131C833.478 313.45 832.959 313.534 832.495 313.401Z" fill="#FFC12E"/>
<path d="M850.425 318.547C849.96 318.414 849.565 318.068 849.388 317.579C849.095 316.77 849.514 315.876 850.323 315.583L855.317 313.777C860.43 311.928 864.474 307.888 866.365 302.822L860.034 301.005C859.207 300.767 858.729 299.904 858.966 299.077C859.204 298.25 860.067 297.771 860.894 298.009L868.776 300.271C869.603 300.509 870.081 301.372 869.844 302.199L869.808 302.323C867.898 308.979 862.876 314.357 856.377 316.708L851.383 318.514C851.063 318.63 850.729 318.634 850.425 318.547Z" fill="#FF7403"/>
<path d="M840.207 320.339C834.525 318.708 831.322 314.523 830.685 307.901C830.179 302.63 831.392 296.779 832.278 292.507C832.64 290.764 833.078 288.651 833.095 287.729C832.599 287.351 832.359 286.694 832.541 286.058L864.91 295.35C864.718 296.019 864.117 296.459 863.457 296.478C862.951 297.282 862.158 299.417 861.505 301.174C859.993 305.244 857.922 310.819 854.729 314.956C850.726 320.145 845.839 321.956 840.207 320.339Z" fill="#FFE645"/>
<path d="M840.227 320.344C845.851 321.951 850.731 320.139 854.73 314.956C857.923 310.819 859.994 305.245 861.506 301.174C862.159 299.417 862.952 297.282 863.458 296.478C864.118 296.459 864.719 296.018 864.911 295.35L848.734 290.706L840.227 320.344Z" fill="#FFC12E"/>
<path d="M864.9 296.968L831.692 287.436C830.864 287.199 830.386 286.335 830.624 285.508C830.861 284.681 831.724 284.203 832.552 284.44L865.76 293.972C866.587 294.21 867.065 295.073 866.828 295.9C866.59 296.728 865.727 297.206 864.9 296.968Z" fill="#FFC12E"/>
<path d="M865.76 293.972L849.164 289.208L848.304 292.204L864.9 296.968C865.727 297.206 866.591 296.727 866.828 295.9C867.066 295.073 866.587 294.21 865.76 293.972Z" fill="#FF9300"/>
<path d="M844.07 336.581L828.34 332.066C827.513 331.829 827.035 330.965 827.272 330.138L828.209 326.876C828.762 324.949 830.78 323.831 832.707 324.384L844.443 327.753C846.37 328.306 847.488 330.324 846.935 332.251L845.998 335.513C845.761 336.341 844.897 336.819 844.07 336.581Z" fill="#FFE645"/>
<path d="M844.443 327.753L838.583 326.071L836.213 334.326L844.07 336.581C844.898 336.819 845.761 336.341 845.998 335.514L846.935 332.251C847.488 330.324 846.37 328.306 844.443 327.753Z" fill="#FFC12E"/>
<path d="M844.453 300.922L843.907 301.077C843.736 301.131 843.583 301.122 843.471 301.09C843.007 300.957 842.83 300.37 842.972 299.874C843.068 299.539 843.304 299.261 843.679 299.161L846.155 298.488C846.305 298.445 846.474 298.458 846.65 298.509C847.161 298.656 847.666 299.129 847.528 299.608L844.611 309.77C844.464 310.281 843.768 310.358 843.145 310.179C842.521 310.001 841.972 309.566 842.118 309.055L844.453 300.922Z" fill="#FF7403"/>
<path d="M846.65 298.509C846.6 298.495 846.552 298.484 846.503 298.476L843.144 310.179C843.767 310.358 844.464 310.281 844.61 309.77L847.527 299.608C847.665 299.129 847.161 298.656 846.65 298.509Z" fill="#E5002E"/>
<path d="M846.997 343.928L821.961 336.741C821.134 336.504 820.656 335.641 820.893 334.813L822.613 328.822C822.85 327.995 823.714 327.516 824.541 327.754L849.577 334.941C850.404 335.178 850.883 336.041 850.645 336.868L848.925 342.86C848.688 343.687 847.825 344.165 846.997 343.928Z" fill="#FF3D4A"/>
<path d="M849.578 334.94L837.067 331.349L834.488 340.337L846.998 343.928C847.825 344.165 848.688 343.687 848.926 342.86L850.646 336.868C850.883 336.041 850.405 335.178 849.578 334.94Z" fill="#C20020"/>
</g>
<rect x="671.5" y="277.719" width="274" height="229.393" rx="17.5" fill="#303030" stroke="#B3B3B3" stroke-width="5"/>
<rect x="753.316" y="284.219" width="117.197" height="14.1301" rx="7.06504" fill="#D9D9D9"/>
<g clip-path="url(#clip3_90_112)">
<path d="M866.62 295.268L864.444 292.867C865.003 292.162 865.31 291.274 865.31 290.35C865.31 288.191 863.654 286.435 861.618 286.435C859.583 286.435 857.927 288.191 857.927 290.35C857.927 292.509 859.583 294.265 861.618 294.265C862.382 294.265 863.111 294.021 863.733 293.557L865.926 295.976C866.017 296.077 866.141 296.132 866.273 296.132C866.398 296.132 866.516 296.082 866.606 295.99C866.798 295.794 866.804 295.471 866.62 295.268ZM861.618 287.456C863.123 287.456 864.347 288.755 864.347 290.35C864.347 291.946 863.123 293.244 861.618 293.244C860.114 293.244 858.89 291.946 858.89 290.35C858.89 288.755 860.114 287.456 861.618 287.456Z" fill="black"/>
</g>
<line x1="670.939" y1="305.472" x2="946.338" y2="305.472" stroke="#A2A2A2" stroke-opacity="0.3"/>
<rect x="703" y="331" width="100" height="65" rx="10" fill="#D9D9D9"/>
<rect x="814" y="402" width="100" height="65" rx="10" fill="#D9D9D9"/>
<rect x="814" y="344" width="73" height="9" rx="4.5" fill="#D9D9D9"/>
<rect width="73" height="9" rx="4.5" transform="matrix(-1 0 0 1 803 414)" fill="#D9D9D9"/>
<rect x="814" y="358" width="75" height="9" rx="4.5" fill="#D9D9D9"/>
<rect width="75" height="9" rx="4.5" transform="matrix(-1 0 0 1 803 428)" fill="#D9D9D9"/>
<rect x="814" y="371" width="48" height="9" rx="4.5" fill="#D9D9D9"/>
<rect width="48" height="9" rx="4.5" transform="matrix(-1 0 0 1 803 441)" fill="#D9D9D9"/>
</g>
<g filter="url(#filter11_f_90_112)">
<path d="M309.603 378.677C295.08 378.737 282.16 387.913 277.319 401.606H251.995C251.288 386.157 249.158 370.807 245.633 355.749H275.21C294.204 355.749 309.603 340.351 309.603 321.357V284.855C325.395 279.271 334.868 263.123 332.036 246.613C329.204 230.103 314.889 218.036 298.139 218.036C281.389 218.036 267.074 230.103 264.242 246.613C261.41 263.123 270.883 279.271 286.675 284.855V321.357C286.675 327.688 281.543 332.82 275.212 332.82H239.122C213.821 258.035 155.104 199.319 80.319 174.017V137.928C80.319 131.596 85.4524 126.464 91.7828 126.464H128.285C133.868 142.257 150.017 151.729 166.526 148.897C183.036 146.065 195.103 131.751 195.103 115C195.103 98.2499 183.036 83.9353 166.526 81.1033C150.017 78.2713 133.868 87.744 128.285 103.536H91.7828C72.7888 103.536 57.39 118.935 57.39 137.929V167.507C42.3325 163.982 26.982 161.851 11.5335 161.144V135.82C27.326 130.237 36.7987 114.088 33.9667 97.5782C31.1333 81.067 16.8187 69 0.0683899 69C-16.6819 69 -30.9966 81.067 -33.8286 97.5769C-36.6606 114.087 -27.1879 130.235 -11.3954 135.819V161.143C-26.844 161.85 -42.1944 163.98 -57.252 167.506V137.928C-57.252 118.934 -72.6508 103.535 -91.6447 103.535H-128.147C-133.73 87.7427 -149.879 78.2699 -166.388 81.1019C-182.898 83.934 -194.965 98.2486 -194.965 114.999C-194.965 131.749 -182.898 146.064 -166.388 148.896C-149.879 151.728 -133.73 142.255 -128.147 126.463H-91.6447C-85.3129 126.463 -80.1809 131.596 -80.1809 137.927V174.016C-154.966 199.319 -213.684 258.035 -238.984 332.82H-275.073C-281.405 332.82 -286.537 327.687 -286.537 321.357V284.855C-270.745 279.271 -261.272 263.123 -264.104 246.613C-266.936 230.103 -281.251 218.036 -298.001 218.036C-314.751 218.036 -329.066 230.103 -331.898 246.613C-334.73 263.123 -325.257 279.271 -309.465 284.855V321.357C-309.465 340.351 -294.066 355.749 -275.072 355.749H-245.494C-249.02 370.807 -251.15 386.157 -251.857 401.606H-277.181C-282.765 385.813 -298.913 376.341 -315.423 379.173C-331.933 382.005 -344 396.319 -344 413.07C-344 429.82 -331.933 444.135 -315.423 446.967C-298.913 449.799 -282.765 440.326 -277.181 424.533H-251.857C-251.15 439.982 -249.02 455.332 -245.494 470.39H-275.073C-294.067 470.39 -309.466 485.789 -309.466 504.783V541.285C-325.259 546.868 -334.731 563.017 -331.899 579.526C-329.067 596.036 -314.753 608.103 -298.002 608.103C-281.252 608.103 -266.937 596.036 -264.105 579.526C-261.273 563.017 -270.746 546.868 -286.539 541.285V504.783C-286.539 498.451 -281.405 493.319 -275.075 493.319H-238.984C-213.682 568.104 -154.966 626.82 -80.1809 652.122V688.211C-80.1809 694.543 -85.3129 699.675 -91.6447 699.675H-128.147C-133.73 683.883 -149.879 674.41 -166.388 677.242C-182.898 680.074 -194.965 694.389 -194.965 711.139C-194.965 727.889 -182.898 742.204 -166.388 745.036C-149.879 747.868 -133.73 738.395 -128.147 722.603H-91.6447C-72.6508 722.603 -57.252 707.204 -57.252 688.21V658.634C-42.1944 662.159 -26.844 664.29 -11.3954 664.996V690.321C-27.1879 695.904 -36.6606 712.053 -33.8286 728.562C-30.9966 745.072 -16.6819 757.139 0.0683899 757.139C16.8187 757.139 31.1333 745.072 33.9654 728.562C36.7974 712.053 27.3246 695.904 11.5322 690.321V664.996C26.9807 664.29 42.3311 662.159 57.3887 658.634V688.211C57.3887 707.205 72.7875 722.604 91.7814 722.604H128.283C133.867 738.397 150.015 747.869 166.525 745.037C183.035 742.205 195.102 727.891 195.102 711.14C195.102 694.39 183.035 680.076 166.525 677.243C150.015 674.411 133.867 683.884 128.283 699.677H91.7814C85.4497 699.677 80.3177 694.545 80.3177 688.213V652.123C155.103 626.822 213.819 568.106 239.121 493.32H275.21C281.542 493.32 286.674 498.454 286.674 504.784V541.286C270.882 546.869 261.409 563.018 264.241 579.528C267.073 596.038 281.388 608.105 298.138 608.105C314.888 608.105 329.203 596.038 332.035 579.528C334.867 563.018 325.394 546.869 309.602 541.286V504.784C309.602 485.79 294.203 470.391 275.209 470.391H245.631C249.156 455.334 251.287 439.983 251.994 424.535H277.318C283.177 440.982 300.445 450.413 317.447 446.455C334.452 442.496 345.777 426.408 343.77 409.065C341.764 391.721 327.061 378.646 309.603 378.677ZM298.138 241.106C304.47 241.106 309.602 246.239 309.602 252.57C309.602 258.9 304.468 264.034 298.138 264.034C291.806 264.034 286.674 258.902 286.674 252.57C286.674 246.238 291.807 241.106 298.138 241.106ZM160.567 103.535C166.899 103.535 172.031 108.669 172.031 114.999C172.031 121.329 166.899 126.463 160.567 126.463C154.235 126.463 149.103 121.329 149.103 114.999C149.103 108.669 154.236 103.535 160.567 103.535ZM-160.431 126.464C-166.763 126.464 -171.895 121.331 -171.895 115C-171.895 108.67 -166.762 103.536 -160.431 103.536C-154.1 103.536 -148.968 108.67 -148.968 115C-148.968 118.041 -150.175 120.957 -152.325 123.107C-154.475 125.256 -157.391 126.464 -160.431 126.464ZM-298.002 241.106C-291.671 241.106 -286.539 246.239 -286.539 252.57C-286.539 258.9 -291.672 264.034 -298.002 264.034C-304.333 264.034 -309.466 258.902 -309.466 252.57C-309.466 246.238 -304.334 241.106 -298.002 241.106ZM-298.002 585.033C-304.334 585.033 -309.466 579.9 -309.466 573.57C-309.466 567.239 -304.333 562.106 -298.002 562.106C-291.672 562.106 -286.539 567.238 -286.539 573.57C-286.539 579.901 -291.671 585.033 -298.002 585.033ZM-160.431 722.604C-166.763 722.604 -171.895 717.472 -171.895 711.14C-171.895 704.809 -166.762 699.677 -160.431 699.677C-154.1 699.677 -148.968 704.81 -148.968 711.14C-148.968 717.471 -154.1 722.604 -160.431 722.604ZM160.567 699.675C166.899 699.675 172.031 704.809 172.031 711.139C172.031 717.469 166.899 722.603 160.567 722.603C154.235 722.603 149.103 717.471 149.103 711.139C149.103 704.807 154.236 699.675 160.567 699.675ZM298.138 585.033C291.806 585.033 286.674 579.9 286.674 573.57C286.674 567.239 291.807 562.106 298.138 562.106C304.47 562.106 309.602 567.238 309.602 573.57C309.602 579.901 304.47 585.033 298.138 585.033ZM0.0683899 92.0713C6.40015 92.0713 11.5322 97.2047 11.5322 103.535C11.5322 109.866 6.40015 114.999 0.0683899 114.999C-6.26337 114.999 -11.3954 109.866 -11.3954 103.535C-11.3954 97.2047 -6.26337 92.0713 0.0683899 92.0713ZM-309.466 424.533C-315.798 424.533 -320.93 419.4 -320.93 413.07C-320.93 406.738 -315.797 401.606 -309.466 401.606C-303.136 401.606 -298.002 406.739 -298.002 413.07C-298.002 419.401 -303.134 424.533 -309.466 424.533ZM0.0683899 734.068C-6.26337 734.068 -11.3954 728.936 -11.3954 722.604C-11.3954 716.273 -6.26202 711.14 0.0683899 711.14C6.40015 711.14 11.5322 716.273 11.5322 722.604C11.5322 728.936 6.40015 734.068 0.0683899 734.068ZM0.0683899 642.355C-126.563 642.355 -229.217 539.701 -229.217 413.07C-229.217 286.439 -126.563 183.784 0.0683899 183.784C126.699 183.784 229.354 286.439 229.354 413.07C229.207 539.64 126.638 642.21 0.0683899 642.355ZM309.603 424.533C303.271 424.533 298.139 419.4 298.139 413.07C298.139 406.738 303.273 401.606 309.603 401.606C315.933 401.606 321.067 406.739 321.067 413.07C321.067 419.401 315.935 424.533 309.603 424.533Z" fill="black" fill-opacity="0.2"/>
<path d="M122.112 328.388C118.927 325.204 113.765 325.204 110.582 328.388L61.388 377.582C58.204 380.766 58.204 385.928 61.388 389.111C69.759 397.482 80.754 401.668 91.75 401.668C102.746 401.668 113.741 397.483 122.112 389.111C138.854 372.37 138.854 345.13 122.112 328.388ZM110.582 377.582C102.207 385.957 89.599 387.577 79.585 382.444L115.445 346.584C120.576 356.598 118.955 369.208 110.582 377.582Z" fill="black" fill-opacity="0.2"/>
<path d="M101 475.5C101 475.5 61 521.5 0 520C-61 518.5 -101 475.5 -101 475.5" stroke="black" stroke-opacity="0.2" stroke-width="10" stroke-linecap="round"/>
</g>
<g filter="url(#filter12_f_90_112)">
<path d="M1909.6 378.677C1895.08 378.737 1882.16 387.913 1877.32 401.606H1852C1851.29 386.157 1849.16 370.807 1845.63 355.749H1875.21C1894.2 355.749 1909.6 340.351 1909.6 321.357V284.855C1925.4 279.271 1934.87 263.123 1932.04 246.613C1929.2 230.103 1914.89 218.036 1898.14 218.036C1881.39 218.036 1867.07 230.103 1864.24 246.613C1861.41 263.123 1870.88 279.271 1886.68 284.855V321.357C1886.68 327.688 1881.54 332.82 1875.21 332.82H1839.12C1813.82 258.035 1755.1 199.319 1680.32 174.017V137.928C1680.32 131.596 1685.45 126.464 1691.78 126.464H1728.28C1733.87 142.257 1750.02 151.729 1766.53 148.897C1783.04 146.065 1795.1 131.751 1795.1 115C1795.1 98.2499 1783.04 83.9353 1766.53 81.1033C1750.02 78.2713 1733.87 87.744 1728.28 103.536H1691.78C1672.79 103.536 1657.39 118.935 1657.39 137.929V167.507C1642.33 163.982 1626.98 161.851 1611.53 161.144V135.82C1627.33 130.237 1636.8 114.088 1633.97 97.5782C1631.13 81.067 1616.82 69 1600.07 69C1583.32 69 1569 81.067 1566.17 97.5769C1563.34 114.087 1572.81 130.235 1588.6 135.819V161.143C1573.16 161.85 1557.81 163.98 1542.75 167.506V137.928C1542.75 118.934 1527.35 103.535 1508.36 103.535H1471.85C1466.27 87.7427 1450.12 78.2699 1433.61 81.1019C1417.1 83.934 1405.03 98.2486 1405.03 114.999C1405.03 131.749 1417.1 146.064 1433.61 148.896C1450.12 151.728 1466.27 142.255 1471.85 126.463H1508.36C1514.69 126.463 1519.82 131.596 1519.82 137.927V174.016C1445.03 199.319 1386.32 258.035 1361.02 332.82H1324.93C1318.59 332.82 1313.46 327.687 1313.46 321.357V284.855C1329.26 279.271 1338.73 263.123 1335.9 246.613C1333.06 230.103 1318.75 218.036 1302 218.036C1285.25 218.036 1270.93 230.103 1268.1 246.613C1265.27 263.123 1274.74 279.271 1290.54 284.855V321.357C1290.54 340.351 1305.93 355.749 1324.93 355.749H1354.51C1350.98 370.807 1348.85 386.157 1348.14 401.606H1322.82C1317.24 385.813 1301.09 376.341 1284.58 379.173C1268.07 382.005 1256 396.319 1256 413.07C1256 429.82 1268.07 444.135 1284.58 446.967C1301.09 449.799 1317.24 440.326 1322.82 424.533H1348.14C1348.85 439.982 1350.98 455.332 1354.51 470.39H1324.93C1305.93 470.39 1290.53 485.789 1290.53 504.783V541.285C1274.74 546.868 1265.27 563.017 1268.1 579.526C1270.93 596.036 1285.25 608.103 1302 608.103C1318.75 608.103 1333.06 596.036 1335.89 579.526C1338.73 563.017 1329.25 546.868 1313.46 541.285V504.783C1313.46 498.451 1318.59 493.319 1324.93 493.319H1361.02C1386.32 568.104 1445.03 626.82 1519.82 652.122V688.211C1519.82 694.543 1514.69 699.675 1508.36 699.675H1471.85C1466.27 683.883 1450.12 674.41 1433.61 677.242C1417.1 680.074 1405.03 694.389 1405.03 711.139C1405.03 727.889 1417.1 742.204 1433.61 745.036C1450.12 747.868 1466.27 738.395 1471.85 722.603H1508.36C1527.35 722.603 1542.75 707.204 1542.75 688.21V658.634C1557.81 662.159 1573.16 664.29 1588.6 664.996V690.321C1572.81 695.904 1563.34 712.053 1566.17 728.562C1569 745.072 1583.32 757.139 1600.07 757.139C1616.82 757.139 1631.13 745.072 1633.97 728.562C1636.8 712.053 1627.32 695.904 1611.53 690.321V664.996C1626.98 664.29 1642.33 662.159 1657.39 658.634V688.211C1657.39 707.205 1672.79 722.604 1691.78 722.604H1728.28C1733.87 738.397 1750.02 747.869 1766.53 745.037C1783.04 742.205 1795.1 727.891 1795.1 711.14C1795.1 694.39 1783.04 680.076 1766.53 677.243C1750.02 674.411 1733.87 683.884 1728.28 699.677H1691.78C1685.45 699.677 1680.32 694.545 1680.32 688.213V652.123C1755.1 626.822 1813.82 568.106 1839.12 493.32H1875.21C1881.54 493.32 1886.67 498.454 1886.67 504.784V541.286C1870.88 546.869 1861.41 563.018 1864.24 579.528C1867.07 596.038 1881.39 608.105 1898.14 608.105C1914.89 608.105 1929.2 596.038 1932.03 579.528C1934.87 563.018 1925.39 546.869 1909.6 541.286V504.784C1909.6 485.79 1894.2 470.391 1875.21 470.391H1845.63C1849.16 455.334 1851.29 439.983 1851.99 424.535H1877.32C1883.18 440.982 1900.44 450.413 1917.45 446.455C1934.45 442.496 1945.78 426.408 1943.77 409.065C1941.76 391.721 1927.06 378.646 1909.6 378.677ZM1898.14 241.106C1904.47 241.106 1909.6 246.239 1909.6 252.57C1909.6 258.9 1904.47 264.034 1898.14 264.034C1891.81 264.034 1886.67 258.902 1886.67 252.57C1886.67 246.238 1891.81 241.106 1898.14 241.106ZM1760.57 103.535C1766.9 103.535 1772.03 108.669 1772.03 114.999C1772.03 121.329 1766.9 126.463 1760.57 126.463C1754.24 126.463 1749.1 121.329 1749.1 114.999C1749.1 108.669 1754.24 103.535 1760.57 103.535ZM1439.57 126.464C1433.24 126.464 1428.1 121.331 1428.1 115C1428.1 108.67 1433.24 103.536 1439.57 103.536C1445.9 103.536 1451.03 108.67 1451.03 115C1451.03 118.041 1449.82 120.957 1447.67 123.107C1445.53 125.256 1442.61 126.464 1439.57 126.464ZM1302 241.106C1308.33 241.106 1313.46 246.239 1313.46 252.57C1313.46 258.9 1308.33 264.034 1302 264.034C1295.67 264.034 1290.53 258.902 1290.53 252.57C1290.53 246.238 1295.67 241.106 1302 241.106ZM1302 585.033C1295.67 585.033 1290.53 579.9 1290.53 573.57C1290.53 567.239 1295.67 562.106 1302 562.106C1308.33 562.106 1313.46 567.238 1313.46 573.57C1313.46 579.901 1308.33 585.033 1302 585.033ZM1439.57 722.604C1433.24 722.604 1428.1 717.472 1428.1 711.14C1428.1 704.809 1433.24 699.677 1439.57 699.677C1445.9 699.677 1451.03 704.81 1451.03 711.14C1451.03 717.471 1445.9 722.604 1439.57 722.604ZM1760.57 699.675C1766.9 699.675 1772.03 704.809 1772.03 711.139C1772.03 717.469 1766.9 722.603 1760.57 722.603C1754.24 722.603 1749.1 717.471 1749.1 711.139C1749.1 704.807 1754.24 699.675 1760.57 699.675ZM1898.14 585.033C1891.81 585.033 1886.67 579.9 1886.67 573.57C1886.67 567.239 1891.81 562.106 1898.14 562.106C1904.47 562.106 1909.6 567.238 1909.6 573.57C1909.6 579.901 1904.47 585.033 1898.14 585.033ZM1600.07 92.0713C1606.4 92.0713 1611.53 97.2047 1611.53 103.535C1611.53 109.866 1606.4 114.999 1600.07 114.999C1593.74 114.999 1588.6 109.866 1588.6 103.535C1588.6 97.2047 1593.74 92.0713 1600.07 92.0713ZM1290.53 424.533C1284.2 424.533 1279.07 419.4 1279.07 413.07C1279.07 406.738 1284.2 401.606 1290.53 401.606C1296.86 401.606 1302 406.739 1302 413.07C1302 419.401 1296.87 424.533 1290.53 424.533ZM1600.07 734.068C1593.74 734.068 1588.6 728.936 1588.6 722.604C1588.6 716.273 1593.74 711.14 1600.07 711.14C1606.4 711.14 1611.53 716.273 1611.53 722.604C1611.53 728.936 1606.4 734.068 1600.07 734.068ZM1600.07 642.355C1473.44 642.355 1370.78 539.701 1370.78 413.07C1370.78 286.439 1473.44 183.784 1600.07 183.784C1726.7 183.784 1829.35 286.439 1829.35 413.07C1829.21 539.64 1726.64 642.21 1600.07 642.355ZM1909.6 424.533C1903.27 424.533 1898.14 419.4 1898.14 413.07C1898.14 406.738 1903.27 401.606 1909.6 401.606C1915.93 401.606 1921.07 406.739 1921.07 413.07C1921.07 419.401 1915.93 424.533 1909.6 424.533Z" fill="black" fill-opacity="0.2"/>
<path d="M1519.28 375.582L1470.09 326.388C1466.9 323.204 1461.74 323.204 1458.56 326.388C1441.81 343.13 1441.81 370.37 1458.56 387.112C1466.93 395.483 1477.92 399.669 1488.92 399.669C1499.91 399.669 1510.91 395.484 1519.28 387.112C1522.46 383.928 1522.46 378.765 1519.28 375.582ZM1470.08 375.582C1461.71 367.207 1460.09 354.599 1465.22 344.585L1501.08 380.445C1491.07 385.578 1478.46 383.956 1470.08 375.582Z" fill="black" fill-opacity="0.2"/>
<path d="M1701 477C1701 477 1661 523 1600 521.5C1539 520 1499 477 1499 477" stroke="black" stroke-opacity="0.2" stroke-width="10" stroke-linecap="round"/>
</g>
<g clip-path="url(#clip4_90_112)" filter="url(#filter13_f_90_112)">
<path d="M488.544 603.302L460.763 613.204C459.554 613.635 458.225 613.005 457.794 611.796L452.733 597.597C452.302 596.388 452.933 595.059 454.141 594.628L488.458 582.397L491.372 602.213C490.453 602.594 489.509 602.958 488.544 603.302Z" fill="#FFE09F"/>
<path d="M426.837 631.151L427.159 622.715L386.874 629.639C384.306 630.08 383.069 626.609 385.337 625.327L420.919 605.209L415.334 598.879C414.145 597.531 414.872 595.4 416.638 595.061L438.735 590.817C440.987 590.384 443.218 591.66 443.988 593.82L452.231 616.946C453.001 619.106 452.079 621.505 450.061 622.594L430.262 633.284C428.679 634.138 426.768 632.948 426.837 631.151Z" fill="#FFE07D"/>
<path d="M440.765 605.535L427.635 610.214C426.426 610.645 425.796 611.974 426.227 613.183C426.658 614.391 427.986 615.022 429.195 614.591L442.325 609.911C443.534 609.48 444.164 608.151 443.733 606.943C443.302 605.734 441.974 605.103 440.765 605.535Z" fill="white"/>
<path d="M443.885 614.287L439.508 615.847C438.299 616.278 437.669 617.607 438.1 618.816C438.531 620.024 439.859 620.655 441.068 620.224L445.445 618.664C446.654 618.233 447.284 616.904 446.853 615.696C446.422 614.487 445.094 613.856 443.885 614.287Z" fill="white"/>
<path d="M437.645 596.782L433.269 598.341C432.059 598.773 431.43 600.101 431.861 601.31C432.291 602.518 433.619 603.149 434.829 602.718L439.205 601.158C440.415 600.727 441.044 599.399 440.614 598.19C440.183 596.981 438.855 596.35 437.645 596.782Z" fill="white"/>
<path d="M461.087 593.358C457.462 594.651 455.57 598.637 456.863 602.263L460.762 613.204L458.574 613.984C457.365 614.415 456.037 613.784 455.606 612.576L449.366 595.07C448.935 593.861 449.566 592.532 450.774 592.102L480.744 581.42C481.709 581.075 482.67 580.761 483.624 580.475L488.187 583.699L461.087 593.358L461.087 593.358Z" fill="#F6D190"/>
<path d="M491.373 602.214L485.159 584.779C490.734 580.381 502.087 578.745 502.087 578.745C505.848 579.465 508.502 581.079 509.381 583.544C511.382 589.159 503.465 597.198 491.373 602.214Z" fill="#ECBD83"/>
<path d="M485.158 584.779L483.624 580.475C490.659 578.364 497.278 577.826 502.086 578.745L485.158 584.779Z" fill="#E2A975"/>
</g>
<g clip-path="url(#clip5_90_112)" filter="url(#filter14_f_90_112)">
<path d="M1122.07 596.989L1149.07 608.846C1150.25 609.362 1151.62 608.828 1152.14 607.653L1158.2 593.85C1158.71 592.676 1158.18 591.305 1157 590.789L1123.64 576.143L1119.33 595.701C1120.22 596.147 1121.13 596.577 1122.07 596.989Z" fill="#FFE09F"/>
<path d="M1181.63 629.165L1181.91 620.728L1221.6 630.506C1224.13 631.129 1225.61 627.755 1223.44 626.314L1189.39 603.711L1195.41 597.795C1196.69 596.535 1196.12 594.358 1194.38 593.894L1172.64 588.086C1170.43 587.494 1168.11 588.607 1167.19 590.706L1157.32 613.186C1156.4 615.286 1157.14 617.744 1159.08 618.975L1178.07 631.048C1179.58 632.013 1181.57 630.963 1181.63 629.165Z" fill="#FFE07D"/>
<path d="M1169.57 602.621L1182.33 608.225C1183.51 608.741 1184.04 610.111 1183.52 611.286C1183.01 612.461 1181.64 612.996 1180.46 612.479L1167.7 606.876C1166.52 606.359 1165.99 604.989 1166.51 603.815C1167.02 602.64 1168.39 602.105 1169.57 602.621Z" fill="white"/>
<path d="M1165.83 611.13L1170.09 612.998C1171.26 613.514 1171.79 614.884 1171.28 616.059C1170.76 617.233 1169.39 617.768 1168.22 617.252L1163.96 615.384C1162.79 614.868 1162.25 613.498 1162.77 612.323C1163.29 611.148 1164.66 610.613 1165.83 611.13Z" fill="white"/>
<path d="M1173.3 594.113L1177.56 595.981C1178.73 596.497 1179.27 597.867 1178.75 599.042C1178.23 600.217 1176.87 600.751 1175.69 600.235L1171.44 598.367C1170.26 597.851 1169.73 596.481 1170.24 595.306C1170.76 594.131 1172.13 593.597 1173.3 594.113Z" fill="white"/>
<path d="M1150.16 589.028C1153.69 590.575 1155.29 594.686 1153.74 598.211L1149.07 608.846L1151.2 609.78C1152.38 610.296 1153.75 609.762 1154.26 608.587L1161.73 591.57C1162.25 590.395 1161.72 589.025 1160.54 588.509L1131.41 575.718C1130.47 575.306 1129.53 574.923 1128.6 574.57L1123.82 577.461L1150.16 589.027L1150.16 589.028Z" fill="#F6D190"/>
<path d="M1119.33 595.702L1126.77 578.754C1121.52 573.97 1110.31 571.529 1110.31 571.529C1106.51 571.979 1103.75 573.4 1102.69 575.796C1100.3 581.254 1107.62 589.837 1119.33 595.702Z" fill="#ECBD83"/>
<path d="M1126.77 578.754L1128.6 574.571C1121.74 571.963 1115.17 570.954 1110.31 571.529L1126.77 578.754Z" fill="#E2A975"/>
</g>
<g clip-path="url(#clip6_90_112)" filter="url(#filter15_f_90_112)">
<path d="M470.363 442.081L450.998 442.967C450.156 443.006 449.441 442.354 449.403 441.512L448.95 431.614C448.912 430.771 449.563 430.057 450.406 430.019L474.326 428.925L472.35 441.94C471.699 442.003 471.036 442.051 470.363 442.081Z" fill="#FFE09F"/>
<path d="M426.226 447.728L428.049 442.488L401.397 439.099C399.699 438.883 399.588 436.464 401.26 436.093L427.491 430.285L425.197 425.233C424.708 424.157 425.575 422.958 426.75 423.084L441.455 424.662C442.954 424.823 444.111 426.054 444.18 427.559L444.917 443.679C444.986 445.185 443.946 446.516 442.468 446.813L427.969 449.727C426.81 449.96 425.838 448.845 426.226 447.728Z" fill="#FFE07D"/>
<path d="M439.903 434.303L430.751 434.722C429.908 434.761 429.257 435.475 429.295 436.317C429.334 437.16 430.047 437.811 430.891 437.773L440.042 437.354C440.886 437.316 441.537 436.601 441.498 435.759C441.459 434.917 440.746 434.265 439.903 434.303Z" fill="white"/>
<path d="M440.182 440.405L437.132 440.544C436.289 440.583 435.638 441.297 435.676 442.139C435.715 442.982 436.428 443.634 437.271 443.595L440.322 443.455C441.165 443.417 441.816 442.703 441.778 441.86C441.739 441.018 441.026 440.366 440.182 440.405Z" fill="white"/>
<path d="M439.624 428.202L436.573 428.342C435.73 428.38 435.079 429.094 435.118 429.937C435.156 430.779 435.87 431.431 436.713 431.392L439.763 431.253C440.607 431.214 441.258 430.5 441.219 429.658C441.18 428.815 440.467 428.164 439.624 428.202Z" fill="white"/>
<path d="M455.017 430.555C452.49 430.671 450.535 432.813 450.65 435.34L450.999 442.967L449.474 443.037C448.631 443.075 447.917 442.424 447.878 441.581L447.32 429.379C447.282 428.536 447.933 427.822 448.776 427.783L469.666 426.828C470.339 426.797 471.004 426.784 471.658 426.787L473.907 429.691L455.017 430.555L455.017 430.555Z" fill="#F6D190"/>
<path d="M472.351 441.941L471.795 429.788C476.144 428.095 483.594 429.248 483.594 429.248C485.821 430.423 487.179 431.948 487.257 433.666C487.436 437.58 480.915 441.111 472.351 441.941Z" fill="#ECBD83"/>
<path d="M471.795 429.788L471.658 426.788C476.485 426.813 480.749 427.746 483.595 429.248L471.795 429.788Z" fill="#E2A975"/>
</g>
<g clip-path="url(#clip7_90_112)" filter="url(#filter16_f_90_112)">
<path d="M1141.86 439.87L1160.92 443.42C1161.75 443.574 1162.55 443.027 1162.7 442.198L1164.52 432.458C1164.67 431.629 1164.12 430.832 1163.29 430.677L1139.75 426.292L1139.91 439.455C1140.55 439.608 1141.2 439.746 1141.86 439.87Z" fill="#FFE09F"/>
<path d="M1184.8 451.555L1183.72 446.113L1210.58 446.436C1212.29 446.456 1212.74 444.075 1211.13 443.478L1185.95 434.105L1188.92 429.418C1189.56 428.419 1188.86 427.112 1187.68 427.074L1172.9 426.608C1171.39 426.56 1170.08 427.619 1169.8 429.101L1166.85 444.965C1166.57 446.447 1167.42 447.908 1168.84 448.406L1182.8 453.294C1183.91 453.685 1185.03 452.715 1184.8 451.555Z" fill="#FFE07D"/>
<path d="M1173.11 436.371L1182.11 438.049C1182.94 438.203 1183.49 439 1183.33 439.829C1183.18 440.659 1182.38 441.205 1181.55 441.051L1172.55 439.373C1171.72 439.218 1171.17 438.421 1171.32 437.592C1171.48 436.763 1172.28 436.216 1173.11 436.371Z" fill="white"/>
<path d="M1171.99 442.375L1174.99 442.934C1175.82 443.089 1176.37 443.886 1176.21 444.715C1176.06 445.544 1175.26 446.091 1174.43 445.937L1171.43 445.377C1170.6 445.223 1170.05 444.426 1170.21 443.597C1170.36 442.768 1171.16 442.221 1171.99 442.375Z" fill="white"/>
<path d="M1174.22 430.367L1177.23 430.926C1178.06 431.08 1178.6 431.878 1178.45 432.707C1178.29 433.536 1177.5 434.083 1176.67 433.928L1173.66 433.369C1172.83 433.214 1172.29 432.417 1172.44 431.588C1172.6 430.759 1173.39 430.212 1174.22 430.367Z" fill="white"/>
<path d="M1158.65 430.572C1161.14 431.036 1162.78 433.427 1162.32 435.914L1160.92 443.42L1162.42 443.7C1163.25 443.854 1164.05 443.307 1164.2 442.478L1166.44 430.469C1166.59 429.64 1166.05 428.843 1165.22 428.689L1144.66 424.859C1144 424.735 1143.34 424.631 1142.69 424.544L1140.06 427.109L1158.65 430.572L1158.65 430.572Z" fill="#F6D190"/>
<path d="M1139.91 439.456L1142.14 427.496C1138.07 425.219 1130.53 425.333 1130.53 425.333C1128.16 426.189 1126.61 427.512 1126.29 429.203C1125.57 433.055 1131.55 437.453 1139.91 439.456Z" fill="#ECBD83"/>
<path d="M1142.14 427.496L1142.69 424.544C1137.91 423.902 1133.56 424.238 1130.53 425.333L1142.14 427.496Z" fill="#E2A975"/>
</g>
<g clip-path="url(#clip8_90_112)" filter="url(#filter17_f_90_112)">
<path d="M488.031 262.496L456.218 244.129C454.834 243.33 454.36 241.56 455.159 240.176L464.546 223.916C465.345 222.532 467.115 222.058 468.499 222.857L507.796 245.545L491.347 264.3C490.243 263.736 489.136 263.134 488.031 262.496Z" fill="#FFE09F"/>
<path d="M411.815 226.424L420.078 219.922L381.001 187.288C378.511 185.208 380.805 181.234 383.852 182.35L431.652 199.875L433.151 189.469C433.471 187.252 436.079 186.223 437.826 187.624L459.684 205.165C461.912 206.952 462.502 210.098 461.074 212.571L445.784 239.054C444.356 241.527 441.337 242.589 438.675 241.553L412.556 231.394C410.468 230.582 410.055 227.809 411.815 226.424Z" fill="#FFE07D"/>
<path d="M447.358 218.967L432.323 210.286C430.938 209.487 429.17 209.961 428.371 211.345C427.572 212.729 428.045 214.498 429.43 215.298L444.464 223.978C445.85 224.778 447.618 224.303 448.417 222.919C449.216 221.535 448.743 219.766 447.358 218.967Z" fill="white"/>
<path d="M441.571 228.99L436.56 226.096C435.174 225.297 433.406 225.771 432.607 227.155C431.808 228.54 432.281 230.308 433.666 231.108L438.678 234.002C440.063 234.801 441.831 234.326 442.63 232.942C443.429 231.558 442.956 229.789 441.571 228.99Z" fill="white"/>
<path d="M453.144 208.943L448.133 206.05C446.748 205.25 444.979 205.725 444.18 207.109C443.381 208.493 443.854 210.262 445.239 211.062L450.251 213.955C451.636 214.755 453.404 214.28 454.203 212.896C455.002 211.512 454.529 209.743 453.144 208.943Z" fill="white"/>
<path d="M475.31 228.422C471.158 226.025 465.85 227.448 463.452 231.6L456.219 244.129L453.713 242.682C452.329 241.883 451.855 240.113 452.654 238.729L464.228 218.683C465.027 217.299 466.796 216.825 468.18 217.624L502.499 237.437C503.605 238.076 504.679 238.734 505.719 239.407L506.343 246.339L475.31 228.422L475.31 228.422Z" fill="#F6D190"/>
<path d="M491.347 264.302L502.874 244.336C511.546 246.077 522.258 255.528 522.258 255.528C524.611 259.678 525.221 263.498 523.592 266.321C519.879 272.751 505.863 271.726 491.347 264.302Z" fill="#ECBD83"/>
<path d="M502.874 244.336L505.719 239.408C513.4 244.379 519.251 250.224 522.259 255.528L502.874 244.336Z" fill="#E2A975"/>
</g>
<g clip-path="url(#clip9_90_112)" filter="url(#filter18_f_90_112)">
<path d="M1131.05 257.506L1165.4 237.673C1166.9 236.81 1167.41 234.899 1166.54 233.405L1156.41 215.847C1155.54 214.353 1153.63 213.841 1152.14 214.703L1109.71 239.202L1127.47 259.454C1128.66 258.845 1129.86 258.195 1131.05 257.506Z" fill="#FFE09F"/>
<path d="M1213.35 218.555L1204.42 211.534L1246.62 176.296C1249.31 174.051 1246.83 169.759 1243.54 170.965L1191.93 189.888L1190.31 178.651C1189.96 176.257 1187.15 175.146 1185.26 176.66L1161.66 195.6C1159.25 197.53 1158.62 200.927 1160.16 203.598L1176.67 232.193C1178.21 234.864 1181.47 236.011 1184.34 234.892L1212.55 223.922C1214.8 223.046 1215.25 220.051 1213.35 218.555Z" fill="#FFE07D"/>
<path d="M1174.97 210.503L1191.2 201.13C1192.7 200.266 1194.61 200.779 1195.47 202.273C1196.33 203.768 1195.82 205.678 1194.33 206.541L1178.09 215.914C1176.6 216.778 1174.69 216.265 1173.82 214.771C1172.96 213.276 1173.47 211.366 1174.97 210.503Z" fill="white"/>
<path d="M1181.22 221.326L1186.63 218.202C1188.12 217.338 1190.03 217.851 1190.9 219.345C1191.76 220.84 1191.25 222.75 1189.75 223.613L1184.34 226.738C1182.85 227.601 1180.94 227.089 1180.07 225.594C1179.21 224.1 1179.72 222.19 1181.22 221.326Z" fill="white"/>
<path d="M1168.72 199.68L1174.13 196.556C1175.63 195.692 1177.54 196.205 1178.4 197.699C1179.26 199.194 1178.75 201.104 1177.26 201.967L1171.84 205.092C1170.35 205.955 1168.44 205.442 1167.58 203.948C1166.71 202.453 1167.22 200.543 1168.72 199.68Z" fill="white"/>
<path d="M1144.79 220.713C1149.27 218.125 1155 219.661 1157.59 224.144L1165.4 237.673L1168.11 236.111C1169.6 235.248 1170.11 233.337 1169.25 231.843L1156.75 210.196C1155.89 208.702 1153.98 208.19 1152.48 209.053L1115.43 230.448C1114.23 231.137 1113.07 231.848 1111.95 232.575L1111.28 240.06L1144.78 220.713L1144.79 220.713Z" fill="#F6D190"/>
<path d="M1127.47 259.456L1115.02 237.897C1105.66 239.777 1094.09 249.982 1094.09 249.982C1091.55 254.463 1090.89 258.588 1092.65 261.636C1096.66 268.579 1111.79 267.472 1127.47 259.456Z" fill="#ECBD83"/>
<path d="M1115.02 237.897L1111.95 232.576C1103.66 237.944 1097.34 244.255 1094.09 249.982L1115.02 237.897Z" fill="#E2A975"/>
</g>
</g>
<defs>
<filter id="filter0_f_90_112" x="-294.188" y="-77.146" width="1041.84" height="706.067" filterUnits="userSpaceOnUse" color-interpolation-filters="sRGB">
<feFlood flood-opacity="0" result="BackgroundImageFix"/>
<feBlend mode="normal" in="SourceGraphic" in2="BackgroundImageFix" result="shape"/>
<feGaussianBlur stdDeviation="50" result="effect1_foregroundBlur_90_112"/>
</filter>
<filter id="filter1_f_90_112" x="879.703" y="120.641" width="718.17" height="1226.83" filterUnits="userSpaceOnUse" color-interpolation-filters="sRGB">
<feFlood flood-opacity="0" result="BackgroundImageFix"/>
<feBlend mode="normal" in="SourceGraphic" in2="BackgroundImageFix" result="shape"/>
<feGaussianBlur stdDeviation="50" result="effect1_foregroundBlur_90_112"/>
</filter>
<filter id="filter2_d_90_112" x="716" y="33" width="168" height="132" filterUnits="userSpaceOnUse" color-interpolation-filters="sRGB">
<feFlood flood-opacity="0" result="BackgroundImageFix"/>
<feColorMatrix in="SourceAlpha" type="matrix" values="0 0 0 0 0 0 0 0 0 0 0 0 0 0 0 0 0 0 127 0" result="hardAlpha"/>
<feOffset dy="4"/>
<feGaussianBlur stdDeviation="2"/>
<feComposite in2="hardAlpha" operator="out"/>
<feColorMatrix type="matrix" values="0 0 0 0 0 0 0 0 0 0 0 0 0 0 0 0 0 0 0.25 0"/>
<feBlend mode="normal" in2="BackgroundImageFix" result="effect1_dropShadow_90_112"/>
<feBlend mode="normal" in="SourceGraphic" in2="effect1_dropShadow_90_112" result="shape"/>
</filter>
<filter id="filter3_d_90_112" x="716.869" y="33.4321" width="166.695" height="99.1638" filterUnits="userSpaceOnUse" color-interpolation-filters="sRGB">
<feFlood flood-opacity="0" result="BackgroundImageFix"/>
<feColorMatrix in="SourceAlpha" type="matrix" values="0 0 0 0 0 0 0 0 0 0 0 0 0 0 0 0 0 0 127 0" result="hardAlpha"/>
<feOffset dy="4"/>
<feGaussianBlur stdDeviation="2"/>
<feComposite in2="hardAlpha" operator="out"/>
<feColorMatrix type="matrix" values="0 0 0 0 0 0 0 0 0 0 0 0 0 0 0 0 0 0 0.25 0"/>
<feBlend mode="normal" in2="BackgroundImageFix" result="effect1_dropShadow_90_112"/>
<feBlend mode="normal" in="SourceGraphic" in2="effect1_dropShadow_90_112" result="shape"/>
</filter>
<filter id="filter4_d_90_112" x="746.869" y="75.5574" width="111.913" height="35.4355" filterUnits="userSpaceOnUse" color-interpolation-filters="sRGB">
<feFlood flood-opacity="0" result="BackgroundImageFix"/>
<feColorMatrix in="SourceAlpha" type="matrix" values="0 0 0 0 0 0 0 0 0 0 0 0 0 0 0 0 0 0 127 0" result="hardAlpha"/>
<feOffset dy="4"/>
<feGaussianBlur stdDeviation="2"/>
<feComposite in2="hardAlpha" operator="out"/>
<feColorMatrix type="matrix" values="0 0 0 0 0 0 0 0 0 0 0 0 0 0 0 0 0 0 0.25 0"/>
<feBlend mode="normal" in2="BackgroundImageFix" result="effect1_dropShadow_90_112"/>
<feBlend mode="normal" in="SourceGraphic" in2="effect1_dropShadow_90_112" result="shape"/>
</filter>
<filter id="filter5_d_90_112" x="790.565" y="105.153" width="77.5654" height="19.8816" filterUnits="userSpaceOnUse" color-interpolation-filters="sRGB">
<feFlood flood-opacity="0" result="BackgroundImageFix"/>
<feColorMatrix in="SourceAlpha" type="matrix" values="0 0 0 0 0 0 0 0 0 0 0 0 0 0 0 0 0 0 127 0" result="hardAlpha"/>
<feOffset dy="4"/>
<feGaussianBlur stdDeviation="2"/>
<feComposite in2="hardAlpha" operator="out"/>
<feColorMatrix type="matrix" values="0 0 0 0 0 0 0 0 0 0 0 0 0 0 0 0 0 0 0.25 0"/>
<feBlend mode="normal" in2="BackgroundImageFix" result="effect1_dropShadow_90_112"/>
<feBlend mode="normal" in="SourceGraphic" in2="effect1_dropShadow_90_112" result="shape"/>
</filter>
<filter id="filter6_d_90_112" x="715.852" y="32.5681" width="168.169" height="100.378" filterUnits="userSpaceOnUse" color-interpolation-filters="sRGB">
<feFlood flood-opacity="0" result="BackgroundImageFix"/>
<feColorMatrix in="SourceAlpha" type="matrix" values="0 0 0 0 0 0 0 0 0 0 0 0 0 0 0 0 0 0 127 0" result="hardAlpha"/>
<feOffset dy="4"/>
<feGaussianBlur stdDeviation="2"/>
<feComposite in2="hardAlpha" operator="out"/>
<feColorMatrix type="matrix" values="0 0 0 0 0 0 0 0 0 0 0 0 0 0 0 0 0 0 0.25 0"/>
<feBlend mode="normal" in2="BackgroundImageFix" result="effect1_dropShadow_90_112"/>
<feBlend mode="normal" in="SourceGraphic" in2="effect1_dropShadow_90_112" result="shape"/>
</filter>
<filter id="filter7_d_90_112" x="745.743" y="74.8418" width="114.295" height="36.7139" filterUnits="userSpaceOnUse" color-interpolation-filters="sRGB">
<feFlood flood-opacity="0" result="BackgroundImageFix"/>
<feColorMatrix in="SourceAlpha" type="matrix" values="0 0 0 0 0 0 0 0 0 0 0 0 0 0 0 0 0 0 127 0" result="hardAlpha"/>
<feOffset dy="4"/>
<feGaussianBlur stdDeviation="2"/>
<feComposite in2="hardAlpha" operator="out"/>
<feColorMatrix type="matrix" values="0 0 0 0 0 0 0 0 0 0 0 0 0 0 0 0 0 0 0.25 0"/>
<feBlend mode="normal" in2="BackgroundImageFix" result="effect1_dropShadow_90_112"/>
<feBlend mode="normal" in="SourceGraphic" in2="effect1_dropShadow_90_112" result="shape"/>
</filter>
<filter id="filter8_d_90_112" x="789.368" y="104.621" width="79.7949" height="20.9263" filterUnits="userSpaceOnUse" color-interpolation-filters="sRGB">
<feFlood flood-opacity="0" result="BackgroundImageFix"/>
<feColorMatrix in="SourceAlpha" type="matrix" values="0 0 0 0 0 0 0 0 0 0 0 0 0 0 0 0 0 0 127 0" result="hardAlpha"/>
<feOffset dy="4"/>
<feGaussianBlur stdDeviation="2"/>
<feComposite in2="hardAlpha" operator="out"/>
<feColorMatrix type="matrix" values="0 0 0 0 0 0 0 0 0 0 0 0 0 0 0 0 0 0 0.25 0"/>
<feBlend mode="normal" in2="BackgroundImageFix" result="effect1_dropShadow_90_112"/>
<feBlend mode="normal" in="SourceGraphic" in2="effect1_dropShadow_90_112" result="shape"/>
</filter>
<filter id="filter9_d_90_112" x="588" y="164" width="451.664" height="532" filterUnits="userSpaceOnUse" color-interpolation-filters="sRGB">
<feFlood flood-opacity="0" result="BackgroundImageFix"/>
<feColorMatrix in="SourceAlpha" type="matrix" values="0 0 0 0 0 0 0 0 0 0 0 0 0 0 0 0 0 0 127 0" result="hardAlpha"/>
<feOffset dy="10"/>
<feGaussianBlur stdDeviation="5"/>
<feComposite in2="hardAlpha" operator="out"/>
<feColorMatrix type="matrix" values="0 0 0 0 0 0 0 0 0 0 0 0 0 0 0 0 0 0 0.25 0"/>
<feBlend mode="normal" in2="BackgroundImageFix" result="effect1_dropShadow_90_112"/>
<feBlend mode="normal" in="SourceGraphic" in2="effect1_dropShadow_90_112" result="shape"/>
</filter>
<filter id="filter10_d_90_112" x="659" y="265.219" width="319" height="274.393" filterUnits="userSpaceOnUse" color-interpolation-filters="sRGB">
<feFlood flood-opacity="0" result="BackgroundImageFix"/>
<feColorMatrix in="SourceAlpha" type="matrix" values="0 0 0 0 0 0 0 0 0 0 0 0 0 0 0 0 0 0 127 0" result="hardAlpha"/>
<feOffset dx="10" dy="10"/>
<feGaussianBlur stdDeviation="10"/>
<feComposite in2="hardAlpha" operator="out"/>
<feColorMatrix type="matrix" values="0 0 0 0 0 0 0 0 0 0 0 0 0 0 0 0 0 0 0.25 0"/>
<feBlend mode="normal" in2="BackgroundImageFix" result="effect1_dropShadow_90_112"/>
<feBlend mode="normal" in="SourceGraphic" in2="effect1_dropShadow_90_112" result="shape"/>
</filter>
<filter id="filter11_f_90_112" x="-354" y="59" width="708" height="708.139" filterUnits="userSpaceOnUse" color-interpolation-filters="sRGB">
<feFlood flood-opacity="0" result="BackgroundImageFix"/>
<feBlend mode="normal" in="SourceGraphic" in2="BackgroundImageFix" result="shape"/>
<feGaussianBlur stdDeviation="5" result="effect1_foregroundBlur_90_112"/>
</filter>
<filter id="filter12_f_90_112" x="1246" y="59" width="708" height="708.139" filterUnits="userSpaceOnUse" color-interpolation-filters="sRGB">
<feFlood flood-opacity="0" result="BackgroundImageFix"/>
<feBlend mode="normal" in="SourceGraphic" in2="BackgroundImageFix" result="shape"/>
<feGaussianBlur stdDeviation="5" result="effect1_foregroundBlur_90_112"/>
</filter>
<filter id="filter13_f_90_112" x="358" y="517" width="177.673" height="177.673" filterUnits="userSpaceOnUse" color-interpolation-filters="sRGB">
<feFlood flood-opacity="0" result="BackgroundImageFix"/>
<feBlend mode="normal" in="SourceGraphic" in2="BackgroundImageFix" result="shape"/>
<feGaussianBlur stdDeviation="2" result="effect1_foregroundBlur_90_112"/>
</filter>
<filter id="filter14_f_90_112" x="1072" y="511" width="182.98" height="182.98" filterUnits="userSpaceOnUse" color-interpolation-filters="sRGB">
<feFlood flood-opacity="0" result="BackgroundImageFix"/>
<feBlend mode="normal" in="SourceGraphic" in2="BackgroundImageFix" result="shape"/>
<feGaussianBlur stdDeviation="2" result="effect1_foregroundBlur_90_112"/>
</filter>
<filter id="filter15_f_90_112" x="390.07" y="382.07" width="107.181" height="107.181" filterUnits="userSpaceOnUse" color-interpolation-filters="sRGB">
<feFlood flood-opacity="0" result="BackgroundImageFix"/>
<feBlend mode="normal" in="SourceGraphic" in2="BackgroundImageFix" result="shape"/>
<feGaussianBlur stdDeviation="4" result="effect1_foregroundBlur_90_112"/>
</filter>
<filter id="filter16_f_90_112" x="1110.3" y="378.299" width="117.793" height="117.793" filterUnits="userSpaceOnUse" color-interpolation-filters="sRGB">
<feFlood flood-opacity="0" result="BackgroundImageFix"/>
<feBlend mode="normal" in="SourceGraphic" in2="BackgroundImageFix" result="shape"/>
<feGaussianBlur stdDeviation="4" result="effect1_foregroundBlur_90_112"/>
</filter>
<filter id="filter17_f_90_112" x="337" y="110" width="229.941" height="229.942" filterUnits="userSpaceOnUse" color-interpolation-filters="sRGB">
<feFlood flood-opacity="0" result="BackgroundImageFix"/>
<feBlend mode="normal" in="SourceGraphic" in2="BackgroundImageFix" result="shape"/>
<feGaussianBlur stdDeviation="1" result="effect1_foregroundBlur_90_112"/>
</filter>
<filter id="filter18_f_90_112" x="1046" y="93" width="247.973" height="247.972" filterUnits="userSpaceOnUse" color-interpolation-filters="sRGB">
<feFlood flood-opacity="0" result="BackgroundImageFix"/>
<feBlend mode="normal" in="SourceGraphic" in2="BackgroundImageFix" result="shape"/>
<feGaussianBlur stdDeviation="1" result="effect1_foregroundBlur_90_112"/>
</filter>
<radialGradient id="paint0_diamond_90_112" cx="0" cy="0" r="1" gradientUnits="userSpaceOnUse" gradientTransform="translate(1323 -483.5) rotate(105.047) scale(2014.57 1520.84)">
<stop stop-color="#4BBFFF"/>
<stop offset="0.956826" stop-color="#00639A"/>
</radialGradient>
<linearGradient id="paint1_linear_90_112" x1="602.485" y1="66.8599" x2="119.655" y2="821.824" gradientUnits="userSpaceOnUse">
<stop/>
<stop offset="1" stop-color="#005280"/>
</linearGradient>
<radialGradient id="paint2_radial_90_112" cx="0" cy="0" r="1" gradientUnits="userSpaceOnUse" gradientTransform="translate(814 400) rotate(90) scale(335.5 450.723)">
<stop stop-color="white"/>
<stop offset="1" stop-color="white" stop-opacity="0"/>
</radialGradient>
<linearGradient id="paint3_linear_90_112" x1="814.5" y1="687" x2="676" y2="212" gradientUnits="userSpaceOnUse">
<stop/>
<stop offset="1" stop-color="#00A4FF"/>
</linearGradient>
<linearGradient id="paint4_linear_90_112" x1="998.5" y1="315" x2="833" y2="958" gradientUnits="userSpaceOnUse">
<stop stop-color="#D9D9D9"/>
<stop offset="1" stop-color="#D9D9D9" stop-opacity="0"/>
</linearGradient>
<clipPath id="clip0_90_112">
<rect width="1600" height="800" fill="white"/>
</clipPath>
<clipPath id="clip1_90_112">
<rect width="160" height="124" fill="white" transform="translate(720 33)"/>
</clipPath>
<clipPath id="clip2_90_112">
<rect width="53.1929" height="53.1929" fill="white" transform="translate(823.592 281.868) rotate(16.016)"/>
</clipPath>
<clipPath id="clip3_90_112">
<rect width="9.143" height="9.69712" fill="white" transform="translate(857.769 286.435)"/>
</clipPath>
<clipPath id="clip4_90_112">
<rect width="132.796" height="132.796" fill="white" transform="matrix(0.941954 -0.335741 -0.335741 -0.941954 406.585 690.673)"/>
</clipPath>
<clipPath id="clip5_90_112">
<rect width="132.796" height="132.796" fill="white" transform="translate(1197.59 689.98) rotate(-156.295)"/>
</clipPath>
<clipPath id="clip6_90_112">
<rect width="87.2839" height="87.2839" fill="white" transform="matrix(0.998956 -0.0456914 -0.0456914 -0.998956 402.059 481.25)"/>
</clipPath>
<clipPath id="clip7_90_112">
<rect width="87.2839" height="87.2839" fill="white" transform="translate(1204.11 488.092) rotate(-169.447)"/>
</clipPath>
<clipPath id="clip8_90_112">
<rect width="165.401" height="165.401" fill="white" transform="matrix(0.866025 0.5 0.5 -0.866025 339 255.241)"/>
</clipPath>
<clipPath id="clip9_90_112">
<rect width="178.6" height="178.6" fill="white" transform="translate(1291.97 249.672) rotate(150)"/>
</clipPath>
</defs>
</svg>
