<svg width="1600" height="800" viewBox="0 0 1600 800" fill="none" xmlns="http://www.w3.org/2000/svg">
<g clip-path="url(#clip0_56_4)">
<rect width="1600" height="800" fill="white"/>
<rect width="1600" height="800" fill="url(#paint0_diamond_56_4)"/>
<g filter="url(#filter0_f_56_4)">
<path d="M486.5 525C238.5 568.5 -84.5 236 -93 224.5C-159.333 230.833 -260.3 212.9 -133.5 90.4999C25 -62.5001 439.005 87.8435 486.5 116.5C665.5 224.5 734.5 481.5 486.5 525Z" fill="url(#paint1_linear_56_4)" fill-opacity="0.1"/>
</g>
<g filter="url(#filter1_f_56_4)">
<path d="M1417.01 326.56C1598.59 568.214 1418.72 1094.85 1411.05 1110.21C1453.94 1177.73 1489.73 1295.52 1289.73 1226.51C1039.73 1140.23 975.149 615.417 979.947 548.997C998.029 298.673 1235.43 84.9066 1417.01 326.56Z" fill="white" fill-opacity="0.2"/>
</g>
<rect width="1600" height="800" fill="white" fill-opacity="0.2"/>
<g filter="url(#filter2_d_56_4)">
<g clip-path="url(#clip1_56_4)">
<path d="M924.738 292.026L885.155 280.664C882.267 279.835 880.541 276.883 881.234 273.96C881.927 271.037 884.795 269.174 887.747 269.73C889.988 270.151 892.812 266.024 894.707 262.021C897.616 255.876 899.457 248.292 900.295 244.318C900.664 242.571 901.841 241.101 903.467 240.361C905.092 239.62 906.973 239.696 908.534 240.564C911.078 241.98 913.941 243.15 917.045 244.041C920.189 244.943 923.268 245.472 926.197 245.612C927.978 245.698 929.615 246.623 930.606 248.107C931.596 249.59 931.825 251.456 931.221 253.134C925.502 269.033 925.277 280.177 928.349 281.385C931.143 282.484 932.581 285.584 931.617 288.427C930.651 291.27 927.624 292.854 924.738 292.026Z" fill="#FFB500"/>
<path d="M928.349 281.386C925.277 280.177 925.502 269.033 931.221 253.135C931.825 251.456 931.596 249.59 930.606 248.107C929.615 246.623 927.978 245.698 926.197 245.612C923.29 245.473 920.234 244.95 917.115 244.06L904.975 286.354L924.738 292.026C927.624 292.855 930.652 291.27 931.617 288.428C932.581 285.584 931.143 282.485 928.349 281.386Z" fill="#FF7403"/>
<path d="M886.108 229.811C885.007 229.495 883.993 228.841 883.233 227.871L871.443 212.797C856.091 193.168 851.038 167.122 857.926 143.125L858.066 142.637C858.923 139.652 862.039 137.926 865.025 138.783L893.068 146.833C896.053 147.69 897.779 150.805 896.922 153.791C896.065 156.777 892.95 158.502 889.964 157.645L867.517 151.202C863.592 170.314 868.219 190.414 880.305 205.866L892.095 220.94C894.008 223.387 893.576 226.922 891.129 228.836C889.653 229.99 887.781 230.291 886.108 229.811Z" fill="#FFC12E"/>
<path d="M950.82 248.386C949.145 247.906 947.716 246.656 947.078 244.892C946.022 241.971 947.533 238.746 950.455 237.689L968.477 231.17C986.933 224.494 1001.53 209.916 1008.35 191.629L985.504 185.07C982.519 184.213 980.793 181.097 981.65 178.112C982.507 175.126 985.622 173.4 988.608 174.257L1017.06 182.423C1020.04 183.28 1021.77 186.396 1020.91 189.381L1020.78 189.829C1013.89 213.854 995.763 233.263 972.303 241.748L954.281 248.268C953.124 248.686 951.918 248.702 950.82 248.386Z" fill="#FF7403"/>
<path d="M913.941 254.854C893.434 248.967 881.872 233.863 879.575 209.96C877.747 190.935 882.127 169.817 885.326 154.398C886.63 148.109 888.212 140.482 888.272 137.152C886.481 135.788 885.615 133.417 886.273 131.124L1003.1 164.659C1002.41 167.073 1000.24 168.663 997.86 168.731C996.034 171.635 993.172 179.338 990.815 185.681C985.356 200.372 977.881 220.493 966.358 235.425C951.907 254.152 934.271 260.689 913.941 254.854Z" fill="#FFE645"/>
<path d="M914.011 254.873C934.312 260.673 951.924 254.131 966.358 235.425C977.881 220.493 985.357 200.372 990.815 185.681C993.172 179.337 996.034 171.634 997.86 168.731C1000.24 168.663 1002.41 167.073 1003.1 164.659L944.718 147.899L914.011 254.873Z" fill="#FFC12E"/>
<path d="M1003.07 170.501L883.208 136.096C880.222 135.239 878.496 132.123 879.353 129.138C880.21 126.152 883.326 124.426 886.312 125.283L1006.17 159.688C1009.16 160.545 1010.88 163.661 1010.02 166.646C1009.17 169.632 1006.05 171.358 1003.07 170.501Z" fill="#FFC12E"/>
<path d="M1006.17 159.688L946.27 142.494L943.166 153.307L1003.07 170.501C1006.05 171.358 1009.17 169.632 1010.02 166.646C1010.88 163.661 1009.16 160.545 1006.17 159.688Z" fill="#FF9300"/>
<path d="M927.885 313.477L871.11 297.18C868.124 296.323 866.399 293.208 867.256 290.222L870.636 278.447C872.632 271.491 879.916 267.456 886.872 269.453L929.23 281.612C936.185 283.608 940.22 290.892 938.223 297.847L934.843 309.623C933.986 312.609 930.871 314.334 927.885 313.477Z" fill="#FFE645"/>
<path d="M929.23 281.612L908.079 275.541L899.526 305.337L927.885 313.478C930.871 314.335 933.986 312.609 934.843 309.623L938.223 297.848C940.22 290.892 936.185 283.608 929.23 281.612Z" fill="#FFC12E"/>
<path d="M929.265 184.771L927.295 185.329C926.676 185.526 926.124 185.493 925.721 185.377C924.048 184.897 923.408 182.778 923.921 180.99C924.268 179.779 925.118 178.775 926.471 178.414L935.407 175.986C935.951 175.83 936.561 175.88 937.196 176.062C939.041 176.592 940.861 178.3 940.364 180.03L929.836 216.708C929.306 218.553 926.792 218.83 924.543 218.185C922.294 217.539 920.309 215.971 920.839 214.125L929.265 184.771Z" fill="#FF7403"/>
<path d="M937.196 176.062C937.017 176.01 936.842 175.973 936.668 175.944L924.543 218.184C926.792 218.83 929.306 218.553 929.836 216.707L940.364 180.03C940.861 178.3 939.042 176.591 937.196 176.062Z" fill="#E5002E"/>
<path d="M938.451 339.993L848.087 314.054C845.102 313.197 843.376 310.082 844.233 307.096L850.44 285.471C851.297 282.485 854.413 280.759 857.399 281.616L947.763 307.555C950.748 308.412 952.474 311.528 951.617 314.513L945.41 336.139C944.553 339.125 941.437 340.85 938.451 339.993Z" fill="#FF3D4A"/>
<path d="M947.763 307.555L902.609 294.594L893.298 327.032L938.452 339.993C941.437 340.85 944.553 339.125 945.41 336.139L951.617 314.513C952.474 311.528 950.749 308.412 947.763 307.555Z" fill="#C20020"/>
</g>
<rect x="298.5" y="94.5" width="1002" height="841" rx="17.5" fill="#303030" stroke="#B3B3B3" stroke-width="5"/>
<g filter="url(#filter3_d_56_4)">
<rect x="398.5" y="243.5" width="536" height="192" rx="8.5" fill="#575757" stroke="url(#paint2_linear_56_4)" stroke-width="3"/>
<rect x="426" y="276" width="126" height="126" rx="10" fill="#A2A2A2"/>
<rect x="586" y="276" width="292" height="30" rx="10" fill="#A2A2A2"/>
<rect x="586" y="324" width="292" height="30" rx="10" fill="#A2A2A2"/>
<rect x="586" y="372" width="292" height="30" rx="10" fill="#A2A2A2"/>
<path d="M396.952 257.881C408.794 257.881 418.393 248.282 418.393 236.441C418.393 224.599 408.794 215 396.952 215C385.111 215 375.512 224.599 375.512 236.441C375.512 248.282 385.111 257.881 396.952 257.881Z" fill="#FFD15C"/>
<path d="M379.583 248.984L372.206 261.772L380.816 261.315L384.728 269L391.553 257.169C386.663 255.904 382.464 252.959 379.583 248.984Z" fill="#40596B"/>
<path d="M414.364 248.92C411.505 252.906 407.306 255.862 402.427 257.148L409.272 269L413.184 261.315L421.794 261.772L414.364 248.92Z" fill="#40596B"/>
<path d="M396.952 251.982C405.535 251.982 412.493 245.024 412.493 236.441C412.493 227.858 405.535 220.9 396.952 220.9C388.369 220.9 381.411 227.858 381.411 236.441C381.411 245.024 388.369 251.982 396.952 251.982Z" fill="#F8B64C"/>
<path d="M407.604 234.761C408.082 234.293 407.816 233.475 407.157 233.379L401.024 232.486C400.758 232.444 400.535 232.284 400.418 232.04L397.675 226.48C397.378 225.874 396.517 225.874 396.219 226.48L393.487 232.04C393.37 232.274 393.137 232.444 392.881 232.486L386.748 233.379C386.089 233.475 385.823 234.293 386.301 234.761L390.734 239.087C390.925 239.279 391.011 239.544 390.968 239.8L389.926 245.901C389.809 246.56 390.511 247.07 391.106 246.752L396.591 243.871C396.825 243.743 397.112 243.743 397.346 243.871L402.831 246.752C403.426 247.06 404.117 246.56 404.011 245.901L402.959 239.8C402.916 239.534 403.001 239.268 403.192 239.087L407.604 234.761Z" fill="white"/>
</g>
<g filter="url(#filter4_f_56_4)">
<rect x="397" y="461" width="431" height="155.928" rx="10" fill="#575757"/>
<rect x="420.189" y="488.188" width="100.753" height="100.753" rx="10" fill="#A3A3A3"/>
<rect x="548.13" y="488.188" width="233.492" height="23.9889" rx="10" fill="#A3A3A3"/>
<rect x="548.13" y="526.57" width="233.492" height="23.9889" rx="10" fill="#A3A3A3"/>
<rect x="548.13" y="564.952" width="233.492" height="23.9889" rx="10" fill="#A3A3A3"/>
</g>
<g filter="url(#filter5_f_56_4)">
<rect x="397" y="635.464" width="431" height="155.928" rx="10" fill="#575757"/>
<rect x="420.189" y="662.651" width="100.753" height="100.753" rx="10" fill="#A3A3A3"/>
<rect x="548.13" y="662.651" width="233.492" height="23.9889" rx="10" fill="#A3A3A3"/>
<rect x="548.13" y="701.033" width="233.492" height="23.9889" rx="10" fill="#A3A3A3"/>
<rect x="548.13" y="739.416" width="233.492" height="23.9889" rx="10" fill="#A3A3A3"/>
</g>
<g filter="url(#filter6_f_56_4)">
</g>
<rect x="397" y="129" width="423" height="51" rx="25.5" fill="#D9D9D9"/>
<g clip-path="url(#clip2_56_4)">
<path d="M805.946 168.879L798.092 160.216C800.111 157.67 801.218 154.466 801.218 151.131C801.218 143.339 795.241 137 787.894 137C780.547 137 774.57 143.339 774.57 151.131C774.57 158.923 780.547 165.262 787.894 165.262C790.652 165.262 793.28 164.38 795.527 162.705L803.441 171.435C803.772 171.799 804.217 172 804.694 172C805.145 172 805.573 171.818 805.898 171.486C806.588 170.781 806.61 169.612 805.946 168.879ZM787.894 140.686C793.324 140.686 797.742 145.372 797.742 151.131C797.742 156.891 793.324 161.576 787.894 161.576C782.464 161.576 778.046 156.891 778.046 151.131C778.046 145.372 782.464 140.686 787.894 140.686Z" fill="black"/>
</g>
<line x1="303" y1="202.5" x2="1297" y2="202.5" stroke="#A2A2A2" stroke-opacity="0.3"/>
<path d="M1070 679L1079.66 681.573L1070 679ZM986.329 440.505C980.81 440.324 976.187 444.651 976.005 450.171L973.041 540.122C972.859 545.642 977.186 550.264 982.706 550.446C988.226 550.628 992.848 546.3 993.03 540.781L995.665 460.824L1075.62 463.459C1081.14 463.641 1085.76 459.314 1085.95 453.794C1086.13 448.274 1081.8 443.652 1076.28 443.47L986.329 440.505ZM905 930C912.144 936.997 912.146 936.995 912.148 936.993C912.149 936.992 912.152 936.989 912.155 936.987C912.16 936.981 912.168 936.973 912.177 936.963C912.196 936.944 912.223 936.916 912.259 936.88C912.329 936.808 912.432 936.702 912.565 936.564C912.833 936.289 913.225 935.883 913.734 935.353C914.752 934.293 916.24 932.732 918.139 930.712C921.935 926.672 927.377 920.791 933.994 913.384C947.222 898.576 965.178 877.64 984.097 853.115C1021.69 804.381 1064.02 740.299 1079.66 681.573L1060.34 676.426C1045.79 731.054 1005.62 792.472 968.262 840.899C949.704 864.955 932.071 885.516 919.079 900.059C912.585 907.328 907.259 913.085 903.565 917.016C901.718 918.981 900.28 920.489 899.309 921.5C898.823 922.005 898.455 922.387 898.21 922.639C898.088 922.765 897.996 922.859 897.937 922.92C897.907 922.95 897.886 922.972 897.872 922.986C897.865 922.993 897.861 922.998 897.858 923.001C897.856 923.002 897.856 923.003 897.855 923.003C897.855 923.003 897.856 923.003 905 930ZM1079.66 681.573C1095.09 623.659 1072.45 563.576 1047.5 519.323C1034.9 496.971 1021.4 478.119 1011.06 464.861C1005.88 458.223 1001.48 452.966 998.357 449.35C996.795 447.542 995.551 446.142 994.688 445.184C994.256 444.705 993.919 444.337 993.686 444.082C993.569 443.955 993.477 443.856 993.413 443.787C993.381 443.752 993.355 443.724 993.336 443.704C993.327 443.694 993.319 443.686 993.313 443.679C993.31 443.676 993.307 443.673 993.305 443.671C993.303 443.668 993.3 443.666 986 450.5C978.7 457.334 978.698 457.333 978.697 457.332C978.698 457.332 978.697 457.331 978.697 457.332C978.698 457.333 978.701 457.335 978.705 457.34C978.713 457.349 978.729 457.365 978.751 457.389C978.794 457.436 978.864 457.512 978.96 457.616C979.151 457.824 979.444 458.144 979.831 458.574C980.606 459.433 981.757 460.728 983.222 462.424C986.153 465.818 990.339 470.816 995.285 477.159C1005.19 489.863 1018.09 507.879 1030.08 529.147C1054.32 572.134 1073.69 626.301 1060.34 676.426L1079.66 681.573Z" fill="url(#paint3_linear_56_4)"/>
</g>
</g>
<defs>
<filter id="filter0_f_56_4" x="-294.188" y="-77.146" width="1041.84" height="706.067" filterUnits="userSpaceOnUse" color-interpolation-filters="sRGB">
<feFlood flood-opacity="0" result="BackgroundImageFix"/>
<feBlend mode="normal" in="SourceGraphic" in2="BackgroundImageFix" result="shape"/>
<feGaussianBlur stdDeviation="50" result="effect1_foregroundBlur_56_4"/>
</filter>
<filter id="filter1_f_56_4" x="879.703" y="120.641" width="718.17" height="1226.83" filterUnits="userSpaceOnUse" color-interpolation-filters="sRGB">
<feFlood flood-opacity="0" result="BackgroundImageFix"/>
<feBlend mode="normal" in="SourceGraphic" in2="BackgroundImageFix" result="shape"/>
<feGaussianBlur stdDeviation="50" result="effect1_foregroundBlur_56_4"/>
</filter>
<filter id="filter2_d_56_4" x="286" y="82" width="1047" height="913.392" filterUnits="userSpaceOnUse" color-interpolation-filters="sRGB">
<feFlood flood-opacity="0" result="BackgroundImageFix"/>
<feColorMatrix in="SourceAlpha" type="matrix" values="0 0 0 0 0 0 0 0 0 0 0 0 0 0 0 0 0 0 127 0" result="hardAlpha"/>
<feOffset dx="10" dy="10"/>
<feGaussianBlur stdDeviation="10"/>
<feComposite in2="hardAlpha" operator="out"/>
<feColorMatrix type="matrix" values="0 0 0 0 0 0 0 0 0 0 0 0 0 0 0 0 0 0 0.25 0"/>
<feBlend mode="normal" in2="BackgroundImageFix" result="effect1_dropShadow_56_4"/>
<feBlend mode="normal" in="SourceGraphic" in2="effect1_dropShadow_56_4" result="shape"/>
</filter>
<filter id="filter3_d_56_4" x="360" y="215" width="586" height="242" filterUnits="userSpaceOnUse" color-interpolation-filters="sRGB">
<feFlood flood-opacity="0" result="BackgroundImageFix"/>
<feColorMatrix in="SourceAlpha" type="matrix" values="0 0 0 0 0 0 0 0 0 0 0 0 0 0 0 0 0 0 127 0" result="hardAlpha"/>
<feOffset dy="10"/>
<feGaussianBlur stdDeviation="5"/>
<feComposite in2="hardAlpha" operator="out"/>
<feColorMatrix type="matrix" values="0 0 0 0 0 0 0 0 0 0 0 0 0 0 0 0 0 0 0.25 0"/>
<feBlend mode="normal" in2="BackgroundImageFix" result="effect1_dropShadow_56_4"/>
<feBlend mode="normal" in="SourceGraphic" in2="effect1_dropShadow_56_4" result="shape"/>
</filter>
<filter id="filter4_f_56_4" x="387" y="451" width="451" height="175.928" filterUnits="userSpaceOnUse" color-interpolation-filters="sRGB">
<feFlood flood-opacity="0" result="BackgroundImageFix"/>
<feBlend mode="normal" in="SourceGraphic" in2="BackgroundImageFix" result="shape"/>
<feGaussianBlur stdDeviation="5" result="effect1_foregroundBlur_56_4"/>
</filter>
<filter id="filter5_f_56_4" x="387" y="625.464" width="451" height="175.928" filterUnits="userSpaceOnUse" color-interpolation-filters="sRGB">
<feFlood flood-opacity="0" result="BackgroundImageFix"/>
<feBlend mode="normal" in="SourceGraphic" in2="BackgroundImageFix" result="shape"/>
<feGaussianBlur stdDeviation="5" result="effect1_foregroundBlur_56_4"/>
</filter>
<filter id="filter6_f_56_4" x="387" y="799.464" width="451" height="175.928" filterUnits="userSpaceOnUse" color-interpolation-filters="sRGB">
<feFlood flood-opacity="0" result="BackgroundImageFix"/>
<feBlend mode="normal" in="SourceGraphic" in2="BackgroundImageFix" result="shape"/>
<feGaussianBlur stdDeviation="5" result="effect1_foregroundBlur_56_4"/>
</filter>
<radialGradient id="paint0_diamond_56_4" cx="0" cy="0" r="1" gradientUnits="userSpaceOnUse" gradientTransform="translate(1323 -483.5) rotate(105.047) scale(2014.57 1520.84)">
<stop stop-color="#A8FED0"/>
<stop offset="0.956826" stop-color="#42B70B"/>
</radialGradient>
<linearGradient id="paint1_linear_56_4" x1="602.485" y1="66.8599" x2="119.655" y2="821.824" gradientUnits="userSpaceOnUse">
<stop/>
<stop offset="1" stop-color="#42B70B"/>
</linearGradient>
<linearGradient id="paint2_linear_56_4" x1="893.5" y1="222" x2="-182.5" y2="596" gradientUnits="userSpaceOnUse">
<stop stop-color="#00FF47"/>
<stop offset="1" stop-opacity="0"/>
</linearGradient>
<linearGradient id="paint3_linear_56_4" x1="976.5" y1="464.5" x2="1067" y2="806.5" gradientUnits="userSpaceOnUse">
<stop stop-color="#A2A2A2"/>
<stop offset="1" stop-color="#A2A2A2" stop-opacity="0"/>
</linearGradient>
<clipPath id="clip0_56_4">
<rect width="1600" height="800" fill="white"/>
</clipPath>
<clipPath id="clip1_56_4">
<rect width="191.99" height="191.99" fill="white" transform="translate(853.972 116) rotate(16.016)"/>
</clipPath>
<clipPath id="clip2_56_4">
<rect width="33" height="35" fill="white" transform="translate(774 137)"/>
</clipPath>
</defs>
</svg>
