<svg width="1600" height="800" viewBox="0 0 1600 800" fill="none" xmlns="http://www.w3.org/2000/svg">
<g clip-path="url(#clip0_72_517)">
<rect width="1600" height="800" fill="white"/>
<rect width="1600" height="800" fill="url(#paint0_diamond_72_517)"/>
<g filter="url(#filter0_f_72_517)">
<path d="M486.5 525C238.5 568.5 -84.5 236 -93 224.5C-159.333 230.833 -260.3 212.9 -133.5 90.4999C25 -62.5001 439.005 87.8435 486.5 116.5C665.5 224.5 734.5 481.5 486.5 525Z" fill="url(#paint1_linear_72_517)" fill-opacity="0.1"/>
</g>
<g filter="url(#filter1_f_72_517)">
<path d="M1417.01 326.56C1598.59 568.214 1418.72 1094.85 1411.05 1110.21C1453.94 1177.73 1489.73 1295.52 1289.73 1226.51C1039.73 1140.23 975.149 615.417 979.947 548.997C998.029 298.673 1235.43 84.9066 1417.01 326.56Z" fill="white" fill-opacity="0.2"/>
</g>
<rect width="1600" height="800" fill="white" fill-opacity="0.2"/>
<g clip-path="url(#clip1_72_517)" filter="url(#filter2_f_72_517)">
<g opacity="0.3">
<path d="M1600 421.338C1600 414.072 1583.73 408.239 1565.3 409.121C1399.19 417.067 1387.66 481.729 1199.89 481.729C999.841 481.729 1000.05 408.324 800 408.324C600.084 408.324 599.872 481.729 399.956 481.729C212.272 481.729 200.734 417.071 34.7031 409.122C16.2656 408.24 0 414.074 0 421.339V862.768C0 883.038 42.0125 899.471 93.8406 899.471H1506.16C1557.99 899.471 1600 883.039 1600 862.768L1600 421.338Z" fill="#50EF7C"/>
<path d="M1600 555.135C1399.95 555.135 1399.95 628.54 1199.89 628.54C999.841 628.54 1000.05 555.135 800 555.135C600.084 555.135 599.872 628.54 399.956 628.54C199.978 628.54 199.978 555.135 0 555.135V862.768C0 883.038 42.0125 899.471 93.8406 899.471H1506.16C1557.99 899.471 1600 883.039 1600 862.768L1600 555.135Z" fill="#46C296"/>
<path d="M1600 701.945C1399.95 701.945 1399.95 775.35 1199.89 775.35C999.841 775.35 1000.05 701.945 800 701.945C600.084 701.945 599.872 775.35 399.956 775.35C199.978 775.35 199.978 701.945 0 701.945V862.768C0 883.038 42.0125 899.471 93.8406 899.471H1506.16C1557.99 899.471 1600 883.039 1600 862.768L1600 701.945Z" fill="#004953"/>
</g>
</g>
<g filter="url(#filter3_d_72_517)">
<rect x="-48.8373" y="145.095" width="519.39" height="1031.53" rx="17.5" transform="rotate(16.1005 -48.8373 145.095)" fill="#303030" stroke="#B3B3B3" stroke-width="5"/>
<rect x="88.4316" y="215.354" width="211.962" height="56.3597" rx="28.1799" transform="rotate(16.1005 88.4316 215.354)" fill="black"/>
</g>
<g filter="url(#filter4_d_72_517)">
<rect x="1145.48" y="579.459" width="391.103" height="777.951" rx="17.5" transform="rotate(-34.5815 1145.48 579.459)" fill="#303030" stroke="#B3B3B3" stroke-width="5"/>
<rect x="1251.38" y="532.713" width="160.107" height="42.5718" rx="21.2859" transform="rotate(-34.5815 1251.38 532.713)" fill="black"/>
</g>
<path d="M922.203 505.946H910.094C910.094 472.224 896.698 439.884 872.853 416.039C849.008 392.194 816.667 378.798 782.945 378.798C749.223 378.798 716.883 392.194 693.038 416.039C669.193 439.884 655.797 472.224 655.797 505.946H643.688C643.688 469.013 658.359 433.592 684.475 407.476C710.591 381.36 746.012 366.688 782.945 366.688C819.879 366.688 855.3 381.36 881.415 407.476C907.531 433.592 922.203 469.013 922.203 505.946Z" fill="#50607F"/>
<g filter="url(#filter5_f_72_517)">
<path d="M1086.89 505.946H965.797C965.797 501.878 965.664 497.833 965.398 493.837C963.572 465.899 955.313 438.762 941.264 414.545L1046.17 353.974C1072.85 400.177 1086.89 452.592 1086.89 505.946Z" fill="#00B955"/>
<path d="M1046.17 353.974L941.263 414.545C925.722 387.647 903.591 365.147 876.952 349.165C850.314 333.183 820.046 324.245 789 323.192C786.989 323.131 784.967 323.095 782.945 323.095C780.923 323.095 778.9 323.131 776.89 323.204C736.002 324.516 696.75 339.571 665.472 365.938L587.572 273.107C621.572 244.579 661.407 223.843 704.278 212.356C747.149 200.869 792.015 198.911 835.724 206.618C879.432 214.325 920.923 231.512 957.279 256.969C993.635 282.426 1023.98 315.537 1046.17 353.974Z" fill="#00B955" fill-opacity="0.47"/>
<path d="M665.472 365.938C662.941 368.057 660.483 370.249 658.073 372.513C655.119 375.262 652.265 378.116 649.512 381.074C620.596 411.844 603.269 451.704 600.493 493.837C600.227 497.833 600.094 501.877 600.094 505.946H479C479.002 461.563 488.723 417.718 507.48 377.493C526.237 337.268 553.575 301.638 587.573 273.107L665.472 365.938Z" fill="#4BCE6E" fill-opacity="0.61"/>
</g>
<g filter="url(#filter6_d_72_517)">
<path d="M1086.89 505.946H965.797C965.797 501.878 965.664 497.833 965.398 493.837C963.572 465.899 955.313 438.762 941.264 414.545L1046.17 353.974C1072.85 400.177 1086.89 452.592 1086.89 505.946Z" fill="#00A74D"/>
<path d="M1046.17 353.974L941.263 414.545C925.722 387.647 903.591 365.147 876.952 349.165C850.314 333.183 820.046 324.245 789 323.192C786.989 323.131 784.967 323.095 782.945 323.095C780.923 323.095 778.9 323.131 776.89 323.204C736.002 324.516 696.75 339.571 665.472 365.938L587.572 273.107C621.572 244.579 661.407 223.843 704.278 212.356C747.149 200.869 792.015 198.911 835.724 206.618C879.432 214.325 920.923 231.512 957.279 256.969C993.635 282.426 1023.98 315.537 1046.17 353.974Z" fill="#00B955" fill-opacity="0.47"/>
<path d="M665.472 365.938C662.941 368.057 660.483 370.249 658.073 372.513C655.119 375.262 652.265 378.116 649.512 381.074C620.596 411.844 603.269 451.704 600.493 493.837C600.227 497.833 600.094 501.877 600.094 505.946H479C479.002 461.563 488.723 417.718 507.48 377.493C526.237 337.268 553.575 301.638 587.573 273.107L665.472 365.938Z" fill="#4BCE6E" fill-opacity="0.61"/>
</g>
<path d="M949.952 332.575L757.793 472.802C757.228 473.214 756.759 473.744 756.418 474.354C756.078 474.965 755.873 475.642 755.819 476.34C755.765 477.037 755.863 477.738 756.105 478.394C756.348 479.05 756.729 479.645 757.224 480.14L809.159 532.075C809.653 532.569 810.249 532.95 810.905 533.193C811.561 533.435 812.261 533.532 812.958 533.478C813.656 533.424 814.333 533.219 814.943 532.879C815.554 532.538 816.084 532.069 816.496 531.504L956.715 339.343C957.393 338.41 957.716 337.266 957.626 336.116C957.535 334.967 957.038 333.887 956.223 333.072C955.408 332.256 954.329 331.758 953.179 331.667C952.029 331.576 950.885 331.898 949.952 332.575Z" fill="#062233"/>
<path d="M782.945 554.384C809.697 554.384 831.383 532.698 831.383 505.946C831.383 479.195 809.697 457.509 782.945 457.509C756.194 457.509 734.508 479.195 734.508 505.946C734.508 532.698 756.194 554.384 782.945 554.384Z" fill="#0A425E"/>
</g>
<defs>
<filter id="filter0_f_72_517" x="-294.188" y="-77.146" width="1041.84" height="706.067" filterUnits="userSpaceOnUse" color-interpolation-filters="sRGB">
<feFlood flood-opacity="0" result="BackgroundImageFix"/>
<feBlend mode="normal" in="SourceGraphic" in2="BackgroundImageFix" result="shape"/>
<feGaussianBlur stdDeviation="50" result="effect1_foregroundBlur_72_517"/>
</filter>
<filter id="filter1_f_72_517" x="879.703" y="120.641" width="718.17" height="1226.83" filterUnits="userSpaceOnUse" color-interpolation-filters="sRGB">
<feFlood flood-opacity="0" result="BackgroundImageFix"/>
<feBlend mode="normal" in="SourceGraphic" in2="BackgroundImageFix" result="shape"/>
<feGaussianBlur stdDeviation="50" result="effect1_foregroundBlur_72_517"/>
</filter>
<filter id="filter2_f_72_517" x="-10" y="331" width="1620" height="624" filterUnits="userSpaceOnUse" color-interpolation-filters="sRGB">
<feFlood flood-opacity="0" result="BackgroundImageFix"/>
<feBlend mode="normal" in="SourceGraphic" in2="BackgroundImageFix" result="shape"/>
<feGaussianBlur stdDeviation="5" result="effect1_foregroundBlur_72_517"/>
</filter>
<filter id="filter3_d_72_517" x="-343.243" y="136.757" width="821.763" height="1171.78" filterUnits="userSpaceOnUse" color-interpolation-filters="sRGB">
<feFlood flood-opacity="0" result="BackgroundImageFix"/>
<feColorMatrix in="SourceAlpha" type="matrix" values="0 0 0 0 0 0 0 0 0 0 0 0 0 0 0 0 0 0 127 0" result="hardAlpha"/>
<feOffset dx="10" dy="10"/>
<feGaussianBlur stdDeviation="10"/>
<feComposite in2="hardAlpha" operator="out"/>
<feColorMatrix type="matrix" values="0 0 0 0 0 0 0 0 0 0 0 0 0 0 0 0 0 0 0.25 0"/>
<feBlend mode="normal" in2="BackgroundImageFix" result="effect1_dropShadow_72_517"/>
<feBlend mode="normal" in="SourceGraphic" in2="effect1_dropShadow_72_517" result="shape"/>
</filter>
<filter id="filter4_d_72_517" x="1139.82" y="351.816" width="794.873" height="893.806" filterUnits="userSpaceOnUse" color-interpolation-filters="sRGB">
<feFlood flood-opacity="0" result="BackgroundImageFix"/>
<feColorMatrix in="SourceAlpha" type="matrix" values="0 0 0 0 0 0 0 0 0 0 0 0 0 0 0 0 0 0 127 0" result="hardAlpha"/>
<feOffset dx="10" dy="10"/>
<feGaussianBlur stdDeviation="10"/>
<feComposite in2="hardAlpha" operator="out"/>
<feColorMatrix type="matrix" values="0 0 0 0 0 0 0 0 0 0 0 0 0 0 0 0 0 0 0.25 0"/>
<feBlend mode="normal" in2="BackgroundImageFix" result="effect1_dropShadow_72_517"/>
<feBlend mode="normal" in="SourceGraphic" in2="effect1_dropShadow_72_517" result="shape"/>
</filter>
<filter id="filter5_f_72_517" x="439" y="162" width="687.891" height="383.946" filterUnits="userSpaceOnUse" color-interpolation-filters="sRGB">
<feFlood flood-opacity="0" result="BackgroundImageFix"/>
<feBlend mode="normal" in="SourceGraphic" in2="BackgroundImageFix" result="shape"/>
<feGaussianBlur stdDeviation="20" result="effect1_foregroundBlur_72_517"/>
</filter>
<filter id="filter6_d_72_517" x="459" y="192" width="647.891" height="343.946" filterUnits="userSpaceOnUse" color-interpolation-filters="sRGB">
<feFlood flood-opacity="0" result="BackgroundImageFix"/>
<feColorMatrix in="SourceAlpha" type="matrix" values="0 0 0 0 0 0 0 0 0 0 0 0 0 0 0 0 0 0 127 0" result="hardAlpha"/>
<feOffset dy="10"/>
<feGaussianBlur stdDeviation="10"/>
<feComposite in2="hardAlpha" operator="out"/>
<feColorMatrix type="matrix" values="0 0 0 0 0 0 0 0 0 0 0 0 0 0 0 0 0 0 0.25 0"/>
<feBlend mode="normal" in2="BackgroundImageFix" result="effect1_dropShadow_72_517"/>
<feBlend mode="normal" in="SourceGraphic" in2="effect1_dropShadow_72_517" result="shape"/>
</filter>
<radialGradient id="paint0_diamond_72_517" cx="0" cy="0" r="1" gradientUnits="userSpaceOnUse" gradientTransform="translate(1323 -483.5) rotate(105.047) scale(2014.57 1520.84)">
<stop stop-color="#A8FED0"/>
<stop offset="0.956826" stop-color="#42B70B"/>
</radialGradient>
<linearGradient id="paint1_linear_72_517" x1="602.485" y1="66.8599" x2="119.655" y2="821.824" gradientUnits="userSpaceOnUse">
<stop/>
<stop offset="1" stop-color="#42B70B"/>
</linearGradient>
<clipPath id="clip0_72_517">
<rect width="1600" height="800" fill="white"/>
</clipPath>
<clipPath id="clip1_72_517">
<rect width="1600" height="604" fill="white" transform="translate(0 341)"/>
</clipPath>
</defs>
</svg>
