<svg width="1600" height="800" viewBox="0 0 1600 800" fill="none" xmlns="http://www.w3.org/2000/svg">
<g clip-path="url(#clip0_72_619)">
<rect width="1600" height="800" fill="white"/>
<rect width="1600" height="800" fill="url(#paint0_diamond_72_619)"/>
<g filter="url(#filter0_f_72_619)">
<path d="M486.5 525C238.5 568.5 -84.5 236 -93 224.5C-159.333 230.833 -260.3 212.9 -133.5 90.4999C25 -62.5001 439.005 87.8435 486.5 116.5C665.5 224.5 734.5 481.5 486.5 525Z" fill="url(#paint1_linear_72_619)" fill-opacity="0.1"/>
</g>
<g filter="url(#filter1_f_72_619)">
<path d="M1417.01 326.56C1598.59 568.214 1418.72 1094.85 1411.05 1110.21C1453.94 1177.73 1489.74 1295.52 1289.73 1226.51C1039.73 1140.23 975.15 615.417 979.948 548.997C998.03 298.673 1235.43 84.9066 1417.01 326.56Z" fill="white" fill-opacity="0.2"/>
</g>
<rect width="1600" height="800" fill="white" fill-opacity="0.2"/>
<g clip-path="url(#clip1_72_619)" filter="url(#filter2_f_72_619)">
<path d="M891.694 146.874L801.958 146.87C797.995 146.87 794.783 150.081 794.783 154.044V182.711C794.783 186.672 797.995 189.885 801.957 189.885H852.491C846.958 204.245 836.63 216.272 823.453 223.913L845 261.214C879.565 241.224 900 206.149 900 166.885C900 161.294 899.588 157.298 898.764 152.797C898.138 149.378 895.169 146.874 891.694 146.874Z" fill="#167EE6"/>
<path d="M790 232.957C765.27 232.957 743.681 219.445 732.086 199.45L694.786 220.949C713.768 253.847 749.326 276 790 276C809.954 276 828.781 270.628 845 261.265V261.214L823.453 223.913C813.596 229.629 802.191 232.957 790 232.957Z" fill="#12B347"/>
<path d="M845 261.265V261.214L823.452 223.913C813.596 229.629 802.192 232.956 790 232.956V276C809.953 276 828.782 270.628 845 261.265Z" fill="#0F993E"/>
<path d="M723.044 166C723.044 153.81 726.37 142.406 732.085 132.55L694.786 111.051C685.372 127.219 680 145.995 680 166C680 186.004 685.372 204.781 694.786 220.949L732.085 199.45C726.37 189.594 723.044 178.19 723.044 166Z" fill="#FFD500"/>
<path d="M790 99.0435C806.127 99.0435 820.94 104.774 832.51 114.306C835.364 116.657 839.513 116.487 842.128 113.872L862.439 93.5611C865.406 90.5946 865.194 85.7387 862.025 82.9895C842.64 66.172 817.417 56 790 56C749.326 56 713.768 78.1534 694.786 111.051L732.086 132.55C743.681 112.555 765.27 99.0435 790 99.0435Z" fill="#FF4B26"/>
<path d="M832.51 114.306C835.364 116.657 839.513 116.487 842.128 113.872L862.439 93.5611C865.405 90.5946 865.194 85.7387 862.025 82.9895C842.64 66.1716 817.417 56 790 56V99.0435C806.126 99.0435 820.94 104.774 832.51 114.306Z" fill="#D93F21"/>
</g>
<g clip-path="url(#clip2_72_619)">
<path d="M905.938 109.136L808.044 109.131C803.722 109.131 800.218 112.634 800.218 116.957V148.23C800.218 152.552 803.722 156.056 808.044 156.056H863.172C857.135 171.722 845.868 184.842 831.494 193.178L855 233.87C892.707 212.062 915 173.799 915 130.965C915 124.866 914.551 120.506 913.652 115.597C912.968 111.867 909.73 109.136 905.938 109.136Z" fill="#167EE6"/>
<path d="M795 203.043C768.021 203.043 744.469 188.303 731.82 166.491L691.13 189.944C711.837 225.833 750.628 250 795 250C816.767 250 837.306 244.139 855 233.926V233.87L831.493 193.178C820.741 199.414 808.299 203.043 795 203.043Z" fill="#12B347"/>
<path d="M855 233.926V233.87L831.494 193.178C820.741 199.414 808.3 203.044 795 203.044V250C816.767 250 837.307 244.139 855 233.926Z" fill="#0F993E"/>
<path d="M721.957 130C721.957 116.702 725.586 104.261 731.82 93.5091L691.13 70.0557C680.86 87.6933 675 108.177 675 130C675 151.823 680.86 172.306 691.13 189.944L731.82 166.491C725.586 155.739 721.957 143.298 721.957 130Z" fill="#FFD500"/>
<path d="M795 56.9566C812.592 56.9566 828.752 63.2078 841.374 73.6061C844.488 76.1711 849.014 75.9859 851.866 73.1336L874.024 50.9758C877.26 47.7395 877.03 42.4422 873.573 39.4431C852.425 21.0967 824.909 10 795 10C750.628 10 711.837 34.1673 691.13 70.0558L731.82 93.5092C744.469 71.6969 768.021 56.9566 795 56.9566Z" fill="#FF4B26"/>
<path d="M841.374 73.6061C844.488 76.1711 849.015 75.9859 851.866 73.1336L874.024 50.9758C877.26 47.7395 877.029 42.4422 873.573 39.4431C852.425 21.0963 824.91 10 795 10V56.9566C812.592 56.9566 828.752 63.2078 841.374 73.6061Z" fill="#D93F21"/>
</g>
<rect x="293.5" y="195.5" width="1002" height="841" rx="17.5" fill="#303030" stroke="#B3B3B3" stroke-width="5"/>
<g opacity="0.5" filter="url(#filter3_f_72_619)">
<rect x="469" y="706" width="191" height="26" rx="10" fill="#A2A2A2"/>
<rect x="705" y="706" width="191" height="26" rx="10" fill="#A2A2A2"/>
<rect x="578" y="513" width="191" height="26" rx="10" fill="#A2A2A2"/>
<rect x="941" y="701" width="191" height="26" rx="10" fill="#A2A2A2"/>
<rect x="814" y="508" width="191" height="26" rx="10" fill="#A2A2A2"/>
<rect x="489" y="742" width="151" height="26" rx="10" fill="#A2A2A2"/>
<rect x="725" y="742" width="151" height="26" rx="10" fill="#A2A2A2"/>
<rect x="598" y="549" width="151" height="26" rx="10" fill="#A2A2A2"/>
<rect x="961" y="737" width="151" height="26" rx="10" fill="#A2A2A2"/>
<rect x="834" y="544" width="151" height="26" rx="10" fill="#A2A2A2"/>
<rect x="468" y="225" width="664" height="70" rx="10" fill="#A2A2A2"/>
<rect x="566" y="317" width="451" height="36" rx="10" fill="#A2A2A2"/>
<rect x="469" y="591" width="191" height="99" rx="10" fill="#A2A2A2"/>
<path d="M511.055 645.902L485.983 673.818C480.201 680.256 484.77 690.5 493.423 690.5H616.954C627.572 690.5 630.871 676.134 621.316 671.502L615.18 668.526C612.529 667.241 609.447 667.19 606.755 668.386L564.558 687.141C560.172 689.09 555.02 687.649 552.283 683.707L526.709 646.881C523.028 641.581 515.367 641.102 511.055 645.902Z" fill="#B8B8B8"/>
<circle cx="617.5" cy="619.5" r="13.5" fill="#B8B8B8"/>
<rect x="705" y="591" width="191" height="99" rx="10" fill="#A2A2A2"/>
<path d="M747.055 645.902L721.983 673.818C716.201 680.256 720.77 690.5 729.423 690.5H852.954C863.572 690.5 866.871 676.134 857.316 671.502L851.18 668.526C848.529 667.241 845.447 667.19 842.755 668.386L800.558 687.141C796.172 689.09 791.02 687.649 788.283 683.707L762.709 646.881C759.028 641.581 751.367 641.102 747.055 645.902Z" fill="#B8B8B8"/>
<circle cx="853.5" cy="619.5" r="13.5" fill="#B8B8B8"/>
<rect x="941" y="592" width="191" height="99" rx="10" fill="#A2A2A2"/>
<path d="M983.055 646.902L957.983 674.818C952.201 681.256 956.77 691.5 965.423 691.5H1088.95C1099.57 691.5 1102.87 677.134 1093.32 672.502L1087.18 669.526C1084.53 668.241 1081.45 668.19 1078.76 669.386L1036.56 688.141C1032.17 690.09 1027.02 688.649 1024.28 684.707L998.709 647.881C995.028 642.581 987.367 642.102 983.055 646.902Z" fill="#B8B8B8"/>
<circle cx="1089.5" cy="620.5" r="13.5" fill="#B8B8B8"/>
<rect x="814" y="396" width="191" height="99" rx="10" fill="#A2A2A2"/>
<path d="M856.055 450.902L830.983 478.818C825.201 485.256 829.77 495.5 838.423 495.5H961.954C972.572 495.5 975.871 481.134 966.316 476.502L960.18 473.526C957.529 472.241 954.447 472.19 951.755 473.386L909.558 492.141C905.172 494.09 900.02 492.649 897.283 488.707L871.709 451.881C868.028 446.581 860.367 446.102 856.055 450.902Z" fill="#B8B8B8"/>
<circle cx="962.5" cy="424.5" r="13.5" fill="#B8B8B8"/>
<rect x="577" y="398" width="191" height="99" rx="10" fill="#A2A2A2"/>
<path d="M619.055 452.902L593.983 480.818C588.201 487.256 592.77 497.5 601.423 497.5H724.954C735.572 497.5 738.871 483.134 729.316 478.502L723.18 475.526C720.529 474.241 717.447 474.19 714.755 475.386L672.558 494.141C668.172 496.09 663.02 494.649 660.283 490.707L634.709 453.881C631.028 448.581 623.367 448.102 619.055 452.902Z" fill="#B8B8B8"/>
<circle cx="725.5" cy="426.5" r="13.5" fill="#B8B8B8"/>
</g>
<g opacity="0.5">
<g filter="url(#filter4_f_72_619)">
<rect x="350" y="585" width="158" height="149" rx="74.5" fill="black"/>
</g>
<g filter="url(#filter5_f_72_619)">
<rect x="601" y="585" width="158" height="149" rx="74.5" fill="black"/>
</g>
<g filter="url(#filter6_f_72_619)">
<rect x="852" y="585" width="158" height="149" rx="74.5" fill="black"/>
</g>
<g filter="url(#filter7_f_72_619)">
<rect x="1103" y="585" width="158" height="149" rx="74.5" fill="black"/>
</g>
</g>
<g filter="url(#filter8_f_72_619)">
<path d="M345 479.5C345 552.125 286.125 611 213.5 611C140.875 611 82 552.125 82 479.5C82 406.875 140.875 348 213.5 348C286.125 348 345 406.875 345 479.5Z" fill="#96EB96" stroke="#008800" stroke-width="10"/>
<path d="M165.531 517H152.359V464.641L135.109 470.828V459.484L164.828 448.75H165.531V517ZM235.703 491.031C235.703 495.438 235.188 499.328 234.156 502.703C233.156 506.047 231.703 508.844 229.797 511.094C227.891 513.375 225.562 515.094 222.812 516.25C220.062 517.406 216.969 517.984 213.531 517.984C210.125 517.984 207.047 517.406 204.297 516.25C201.547 515.094 199.219 513.375 197.312 511.094C195.375 508.844 193.875 506.047 192.812 502.703C191.781 499.328 191.266 495.438 191.266 491.031V474.719C191.266 470.312 191.781 466.438 192.812 463.094C193.844 459.719 195.328 456.891 197.266 454.609C199.172 452.359 201.484 450.656 204.203 449.5C206.953 448.344 210.031 447.766 213.438 447.766C216.875 447.766 219.969 448.344 222.719 449.5C225.469 450.656 227.812 452.359 229.75 454.609C231.656 456.891 233.125 459.719 234.156 463.094C235.188 466.438 235.703 470.312 235.703 474.719V491.031ZM204.391 485.406L222.578 471.859C222.516 469.297 222.234 467.109 221.734 465.297C221.266 463.453 220.562 461.984 219.625 460.891C218.906 460.016 218.016 459.375 216.953 458.969C215.922 458.531 214.75 458.312 213.438 458.312C211.969 458.312 210.672 458.594 209.547 459.156C208.453 459.688 207.531 460.5 206.781 461.594C205.969 462.75 205.359 464.25 204.953 466.094C204.578 467.938 204.391 470.125 204.391 472.656V480.203C204.391 481.703 204.391 482.703 204.391 483.203C204.391 483.703 204.391 484.438 204.391 485.406ZM222.578 493V485.078C222.578 484.047 222.578 483.297 222.578 482.828C222.578 482.328 222.578 481.625 222.578 480.719L204.391 494.219C204.453 496.281 204.656 498.109 205 499.703C205.375 501.297 205.891 502.625 206.547 503.688C207.297 504.969 208.25 505.922 209.406 506.547C210.562 507.172 211.938 507.484 213.531 507.484C215 507.484 216.297 507.219 217.422 506.688C218.547 506.125 219.484 505.281 220.234 504.156C221.016 502.969 221.594 501.453 221.969 499.609C222.375 497.734 222.578 495.531 222.578 493ZM293.359 491.031C293.359 495.438 292.844 499.328 291.812 502.703C290.812 506.047 289.359 508.844 287.453 511.094C285.547 513.375 283.219 515.094 280.469 516.25C277.719 517.406 274.625 517.984 271.188 517.984C267.781 517.984 264.703 517.406 261.953 516.25C259.203 515.094 256.875 513.375 254.969 511.094C253.031 508.844 251.531 506.047 250.469 502.703C249.438 499.328 248.922 495.438 248.922 491.031V474.719C248.922 470.312 249.438 466.438 250.469 463.094C251.5 459.719 252.984 456.891 254.922 454.609C256.828 452.359 259.141 450.656 261.859 449.5C264.609 448.344 267.688 447.766 271.094 447.766C274.531 447.766 277.625 448.344 280.375 449.5C283.125 450.656 285.469 452.359 287.406 454.609C289.312 456.891 290.781 459.719 291.812 463.094C292.844 466.438 293.359 470.312 293.359 474.719V491.031ZM262.047 485.406L280.234 471.859C280.172 469.297 279.891 467.109 279.391 465.297C278.922 463.453 278.219 461.984 277.281 460.891C276.562 460.016 275.672 459.375 274.609 458.969C273.578 458.531 272.406 458.312 271.094 458.312C269.625 458.312 268.328 458.594 267.203 459.156C266.109 459.688 265.188 460.5 264.438 461.594C263.625 462.75 263.016 464.25 262.609 466.094C262.234 467.938 262.047 470.125 262.047 472.656V480.203C262.047 481.703 262.047 482.703 262.047 483.203C262.047 483.703 262.047 484.438 262.047 485.406ZM280.234 493V485.078C280.234 484.047 280.234 483.297 280.234 482.828C280.234 482.328 280.234 481.625 280.234 480.719L262.047 494.219C262.109 496.281 262.312 498.109 262.656 499.703C263.031 501.297 263.547 502.625 264.203 503.688C264.953 504.969 265.906 505.922 267.062 506.547C268.219 507.172 269.594 507.484 271.188 507.484C272.656 507.484 273.953 507.219 275.078 506.688C276.203 506.125 277.141 505.281 277.891 504.156C278.672 502.969 279.25 501.453 279.625 499.609C280.031 497.734 280.234 495.531 280.234 493Z" fill="#008800"/>
<path d="M732.947 479.5C732.947 552.125 674.073 611 601.447 611C528.822 611 469.947 552.125 469.947 479.5C469.947 406.875 528.822 348 601.447 348C674.073 348 732.947 406.875 732.947 479.5Z" fill="#96EB96" stroke="#008800" stroke-width="10"/>
<path d="M546.531 513H533.359V460.641L516.109 466.828V455.484L545.828 444.75H546.531V513ZM616.703 487.031C616.703 491.438 616.188 495.328 615.156 498.703C614.156 502.047 612.703 504.844 610.797 507.094C608.891 509.375 606.562 511.094 603.812 512.25C601.062 513.406 597.969 513.984 594.531 513.984C591.125 513.984 588.047 513.406 585.297 512.25C582.547 511.094 580.219 509.375 578.312 507.094C576.375 504.844 574.875 502.047 573.812 498.703C572.781 495.328 572.266 491.438 572.266 487.031V470.719C572.266 466.312 572.781 462.438 573.812 459.094C574.844 455.719 576.328 452.891 578.266 450.609C580.172 448.359 582.484 446.656 585.203 445.5C587.953 444.344 591.031 443.766 594.438 443.766C597.875 443.766 600.969 444.344 603.719 445.5C606.469 446.656 608.812 448.359 610.75 450.609C612.656 452.891 614.125 455.719 615.156 459.094C616.188 462.438 616.703 466.312 616.703 470.719V487.031ZM585.391 481.406L603.578 467.859C603.516 465.297 603.234 463.109 602.734 461.297C602.266 459.453 601.562 457.984 600.625 456.891C599.906 456.016 599.016 455.375 597.953 454.969C596.922 454.531 595.75 454.312 594.438 454.312C592.969 454.312 591.672 454.594 590.547 455.156C589.453 455.688 588.531 456.5 587.781 457.594C586.969 458.75 586.359 460.25 585.953 462.094C585.578 463.938 585.391 466.125 585.391 468.656V476.203C585.391 477.703 585.391 478.703 585.391 479.203C585.391 479.703 585.391 480.438 585.391 481.406ZM603.578 489V481.078C603.578 480.047 603.578 479.297 603.578 478.828C603.578 478.328 603.578 477.625 603.578 476.719L585.391 490.219C585.453 492.281 585.656 494.109 586 495.703C586.375 497.297 586.891 498.625 587.547 499.688C588.297 500.969 589.25 501.922 590.406 502.547C591.562 503.172 592.938 503.484 594.531 503.484C596 503.484 597.297 503.219 598.422 502.688C599.547 502.125 600.484 501.281 601.234 500.156C602.016 498.969 602.594 497.453 602.969 495.609C603.375 493.734 603.578 491.531 603.578 489ZM674.359 487.031C674.359 491.438 673.844 495.328 672.812 498.703C671.812 502.047 670.359 504.844 668.453 507.094C666.547 509.375 664.219 511.094 661.469 512.25C658.719 513.406 655.625 513.984 652.188 513.984C648.781 513.984 645.703 513.406 642.953 512.25C640.203 511.094 637.875 509.375 635.969 507.094C634.031 504.844 632.531 502.047 631.469 498.703C630.438 495.328 629.922 491.438 629.922 487.031V470.719C629.922 466.312 630.438 462.438 631.469 459.094C632.5 455.719 633.984 452.891 635.922 450.609C637.828 448.359 640.141 446.656 642.859 445.5C645.609 444.344 648.688 443.766 652.094 443.766C655.531 443.766 658.625 444.344 661.375 445.5C664.125 446.656 666.469 448.359 668.406 450.609C670.312 452.891 671.781 455.719 672.812 459.094C673.844 462.438 674.359 466.312 674.359 470.719V487.031ZM643.047 481.406L661.234 467.859C661.172 465.297 660.891 463.109 660.391 461.297C659.922 459.453 659.219 457.984 658.281 456.891C657.562 456.016 656.672 455.375 655.609 454.969C654.578 454.531 653.406 454.312 652.094 454.312C650.625 454.312 649.328 454.594 648.203 455.156C647.109 455.688 646.188 456.5 645.438 457.594C644.625 458.75 644.016 460.25 643.609 462.094C643.234 463.938 643.047 466.125 643.047 468.656V476.203C643.047 477.703 643.047 478.703 643.047 479.203C643.047 479.703 643.047 480.438 643.047 481.406ZM661.234 489V481.078C661.234 480.047 661.234 479.297 661.234 478.828C661.234 478.328 661.234 477.625 661.234 476.719L643.047 490.219C643.109 492.281 643.312 494.109 643.656 495.703C644.031 497.297 644.547 498.625 645.203 499.688C645.953 500.969 646.906 501.922 648.062 502.547C649.219 503.172 650.594 503.484 652.188 503.484C653.656 503.484 654.953 503.219 656.078 502.688C657.203 502.125 658.141 501.281 658.891 500.156C659.672 498.969 660.25 497.453 660.625 495.609C661.031 493.734 661.234 491.531 661.234 489Z" fill="#008800"/>
<path d="M1120.89 479.5C1120.89 552.125 1062.02 611 989.395 611C916.769 611 857.895 552.125 857.895 479.5C857.895 406.875 916.769 348 989.395 348C1062.02 348 1120.89 406.875 1120.89 479.5Z" fill="#96EB96" stroke="#008800" stroke-width="10"/>
<path d="M940.531 513H927.359V460.641L910.109 466.828V455.484L939.828 444.75H940.531V513ZM1010.7 487.031C1010.7 491.438 1010.19 495.328 1009.16 498.703C1008.16 502.047 1006.7 504.844 1004.8 507.094C1002.89 509.375 1000.56 511.094 997.812 512.25C995.062 513.406 991.969 513.984 988.531 513.984C985.125 513.984 982.047 513.406 979.297 512.25C976.547 511.094 974.219 509.375 972.312 507.094C970.375 504.844 968.875 502.047 967.812 498.703C966.781 495.328 966.266 491.438 966.266 487.031V470.719C966.266 466.312 966.781 462.438 967.812 459.094C968.844 455.719 970.328 452.891 972.266 450.609C974.172 448.359 976.484 446.656 979.203 445.5C981.953 444.344 985.031 443.766 988.438 443.766C991.875 443.766 994.969 444.344 997.719 445.5C1000.47 446.656 1002.81 448.359 1004.75 450.609C1006.66 452.891 1008.12 455.719 1009.16 459.094C1010.19 462.438 1010.7 466.312 1010.7 470.719V487.031ZM979.391 481.406L997.578 467.859C997.516 465.297 997.234 463.109 996.734 461.297C996.266 459.453 995.562 457.984 994.625 456.891C993.906 456.016 993.016 455.375 991.953 454.969C990.922 454.531 989.75 454.312 988.438 454.312C986.969 454.312 985.672 454.594 984.547 455.156C983.453 455.688 982.531 456.5 981.781 457.594C980.969 458.75 980.359 460.25 979.953 462.094C979.578 463.938 979.391 466.125 979.391 468.656V476.203C979.391 477.703 979.391 478.703 979.391 479.203C979.391 479.703 979.391 480.438 979.391 481.406ZM997.578 489V481.078C997.578 480.047 997.578 479.297 997.578 478.828C997.578 478.328 997.578 477.625 997.578 476.719L979.391 490.219C979.453 492.281 979.656 494.109 980 495.703C980.375 497.297 980.891 498.625 981.547 499.688C982.297 500.969 983.25 501.922 984.406 502.547C985.562 503.172 986.938 503.484 988.531 503.484C990 503.484 991.297 503.219 992.422 502.688C993.547 502.125 994.484 501.281 995.234 500.156C996.016 498.969 996.594 497.453 996.969 495.609C997.375 493.734 997.578 491.531 997.578 489ZM1068.36 487.031C1068.36 491.438 1067.84 495.328 1066.81 498.703C1065.81 502.047 1064.36 504.844 1062.45 507.094C1060.55 509.375 1058.22 511.094 1055.47 512.25C1052.72 513.406 1049.62 513.984 1046.19 513.984C1042.78 513.984 1039.7 513.406 1036.95 512.25C1034.2 511.094 1031.88 509.375 1029.97 507.094C1028.03 504.844 1026.53 502.047 1025.47 498.703C1024.44 495.328 1023.92 491.438 1023.92 487.031V470.719C1023.92 466.312 1024.44 462.438 1025.47 459.094C1026.5 455.719 1027.98 452.891 1029.92 450.609C1031.83 448.359 1034.14 446.656 1036.86 445.5C1039.61 444.344 1042.69 443.766 1046.09 443.766C1049.53 443.766 1052.62 444.344 1055.38 445.5C1058.12 446.656 1060.47 448.359 1062.41 450.609C1064.31 452.891 1065.78 455.719 1066.81 459.094C1067.84 462.438 1068.36 466.312 1068.36 470.719V487.031ZM1037.05 481.406L1055.23 467.859C1055.17 465.297 1054.89 463.109 1054.39 461.297C1053.92 459.453 1053.22 457.984 1052.28 456.891C1051.56 456.016 1050.67 455.375 1049.61 454.969C1048.58 454.531 1047.41 454.312 1046.09 454.312C1044.62 454.312 1043.33 454.594 1042.2 455.156C1041.11 455.688 1040.19 456.5 1039.44 457.594C1038.62 458.75 1038.02 460.25 1037.61 462.094C1037.23 463.938 1037.05 466.125 1037.05 468.656V476.203C1037.05 477.703 1037.05 478.703 1037.05 479.203C1037.05 479.703 1037.05 480.438 1037.05 481.406ZM1055.23 489V481.078C1055.23 480.047 1055.23 479.297 1055.23 478.828C1055.23 478.328 1055.23 477.625 1055.23 476.719L1037.05 490.219C1037.11 492.281 1037.31 494.109 1037.66 495.703C1038.03 497.297 1038.55 498.625 1039.2 499.688C1039.95 500.969 1040.91 501.922 1042.06 502.547C1043.22 503.172 1044.59 503.484 1046.19 503.484C1047.66 503.484 1048.95 503.219 1050.08 502.688C1051.2 502.125 1052.14 501.281 1052.89 500.156C1053.67 498.969 1054.25 497.453 1054.62 495.609C1055.03 493.734 1055.23 491.531 1055.23 489Z" fill="#008800"/>
<path d="M1508.84 479.5C1508.84 552.125 1449.97 611 1377.34 611C1304.72 611 1245.84 552.125 1245.84 479.5C1245.84 406.875 1304.72 348 1377.34 348C1449.97 348 1508.84 406.875 1508.84 479.5Z" fill="#96EB96" stroke="#008800" stroke-width="10"/>
<path d="M1328.53 513H1315.36V460.641L1298.11 466.828V455.484L1327.83 444.75H1328.53V513ZM1398.7 487.031C1398.7 491.438 1398.19 495.328 1397.16 498.703C1396.16 502.047 1394.7 504.844 1392.8 507.094C1390.89 509.375 1388.56 511.094 1385.81 512.25C1383.06 513.406 1379.97 513.984 1376.53 513.984C1373.12 513.984 1370.05 513.406 1367.3 512.25C1364.55 511.094 1362.22 509.375 1360.31 507.094C1358.38 504.844 1356.88 502.047 1355.81 498.703C1354.78 495.328 1354.27 491.438 1354.27 487.031V470.719C1354.27 466.312 1354.78 462.438 1355.81 459.094C1356.84 455.719 1358.33 452.891 1360.27 450.609C1362.17 448.359 1364.48 446.656 1367.2 445.5C1369.95 444.344 1373.03 443.766 1376.44 443.766C1379.88 443.766 1382.97 444.344 1385.72 445.5C1388.47 446.656 1390.81 448.359 1392.75 450.609C1394.66 452.891 1396.12 455.719 1397.16 459.094C1398.19 462.438 1398.7 466.312 1398.7 470.719V487.031ZM1367.39 481.406L1385.58 467.859C1385.52 465.297 1385.23 463.109 1384.73 461.297C1384.27 459.453 1383.56 457.984 1382.62 456.891C1381.91 456.016 1381.02 455.375 1379.95 454.969C1378.92 454.531 1377.75 454.312 1376.44 454.312C1374.97 454.312 1373.67 454.594 1372.55 455.156C1371.45 455.688 1370.53 456.5 1369.78 457.594C1368.97 458.75 1368.36 460.25 1367.95 462.094C1367.58 463.938 1367.39 466.125 1367.39 468.656V476.203C1367.39 477.703 1367.39 478.703 1367.39 479.203C1367.39 479.703 1367.39 480.438 1367.39 481.406ZM1385.58 489V481.078C1385.58 480.047 1385.58 479.297 1385.58 478.828C1385.58 478.328 1385.58 477.625 1385.58 476.719L1367.39 490.219C1367.45 492.281 1367.66 494.109 1368 495.703C1368.38 497.297 1368.89 498.625 1369.55 499.688C1370.3 500.969 1371.25 501.922 1372.41 502.547C1373.56 503.172 1374.94 503.484 1376.53 503.484C1378 503.484 1379.3 503.219 1380.42 502.688C1381.55 502.125 1382.48 501.281 1383.23 500.156C1384.02 498.969 1384.59 497.453 1384.97 495.609C1385.38 493.734 1385.58 491.531 1385.58 489ZM1456.36 487.031C1456.36 491.438 1455.84 495.328 1454.81 498.703C1453.81 502.047 1452.36 504.844 1450.45 507.094C1448.55 509.375 1446.22 511.094 1443.47 512.25C1440.72 513.406 1437.62 513.984 1434.19 513.984C1430.78 513.984 1427.7 513.406 1424.95 512.25C1422.2 511.094 1419.88 509.375 1417.97 507.094C1416.03 504.844 1414.53 502.047 1413.47 498.703C1412.44 495.328 1411.92 491.438 1411.92 487.031V470.719C1411.92 466.312 1412.44 462.438 1413.47 459.094C1414.5 455.719 1415.98 452.891 1417.92 450.609C1419.83 448.359 1422.14 446.656 1424.86 445.5C1427.61 444.344 1430.69 443.766 1434.09 443.766C1437.53 443.766 1440.62 444.344 1443.38 445.5C1446.12 446.656 1448.47 448.359 1450.41 450.609C1452.31 452.891 1453.78 455.719 1454.81 459.094C1455.84 462.438 1456.36 466.312 1456.36 470.719V487.031ZM1425.05 481.406L1443.23 467.859C1443.17 465.297 1442.89 463.109 1442.39 461.297C1441.92 459.453 1441.22 457.984 1440.28 456.891C1439.56 456.016 1438.67 455.375 1437.61 454.969C1436.58 454.531 1435.41 454.312 1434.09 454.312C1432.62 454.312 1431.33 454.594 1430.2 455.156C1429.11 455.688 1428.19 456.5 1427.44 457.594C1426.62 458.75 1426.02 460.25 1425.61 462.094C1425.23 463.938 1425.05 466.125 1425.05 468.656V476.203C1425.05 477.703 1425.05 478.703 1425.05 479.203C1425.05 479.703 1425.05 480.438 1425.05 481.406ZM1443.23 489V481.078C1443.23 480.047 1443.23 479.297 1443.23 478.828C1443.23 478.328 1443.23 477.625 1443.23 476.719L1425.05 490.219C1425.11 492.281 1425.31 494.109 1425.66 495.703C1426.03 497.297 1426.55 498.625 1427.2 499.688C1427.95 500.969 1428.91 501.922 1430.06 502.547C1431.22 503.172 1432.59 503.484 1434.19 503.484C1435.66 503.484 1436.95 503.219 1438.08 502.688C1439.2 502.125 1440.14 501.281 1440.89 500.156C1441.67 498.969 1442.25 497.453 1442.62 495.609C1443.03 493.734 1443.23 491.531 1443.23 489Z" fill="#008800"/>
</g>
<path d="M345 479.5C345 552.125 286.125 611 213.5 611C140.875 611 82 552.125 82 479.5C82 406.875 140.875 348 213.5 348C286.125 348 345 406.875 345 479.5Z" fill="#96EB96" stroke="#008800" stroke-width="10"/>
<path d="M165.531 517H152.359V464.641L135.109 470.828V459.484L164.828 448.75H165.531V517ZM235.703 491.031C235.703 495.438 235.188 499.328 234.156 502.703C233.156 506.047 231.703 508.844 229.797 511.094C227.891 513.375 225.562 515.094 222.812 516.25C220.062 517.406 216.969 517.984 213.531 517.984C210.125 517.984 207.047 517.406 204.297 516.25C201.547 515.094 199.219 513.375 197.312 511.094C195.375 508.844 193.875 506.047 192.812 502.703C191.781 499.328 191.266 495.438 191.266 491.031V474.719C191.266 470.312 191.781 466.438 192.812 463.094C193.844 459.719 195.328 456.891 197.266 454.609C199.172 452.359 201.484 450.656 204.203 449.5C206.953 448.344 210.031 447.766 213.438 447.766C216.875 447.766 219.969 448.344 222.719 449.5C225.469 450.656 227.812 452.359 229.75 454.609C231.656 456.891 233.125 459.719 234.156 463.094C235.188 466.438 235.703 470.312 235.703 474.719V491.031ZM204.391 485.406L222.578 471.859C222.516 469.297 222.234 467.109 221.734 465.297C221.266 463.453 220.562 461.984 219.625 460.891C218.906 460.016 218.016 459.375 216.953 458.969C215.922 458.531 214.75 458.312 213.438 458.312C211.969 458.312 210.672 458.594 209.547 459.156C208.453 459.688 207.531 460.5 206.781 461.594C205.969 462.75 205.359 464.25 204.953 466.094C204.578 467.938 204.391 470.125 204.391 472.656V480.203C204.391 481.703 204.391 482.703 204.391 483.203C204.391 483.703 204.391 484.438 204.391 485.406ZM222.578 493V485.078C222.578 484.047 222.578 483.297 222.578 482.828C222.578 482.328 222.578 481.625 222.578 480.719L204.391 494.219C204.453 496.281 204.656 498.109 205 499.703C205.375 501.297 205.891 502.625 206.547 503.688C207.297 504.969 208.25 505.922 209.406 506.547C210.562 507.172 211.938 507.484 213.531 507.484C215 507.484 216.297 507.219 217.422 506.688C218.547 506.125 219.484 505.281 220.234 504.156C221.016 502.969 221.594 501.453 221.969 499.609C222.375 497.734 222.578 495.531 222.578 493ZM293.359 491.031C293.359 495.438 292.844 499.328 291.812 502.703C290.812 506.047 289.359 508.844 287.453 511.094C285.547 513.375 283.219 515.094 280.469 516.25C277.719 517.406 274.625 517.984 271.188 517.984C267.781 517.984 264.703 517.406 261.953 516.25C259.203 515.094 256.875 513.375 254.969 511.094C253.031 508.844 251.531 506.047 250.469 502.703C249.438 499.328 248.922 495.438 248.922 491.031V474.719C248.922 470.312 249.438 466.438 250.469 463.094C251.5 459.719 252.984 456.891 254.922 454.609C256.828 452.359 259.141 450.656 261.859 449.5C264.609 448.344 267.688 447.766 271.094 447.766C274.531 447.766 277.625 448.344 280.375 449.5C283.125 450.656 285.469 452.359 287.406 454.609C289.312 456.891 290.781 459.719 291.812 463.094C292.844 466.438 293.359 470.312 293.359 474.719V491.031ZM262.047 485.406L280.234 471.859C280.172 469.297 279.891 467.109 279.391 465.297C278.922 463.453 278.219 461.984 277.281 460.891C276.562 460.016 275.672 459.375 274.609 458.969C273.578 458.531 272.406 458.312 271.094 458.312C269.625 458.312 268.328 458.594 267.203 459.156C266.109 459.688 265.188 460.5 264.438 461.594C263.625 462.75 263.016 464.25 262.609 466.094C262.234 467.938 262.047 470.125 262.047 472.656V480.203C262.047 481.703 262.047 482.703 262.047 483.203C262.047 483.703 262.047 484.438 262.047 485.406ZM280.234 493V485.078C280.234 484.047 280.234 483.297 280.234 482.828C280.234 482.328 280.234 481.625 280.234 480.719L262.047 494.219C262.109 496.281 262.312 498.109 262.656 499.703C263.031 501.297 263.547 502.625 264.203 503.688C264.953 504.969 265.906 505.922 267.062 506.547C268.219 507.172 269.594 507.484 271.188 507.484C272.656 507.484 273.953 507.219 275.078 506.688C276.203 506.125 277.141 505.281 277.891 504.156C278.672 502.969 279.25 501.453 279.625 499.609C280.031 497.734 280.234 495.531 280.234 493Z" fill="#008800"/>
<path d="M732.947 479.5C732.947 552.125 674.073 611 601.447 611C528.822 611 469.947 552.125 469.947 479.5C469.947 406.875 528.822 348 601.447 348C674.073 348 732.947 406.875 732.947 479.5Z" fill="#96EB96" stroke="#008800" stroke-width="10"/>
<path d="M546.531 513H533.359V460.641L516.109 466.828V455.484L545.828 444.75H546.531V513ZM616.703 487.031C616.703 491.438 616.188 495.328 615.156 498.703C614.156 502.047 612.703 504.844 610.797 507.094C608.891 509.375 606.562 511.094 603.812 512.25C601.062 513.406 597.969 513.984 594.531 513.984C591.125 513.984 588.047 513.406 585.297 512.25C582.547 511.094 580.219 509.375 578.312 507.094C576.375 504.844 574.875 502.047 573.812 498.703C572.781 495.328 572.266 491.438 572.266 487.031V470.719C572.266 466.312 572.781 462.438 573.812 459.094C574.844 455.719 576.328 452.891 578.266 450.609C580.172 448.359 582.484 446.656 585.203 445.5C587.953 444.344 591.031 443.766 594.438 443.766C597.875 443.766 600.969 444.344 603.719 445.5C606.469 446.656 608.812 448.359 610.75 450.609C612.656 452.891 614.125 455.719 615.156 459.094C616.188 462.438 616.703 466.312 616.703 470.719V487.031ZM585.391 481.406L603.578 467.859C603.516 465.297 603.234 463.109 602.734 461.297C602.266 459.453 601.562 457.984 600.625 456.891C599.906 456.016 599.016 455.375 597.953 454.969C596.922 454.531 595.75 454.312 594.438 454.312C592.969 454.312 591.672 454.594 590.547 455.156C589.453 455.688 588.531 456.5 587.781 457.594C586.969 458.75 586.359 460.25 585.953 462.094C585.578 463.938 585.391 466.125 585.391 468.656V476.203C585.391 477.703 585.391 478.703 585.391 479.203C585.391 479.703 585.391 480.438 585.391 481.406ZM603.578 489V481.078C603.578 480.047 603.578 479.297 603.578 478.828C603.578 478.328 603.578 477.625 603.578 476.719L585.391 490.219C585.453 492.281 585.656 494.109 586 495.703C586.375 497.297 586.891 498.625 587.547 499.688C588.297 500.969 589.25 501.922 590.406 502.547C591.562 503.172 592.938 503.484 594.531 503.484C596 503.484 597.297 503.219 598.422 502.688C599.547 502.125 600.484 501.281 601.234 500.156C602.016 498.969 602.594 497.453 602.969 495.609C603.375 493.734 603.578 491.531 603.578 489ZM674.359 487.031C674.359 491.438 673.844 495.328 672.812 498.703C671.812 502.047 670.359 504.844 668.453 507.094C666.547 509.375 664.219 511.094 661.469 512.25C658.719 513.406 655.625 513.984 652.188 513.984C648.781 513.984 645.703 513.406 642.953 512.25C640.203 511.094 637.875 509.375 635.969 507.094C634.031 504.844 632.531 502.047 631.469 498.703C630.438 495.328 629.922 491.438 629.922 487.031V470.719C629.922 466.312 630.438 462.438 631.469 459.094C632.5 455.719 633.984 452.891 635.922 450.609C637.828 448.359 640.141 446.656 642.859 445.5C645.609 444.344 648.688 443.766 652.094 443.766C655.531 443.766 658.625 444.344 661.375 445.5C664.125 446.656 666.469 448.359 668.406 450.609C670.312 452.891 671.781 455.719 672.812 459.094C673.844 462.438 674.359 466.312 674.359 470.719V487.031ZM643.047 481.406L661.234 467.859C661.172 465.297 660.891 463.109 660.391 461.297C659.922 459.453 659.219 457.984 658.281 456.891C657.562 456.016 656.672 455.375 655.609 454.969C654.578 454.531 653.406 454.312 652.094 454.312C650.625 454.312 649.328 454.594 648.203 455.156C647.109 455.688 646.188 456.5 645.438 457.594C644.625 458.75 644.016 460.25 643.609 462.094C643.234 463.938 643.047 466.125 643.047 468.656V476.203C643.047 477.703 643.047 478.703 643.047 479.203C643.047 479.703 643.047 480.438 643.047 481.406ZM661.234 489V481.078C661.234 480.047 661.234 479.297 661.234 478.828C661.234 478.328 661.234 477.625 661.234 476.719L643.047 490.219C643.109 492.281 643.312 494.109 643.656 495.703C644.031 497.297 644.547 498.625 645.203 499.688C645.953 500.969 646.906 501.922 648.062 502.547C649.219 503.172 650.594 503.484 652.188 503.484C653.656 503.484 654.953 503.219 656.078 502.688C657.203 502.125 658.141 501.281 658.891 500.156C659.672 498.969 660.25 497.453 660.625 495.609C661.031 493.734 661.234 491.531 661.234 489Z" fill="#008800"/>
<path d="M1120.89 479.5C1120.89 552.125 1062.02 611 989.395 611C916.769 611 857.895 552.125 857.895 479.5C857.895 406.875 916.769 348 989.395 348C1062.02 348 1120.89 406.875 1120.89 479.5Z" fill="#96EB96" stroke="#008800" stroke-width="10"/>
<path d="M940.531 513H927.359V460.641L910.109 466.828V455.484L939.828 444.75H940.531V513ZM1010.7 487.031C1010.7 491.438 1010.19 495.328 1009.16 498.703C1008.16 502.047 1006.7 504.844 1004.8 507.094C1002.89 509.375 1000.56 511.094 997.812 512.25C995.062 513.406 991.969 513.984 988.531 513.984C985.125 513.984 982.047 513.406 979.297 512.25C976.547 511.094 974.219 509.375 972.312 507.094C970.375 504.844 968.875 502.047 967.812 498.703C966.781 495.328 966.266 491.438 966.266 487.031V470.719C966.266 466.312 966.781 462.438 967.812 459.094C968.844 455.719 970.328 452.891 972.266 450.609C974.172 448.359 976.484 446.656 979.203 445.5C981.953 444.344 985.031 443.766 988.438 443.766C991.875 443.766 994.969 444.344 997.719 445.5C1000.47 446.656 1002.81 448.359 1004.75 450.609C1006.66 452.891 1008.12 455.719 1009.16 459.094C1010.19 462.438 1010.7 466.312 1010.7 470.719V487.031ZM979.391 481.406L997.578 467.859C997.516 465.297 997.234 463.109 996.734 461.297C996.266 459.453 995.562 457.984 994.625 456.891C993.906 456.016 993.016 455.375 991.953 454.969C990.922 454.531 989.75 454.312 988.438 454.312C986.969 454.312 985.672 454.594 984.547 455.156C983.453 455.688 982.531 456.5 981.781 457.594C980.969 458.75 980.359 460.25 979.953 462.094C979.578 463.938 979.391 466.125 979.391 468.656V476.203C979.391 477.703 979.391 478.703 979.391 479.203C979.391 479.703 979.391 480.438 979.391 481.406ZM997.578 489V481.078C997.578 480.047 997.578 479.297 997.578 478.828C997.578 478.328 997.578 477.625 997.578 476.719L979.391 490.219C979.453 492.281 979.656 494.109 980 495.703C980.375 497.297 980.891 498.625 981.547 499.688C982.297 500.969 983.25 501.922 984.406 502.547C985.562 503.172 986.938 503.484 988.531 503.484C990 503.484 991.297 503.219 992.422 502.688C993.547 502.125 994.484 501.281 995.234 500.156C996.016 498.969 996.594 497.453 996.969 495.609C997.375 493.734 997.578 491.531 997.578 489ZM1068.36 487.031C1068.36 491.438 1067.84 495.328 1066.81 498.703C1065.81 502.047 1064.36 504.844 1062.45 507.094C1060.55 509.375 1058.22 511.094 1055.47 512.25C1052.72 513.406 1049.62 513.984 1046.19 513.984C1042.78 513.984 1039.7 513.406 1036.95 512.25C1034.2 511.094 1031.88 509.375 1029.97 507.094C1028.03 504.844 1026.53 502.047 1025.47 498.703C1024.44 495.328 1023.92 491.438 1023.92 487.031V470.719C1023.92 466.312 1024.44 462.438 1025.47 459.094C1026.5 455.719 1027.98 452.891 1029.92 450.609C1031.83 448.359 1034.14 446.656 1036.86 445.5C1039.61 444.344 1042.69 443.766 1046.09 443.766C1049.53 443.766 1052.62 444.344 1055.38 445.5C1058.12 446.656 1060.47 448.359 1062.41 450.609C1064.31 452.891 1065.78 455.719 1066.81 459.094C1067.84 462.438 1068.36 466.312 1068.36 470.719V487.031ZM1037.05 481.406L1055.23 467.859C1055.17 465.297 1054.89 463.109 1054.39 461.297C1053.92 459.453 1053.22 457.984 1052.28 456.891C1051.56 456.016 1050.67 455.375 1049.61 454.969C1048.58 454.531 1047.41 454.312 1046.09 454.312C1044.62 454.312 1043.33 454.594 1042.2 455.156C1041.11 455.688 1040.19 456.5 1039.44 457.594C1038.62 458.75 1038.02 460.25 1037.61 462.094C1037.23 463.938 1037.05 466.125 1037.05 468.656V476.203C1037.05 477.703 1037.05 478.703 1037.05 479.203C1037.05 479.703 1037.05 480.438 1037.05 481.406ZM1055.23 489V481.078C1055.23 480.047 1055.23 479.297 1055.23 478.828C1055.23 478.328 1055.23 477.625 1055.23 476.719L1037.05 490.219C1037.11 492.281 1037.31 494.109 1037.66 495.703C1038.03 497.297 1038.55 498.625 1039.2 499.688C1039.95 500.969 1040.91 501.922 1042.06 502.547C1043.22 503.172 1044.59 503.484 1046.19 503.484C1047.66 503.484 1048.95 503.219 1050.08 502.688C1051.2 502.125 1052.14 501.281 1052.89 500.156C1053.67 498.969 1054.25 497.453 1054.62 495.609C1055.03 493.734 1055.23 491.531 1055.23 489Z" fill="#008800"/>
<path d="M1508.84 479.5C1508.84 552.125 1449.97 611 1377.34 611C1304.72 611 1245.84 552.125 1245.84 479.5C1245.84 406.875 1304.72 348 1377.34 348C1449.97 348 1508.84 406.875 1508.84 479.5Z" fill="#96EB96" stroke="#008800" stroke-width="10"/>
<path d="M1328.53 513H1315.36V460.641L1298.11 466.828V455.484L1327.83 444.75H1328.53V513ZM1398.7 487.031C1398.7 491.438 1398.19 495.328 1397.16 498.703C1396.16 502.047 1394.7 504.844 1392.8 507.094C1390.89 509.375 1388.56 511.094 1385.81 512.25C1383.06 513.406 1379.97 513.984 1376.53 513.984C1373.12 513.984 1370.05 513.406 1367.3 512.25C1364.55 511.094 1362.22 509.375 1360.31 507.094C1358.38 504.844 1356.88 502.047 1355.81 498.703C1354.78 495.328 1354.27 491.438 1354.27 487.031V470.719C1354.27 466.312 1354.78 462.438 1355.81 459.094C1356.84 455.719 1358.33 452.891 1360.27 450.609C1362.17 448.359 1364.48 446.656 1367.2 445.5C1369.95 444.344 1373.03 443.766 1376.44 443.766C1379.88 443.766 1382.97 444.344 1385.72 445.5C1388.47 446.656 1390.81 448.359 1392.75 450.609C1394.66 452.891 1396.12 455.719 1397.16 459.094C1398.19 462.438 1398.7 466.312 1398.7 470.719V487.031ZM1367.39 481.406L1385.58 467.859C1385.52 465.297 1385.23 463.109 1384.73 461.297C1384.27 459.453 1383.56 457.984 1382.62 456.891C1381.91 456.016 1381.02 455.375 1379.95 454.969C1378.92 454.531 1377.75 454.312 1376.44 454.312C1374.97 454.312 1373.67 454.594 1372.55 455.156C1371.45 455.688 1370.53 456.5 1369.78 457.594C1368.97 458.75 1368.36 460.25 1367.95 462.094C1367.58 463.938 1367.39 466.125 1367.39 468.656V476.203C1367.39 477.703 1367.39 478.703 1367.39 479.203C1367.39 479.703 1367.39 480.438 1367.39 481.406ZM1385.58 489V481.078C1385.58 480.047 1385.58 479.297 1385.58 478.828C1385.58 478.328 1385.58 477.625 1385.58 476.719L1367.39 490.219C1367.45 492.281 1367.66 494.109 1368 495.703C1368.38 497.297 1368.89 498.625 1369.55 499.688C1370.3 500.969 1371.25 501.922 1372.41 502.547C1373.56 503.172 1374.94 503.484 1376.53 503.484C1378 503.484 1379.3 503.219 1380.42 502.688C1381.55 502.125 1382.48 501.281 1383.23 500.156C1384.02 498.969 1384.59 497.453 1384.97 495.609C1385.38 493.734 1385.58 491.531 1385.58 489ZM1456.36 487.031C1456.36 491.438 1455.84 495.328 1454.81 498.703C1453.81 502.047 1452.36 504.844 1450.45 507.094C1448.55 509.375 1446.22 511.094 1443.47 512.25C1440.72 513.406 1437.62 513.984 1434.19 513.984C1430.78 513.984 1427.7 513.406 1424.95 512.25C1422.2 511.094 1419.88 509.375 1417.97 507.094C1416.03 504.844 1414.53 502.047 1413.47 498.703C1412.44 495.328 1411.92 491.438 1411.92 487.031V470.719C1411.92 466.312 1412.44 462.438 1413.47 459.094C1414.5 455.719 1415.98 452.891 1417.92 450.609C1419.83 448.359 1422.14 446.656 1424.86 445.5C1427.61 444.344 1430.69 443.766 1434.09 443.766C1437.53 443.766 1440.62 444.344 1443.38 445.5C1446.12 446.656 1448.47 448.359 1450.41 450.609C1452.31 452.891 1453.78 455.719 1454.81 459.094C1455.84 462.438 1456.36 466.312 1456.36 470.719V487.031ZM1425.05 481.406L1443.23 467.859C1443.17 465.297 1442.89 463.109 1442.39 461.297C1441.92 459.453 1441.22 457.984 1440.28 456.891C1439.56 456.016 1438.67 455.375 1437.61 454.969C1436.58 454.531 1435.41 454.312 1434.09 454.312C1432.62 454.312 1431.33 454.594 1430.2 455.156C1429.11 455.688 1428.19 456.5 1427.44 457.594C1426.62 458.75 1426.02 460.25 1425.61 462.094C1425.23 463.938 1425.05 466.125 1425.05 468.656V476.203C1425.05 477.703 1425.05 478.703 1425.05 479.203C1425.05 479.703 1425.05 480.438 1425.05 481.406ZM1443.23 489V481.078C1443.23 480.047 1443.23 479.297 1443.23 478.828C1443.23 478.328 1443.23 477.625 1443.23 476.719L1425.05 490.219C1425.11 492.281 1425.31 494.109 1425.66 495.703C1426.03 497.297 1426.55 498.625 1427.2 499.688C1427.95 500.969 1428.91 501.922 1430.06 502.547C1431.22 503.172 1432.59 503.484 1434.19 503.484C1435.66 503.484 1436.95 503.219 1438.08 502.688C1439.2 502.125 1440.14 501.281 1440.89 500.156C1441.67 498.969 1442.25 497.453 1442.62 495.609C1443.03 493.734 1443.23 491.531 1443.23 489Z" fill="#008800"/>
</g>
<defs>
<filter id="filter0_f_72_619" x="-294.188" y="-77.146" width="1041.84" height="706.067" filterUnits="userSpaceOnUse" color-interpolation-filters="sRGB">
<feFlood flood-opacity="0" result="BackgroundImageFix"/>
<feBlend mode="normal" in="SourceGraphic" in2="BackgroundImageFix" result="shape"/>
<feGaussianBlur stdDeviation="50" result="effect1_foregroundBlur_72_619"/>
</filter>
<filter id="filter1_f_72_619" x="879.703" y="120.641" width="718.17" height="1226.83" filterUnits="userSpaceOnUse" color-interpolation-filters="sRGB">
<feFlood flood-opacity="0" result="BackgroundImageFix"/>
<feBlend mode="normal" in="SourceGraphic" in2="BackgroundImageFix" result="shape"/>
<feGaussianBlur stdDeviation="50" result="effect1_foregroundBlur_72_619"/>
</filter>
<filter id="filter2_f_72_619" x="630" y="6" width="320" height="320" filterUnits="userSpaceOnUse" color-interpolation-filters="sRGB">
<feFlood flood-opacity="0" result="BackgroundImageFix"/>
<feBlend mode="normal" in="SourceGraphic" in2="BackgroundImageFix" result="shape"/>
<feGaussianBlur stdDeviation="25" result="effect1_foregroundBlur_72_619"/>
</filter>
<filter id="filter3_f_72_619" x="448" y="205" width="704" height="583" filterUnits="userSpaceOnUse" color-interpolation-filters="sRGB">
<feFlood flood-opacity="0" result="BackgroundImageFix"/>
<feBlend mode="normal" in="SourceGraphic" in2="BackgroundImageFix" result="shape"/>
<feGaussianBlur stdDeviation="10" result="effect1_foregroundBlur_72_619"/>
</filter>
<filter id="filter4_f_72_619" x="280" y="515" width="298" height="289" filterUnits="userSpaceOnUse" color-interpolation-filters="sRGB">
<feFlood flood-opacity="0" result="BackgroundImageFix"/>
<feBlend mode="normal" in="SourceGraphic" in2="BackgroundImageFix" result="shape"/>
<feGaussianBlur stdDeviation="35" result="effect1_foregroundBlur_72_619"/>
</filter>
<filter id="filter5_f_72_619" x="531" y="515" width="298" height="289" filterUnits="userSpaceOnUse" color-interpolation-filters="sRGB">
<feFlood flood-opacity="0" result="BackgroundImageFix"/>
<feBlend mode="normal" in="SourceGraphic" in2="BackgroundImageFix" result="shape"/>
<feGaussianBlur stdDeviation="35" result="effect1_foregroundBlur_72_619"/>
</filter>
<filter id="filter6_f_72_619" x="782" y="515" width="298" height="289" filterUnits="userSpaceOnUse" color-interpolation-filters="sRGB">
<feFlood flood-opacity="0" result="BackgroundImageFix"/>
<feBlend mode="normal" in="SourceGraphic" in2="BackgroundImageFix" result="shape"/>
<feGaussianBlur stdDeviation="35" result="effect1_foregroundBlur_72_619"/>
</filter>
<filter id="filter7_f_72_619" x="1033" y="515" width="298" height="289" filterUnits="userSpaceOnUse" color-interpolation-filters="sRGB">
<feFlood flood-opacity="0" result="BackgroundImageFix"/>
<feBlend mode="normal" in="SourceGraphic" in2="BackgroundImageFix" result="shape"/>
<feGaussianBlur stdDeviation="35" result="effect1_foregroundBlur_72_619"/>
</filter>
<filter id="filter8_f_72_619" x="27" y="293" width="1536.84" height="373" filterUnits="userSpaceOnUse" color-interpolation-filters="sRGB">
<feFlood flood-opacity="0" result="BackgroundImageFix"/>
<feBlend mode="normal" in="SourceGraphic" in2="BackgroundImageFix" result="shape"/>
<feGaussianBlur stdDeviation="25" result="effect1_foregroundBlur_72_619"/>
</filter>
<radialGradient id="paint0_diamond_72_619" cx="0" cy="0" r="1" gradientUnits="userSpaceOnUse" gradientTransform="translate(1323 -483.5) rotate(105.047) scale(2014.57 1520.84)">
<stop stop-color="#A8FED0"/>
<stop offset="0.956826" stop-color="#42B70B"/>
</radialGradient>
<linearGradient id="paint1_linear_72_619" x1="602.485" y1="66.8599" x2="119.655" y2="821.824" gradientUnits="userSpaceOnUse">
<stop/>
<stop offset="1" stop-color="#42B70B"/>
</linearGradient>
<clipPath id="clip0_72_619">
<rect width="1600" height="800" fill="white"/>
</clipPath>
<clipPath id="clip1_72_619">
<rect width="220" height="220" fill="white" transform="translate(680 56)"/>
</clipPath>
<clipPath id="clip2_72_619">
<rect width="240" height="240" fill="white" transform="translate(675 10)"/>
</clipPath>
</defs>
</svg>
