<svg height="512" viewBox="0 0 512 512" width="512" xmlns="http://www.w3.org/2000/svg"><g id="Filled_outline" data-name="Filled outline"><rect fill="#348fd9" height="240" rx="24" width="352" x="56" y="224"/><path d="m360 224h24v240h-24z" fill="#3086cd"/><path d="m56 408h352a0 0 0 0 1 0 0v32a24 24 0 0 1 -24 24h-304a24 24 0 0 1 -24-24v-32a0 0 0 0 1 0 0z" fill="#3086cd"/><path d="m336 160h-208a24 24 0 0 0 -24 24v280h256v-280a24 24 0 0 0 -24-24z" fill="#4db7e5"/><path d="m360 224-256 150.857v89.143h256z" fill="#4aafdb"/><path d="m416 488h-368a24 24 0 0 1 -24-24v-32h144a16 16 0 0 1 11.314 4.686l6.627 6.628a16 16 0 0 0 11.314 4.686h66.745a16 16 0 0 0 11.314-4.686l6.627-6.628a16 16 0 0 1 11.314-4.686h146.745v32a24 24 0 0 1 -24 24z" fill="#e0e0de"/><path d="m224 224h136v24h-136z" fill="#4aafdb"/><path d="m200 24h288v200h-288z" fill="#fa9f0c"/><path d="m488 211.58v12.42h-10.45l-95.29-113.22-3.24-3.85 12.24-10.3 3.37 4z" fill="#f2951b"/><path d="m312 200 144-40-48 144-32-32s-47.38 54.81-120 56c-34.971.573-72 0-120-40 0 0 88 40 208-56z" fill="#d75246"/><path d="m80 176h-16a56.064 56.064 0 0 1 56-56v16a40.045 40.045 0 0 0 -40 40z" fill="#a8deea"/><path d="m488 24-144 118.182-144-118.182z" fill="#ffb531"/><path d="m64 248a16.019 16.019 0 0 1 16-16h16v176h16v-224a16.019 16.019 0 0 1 16-16h48v-16h-48a32.036 32.036 0 0 0 -32 32v32h-16a32.036 32.036 0 0 0 -32 32v24h16z"/><path d="m352 320h16v88h-16z"/><path d="m128 184h16v16h-16z"/><path d="m160 184h16v16h-16z"/><path d="m128 216h48v16h-48z"/><path d="m440 424h-24v-96h-16v96h-106.745a23.847 23.847 0 0 0 -16.971 7.029l-6.628 6.628a7.944 7.944 0 0 1 -5.656 2.343h-66.745a7.944 7.944 0 0 1 -5.657-2.344l-6.627-6.626a23.844 23.844 0 0 0 -16.971-7.03h-104v-136h-16v136h-24a8 8 0 0 0 -8 8v32a32.036 32.036 0 0 0 32 32h368a32.036 32.036 0 0 0 32-32v-32a8 8 0 0 0 -8-8zm-8 40a16.019 16.019 0 0 1 -16 16h-368a16.019 16.019 0 0 1 -16-16v-24h136a7.944 7.944 0 0 1 5.657 2.344l6.627 6.626a23.844 23.844 0 0 0 16.971 7.03h66.745a23.843 23.843 0 0 0 16.97-7.029l6.628-6.628a7.948 7.948 0 0 1 5.657-2.343h138.745z"/><path d="m488 16h-288a8 8 0 0 0 -8 8v200a8 8 0 0 0 8 8h104v-16h-86.81l83.4-99.094 38.332 31.46a8 8 0 0 0 10.15 0l38.332-31.46 30.472 36.2 12.242-10.3-30.344-36.049 80.226-65.842v175.085h-24v16h32a8 8 0 0 0 8-8v-200a8 8 0 0 0 -8-8zm-280 186.072v-161.157l80.224 65.84zm136-70.239-121.642-99.833h243.284z"/><path d="m139.311 280.717a8 8 0 0 0 -8.433 13.429c45.8 38.163 83.05 41.977 113.753 41.977 3.939 0 7.772-.063 11.5-.124 61.19-1 104.715-37.6 119.989-52.565l26.223 26.223a8 8 0 0 0 13.246-3.127l48-144a8 8 0 0 0 -9.73-10.238l-144 40a8 8 0 0 0 -3.516 13.365l25.607 25.607c-56.815 43.335-105.228 54.819-136.319 56.687-34.931 2.1-56.131-7.151-56.32-7.234zm210.346-54.374-22.305-22.3 116.305-32.308-39.157 117.455-22.847-22.847a8 8 0 0 0 -11.709.425c-.45.521-45.828 52.115-114.079 53.233-24.057.4-50.546.829-82.5-16.131a182.671 182.671 0 0 0 22.067.118c34.927-1.888 89.922-14.826 153.568-65.741a8 8 0 0 0 .659-11.9z"/><path d="m128 392h64v16h-64z"/><path d="m128 360h64v16h-64z"/><path d="m128 328h40v16h-40z"/><path d="m240 392h96v16h-96z"/><path d="m240 360h96v16h-96z"/><path d="m320 328h16v16h-16z"/><path d="m208 352h16v56h-16z"/><path d="m120 136v-16a56.064 56.064 0 0 0 -56 56h16a40.045 40.045 0 0 1 40-40z"/><path d="m128 248h64v16h-64z"/></g></svg>