<svg height="512" viewBox="0 0 512 512" width="512" xmlns="http://www.w3.org/2000/svg"><g id="Filled_outline" data-name="Filled outline"><path d="m112 312h288v128h-288z" fill="#e0e0de"/><rect fill="#e0e0de" height="200" rx="24" width="304" x="104" y="24"/><path d="m408 48v136h-304v-136a24.006 24.006 0 0 1 24-24h256a24.006 24.006 0 0 1 24 24z" fill="#348fd9"/><path d="m296 280h-80l5.71-40 2.29-16h64l2.29 16z" fill="#d9d9d7"/><path d="m290.29 240h-68.58l2.29-16h64z" fill="#cfcfcd"/><path d="m472 344a16 16 0 0 0 -16 16 16 16 0 0 0 -32 0 16 16 0 0 0 -32 0 16 16 0 0 0 -32 0v72l-19.232-25.643a15.893 15.893 0 0 0 -12.714-6.357h-.161a15.893 15.893 0 0 0 -12.92 25.148l45.027 62.852h128v-128a16 16 0 0 0 -16-16z" fill="#fec9a3"/><g fill="#feb784"><path d="m392 408a8 8 0 0 1 -8-8v-40a8 8 0 0 1 16 0v40a8 8 0 0 1 -8 8z"/><path d="m424 408a8 8 0 0 1 -8-8v-40a8 8 0 0 1 16 0v40a8 8 0 0 1 -8 8z"/><path d="m456 408a8 8 0 0 1 -8-8v-40a8 8 0 0 1 16 0v40a8 8 0 0 1 -8 8z"/></g><path d="m40 344a16 16 0 0 1 16 16 16 16 0 0 1 32 0 16 16 0 0 1 32 0 16 16 0 0 1 32 0v72l19.232-25.643a15.893 15.893 0 0 1 12.714-6.357h.161a15.893 15.893 0 0 1 12.92 25.148l-45.027 62.852h-128v-128a16 16 0 0 1 16-16z" fill="#fec9a3"/><path d="m120 408a8 8 0 0 0 8-8v-40a8 8 0 0 0 -16 0v40a8 8 0 0 0 8 8z" fill="#feb784"/><path d="m88 408a8 8 0 0 0 8-8v-40a8 8 0 0 0 -16 0v40a8 8 0 0 0 8 8z" fill="#feb784"/><path d="m56 408a8 8 0 0 0 8-8v-40a8 8 0 0 0 -16 0v40a8 8 0 0 0 8 8z" fill="#feb784"/><path d="m224 400h64v16h-64z"/><path d="m168 336h16v16h-16z"/><path d="m200 336h16v16h-16z"/><path d="m232 336h16v16h-16z"/><path d="m264 336h16v16h-16z"/><path d="m296 336h16v16h-16z"/><path d="m328 336h16v16h-16z"/><path d="m168 368h16v16h-16z"/><path d="m200 368h16v16h-16z"/><path d="m232 368h16v16h-16z"/><path d="m264 368h16v16h-16z"/><path d="m296 368h16v16h-16z"/><path d="m328 368h16v16h-16z"/><path d="m496 432v-72a23.988 23.988 0 0 0 -40-17.874 23.958 23.958 0 0 0 -32 0 23.9 23.9 0 0 0 -16-6.126v-8h24a32 32 0 0 0 0-64h-64a16 16 0 0 1 0-32h16a32.036 32.036 0 0 0 32-32v-152a32.036 32.036 0 0 0 -32-32h-256a32.036 32.036 0 0 0 -32 32v16h16v-16a16.019 16.019 0 0 1 16-16h256a16.019 16.019 0 0 1 16 16v128h-288v-96h-16v120a32.036 32.036 0 0 0 32 32h86.776l-5.714 40h-17.062v16h128v-16h-17.062l-5.714-40h43.081a31.976 31.976 0 0 0 27.695 48h64a16 16 0 0 1 0 32h-24a8 8 0 0 0 -8-8h-288a8 8 0 0 0 -8 8v8h288v22.126a23.9 23.9 0 0 0 -16-6.126h-16v6.131a23.943 23.943 0 0 0 -8 17.869v48l-4.832-6.442a24.006 24.006 0 0 0 -19.114-9.558h-.161a23.893 23.893 0 0 0 -19.423 37.808l45.03 62.851a8 8 0 0 0 6.5 3.341h128a8 8 0 0 0 8-8v-40h-16v32h-115.89l-42.633-59.511a7.892 7.892 0 0 1 6.416-12.489h.161a7.933 7.933 0 0 1 6.314 3.157l19.232 25.643a8 8 0 0 0 14.4-4.8v-72a8 8 0 0 1 16 0v40a8 8 0 0 0 16 0v-40a8 8 0 0 1 16 0v40a8 8 0 0 0 16 0v-40a8 8 0 0 1 16 0v40a8 8 0 0 0 16 0v-40a8 8 0 0 1 16 0v72zm-384-232v-8h288v8a16.019 16.019 0 0 1 -16 16h-256a16.019 16.019 0 0 1 -16-16zm174.776 72h-61.552l5.714-40h50.124z"/><path d="m203.53 429.808a23.893 23.893 0 0 0 -19.423-37.808h-.161a24.006 24.006 0 0 0 -19.114 9.558l-4.832 6.442v-48a23.943 23.943 0 0 0 -8-17.869v-6.131h-16a23.9 23.9 0 0 0 -16 6.126 23.958 23.958 0 0 0 -32 0 23.958 23.958 0 0 0 -32 0 23.988 23.988 0 0 0 -40 17.874v24h16v-24a8 8 0 0 1 16 0v40a8 8 0 0 0 16 0v-40a8 8 0 0 1 16 0v40a8 8 0 0 0 16 0v-40a8 8 0 0 1 16 0v40a8 8 0 0 0 16 0v-40a8 8 0 0 1 16 0v72a8 8 0 0 0 14.4 4.8l19.232-25.643a7.933 7.933 0 0 1 6.314-3.157h.161a7.892 7.892 0 0 1 6.416 12.489l-42.633 59.511h-115.89v-80h-16v88a8 8 0 0 0 8 8h128a8 8 0 0 0 6.5-3.341l32-44.659h105.5v-16h-94.04z"/><path d="m128 48h16v16h-16z"/><path d="m128 80h16v48h-16z"/><path d="m384 152v-24h-16v16h-16v16h24a8 8 0 0 0 8-8z"/><path d="m168 96h16v40h-16z"/><path d="m200 96h16v40h-16z"/><path d="m232 96h16v40h-16z"/><path d="m264 96h16v40h-16z"/><path d="m300 120h40v16h-40z"/></g></svg>