<svg enable-background="new 0 0 256 256" height="512" viewBox="0 0 256 256" width="512" xmlns="http://www.w3.org/2000/svg"><g id="Layer_1"><g><path d="m214.376 122.179-12.626-7.29c2.77-11.641 2.77-23.57 0-35.214l12.626-7.29c2.247-1.297 3.016-4.17 1.719-6.417l-16.928-29.32c-1.297-2.247-4.17-3.017-6.417-1.719l-12.642 7.299c-8.529-8.075-18.924-14.189-30.481-17.623v-14.573c0-2.594-2.103-4.697-4.697-4.697h-33.856c-2.594 0-4.697 2.103-4.697 4.697v14.573c-11.557 3.434-21.953 9.548-30.481 17.623l-12.641-7.299c-2.247-1.297-5.12-.527-6.417 1.719l-16.928 29.32c-1.297 2.247-.527 5.12 1.719 6.417l12.626 7.29c-2.769 11.64-2.77 23.57 0 35.214l-12.626 7.29c-2.247 1.297-3.017 4.17-1.719 6.417l16.928 29.32c1.297 2.247 4.17 3.017 6.417 1.719l12.641-7.299c8.529 8.075 18.924 14.189 30.481 17.623v14.573c0 2.594 2.103 4.697 4.697 4.697h33.856c2.594 0 4.697-2.103 4.697-4.697v-14.573c11.557-3.434 21.953-9.548 30.482-17.623l12.641 7.299c2.247 1.297 5.119.527 6.417-1.719l16.928-29.32c1.297-2.247.528-5.12-1.719-6.417z" fill="#72c2e9"/><circle cx="128.002" cy="97.282" fill="#efefef" r="55.012"/><g fill="#f0c020"><path d="m159.422 74.168v22.44c0 11.75-5.09 22.84-13.84 30.48-2.129 1.87-2.108 1.766-17.58 12.64-15.434-10.848-15.451-10.769-17.58-12.64-8.75-7.64-13.84-18.73-13.84-30.48v-22.44c0-3.58 2.9-6.48 6.48-6.48h49.88c3.58 0 6.48 2.9 6.48 6.48z"/><path d="m241.186 99.748c-3.961-1.309-8.051-2.453-10.348-12.345-2.115 9.112-5.504 10.745-10.348 12.345 7.9 2.61 9.092 6.933 10.348 12.345 2.165-9.33 5.746-10.824 10.348-12.345z"/><path d="m241.186 99.748c-3.961-1.309-8.051-2.453-10.348-12.345-2.115 9.112-5.504 10.745-10.348 12.345 7.9 2.61 9.092 6.933 10.348 12.345 2.165-9.33 5.746-10.824 10.348-12.345z"/><path d="m35.514 99.748c-3.961-1.309-8.051-2.453-10.348-12.345-2.115 9.112-5.504 10.745-10.348 12.345 7.9 2.61 9.092 6.933 10.348 12.345 2.165-9.33 5.746-10.824 10.348-12.345z"/><path d="m35.514 99.748c-3.961-1.309-8.051-2.453-10.348-12.345-2.115 9.112-5.504 10.745-10.348 12.345 7.9 2.61 9.092 6.933 10.348 12.345 2.165-9.33 5.746-10.824 10.348-12.345z"/></g><path d="m249.837 144.38-.325 41.585c0 2.7-1.074 5.282-2.988 7.196l-47.194 47.202c-1.693 1.693-2.644 3.989-2.644 6.384v3.916h-45.486v-27.753h.018c-.325-9.579 3.322-18.906 10.139-25.722 21.611-21.59 16.512-16.494 24.846-24.828 3.332-3.331 8.785-3.313 12.089.136 3.243 3.386 2.95 8.723-.262 11.936l-11.755 11.746c-3.657 3.675-3.629 9.642.117 13.263 3.611 3.503 9.697 3.232 13.254-.325l28.963-28.972c1.499-1.499 2.338-3.512 2.338-5.625l.325-30.137c0-5.137 4.162-9.29 9.29-9.29 5.122-.003 9.275 4.15 9.275 9.288z" fill="#ffb69f"/><path d="m104.804 222.909v27.753h-45.486v-3.916c0-2.394-.951-4.69-2.644-6.384l-47.193-47.201c-1.914-1.914-2.988-4.496-2.988-7.196l-.326-41.585c0-5.137 4.153-9.29 9.272-9.29 5.128 0 9.29 4.153 9.29 9.29l.325 30.137c0 2.113.84 4.126 2.338 5.625l28.963 28.972c3.557 3.557 9.642 3.828 13.254.325 3.747-3.62 3.774-9.588.117-13.263l-11.753-11.746c-3.217-3.217-3.5-8.554-.262-11.936 3.304-3.449 8.758-3.467 12.089-.136 8.333 8.333 3.234 3.237 24.846 24.828 6.817 6.817 10.464 16.143 10.139 25.722h.019z" fill="#ffb69f"/><circle cx="128.002" cy="88.835" fill="#ffb69f" r="10.917"/><path d="m145.583 117.328v9.76c-2.129 1.87-2.108 1.766-17.58 12.64-15.434-10.848-15.451-10.769-17.58-12.64v-9.76c0-9.71 7.87-17.58 17.58-17.58 9.754 0 17.58 7.921 17.58 17.58z" fill="#fc5d3d"/><path d="m128.003 164.763c-13.358 0-26.26-3.875-37.311-11.207-1.15-.763-1.465-2.314-.701-3.465s2.315-1.465 3.465-.701c10.229 6.786 22.175 10.373 34.547 10.373 34.587 0 62.48-27.886 62.48-62.481 0-16.717-6.491-32.415-18.278-44.203-.977-.976-.977-2.559 0-3.535.977-.977 2.559-.977 3.535 0 12.731 12.732 19.743 29.686 19.743 47.738.001 37.349-30.12 67.481-67.48 67.481zm-45.49-17.592c-.756-.691-1.513-1.414-2.249-2.149-.977-.976-.977-2.559-.001-3.536.977-.978 2.56-.977 3.536-.001.683.683 1.385 1.354 2.087 1.995 1.02.931 1.091 2.513.159 3.532-.931 1.018-2.512 1.09-3.532.159z" fill="#c5e5fe"/><path d="m242.02 97.223c-3.729-1.228-6.641-2.022-8.591-10.421-.635-2.737-4.548-2.73-5.181 0-1.907 8.213-4.566 9.092-8.591 10.422-2.424.801-2.429 4.248 0 5.051 6.686 2.209 7.444 5.476 8.591 10.421.637 2.743 4.545 2.742 5.182 0 1.905-8.212 4.709-9.139 8.591-10.421 2.423-.802 2.429-4.25-.001-5.052zm-11.129 6.989c-.942-1.587-2.25-3.089-4.164-4.403 1.549-1.062 2.934-2.504 4.121-4.638 1.2 2.161 2.566 3.591 3.978 4.601-1.472 1.035-2.794 2.423-3.935 4.44z"/><path d="m22.576 112.695c.637 2.743 4.545 2.742 5.182 0 1.905-8.212 4.709-9.139 8.591-10.421 2.424-.801 2.43-4.249 0-5.051-3.729-1.228-6.641-2.022-8.591-10.421-.635-2.737-4.548-2.73-5.181 0-1.907 8.213-4.566 9.092-8.591 10.422-2.424.801-2.43 4.248 0 5.051 6.685 2.207 7.443 5.474 8.59 10.42zm2.6-17.524c1.2 2.161 2.566 3.591 3.977 4.601-1.472 1.035-2.794 2.423-3.934 4.439-.942-1.587-2.25-3.089-4.164-4.403 1.549-1.061 2.935-2.503 4.121-4.637z"/><path d="m110.841 130.669c1.66 1.255 4.592 3.29 15.724 11.104.819.575 1.995.619 2.875 0 11.548-8.107 13.614-9.53 15.353-10.826 9.713-7.202 16.44-19.008 17.08-32.289.06-1.356-.98-2.547-2.38-2.61-.04 0-.08 0-.12 0-1.34 0-2.431 1.04-2.49 2.38-.395 8.273-3.544 16.218-8.8 22.53v-3.63c0-8.018-4.735-14.933-11.545-18.149 2.98-2.463 4.882-6.185 4.882-10.344 0-7.398-6.019-13.417-13.417-13.417s-13.417 6.019-13.417 13.417c0 4.159 1.902 7.881 4.882 10.344-6.81 3.216-11.545 10.131-11.545 18.149v3.637c-5.672-6.781-8.84-15.384-8.84-24.357v-22.44c0-2.19 1.79-3.98 3.979-3.98h49.88c2.19 0 3.98 1.79 3.98 3.98v4.38c0 1.38 1.12 2.5 2.5 2.5s2.5-1.12 2.5-2.5v-4.38c0-4.95-4.03-8.98-8.98-8.98h-49.88c-4.95 0-8.979 4.03-8.979 8.98v22.44c0 13.799 6.675 26.442 16.758 34.061zm17.161-50.251c4.642 0 8.417 3.775 8.417 8.417 0 4.63-3.757 8.396-8.383 8.415-.011 0-.022-.002-.034-.002s-.022.002-.034.002c-4.626-.018-8.383-3.785-8.383-8.415 0-4.641 3.776-8.417 8.417-8.417zm-15.08 36.91c0-8.304 6.747-15.06 15.046-15.078.011 0 .022.002.034.002s.022-.002.034-.002c8.3.019 15.046 6.774 15.046 15.078v8.614c-1.129.939-2.182 1.698-15.08 10.726-10.396-7.317-13.407-9.337-15.08-10.727z"/><circle cx="159.422" cy="88.548" r="2.5"/><path d="m201.333 35.398c-1.988-3.448-6.394-4.623-9.84-2.63l-11.04 6.37c-8.261-7.46-17.79-12.97-28.33-16.38v-12.73c0-3.96-3.23-7.19-7.19-7.19h-33.86c-3.96 0-7.189 3.23-7.199 7.19v12.73c-10.53 3.41-20.061 8.92-28.32 16.38l-11.05-6.38c-3.418-1.976-7.842-.808-9.83 2.64l-4.64 8.03c-.675 1.187-.309 2.699.92 3.42 1.149.66 2.75.23 3.409-.92l4.641-8.03c.605-1.056 1.957-1.414 3-.8l12.64 7.29c.94.55 2.18.4 2.97-.35 8.341-7.89 18.53-13.78 29.48-17.04 1.07-.31 1.78-1.28 1.78-2.39v-14.58c.01-1.21.989-2.19 2.199-2.19h33.86c1.21 0 2.19.98 2.2 2.19v14.58c0 1.11.71 2.07 1.78 2.39 10.949 3.26 21.14 9.15 29.479 17.04.78.75 2.021.9 2.97.35l12.641-7.29c.997-.604 2.38-.281 3 .8l16.93 29.32c.607 1.085.227 2.414-.81 3l-12.62 7.29c-.95.55-1.44 1.68-1.19 2.74 2.579 10.8 2.777 22.452 0 34.06-.25 1.07.24 2.2 1.19 2.75l12.62 7.29c1.076.608 1.397 1.949.81 3l-16.93 29.32c-.599 1.018-1.926 1.433-3 .8l-12.641-7.3c-.939-.54-2.189-.39-2.97.35-8.35 7.9-18.54 13.79-29.479 17.04-1.07.32-1.78 1.28-1.78 2.4v14.57c-.01 1.21-.99 2.2-2.2 2.2h-33.86c-1.21 0-2.189-.99-2.199-2.2v-14.57c0-1.12-.71-2.08-1.78-2.4-10.94-3.25-21.14-9.14-29.48-17.04-.779-.74-2.029-.89-2.97-.35l-12.64 7.3c-1.082.638-2.423.207-3-.8l-16.931-29.32c-.6-1.026-.271-2.389.811-3l12.62-7.29c.95-.55 1.439-1.68 1.18-2.75-2.644-11.132-2.712-22.632 0-34.05.26-1.07-.229-2.2-1.18-2.75l-12.62-7.29c-1.053-.594-1.406-1.93-.811-3l2.29-3.97c.69-1.19.28-2.72-.909-3.41-1.16-.67-2.74-.24-3.41.9 0 .01 0 .01-.01.01l-2.29 3.97c-1.962 3.391-.841 7.833 2.64 9.83l11.03 6.37c-2.257 10.575-2.355 21.694 0 32.73l-11.03 6.37c-3.463 1.987-4.615 6.415-2.64 9.83l16.93 29.32c1.979 3.432 6.369 4.611 9.83 2.63l11.05-6.38c8.26 7.46 17.79 12.97 28.32 16.38v12.73c.01 3.97 3.239 7.2 7.199 7.2h33.86c3.96 0 7.19-3.23 7.19-7.2v-12.73c10.54-3.41 20.069-8.92 28.33-16.38l11.05 6.38c3.401 1.966 7.821.826 9.83-2.63l16.93-29.32c2.004-3.5.752-7.883-2.64-9.83l-11.03-6.37c2.305-10.817 2.306-21.908 0-32.73l11.03-6.37c3.474-1.994 4.604-6.43 2.64-9.83z"/><path d="m49.362 54.588c.677-1.152.311-2.716-.909-3.41-1.16-.67-2.761-.24-3.42.91-.69 1.19-.28 2.73.92 3.42 1.168.677 2.722.284 3.409-.92z"/><path d="m128.002 154.794c31.712 0 57.512-25.8 57.512-57.512s-25.8-57.512-57.512-57.512-57.512 25.8-57.512 57.512c.001 31.712 25.801 57.512 57.512 57.512zm0-110.024c28.955 0 52.512 23.557 52.512 52.512 0 28.956-23.557 52.512-52.512 52.512s-52.512-23.557-52.512-52.512c.001-28.955 23.557-52.512 52.512-52.512z"/><path d="m156.482 203.148c1.118.83 2.681.573 3.49-.53.01 0 .01-.01.01-.01.811-1.11.57-2.67-.54-3.49-1.06-.79-2.699-.54-3.489.52v.01c-.807 1.088-.607 2.659.529 3.5z"/><path d="m148.703 250.658c0 1.38 1.119 2.5 2.5 2.5 1.38 0 2.5-1.12 2.5-2.5 0-40.564-.011-21.422-.011-28.93 0-3.75.65-7.43 1.92-10.96.471-1.29-.199-2.73-1.5-3.2-1.27-.46-2.75.24-3.199 1.5-1.471 4.07-2.21 8.33-2.21 12.66z"/><path d="m252.012 185.968.32-41.57c0-6.51-5.28-11.81-11.771-11.81-6.479 0-11.77 5.28-11.79 11.76l-.319 30.14v.03c-.011 1.45-.58 2.82-1.61 3.86l-28.96 28.97c-2.598 2.597-7.135 2.839-9.75.29-2.75-2.647-2.75-7.029-.08-9.7l11.75-11.74c4.237-4.277 4.416-11.145.3-15.43-4.182-4.367-11.266-4.583-15.67-.18-21.855 21.859-10.362 10.352-21.46 21.45-.956.956-.99 2.528 0 3.54.94.94 2.59.94 3.54 0 14.279-14.267 9.684-9.675 21.46-21.45 2.344-2.344 6.175-2.347 8.521.1 2.288 2.397 2.026 6.165-.23 8.44l-11.75 11.74c-4.796 4.82-4.453 12.398.14 16.83 4.627 4.474 12.259 4.14 16.761-.36l28.97-28.97c1.97-1.97 3.06-4.58 3.07-7.36 0 0 0 0 0-.01l.319-30.13v-.03c.011-3.74 3.05-6.78 6.79-6.79 3.73.01 6.771 3.05 6.771 6.79l-.32 41.57c0 2.05-.8 3.99-2.26 5.44l-47.19 47.21c-2.18 2.18-3.38 5.07-3.38 8.15v3.91c0 1.38 1.13 2.5 2.51 2.5 1.37 0 2.49-1.12 2.49-2.5v-3.91c0-1.75.68-3.39 1.92-4.62l47.19-47.2c2.398-2.4 3.718-5.58 3.718-8.96z"/><path d="m3.667 144.399.325 41.565c0 3.381 1.321 6.564 3.721 8.963l47.193 47.203c1.232 1.232 1.911 2.871 1.911 4.615v3.916c0 1.381 1.119 2.5 2.5 2.5s2.5-1.119 2.5-2.5v-3.916c0-3.08-1.199-5.975-3.376-8.151l-47.193-47.202c-1.455-1.455-2.256-3.383-2.256-5.448l-.325-41.564c0-3.744 3.038-6.791 6.772-6.791 3.744 0 6.79 3.046 6.79 6.817l.325 30.11c0 2.787 1.09 5.412 3.07 7.392l28.964 28.973c4.571 4.571 12.246 4.733 16.759.355 4.743-4.583 4.81-12.141.147-16.829l-11.755-11.745c-2.339-2.339-2.439-6.125-.224-8.438 2.354-2.459 6.196-2.415 8.516-.098l24.847 24.829c10.5 10.501 9.299 23.236 9.425 24.251v27.456c0 1.381 1.119 2.5 2.5 2.5s2.5-1.119 2.5-2.5v-27.752c0-11.43-3.959-20.559-10.891-27.491l-24.846-24.828c-4.342-4.34-11.395-4.28-15.662.175-4.082 4.262-3.947 11.185.3 15.433l11.75 11.741c2.674 2.687 2.667 7.047-.086 9.705-2.555 2.48-7.108 2.338-9.745-.298l-28.964-28.973c-1.035-1.036-1.605-2.406-1.605-3.884l-.325-30.11c0-6.501-5.289-11.791-11.79-11.791-6.49 0-11.772 5.289-11.772 11.81z"/></g></g></svg>