<svg width="368" height="287" viewBox="0 0 368 287" fill="none" xmlns="http://www.w3.org/2000/svg">
<path d="M320 107L367 212L287 130L44.5 82.5L2 1L320 107Z" fill="white"/>
<path d="M287 138.5L71 98.5L109 152L310 162L287 138.5Z" fill="white"/>
<path d="M197.5 194.5L171.5 167L318 171L331.5 187L197.5 194.5Z" fill="white"/>
<path d="M320 107L367 212L287 130L44.5 82.5L2 1L320 107Z" stroke="white"/>
<path d="M287 138.5L71 98.5L109 152L310 162L287 138.5Z" stroke="white"/>
<path d="M197.5 194.5L171.5 167L318 171L331.5 187L197.5 194.5Z" stroke="white"/>
<path d="M40.5 249.719H28.9688L28.9062 244.875H39.375C41.1042 244.875 42.6146 244.583 43.9062 244C45.1979 243.417 46.1979 242.583 46.9062 241.5C47.6354 240.396 48 239.083 48 237.562C48 235.896 47.6771 234.542 47.0312 233.5C46.4062 232.438 45.4375 231.667 44.125 231.188C42.8333 230.688 41.1875 230.438 39.1875 230.438H30.3125V271H24.2812V225.5H39.1875C41.5208 225.5 43.6042 225.74 45.4375 226.219C47.2708 226.677 48.8229 227.406 50.0938 228.406C51.3854 229.385 52.3646 230.635 53.0312 232.156C53.6979 233.677 54.0312 235.5 54.0312 237.625C54.0312 239.5 53.5521 241.198 52.5938 242.719C51.6354 244.219 50.3021 245.448 48.5938 246.406C46.9062 247.365 44.9271 247.979 42.6562 248.25L40.5 249.719ZM40.2188 271H26.5938L30 266.094H40.2188C42.1354 266.094 43.7604 265.76 45.0938 265.094C46.4479 264.427 47.4792 263.49 48.1875 262.281C48.8958 261.052 49.25 259.604 49.25 257.938C49.25 256.25 48.9479 254.792 48.3438 253.562C47.7396 252.333 46.7917 251.385 45.5 250.719C44.2083 250.052 42.5417 249.719 40.5 249.719H31.9062L31.9688 244.875H43.7188L45 246.625C47.1875 246.812 49.0417 247.438 50.5625 248.5C52.0833 249.542 53.2396 250.875 54.0312 252.5C54.8438 254.125 55.25 255.917 55.25 257.875C55.25 260.708 54.625 263.104 53.375 265.062C52.1458 267 50.4062 268.479 48.1562 269.5C45.9062 270.5 43.2604 271 40.2188 271ZM94.3425 266.094V271H70.2487V266.094H94.3425ZM71.4675 225.5V271H65.4362V225.5H71.4675ZM91.155 245.062V249.969H70.2487V245.062H91.155ZM94.03 225.5V230.438H70.2487V225.5H94.03ZM120.529 225.5V271H114.591V225.5H120.529ZM135.154 225.5V230.438H99.9975V225.5H135.154ZM160.496 225.5V271H154.559V225.5H160.496ZM175.121 225.5V230.438H139.965V225.5H175.121ZM212.057 266.094V271H187.964V266.094H212.057ZM189.182 225.5V271H183.151V225.5H189.182ZM208.87 245.062V249.969H187.964V245.062H208.87ZM211.745 225.5V230.438H187.964V225.5H211.745ZM220.806 225.5H235.869C239.285 225.5 242.171 226.021 244.525 227.062C246.9 228.104 248.702 229.646 249.931 231.688C251.181 233.708 251.806 236.198 251.806 239.156C251.806 241.24 251.379 243.146 250.525 244.875C249.692 246.583 248.483 248.042 246.9 249.25C245.337 250.438 243.462 251.323 241.275 251.906L239.587 252.562H225.431L225.369 247.656H236.056C238.223 247.656 240.025 247.281 241.462 246.531C242.9 245.76 243.983 244.729 244.712 243.438C245.442 242.146 245.806 240.719 245.806 239.156C245.806 237.406 245.462 235.875 244.775 234.562C244.087 233.25 243.004 232.24 241.525 231.531C240.067 230.802 238.181 230.438 235.869 230.438H226.837V271H220.806V225.5ZM247.4 271L236.337 250.375L242.619 250.344L253.837 270.625V271H247.4ZM267.992 225.5V271H261.961V225.5H267.992ZM310.773 266.094V271H279.96V266.094H310.773ZM309.773 229.875L281.398 271H277.679V266.5L306.023 225.5H309.773V229.875ZM307.21 225.5V230.438H278.085V225.5H307.21ZM348.802 266.094V271H324.709V266.094H348.802ZM325.927 225.5V271H319.896V225.5H325.927ZM345.615 245.062V249.969H324.709V245.062H345.615ZM348.49 225.5V230.438H324.709V225.5H348.49Z" fill="white"/>
</svg>
