<svg width="368" height="213" viewBox="0 0 368 213" fill="none" xmlns="http://www.w3.org/2000/svg">
<path d="M320 107L367 212L287 130L44.5 82.5L2 1L320 107Z" fill="white"/>
<path d="M287 138.5L71 98.5L109 152L310 162L287 138.5Z" fill="white"/>
<path d="M197.5 194.5L171.5 167L318 171L331.5 187L197.5 194.5Z" fill="white"/>
<path d="M320 107L367 212L287 130L44.5 82.5L2 1L320 107Z" stroke="white"/>
<path d="M287 138.5L71 98.5L109 152L310 162L287 138.5Z" stroke="white"/>
<path d="M197.5 194.5L171.5 167L318 171L331.5 187L197.5 194.5Z" stroke="white"/>
</svg>
