<svg version="1.1" id="Capa_1" xmlns="http://www.w3.org/2000/svg" xmlns:xlink="http://www.w3.org/1999/xlink" x="0px" y="0px" viewBox="0 0 512 512" style="enable-background:new 0 0 512 512;" xml:space="preserve">
<g>
	<g>
		<g>
			<polygon style="fill:#756E78;" points="501.6,369.594 501.6,404.594 10.4,404.594 10.4,369.594 288.891,351.824 &#9;&#9;&#9;"/>
			<rect x="10.4" y="107.554" style="fill:#B2E5FB;" width="491.2" height="262.04"/>
			<path style="fill:#655F66;" d="M501.6,369.594v35h-36.5c4.91-5.72,8.78-12.85,8.78-21.44v-13.56l13.223-8.735L501.6,369.594z"/>
			<path style="fill:#90D8F9;" d="M501.6,107.554v262.04h-27.72v-233.54c0-14.31-4.89-22.28-9.91-28.5H501.6z"/>
			<path style="fill:#CEE0EA;" d="M355.329,459.83L326,463.555l0,0c-37.926-40.393-102.074-40.393-140,0l0,0l-29.626-3.169&#10;&#9;&#9;&#9;&#9;l29.888-55.791h139.477L355.329,459.83z"/>
			<path style="fill:#E6EDF4;" d="M389.002,493.594l-20.872,2h-1l0,0l-246.132-0.004c-2.761,0-5-2.433-5-5.435v-26.126&#10;&#9;&#9;&#9;&#9;c0-3.002,2.239-5.435,5-5.435h252.408l15.596,2c2.761,0,5,2.433,5,5.435v22.13C394.002,491.161,391.763,493.594,389.002,493.594z&#10;&#9;&#9;&#9;&#9;"/>
			<path style="fill:#CEE0EA;" d="M396.002,464.029v26.13c0,3-2.24,5.435-5,5.435H367.13c5.807,0,6.275-5.61,6.275-8.197v-28.803&#10;&#9;&#9;&#9;&#9;h17.596C393.762,458.594,396.002,461.029,396.002,464.029z"/>
		</g>
		<path style="fill:#66C6A6;" d="M252.319,292.966l-15.509-5.257l-27.069-17.317c-40.264-25.761-64.623-70.265-64.623-118.065&#10;&#9;&#9;&#9;V60.429c0-2.427,1.755-4.499,4.149-4.898l15.638-2.606c27.229-4.538,53.33-14.275,76.879-28.68l11.626-7.112&#10;&#9;&#9;&#9;c1.59-0.973,3.592-0.973,5.182,0l11.626,7.112c23.548,14.405,49.624,24.136,76.853,28.674l13.349,4.653&#10;&#9;&#9;&#9;c2.394,0.399,4.149,2.471,4.149,4.898l-2.686,88.372c0,47.678-21.506,90.159-61.605,115.953l-42.596,26.165&#10;&#9;&#9;&#9;C256.049,294.009,253.954,294.012,252.319,292.966z"/>
		<path style="fill:#50B29F;" d="M366.88,60.429v92.12c0,47.68-24.23,92.09-64.33,117.88l-43.57,28.03c-1.63,1.05-3.73,1.05-5.36,0&#10;&#9;&#9;&#9;l-25.04-16.018l53.721-33.434c34.53-22.22,57.882-62.177,57.882-103.247l-0.941-94.835c-3.187-2.294,23.488,4.604,23.488,4.604&#10;&#9;&#9;&#9;C365.13,55.929,366.88,57.999,366.88,60.429z"/>
		<path style="fill:#50B29F;" d="M227.526,242.594c-30.784-19.696-49.408-53.722-49.408-90.268v-65.02&#10;&#9;&#9;&#9;c0-1.895,1.334-3.516,3.187-3.91c25.612-5.449,49.993-14.844,72.688-28.015c1.244-0.722,2.771-0.722,4.014,0&#10;&#9;&#9;&#9;c22.694,13.171,47.077,22.566,72.688,28.015c1.854,0.394,3.187,2.015,3.187,3.91v65.243c0,36.622-18.388,70.314-49.188,90.126&#10;&#9;&#9;&#9;l-26.286,16.909c-1.315,0.846-3.003,0.848-4.32,0.005L227.526,242.594z"/>
		<circle style="fill:#F5F8F9;" cx="63.388" cy="237.924" r="19.357"/>
		<circle style="fill:#F5F8F9;" cx="93.388" cy="311.748" r="19.357"/>
		<circle style="fill:#F5F8F9;" cx="448.612" cy="237.924" r="19.357"/>
		<circle style="fill:#F5F8F9;" cx="418.612" cy="311.748" r="19.357"/>
	</g>
	<g>
		<path style="fill:none;stroke:#000000;stroke-width:15;stroke-linecap:round;stroke-linejoin:round;stroke-miterlimit:10;" d="&#10;&#9;&#9;&#9;M194.365,260.972l-44.918,44.918c-3.751,3.751-8.838,5.858-14.142,5.858h-20.602"/>
		<path style="fill:none;stroke:#000000;stroke-width:15;stroke-linecap:round;stroke-linejoin:round;stroke-miterlimit:10;" d="&#10;&#9;&#9;&#9;M153.096,202.754l-29.312,29.312c-3.751,3.751-8.838,5.858-14.142,5.858H83.553"/>
		<path style="fill:none;stroke:#000000;stroke-width:15;stroke-linecap:round;stroke-linejoin:round;stroke-miterlimit:10;" d="&#10;&#9;&#9;&#9;M317.635,260.972l44.918,44.918c3.751,3.751,8.838,5.858,14.142,5.858h20.134"/>
		<path style="fill:none;stroke:#000000;stroke-width:15;stroke-linecap:round;stroke-linejoin:round;stroke-miterlimit:10;" d="&#10;&#9;&#9;&#9;M358.904,202.754l29.312,29.312c3.751,3.751,8.838,5.858,14.142,5.858h24.854"/>
		<path style="fill:none;stroke:#000000;stroke-width:15;stroke-linecap:round;stroke-linejoin:round;stroke-miterlimit:10;" d="&#10;&#9;&#9;&#9;M312.84,495.599h75.84c2.76,0,5-2.24,5-5v-24.04c0-2.76-2.24-5-5-5H121.01c-2.77,0-5,2.24-5,5v24.04c0,2.76,2.23,5,5,5h156.83"/>
		<path style="fill:none;stroke:#000000;stroke-width:15;stroke-linecap:round;stroke-linejoin:round;stroke-miterlimit:10;" d="&#10;&#9;&#9;&#9;M367.64,105.559H494.5c5.52,0,10,4.48,10,10v280c0,5.52-4.48,10-10,10H326H186H17.5c-5.52,0-10-4.48-10-10v-280&#10;&#9;&#9;&#9;c0-5.52,4.48-10,10-10h31.05"/>
		
			<line style="fill:none;stroke:#000000;stroke-width:15;stroke-linecap:round;stroke-linejoin:round;stroke-miterlimit:10;" x1="141.51" y1="105.559" x2="83.55" y2="105.559"/>
		
			<line style="fill:none;stroke:#000000;stroke-width:15;stroke-linecap:round;stroke-linejoin:round;stroke-miterlimit:10;" x1="355.329" y1="460.301" x2="326.813" y2="407.072"/>
		<path style="fill:none;stroke:#000000;stroke-width:15;stroke-linecap:round;stroke-linejoin:round;stroke-miterlimit:10;" d="&#10;&#9;&#9;&#9;M186.378,461.154c18.92-19.933,44.271-29.889,69.622-29.889c25.268,0,50.536,9.892,69.436,29.695"/>
		
			<line style="fill:none;stroke:#000000;stroke-width:15;stroke-linecap:round;stroke-linejoin:round;stroke-miterlimit:10;" x1="185.187" y1="407.072" x2="156.374" y2="460.857"/>
		
			<line style="fill:none;stroke:#000000;stroke-width:15;stroke-linecap:round;stroke-linejoin:round;stroke-miterlimit:10;" x1="502.28" y1="369.599" x2="159.26" y2="369.599"/>
		
			<line style="fill:none;stroke:#000000;stroke-width:15;stroke-linecap:round;stroke-linejoin:round;stroke-miterlimit:10;" x1="124.26" y1="369.599" x2="9.68" y2="369.599"/>
		<path style="fill:none;stroke:#000000;stroke-width:15;stroke-linecap:round;stroke-linejoin:round;stroke-miterlimit:10;" d="&#10;&#9;&#9;&#9;M366.88,135.689v-75.26c0-2.43-1.75-4.5-4.15-4.9l-15.63-2.6c-27.23-4.54-53.33-14.28-76.88-28.68l-11.63-7.12&#10;&#9;&#9;&#9;c-1.59-0.97-3.59-0.97-5.18,0l-11.63,7.12c-23.55,14.4-49.65,24.14-76.88,28.68l-15.63,2.6c-2.4,0.4-4.15,2.47-4.15,4.9v91.9&#10;&#9;&#9;&#9;c0,47.8,24.36,92.3,64.62,118.06l43.88,28.07c1.63,1.05,3.73,1.05,5.36,0l43.57-28.03c34.96-22.48,57.86-59.12,63.15-99.74"/>
		
			<polyline style="fill:none;stroke:#000000;stroke-width:15;stroke-linecap:round;stroke-linejoin:round;stroke-miterlimit:10;" points="&#10;&#9;&#9;&#9;222.661,155.681 250.255,186.753 295.339,128.895 &#9;&#9;"/>
		<path style="fill:none;stroke:#000000;stroke-width:15;stroke-linecap:round;stroke-linejoin:round;stroke-miterlimit:10;" d="&#10;&#9;&#9;&#9;M227.526,242.594c-30.938-19.794-49.408-53.539-49.408-90.268V84.052c27.537-5.485,53.685-15.505,77.882-29.849&#10;&#9;&#9;&#9;c24.197,14.344,50.346,24.363,77.882,29.849v68.497c0,36.622-18.388,70.314-49.188,90.126l-28.444,18.297L227.526,242.594z"/>
		
			<circle style="fill:none;stroke:#000000;stroke-width:15;stroke-linecap:round;stroke-linejoin:round;stroke-miterlimit:10;" cx="63.388" cy="237.924" r="19.357"/>
		
			<circle style="fill:none;stroke:#000000;stroke-width:15;stroke-linecap:round;stroke-linejoin:round;stroke-miterlimit:10;" cx="93.388" cy="311.748" r="19.357"/>
		
			<circle style="fill:none;stroke:#000000;stroke-width:15;stroke-linecap:round;stroke-linejoin:round;stroke-miterlimit:10;" cx="448.612" cy="237.924" r="19.357"/>
		
			<circle style="fill:none;stroke:#000000;stroke-width:15;stroke-linecap:round;stroke-linejoin:round;stroke-miterlimit:10;" cx="418.612" cy="311.748" r="19.357"/>
	</g>
</g>
<g>
</g>
<g>
</g>
<g>
</g>
<g>
</g>
<g>
</g>
<g>
</g>
<g>
</g>
<g>
</g>
<g>
</g>
<g>
</g>
<g>
</g>
<g>
</g>
<g>
</g>
<g>
</g>
<g>
</g>
</svg>